<?xml version="1.0" encoding="UTF-8"?><svg id="Layer_2" xmlns="http://www.w3.org/2000/svg" viewBox="0 0 950.05 90.33"><g id="Layer_1-2"><path d="m225.02,62.81c.21-.2.39-.45.63-.59.89-.5,1.2-1.19.93-2.19-.15-.57-.21-1.31.59-1.39.89-.1.9.67.91,1.31.01.54.03,1.08,0,1.62-.05,1.08.33,1.97,1.21,2.6,1.22.88,2.29,1.93,3.45,2.88,3.92,3.24,8.43,4.68,13.52,5.11,4.46.38,8.83.23,13.15-.64,4.42-.89,8.74-2.17,12.06-5.53.14-.15.32-.27.5-.37.1-.05.23-.04.41-.07.08.57-.33.84-.62,1.15-2.73,2.88-6.16,4.47-9.96,5.38-3.29.78-6.64,1.14-9.98,1.62-1.17.17-2.31-.2-3.46-.35-1.94-.25-3.88-.44-5.83-.65-4.09-.45-7.46-2.47-10.45-5.2-.95-.87-1.9-1.74-2.85-2.61-.24-.22-.48-.53-.86-.34-.31.15-.27.49-.27.78,0,1.21,0,2.42,0,3.62,0,.55.3.91.69,1.27,1.41,1.31,1.58,2.77.57,4.44-.3.49-.51,1.06.34,1.01.94-.05,1.72.28,2.49.68.76.39,1.12.14,1.13-.65.01-1.32.78-1.59,1.9-1.47,2.38.26,4.54.78,5.82,3.19,1.02,1.92,1.14,1.86-.79,3-.18.11-.37.2-.54.31-.27.18-.62.34-.5.76.09.32.4.39.69.46,1.84.43,1.96.72,1.06,2.53-.49.99-.36,1.2.78,1.26.94.04,1.79-.04,2.52-.8.78-.82,1.75-.25,2.59-.05.71.17.92,0,.88-.67-.1-1.63.77-2.63,2.12-3.38,1.34-.75,2.67-1.54,3.95-2.39.72-.48,1.47-.64,2.25-.4,1.17.37,1.95-.02,2.47-1.06.53-1.05,1.16-1.09,2.1-.43,1.47,1.05,3.45,1.18,4.74,2.63.75.84,1.61,1.56,1.85,2.75.08.42.09.81-.05,1.22-.15.46-.86,1.01-.17,1.41.74.42,1.7.78,2.49.21.67-.48,1.19-.75,2.1-.68.89.07,1.2-1.12,1.71-1.76.69-.87.03-2.7-.98-3.25-1.07-.58-1.11-2.63.05-3.39.81-.53.95-1.16.94-1.99-.03-2.25.02-4.49.12-6.74.06-1.33-.23-2.7-.12-4.06.05-.64-.11-1.54.83-1.53.92,0,.98.86.99,1.6,0,.33-.02.67,0,1,.04.51-.24,1.21.44,1.42.67.21,1.49.24,1.99-.35.7-.82,1.58-1.46,1.82-2.72.36-1.88,1.8-2.52,3.62-1.86,1.17.42,2.32.89,3.45,1.42.78.37.89,1.36,1.58,1.89,1.02.78.08,1.46-.23,2.16-.1.22-.32.45-.09.67.21.19.47.03.71-.03,1.98-.43,3.67-1.34,5.26-2.63,2.2-1.78,4.52-3.43,6.26-5.68,1.14-1.47,2.03-3.13,3.19-4.6.44-.56.35-1.27.51-1.91.24-1.01.75-1.17,1.57-.54.58.45,1.82-.05,2.25-.93.35-.7.44-1.48.15-2.19-.44-1.08-.24-2.12-.07-3.19.07-.42.14-.88.7-.86.53.01.83.34.86.88.15,2.14.75,4.27.07,6.43-.18.57-.15,1.23,0,1.86,1.48-.76,1.66-1.35,1.22-3.7.33,0,.38.28.49.49.77,1.4,1.95,1.7,3.27.74.78-.57,1.18-.42,1.45.44.02.08.05.16.09.23.71,1.46.7,2.06-.11,3.56-.15.27-.26.54,0,.79.32.29.7.19.87-.11,1.25-2.2,3.05-1.89,4.95-1.13.58.23,1.58.06,1.58.92,0,.95-.67,1.64-1.53,2.13-.4.23-1.36-.11-1.11.76.2.69.94,1.06,1.7,1.06.73,0,1.27-.4,1.57-1.06.43-.95.94-1.88,1.18-2.88.26-1.06.65-1.43,1.71-.94.7.32,1.46.3,2.2.07.47-.15.75-.29.26-.84-1.15-1.26-1.06-3.02-1.63-4.51-.18-.48.3-.77.77-.73.83.07,1.04-.46,1.45-1.05.97-1.44,1.93-2.91,3.35-3.99.5-.38,1.04-.46,1.64-.49,1.06-.05,2.15.19,3.16-.46.49-.31.76.1.85.56.14.69.27,1.39.37,2.09.12.79.42,1.12,1.33.98,2.71-.41,5.29,2.88,4.37,5.45-.24.68-.58,1.17-1.35,1.3-.35.06-.75.08-1.07.61,1.31.51,2.14,1.64,3.25,2.41.79.55,1.21.31,1.31-.66.05-.45.02-.92.07-1.37.05-.37.28-.6.69-.56.35.03.5.26.55.58.01.08.02.17.03.25.33,2.24.55,2.46,2.71,1.98.95-.21,1.5.11,2.04.78.58.73,1.05.68,1.47-.19.52-1.08,1.28-2.02,1.52-3.26.16-.87,2.59-1.11,3.24-.38,1.21,1.35,1.31,2.4.33,3.98-.21.34-.28.67-.2,1.06.07.32.19.7.09.98-.68,2.05.2,3.5,1.69,4.77.26.23.44.62.54.96.53,1.72,1.49,2.41,3.38,2.16,1.64-.22,3.06-1.07,4.33-2.07,2.25-1.78,4.67-3.36,6.61-5.51.11-.12.26-.21.47-.09.15.52-.23.85-.55,1.14-2.45,2.32-5.02,4.5-7.86,6.34-.95.61-2.02,1-3.18,1.01-.69,0-1.26.29-1.55.88-.74,1.49-1.24,3.02-.74,4.72.12.39.14.82.15,1.23.02,1.42.87,2.1,2.28,1.84.52-.1.52-.39.49-.81-.12-1.7-.19-3.4-.29-5.11-.04-.67.27-1.05.93-1.06,3.16-.03,6.33-.04,9.49-.06.7,0,.64.52.64.97,0,1.62-.03,3.25-.04,4.87,0,.43-.21,1.08.45,1.1.7.02.64-.64.63-1.13-.04-1.79-.09-3.58-.15-5.37-.11-2.92.1-5.82.37-8.72.2-2.13-.05-4.3,0-6.46.1-4.74.53-9.48.37-14.23-.04-1.05-.41-1.45-1.41-1.37-.33.03-.67,0-1,0-1.61-.02-1.81-.21-1.82-1.77-.01-1.57.22-1.8,1.77-1.82,1.18-.01,2.45.29,3.29-.97.22-.32.66-.33.87-.02.79,1.22,2,.96,3.15,1,.6.02,1.35-.22,1.67.5.39.88.15,1.81-.08,2.69-.11.43-.6.37-.97.39-.96.04-2.11-.17-2.79.4-.78.64-.04,1.79-.1,2.72-.17,2.65.2,5.31-.43,7.96-.3,1.28.07,2.66.06,3.98-.02,3.2-.23,6.4-.29,9.61-.07,3.96-.07,7.91-.1,11.87,0,.65.34.89.94.88.5,0,1,0,1.5,0,.58.01.97-.19.99-.84.02-.93.58-1.2,1.41-1.18,1.18.02,2.45-.27,2.97,1.34.18.55.7.26,1.01-.06.56-.56,1.11-1.13,1.66-1.7.52-.53,1.1-.68,1.82-.42.75.27,1.1.73,1.24,1.54.71,4.17-.12,3.58,4.22,3.6.21,0,.42,0,.62,0,1.5-.02,2.58-1.63,2.03-3.04-.55-1.41-.21-2.58,1.05-3.54.33-.25.7-.48,1.09-.59,1.09-.29,2.08-.6,2.05-2.03,0-.27.18-.62.54-.56.39.06.33.45.3.72-.13,1.01.45,1.43,1.31,1.64,1.23.3,2.22.94,2.83,2.08.36.68.55,1.31.03,2.09-.7,1.07.26,3.16,1.47,3.34.65.09.81.46.88,1.01.12.88-.1,1.74-.16,2.61-.09,1.36.21,1.62,1.54,1.46.38-.04.94-.35,1.06.23.14.64-.52.68-.93.74-.83.13-1.75.07-1.71,1.31.02.61-.16,1.35.76,1.44.81.08,1.7.07,1.95-.91.44-1.69.77-3.41,1.11-5.12.12-.57-.2-.87-.77-.87-.54,0-1.08.03-1.62.01-.31-.01-.76.07-.75-.42.01-.4.39-.49.74-.52.46-.03.92-.11,1.37-.06,1.27.12,1.79-.57,2.04-1.69.13-.58.14-1.62.76-1.51.75.14.26,1.03.18,1.61-.11.73.05.95.87.75,4.04-.97,8.04-2.17,12.24-2.28.83-.02,1.05-.74,1.42-1.26.89-1.24.89-1.26,1.97-.22.24.23.5.29.8.21.93-.23,1.86-.42,2.83-.44.85-.02.84-.7.49-1.15-.95-1.24-1.88-2.55-3.75-2.51-2.83.05-5.67-.01-8.5.02-1.14.02-1.63-.45-1.48-1.58.43-3.16-.04-6.32-.02-9.48,0-1.51.17-1.73,1.71-1.76,1.42-.03,2.83-.04,4.25,0,.94.03,1.35-.29,1.34-1.29-.02-2.11.02-2.17-2.06-2.34-1.49-.12-3.01-.18-4.49-.01-2.02.22-4,.16-5.95-.33-2.88-.72-5.84-.82-8.75-1.41-2.16-.44-4.28-1.06-6.45-1.48-4.52-.88-8.82-2.42-12.85-4.65-2.51-1.39-4.91-2.98-7.13-4.81-.45-.37-.84-.81-1.24-1.23-.17-.18-.36-.42-.15-.65.22-.24.48-.06.65.12,1.42,1.43,3.12,2.46,4.77,3.59,3.55,2.41,7.4,4.23,11.5,5.34,4.6,1.25,9.18,2.65,13.95,3.26,4.45.58,8.87,1.49,13.4,1.17,1.14-.08,2.23.26,3.34.44.98.16,1.48-.16,1.45-1.26-.06-2.37,0-4.75-.08-7.12-.04-1.21.44-1.67,1.61-1.59.91.06,1.83.03,2.75.02.95,0,1.37.45,1.29,1.4-.04.5-.04,1-.03,1.5,0,.3.07.61.44.66.35.04.52-.23.63-.51.2-.51.34-1.04.21-1.59-.54-2.25-.19-4.57-.49-6.84-.09-.69.21-.96.87-.75,2.17.68,4.43.71,6.65,1.01.54.07,1.15.17,1.43-.45.28-.62.42-1.32-.22-1.83-.54-.43-.62-.93-.47-1.55.55-2.23.69-4.52.89-6.8.09-.96.4-1.28,1.42-1.13,5.02.74,10.05,1.41,15.08,2.09,6.6.9,13.2,1.78,19.79,2.7,1.86.26,2.1.67,1.76,2.48-.21,1.1-.38,2.22-.63,3.31-.18.77.07,1.22.82,1.39.53.12,1.07.32,1.59.28,3.54-.26,7.08-.09,10.62-.1,1.02,0,1.25-.49,1.25-1.4-.01-8.16-.64-16.3-.47-24.46,0-.11-.04-.23-.11-.58-.71,2.58-.9,5.04-1.25,7.44-.7,4.83-2.22,9.2-5.6,12.82-1.25,1.34-2.12,3-3.45,4.27-.38.36-.72.79-1.62.74,1.65-1.73,2.7-3.64,4.14-5.21,3.81-4.16,5.3-9.24,6.12-14.61.3-2.01.4-4.06.5-6.09.05-1.02.2-1.98.63-2.9.43-.9.36-1.87.38-2.82.02-.78-.31-1.15-1.11-1.14-1.08.02-2.17-.02-3.25,0-.84.01-1.23-.36-1.18-1.21.02-.42.03-.83,0-1.25-.05-.81.35-1.14,1.12-1.14,1.17,0,2.33-.01,3.5.01.67.01,1.18-.11,1.14-.93-.04-.83.45-1.09,1.18-1.09.62,0,1.25,0,1.87.03.42.02.91.12,1,.6.19,1.07.92,1.13,1.77,1.11,1.04-.02,2.08.01,3.12,0,.84,0,1.16.39,1.2,1.23.09,2.23,0,2.36-2.21,2.34-3.32-.03-3.31-.03-3.31,3.26,0,4,.06,7.99-.45,11.97-.26,2.04.4,4.05.42,6.09.02,3.75.01,7.5,0,11.25,0,1.58.05,1.68,1.57,1.66,3.12-.04,2.55.15,2.6-2.62,0-.37-.03-.75.01-1.12.16-1.23-.06-2.05-1.57-2.17-.98-.08-1.3-1.1-.53-1.71.91-.73.94-1.6.85-2.56-.42-4.82.27-9.64,0-14.47-.05-.88.04-1.67-.88-2.28-.69-.46-.45-1.41.39-1.8.72-.33,1.47-.58,2.24-.79,3.09-.85,6.13-1.88,9.17-2.92.91-.31,1.78-.33,2.68-.03,3.63,1.23,7.26,2.44,10.89,3.68,1.32.45,1.5,1.21.46,2.19-.49.46-.58.93-.55,1.55.3,5.08.34,10.15,0,15.23-.05.77.16,1.35.62,1.95.94,1.22.73,1.77-.73,1.96-.68.09-.95.39-.95,1.04.01,1,.02,2,0,3-.02.9.46,1.21,1.26,1.08.86-.14,1.72-.31,2.56-.54.97-.27,1.2.14,1.1,1.02-.16,1.32-.31,2.64-.41,3.97-.03.41-.19,1.05.45,1.12.5.05.41-.52.49-.86.13-.59.51-.84,1.08-.81.59.03.91.36.93.96.02.53.16.86.81.81,3.04-.24,6.08-.09,9.12-.08.69,0,1.24-.02,1.22-.96-.02-.58.44-.76.97-.69.46.06,1,.15.95.76-.09,1.1.56,1.12,1.34,1.05.75-.06,1.5-.17,2.24-.12.92.07,1.2.73.51,1.34-.84.73-.73,1.52-.71,2.47.07,3.58.23,7.16-.08,10.74-.06.68.05,1.22.59,1.67.27.23.71.47.53.9-.19.46-.7.38-1.1.38-3.04,0-6.08,0-9.12,0-1.99,0-1.99,0-1.99,2.02,0,.87.03,1.75.02,2.62-.02.84.38,1.24,1.2,1.24,5.33-.03,10.67.3,15.98-.27,1.05-.11,2.11-.54,3.05-1.04.8-.43,1.42-1.11.88-2.25-.47-1,.29-1.86.87-2.44,1.45-1.45.86-2.98.5-4.55-.05-.21-.18-.49-.38-.41-1.24.48-.85-.4-1.04-1.04-.4-1.36-.36-2.8-1.27-4.09-.59-.83.12-2.08.41-3.08.2-.71.56-1.39.66-2.13.12-.89.53-1.17,1.36-.78.81.39,1.06.03,1.03-.74-.03-.83-.04-1.67-.07-2.5-.03-.7.04-1.31.82-1.64.58-.24.48-.83.46-1.32-.04-1.37-.44-2.72-.29-4.1.04-.36-.08-.8.35-.99.42-.18.67.16.97.39,1.08.84,2.16,1.68,3.36,2.36,1.01.58,1.96,1.26,2.39,2.43-1.9-1.14-3.74-2.37-5.69-3.9.12,1.62.2,3,.35,4.37.05.44.5.5.9.5,1.56.02,3.07-.14,4.44-.98,1.96-.44,3.84-.89,4.96-2.89.51-.92,1.45-1.59,2.19-2.38.17-.18.43-.35.35-.62-.1-.37-.47-.29-.74-.29-2.12,0-4.25,0-6.37-.01-1.37,0-1.42-.07-.92-1.31.19-.48.24-.96.25-1.46.06-3.2-.16-6.41.15-9.61.04-.41-.15-.71-.4-1.01-.26-.32-.6-.65-.34-1.1.25-.45.73-.33,1.13-.33,2.92,0,5.83,0,8.75.02.78,0,1.4-.06,1.88-.86.5-.83,2.62-.64,3.15.25.36.59.74.73,1.42.7,2.83-.09,5.66-.11,8.49-.1,1.29,0,1.48.36.88,1.5-.27.51-.32,1.03-.29,1.57.18,3.61-.38,7.25.48,10.83.18.75-.23.93-.9.93-1.62.02-3.25-.17-4.83.41-1.36.5-2.73.99-4.1,1.48-.32.12-.66.24-.6.67.07.47.45.58.85.56.69-.03,1.17.23,1.55.82.37.57,1.01.7,1.66.71.9.02,1.09.43.71,1.21-.22.44-.58.95-.08,1.36.5.4,1.04.14,1.48-.21.86-.69,1.6-.77,2.55,0,1.4,1.14,3.66.08,3.89-1.74.05-.38.01-.81.44-.95,1.05-.34,1.8-1.22,2.82-1.58.83-.3.98-.76.72-1.53-.31-.91-.01-1.33.96-1.73,1.78-.72,3.25-1.95,4.05-3.8.15-.34.34-.72-.03-1.03-.32-.27-.72-.23-1.07-.08-1,.41-2,.82-2.99,1.27-2.08.95-4.25,1.59-6.56,2.02.1-.73.6-.95,1.03-1.1,3.26-1.12,6.41-2.56,9.79-3.31.8-.18.87-.63.87-1.25,0-2.95.29-5.88,0-8.85-.26-2.64-.04-5.32-.06-7.98,0-1.26-1.03-1.84-2.18-1.28-.43.21-.46.56-.38.95.34,1.77.12,3.58.86,5.36.74,1.79.14,3.88.37,5.82.03.24-.1.53-.4.54-.41.01-.43-.35-.43-.63-.02-1.58-.01-3.17-.03-4.75,0-.69.13-1.44-.83-1.71-.37-.1-.29-.54-.26-.88.11-1.41.07-2.81-.19-4.22-.4-2.13.04-2.61,2.16-2.67,1.83-.05,3.61-.63,5.46-.52.52.03,1.21-.1,1.28.66.07.78-.52,1.03-1.2,1.16-.65.12-1.69-.36-1.87.47-.16.75.87,1.17,1.44,1.53,1.15.72,2.44,1.23,3.69,1.79,3.47,1.56,7.15,2.43,10.85,3.28,7.36,1.69,14.85,2,22.33,1.85,5.39-.1,10.77-.85,16.14-1.51,3.1-.38,6.21-.5,9.22-1.44,5.56-1.72,11.27-2.97,16.71-5.05,1.4-.54,2.83-.93,4.24-1.39,1.31-.43,2.36-1.11,3.31-2.13,1.71-1.84,5.38-1.43,7.03.43,3.84,4.33,7.29,8.97,11.09,13.34,2.13,2.45,4.13,5,6.19,7.51.32.39.63.78.97,1.14.47.51.87.8,1.47.01.57-.75,2.02-.58,3.06.19,1.06.78,1.2.73,1.46-.57.28-1.43.43-1.51,1.8-.86.61.29,1.13.34,1.75-.04.81-.51,1.78-.23,2.67-.33.79-.09,1.61-.02,2.33-.34,1.49-.65,3.14-.25,4.63-.81.46-.17.77.18,1.08.47,1.01.94,2.06,1.56,3.44.65.43-.29.93-.14,1.29.14.8.62,1.38.38,1.84-.38.67-1.1,1.35-.89,2.04-.05.67.82,1.52,1.42,2.44,1.91.79.42,1.55.82,1.71,1.83.05.32.28.49.62.5.6.02,2.87-1.41,3.07-2.01.26-.79.7-.98,1.42-.6.83.44,1.79.36,2.65.68.82.31,1.15.75.35,1.41-.91.74-.89,1.38.02,2.12.77.63.81,1.25-.24,1.66-.75.29-.89.73-.25,1.26.63.53.87,1.71,2.13,1.27.34-.12.53.34.68.63.23.43.59.77,1.06.78,1.06.01,1.34.57,1.31,1.52-.05,1.29.72,2.3,1.37,3.29.55.83.7,1.48-.14,2.16-.49.4-.42.82-.09,1.31.39.57.23.95-.19,1.6-.87,1.34-1.51,2.97-1.14,4.58.24,1.08.4,2.29,1.17,3.22.2.24.28.56.12.82-.64,1.05.1,2.58-1.19,3.41-.07.05-.12.26-.08.35.69,1.46-.37,1.63-1.35,1.97-.49.17-.93.55-1.34.89-1.62,1.36-2.17,1.46-4,.35-.75-.46-1.4-.68-2.15-.05-.58.48-1.14.36-1.68-.13-.17-.16-.46-.32-.66-.06-.21.27.06.43.23.61,1.07,1.11.93,1.75-.57,2.06-2,.41-4.02.81-6.03.07-.76-.28-1.33-.11-1.86.53-.98,1.17-2.35,2.03-2.77,3.63-.1.39-.37.88.04,1.15.38.26.66-.23.93-.44,1.18-.92,2.32-1.89,3.51-2.81.42-.32,1.03-.71,1.37,0,.31.66-.43.72-.82.99-2.54,1.75-4.96,3.6-6.48,6.41-.9,1.67-1.56,3.49-2.97,4.86-.47.46-.74,1.11-.34,1.7.35.53.98.33,1.5.2,2.38-.6,3.02-1.48,2.96-4.01-.02-.71-.13-1.43.54-1.95.23-.18.51-.35.8-.24.35.12.29.46.28.75,0,.33.06.7-.07.99-.87,2.07.5,3.15,1.82,4.26.38.32.84.38,1.3.33,1.07-.11,1.41.45,1.4,1.41-.01,1.33-.02,2.67.01,4,.02.78-.28,1.15-1.08,1.19-1.04.05-1.04.72-.43,1.2.72.55.6,2.03,1.92,1.81.62-.1,2.16-2.89,1.98-3.6-.34-1.31-.09-2.01,1.43-1.83.32.04.73-.07.83-.43.12-.48-.38-.46-.65-.59-2.51-1.2-2.8-1.99-1.59-4.47.17-.35.29-.69.2-1.07-.17-.69.07-1.17.77-1.32,1.03-.22.71-.67.26-1.18-.5-.57-1.03-1.13.1-1.6.37-.15.47-.5.35-.84-.54-1.57.69-2.56,1.23-3.77.14-.31.51-.45.86-.43,1.14.08,1.42-.61,1.49-1.55.03-.37.09-.75.2-1.1.32-1,.8-1.14,1.66-.51.32.24.6.72,1.06.37,1.29-.98,2-.08,2.64.81.35.49.54.99,1.32.82.56-.12.51.37.51.76,0,1.09.44,1.92,1.29,2.65.3-.5-.03-.6-.16-.77-.33-.42-.2-.79.13-1.1.34-.33.67-.16,1.01.07.33.22.71.87,1.1.26.26-.41-.15-.84-.57-1.1-.6-.37-1.62-.15-1.8-1.12-.14-.77.49-1.4.57-2.14.08-.74.47-1.04,1.21-1.16,1.56-.25,2.27-1.68,1.62-3.15-.17-.38-.37-.75-.55-1.12-.15-.31-.32-.72-.04-.94,1.22-.96,1.43-2.49,2.16-3.72.22-.38.54-.63.97-.72-.45.98-.91,1.95-1.33,2.94-.17.4-.73.98.09,1.19.62.16,1.66.41,1.79-.51.18-1.26.52-2.64-.33-3.85.97-3.21.72-6.52.69-9.8-.01-1.1.13-1.81,1.51-1.49.74.17,1.5-.04,2.21-.29,4.5-1.54,9.13-2.54,13.76-3.57,1.33-.3,2.69-.65,3.5-1.94.3-.47.75-.3,1.13-.18,1.57.52,3.05.4,4.56-.34,2.95-1.47,6.28-1.53,9.42-2.33.99-.25,2.06.13,3.07.37.24.06.48.24.67-.04.14-.2.03-.39-.04-.59q-.57-1.52.81-2.65c-1.14-.63-1.2-1.31-.53-2.49.82-1.44.64-3.18.37-4.83-.05-.27-.29-.66.04-.79,1.16-.45.81-1.17.7-2.1-.13-1.13.14-2.36,1-3.33.18,1.3.99,2.54.13,3.89-.33.51-.08.99.49,1.19.58.2.74.52.63,1.14-.28,1.55-.35,3.16.16,4.64.32.93.95,1.67.17,2.65-.19.24.19.49.5.56.47.09.9-.05,1.33-.22,2.29-.89,4.67-1.43,7.06-1.99,2.75-.66,5.45-1.48,8.19-2.18,3.5-.9,7.02-1.75,10.52-2.65.92-.24,1.81-.61,2.72-.92.59-.2.66-.68.63-1.21-.23-4.45.14-8.91-.16-13.35-.07-1.04.39-1.44,1.38-1.44,6.21,0,12.42,0,18.62,0,1.05,0,1.35.5,1.34,1.48-.04,3.75-.03,7.5-.01,11.25,0,.62-.29,1.43.5,1.78.51.23.99-.09,1.27-.54.47-.74.61-1.54.18-2.36-.23-.43-1.14-.57-.71-1.26.39-.63,1.14-.83,1.87-.84,1.67-.03,3.34-.09,5,0,1.48.07,2.79-.31,4.07-.97.74-.39,1.49-.75,2.23-1.12,1.41-.69,2.78-1.22,4.46-1.31,2.16-.12,4.29-.94,6.43-1.48,1.85-.47,3.69-1.02,5.55-1.46.74-.17,1.44-.27,1.89-1,.26-.42.79-.43,1.26-.4,3.45.18,6.9.37,10.35.56.49.03.93.24,1.17.63.92,1.5,2.53,2.13,3.86,3.09,1.02.73,2,1.43,2.7,2.53.54.84,1.6.82,2.5.89.99.07,2,0,3,.04,1.31.04,1.77.6,1.36,1.83-.29.9,0,1.84-.13,2.58-.3,1.69.45,3.35-.14,4.96-.17.47-.13.89.05,1.33.28.69.37,1.36-.16,2-.12.15-.26.48-.19.56,1.1,1.29.15,2.93.77,4.33.38.87.56,1.82,1.24,2.55.37.41.49.96.64,1.48,1.98,7.09,4.42,14.05,6.56,21.09.66,2.19,1.2,4.42,1.74,6.64.21.89.69,1.28,1.58,1.22,1.86-.13,3.75.13,5.56-.51v1c-1.76.3-3.51.64-5.32.51-.72-.05-.86.38-.67.97.29.95.6,1.9.9,2.85q1.09,3.45,4.72,3.62c.12,0,.25.03.37.04,0,4.42-.01,8.83.02,13.25,0,.62-.13.87-.77.76-.16-.03-.33,0-.5,0-315.83,0-631.67,0-947.5.03-1.06,0-1.29-.23-1.28-1.28.06-6.08.03-12.16.03-18.25,1.22.19,2.38-.34,3.59-.31,1.77.04,2.35.92,1.57,2.48-.57,1.14-.4,1.53.86,1.83.59.14,1.09.38,1.5.83.18.2.39.56.7.4.38-.2.15-.59.08-.9-.24-1.05-.45-2.04-.23-3.18.25-1.29.85-2.21,1.76-3.04.21-.19.56-.31.42-.67-.12-.31-.45-.32-.74-.37q-1.8-.27-1.78-2.08c0-.08,0-.17,0-.25.29-2.17.02-3.84-2.56-4.64-1.77-.55-2.86-2.35-4.24-3.61-.18-.17-.27-.41-.1-.88.95.82,1.88,1.54,2.71,2.36.91.9,2.07,1.39,3.1,2.07.72.47,1.08.2,1.07-.63,0-1.33.02-2.67-.03-4-.04-.99.28-1.45,1.35-1.44,3.29.04,6.58.01,9.87.03.79,0,1.62.02,2.05.89.16.33.4.39.72.25,1.39-.62,2.87-.46,4.32-.41,2.9.11,5.83-.4,8.7.38.26.07.56,0,.66-.23.49-1.11,1.47-.9,2.37-.9,2.71,0,5.42.01,8.12.01.84,0,1.66.02,2.46.32.33.12.76.17,1.1.09,3.91-.91,7.88-.22,11.81-.4.04,0,.1-.01.12,0,1.49,1.24,3.18.35,4.76.38,1.7.03,3.4-.25,5.1-.33,1.16-.05,2.33-.03,3.49.02.57.03,1.11.24,1.01.98-.37,2.59.18,5.15.27,7.72.03.96.01,1.92.07,2.87.05.9-.19,1.4-1.22,1.43-.77.02-1,.72-.48,1.3.24.27.6.44.9.67.72.53.74,1.17.01,1.61-1.17.71-.89,1.27.02,1.91.8.56.78,1.1-.09,1.59-.83.47-.79,1.04-.05,1.53.94.64,1.12,1.2,0,1.81-.49.27-.82.73-.47,1.23.46.67.84.02,1.22-.23.21-.14.4-.38.62-.4,2.12-.19,4.24-.16,6.36-.02.57.04.67.56.67,1.04,0,.87-.02,1.75-.07,2.62-.03.52-.36,1.2.4,1.36.65.14,1.51.42,1.98-.24.39-.55.63-1.38-.01-1.96-.77-.7-.91-1.54-.86-2.49.03-.48.15-.93.54-1.22.89-.67.72-1.61.68-2.52-.02-.35-.16-.69-.59-.66-.35.03-.49.34-.48.64.05,1.25-.74,1.4-1.72,1.38-4.61-.06-3.87.46-3.88-3.79-.01-5.42,0-10.83-.05-16.25-.01-1.17.33-1.62,1.55-1.59,4.31.08,3.41.01,3.44-3.47,0-1.14.28-1.96,1.14-2.72,1-.88,1.92-1.85,2.79-2.85.6-.68.96-.5,1.29.17.71,1.46,1.38,2.94,2.11,4.39.62,1.24.96,1.25,1.87.28.51-.55.83-1.75,1.65-1.44.96.36.28,1.47.29,2.25.01,1.12-.07,2.26.04,3.37.08.85.1,1.59-.81,1.99.31.5.72.36,1.06.36,11.66,0,23.33-.02,34.99-.03,1.82,0,2.22-.41,1.69-2.14-.31-1.02.12-1.86.14-2.77.08-3.45,0-6.91.01-10.37,0-.66-.85-1.33-.3-1.82.53-.47,1.44-.16,2.18-.16,8.37-.01,16.75,0,25.12,0,.43,0,1-.23,1.26.26.23.43-.26.74-.47,1.08-.32.51-.45,1.06-.44,1.66,0,2.92.01,5.83,0,8.75,0,.62.09,1.13.64,1.52.53.38.5.84,0,1.24-.59.48-.65,1.11-.65,1.8.01,3.29.04,6.58-.02,9.87-.02,1.03.32,1.4,1.36,1.37,2.78-.08,5.55.15,8.29-.74,3.35-1.1,5.87-3.41,8.61-5.43,1.11-.82,1.98-1.85,2.88-2.9.16.75-.23,1.27-.67,1.71-2.87,2.79-5.82,5.49-9.44,7.3-1.75.88-3.69.97-5.6,1.06-1.46.07-2.92.05-4.37.03-.85-.01-1.06.41-1.05,1.17.03,1.58.07,3.17,0,4.75-.04,1.04.4,1.45,1.37,1.46,1.62.01,3.25.01,4.87.04.83.01,1.68,0,2.49.14.94.17,1.74.47,2.09-.88.18-.67,1.05-.6,1.65-.66.85-.08,1.4-.27,1.03-1.29-.19-.54.02-.99.45-1.32.76-.59,1.45-1.2,1.83-2.16.23-.59,1.88-.03,2.34.8.14.25.2.55.26.83.16.83.35,1.52,1.42.82.46-.3.87-.09,1.15.38.19.32.37.65.59.95.17.23.38.51.71.37.26-.11.25-.42.25-.66,0-.71-.08-1.41-.07-2.12.03-3.08-.16-6.16.17-9.24.13-1.25-.03-2.5-.33-3.72-.15-.63-.09-1.17.45-1.56.37-.26.8-.59,1.26-.33.44.25.27.75.21,1.14-.43,2.81.75,5.12,2.49,7.11,1.34,1.54,3.06,2.68,5.1,3.24.68.19,1.21.15,1.63-.49.8-1.23,1.86-1.99,3.42-1.87.82.06.92-.38.53-1.02-.28-.46-1.02-.79-.57-1.49.47-.73,1.16-1.19,2.07-1.21.75-.01,1.5,0,2.25.01.29,0,.71,0,.75.31.24,1.63,1.6,1.21,2.54,1.34,1.69.23,3.16,1.33,3.62,3.03.32,1.18.34,2.39.16,3.59-.04.28-.17.61.18.78.36.18.68-.02.87-.29.46-.67,1.09-1.13,1.7-1.64.6-.5.6-1.18.39-1.84-.35-1.09.04-1.82,1.04-2.2,1.33-.5,2.23-1.32,3.01-2.57,1.54-2.45,5.47-2.81,7.29-.73.57.65,1.18,1.52,2.31,1,0,.21.05.42,0,.62-.36,1.69.81,3.25.41,4.96-.08.36.2.75.65.76.49,0,.59-.42.6-.8.02-1.28.01-2.57.01-3.85,0-1.62-.02-1.64-1.69-1.67Zm309.01,2.25c-.4-.38-.83-.64-1.24-.04-.34.5-.03.77.4.95.37.16.5.43.42.8-.64,2.67.05,5.38-.28,8.06-.11.9.26,1.36,1.14,1.38.95.03,1.91,0,2.87.02.85.03,1.2-.36,1.2-1.2-.01-1.99-.06-3.99.17-5.98.1-.82-.19-1.25-1.08-1.47-1.49-.37-2.97-.9-3.6-2.55,1.24.47,2.24,1.4,3.54,1.8.71.22,1,.14.99-.65-.01-1.12-.07-2.24.09-3.35.09-.64-.33-.91-.9-.92-1.16-.03-2.32-.05-3.48-.03-.77,0-1.03.41-.81,1.15.2.67.39,1.35.59,2.02Zm108.41-24.77l-.16-.35c1.15-.89,2.54-1.32,3.91-1.7,1-.27,1.37-.82,1.28-1.79-.07-.75-.13-1.49-.17-2.24-.11-1.99.06-2.17,2.02-2.18,2.67,0,5.33.01,8,.03.94,0,1.78-.19,2.58-.76,1.69-1.21,3.45-2.31,5.13-3.53.9-.65,2.24-.62,2.87-1.36,1.39-1.65,3.25-2.6,4.96-3.74,6.46-4.32,12.81-8.83,19.56-12.73.85-.49,1.65-1.1,2.24-1.97-1.31.75-2.8.8-4.16,1.28-3.81,1.33-7.67,2.5-11.55,3.62-2.68.77-5.41,1.42-8.18,1.68-4.39.42-8.73,1.21-13.14,1.43-2.95.15-5.84.86-8.81.85-2.01,0-3.97-.42-5.96-.52-5.64-.29-11.28-.5-16.78-2.1-3.75-1.09-7.63-1.76-10.92-4.08-.22-.15-.52-.41-.78-.14-.24.26-.01.55.13.79,2.87,4.73,5.84,9.41,8.47,14.27,2.19,4.05,5.1,7.7,6.75,12.05.21.55.6.6,1.12.43.79-.27,1.57-.59,2.38-.72.67-.11.86-.33.92-1.01.1-1.17.65-1.47,1.78-1.2.28.07.59.19.85.13,1.11-.24,1.63.35,1.67,1.31.06,1.4.81,2.62.89,3.99.03.53.35.75.84.7,2.01-.21,3.97.43,5.98.25.47-.04,1.08.17,1.28-.48.15-.48.13-1.02-.24-1.42-.42-.46-.93-.24-1.39-.07-1.12.41-2.24.83-3.35,1.25Zm218.5,38.22c-.27-1.89.4-2.8,2.2-3.1.64-.1.77-.33.96-.86.44-1.28,1.22-2.25,2.67-2.52,1.91-.35,1.91-.38,2.07,1.6.07.84.23,1.58,1.26,1.72,1.12.15,1.47.81,1.19,1.86-.11.43-.1.77.5.68,1.45-.22,2.75-.76,3.69-1.9.91-1.11.76-1.52-.61-1.75-1.18-.2-1.68-.77-2.24-1.89-.68-1.35-1.02-3.35-3.26-3.47-1.1-.06-1.22-.81-.61-1.68.28-.4.63-.86-.02-1.27-.41-.25-.79-.52-.68-1.07.12-.62.69-.66,1.15-.81.4-.12.84-.32,1.21-.25,1.12.21,1.12-.31,1.13-1.22,0-.87-.42-2.18,1.23-2.32.28-.02.44-.49.28-.85-.12-.28-.38-.25-.64-.21-2.6.41-4.15-1.46-3.27-3.92.15-.43.32-.88.32-1.32,0-.73.27-1.17.97-1.4.82-.27,1.2-.84,1.07-1.73-.05-.32-.04-.67.02-.99.24-1.51.25-1.52-1.26-1.52-5.33,0-10.66,0-16-.02-1.85,0-2.02-.2-2-2,.01-1.79.03-3.58.02-5.37,0-.85.1-1.71-.15-2.68-.3.21-.48.3-.62.44-2.99,3.13-6.04,6.2-9.29,9.06-2.57,2.27-4.49,5.31-7.96,6.49-.56.19-.72.82-.62,1.38.12.67.71.59,1.2.6.83.01,1.67,0,2.5,0,.52,0,.89.18.95.76.13,1.4.4,2.78.15,4.22-.22,1.3.05,2.64-.11,4-.12,1,.34,2.14-.22,3.25-.2.38.07.83.56.95.47.12.68-.18.82-.57.33-.91.84-1.71,1.45-2.47.52-.64,1.11-1.14,1.89-.52.75.59,2.09.92,1.47,2.35-.32.73-.12,1.22.34,1.8.61.78,1.12,1.65,1.61,2.52.32.56.43,1.18.01,1.77-1.36,1.9-.8,3.31,1.6,3.76-.37-.84-.88-1.56-1.02-2.42-.08-.45-.23-.93.3-1.22.61-.33.66-.9.7-1.5.08-1.19.35-1.33,1.33-.58.69.53,1.06.65,1.13-.41.02-.35.29-.66.66-.64,1.04.05,1.38-.58,1.49-1.45.12-.97.67-1.12,1.51-.86,1.5.45,3.1,2.77,2.93,4.37-.05.43-.12.86.23,1.16.73.65.75,1.42.54,2.28-.19.8.12,1.24.99,1.05.77-.17,1.48-.12,2.28.67Zm-192.42-51.77c.32.37.67.24.98.21,4.35-.31,8.71-.6,13.06-.97,3.32-.29,6.66-.25,9.95-.77,1.49-.23,1.66-.18,1.51,1.33-.21,2.07.54,3.62,2.1,4.92.6.5,1.03,1.19,1.52,1.82.17.22.47.53.18.75-.39.3-.59-.16-.73-.41-.41-.74-.96-1.36-1.57-1.93-.3-.28-.65-.63-1.09-.42-.51.25-.24.73-.16,1.11.18.91.48,1.76,1.06,2.51.26.33.68.65.48,1.21-.72.03-.66-1.07-1.3-.96-.56.09-1.08.42-1.6.67-.32.15-.55.4-.48.79.07.37.37.56.72.6,1.63.18,3.32.09,4.43-1.15,1.14-1.27,2.42-2.39,3.66-3.52,1.6-1.47,2.81-2.92,2.05-5.24-.02-.08,0-.17,0-.25.16-6.83-.51-13.64-.54-20.47,0-.61-.09-1.16-.71-1.48-.63-.33-1.2-.21-1.75.19-1.87,1.39-3.94,2.45-5.73,3.98-2.28,1.95-5.01,3.29-7.51,4.93-5.74,3.77-11.24,7.9-17.25,11.26-.56.31-.94.77-1.26,1.29Zm183.77,4.54c0-1.58,0-3.16,0-4.74,0-1.74-.11-1.82-1.76-1.34-4.43,1.27-8.91,2.41-13.36,3.59-4.49,1.19-8.92,2.67-13.54,3.33-.73.11-1.32.43-1.7,1.12-.52.96-.39,1.28.73,1.27,4.85-.04,9.23,3.51,10.57,8.04.42,1.43.04,3.02.99,4.32.17.24-.06.54-.19.81-.77,1.63-.56,3.32-.2,4.99.2.91.73,1.17,1.51.51.92-.77,1.89-1.5,2.75-2.34,4.12-4,8.21-8.02,12.32-12.03.3-.29.6-.6.96-.79.77-.42.96-1.06.94-1.88-.03-1.62,0-3.24,0-4.87Zm-140.07,4.69c.28-.11.25-.29.26-.45.11-1.91.11-1.92,1.95-1.62.5.08.65-.03.66-.56.03-1.2.59-1.68,1.82-1.48.77.13,1.29.15,1.45-.79.1-.54.52-.73,1.05-.6,1.06.25,1.51-.14,1.62-1.25.08-.85.79-1.25,1.62-1.28.9-.03.94.59.9,1.28-.04.75.42.41.74.28,1.69-.68,2.08-.51,2.54,1.15.07.24.12.48.21.72.23.63.68,1.06,1.33.77.67-.3.26-.89.03-1.29-.87-1.54-1.25-3.5-3.36-4.01-.24-.06-.43-.38-.62-.6-2.81-3.4-5.62-6.8-8.42-10.21-2.8-3.41-5.59-6.83-8.35-10.27-.57-.71-1.28-1.02-2.14-1.12-.54-.06-.92.09-.92.71-.02,1.75-.53,3.51-.19,5.23.56,2.9.34,5.81.42,8.72.05,1.65.39,3.2,1.2,4.66,1.89,3.43,3.71,6.9,5.29,10.48.24.54.42,1.16.92,1.52Zm-49.46,31.7c.26-.94.79-1.24,1.33-1.37,1.05-.24,2.12-.37,3.19-.52,1.68-.23,3.41-.27,4.92-1.21,1.43-.89,1.65-1.47,1.08-3.07-.14-.39-.19-.81-.33-1.2-.47-1.34.31-2.83-.5-4.15-.19-.31.16-.64.5-.74.7-.2.82-.6.52-1.22-.13-.27-.11-.56,0-.85.32-.84.59-1.86-.05-2.48-.7-.69-1.73-.2-2.6.04-.24.07-.48.13-.72.22-.47.19-.6.57-.46,1.02.16.51.55.58,1,.41.47-.17.93-.36,1.4-.53.27-.1.62-.28.78.06.19.42-.19.61-.51.69-1.89.44-3.54,1.6-5.52,1.79-.83.08-1.59.45-2.37.74-2.37.9-4.76,1.93-7.35,1.69-2.16-.2-4.3-.45-6.47-.22-.62.07-1.25.03-1.87-.04-1.85-.21-1.85-.23-1.86,1.62,0,1.6.14,1.76,1.59,1.2,2.33-.91,4.87-1.15,7.15-2.2.17-.08.4-.12.58.2-.47.71-1.28.84-2.01,1.05-2.17.61-4.3,1.31-6.4,2.1-.45.17-.9.3-.9.88-.01,1.79-.02,3.58.01,5.37,0,.55.39.8.94.76.59-.04.71-.36.72-.92.02-1.12.1-2.24.23-3.35.14-1.16,1.61-2.42,2.74-2.25,1.21.18,2.4-.81,3.6-.03.08.05.34-.07.44-.18,1.03-1.23,2.11-1.29,3.3-.23.11.1.3.16.46.17.7.05.94.42.81,1.09-.18.91.16,1.55.86,2.17,1.69,1.49,1.96,3.77.59,5.32-1.12,1.27-.98,2.56-.18,3.9.23.39.57.79.28,1.26-.69,1.12-.54,2.81-2.18,3.31-.14.04-.24.23-.33.36-.19.28-.43.59-.08.88.3.24.69.13.92-.11.52-.53,1.11-1.05,1.42-1.69.75-1.55,2.01-2.39,3.56-2.9.33-.11.58-.18.72-.57.66-1.94,2.29-2.52,4.06-1.45.43.26.81.59,1.22.86.3.2.73.36.71-.19-.04-.91.39-1.88-.01-2.7-.6-1.2-.32-2.25.18-3.34.12-.26.36-.5.15-.8-.24-.32-.58-.28-.91-.18-2.64.78-5.47.36-8.33,1.49Zm-3.95-25.18h-.02c0,2.87,0,5.74,0,8.62,0,.53-.13,1.11.83.92,2.2-.43,4.42-.77,6.63-1.14.37-.06.74-.09,1.12-.09.33,0,.73,0,.71.48,0,.36-.35.48-.63.48-2.53,0-4.85,1.14-7.35,1.34-.53.04-1.16.09-1.27.77-.1.65-.26,1.39.2,1.92.43.51,1.03.11,1.51-.07,2.26-.84,4.5-1.72,6.91-2.05.59-.08,1.06-.39,1.03-1.05-.07-1.67.35-3.31.2-4.98-.27-2.95-.29-5.9,0-8.84.05-.5.15-1.03-.34-1.38-.56-.39-.53-.97-.61-1.55-.35-2.43-.07-4.91-.68-7.32-.22-.9-.46-.99-1.22-.45-1.99,1.44-4.01,2.83-6.07,4.16-.68.44-.96.93-.95,1.72.03,2.83.01,5.66.01,8.49Zm-107.48,33.74h0c2.66,0,5.33,0,7.99.02.78,0,1.45-.17,2.09-.65.7-.52,1.44-1.11,2.36-1,.88.1,1.01-.29.94-.98-.19-1.97-.33-3.91-1.75-5.55-.47-.55-.61-.92-1.39-.54-1.86.89-3.85,1.29-5.92,1.31-4.33.03-8.66.05-12.97-.31-.94-.08-1.15.22-1.13,1.08.05,1.75.06,3.5,0,5.24-.03,1.05.42,1.41,1.41,1.4,2.79-.03,5.58,0,8.37,0Zm242.51-31.01c-.38-.12-.57-.18-.76-.24-.91-.28-1.19-1.01-1.24-1.83-.06-.82.38-1.46,1.05-1.86.72-.43,1.24.16,1.78.53.21.14.4.31.62.41.24.11.46-.03.4-.28-.16-.64-.05-1.41-.55-1.87-.51-.47-1.18-.27-1.77-.03-.54.21-1.04.57-1.59.69-3.94.85-7.72,2.32-11.7,2.99-.79.13-1.01.55-1,1.29.03,1.16-.03,2.33,0,3.49.07,2.9-.58,5.77-.28,8.68.1.93.36,1.37,1.34,1.34,1.37-.05,2.75-.08,4.12,0,.99.05,1.31-.44,1.44-1.29.15-.99.37-1.96.56-2.94.06-.33.17-.86.45-.82,1.79.24,1-1.1,1.39-1.85.81-1.56.23-3.38,1.37-4.87.54-.7.92-1,1.72-1.03.84-.03,1.75.28,2.7-.5Zm150.39,30.78c1.04.13,1.15-.23.73-1.12-.7-1.46-1.34-2.96-1.52-4.6-.1-.91-.37-1.63-1.52-1.49-.24.03-.54-.03-.61-.32-.07-.3.19-.44.43-.52.8-.24.65-.76.5-1.39-.53-2.19-1.5-4.22-2.14-6.37-2.12-7.12-4.73-14.11-6.14-21.44-.12-.63-.41-1.18-.92-1.58-.24-.19-.47-.58-.84-.29-.26.2-.23.58-.1.81.86,1.48-.4,3.19.53,4.66-.96,1.53.55,3.38-.64,4.89-.2.25.01.55.19.79.48.63.28,1.29.2,2.01-.17,1.69-.42,3.47,1.15,4.76.36.3.48.64.5,1.08.03.78-.2,1.47-.66,2.1-.16.22-.39.52-.11.78.22.2.47,0,.69-.1.47-.21.9-.41,1.33.13,1.2,1.5,1.27,2.26.31,3.95-.08.14-.16.29-.24.44-.44.78-.28,1.29.59,1.66,1.23.51,2.4,1.15,3.61,1.69,1.1.49,1.13,1.31.81,2.28-.19.55-.62.88-1.09,1.16-.7.41-.77.82-.03,1.27.82.51.71,1.03,0,1.54-.24.17-.47.34-.72.49-.28.17-.69.25-.54.7.15.42.54.53.93.43.7-.17,1.31-.13,1.85.39.97.94,2.25,1,3.46,1.19ZM150.65,55.09h0c-2.08.01-4.16.09-6.24-.02-1.29-.06-2.15.38-2.76,1.47-.14.25-.44.45-.29.77.16.32.51.22.79.22,1.66,0,3.33-.01,4.99-.01,2.15,0,2.6.58,2.15,2.71-.08.4-.29.68-.6.91-.31.23-.5.51-.59.91-.37,1.78,1.1,2.86,1.62,4.29.04.12.37.16.57.19,2.34.35,4.71.49,7,1.18.92.27,1.49,0,1.47-1.16-.05-3.41-.05-6.82,0-10.23.01-.95-.35-1.24-1.24-1.23-2.29.03-4.58.01-6.86.01Zm2.23,29.92s0,.03,0,.04c.92,0,1.84-.07,2.74.02.92.09,1.1-.31,1.16-1.13.16-2.16.22-4.32.18-6.48-.01-.69.08-1.22.94-1.3.76-.07.86-.63.85-1.28-.02-1.71-.04-3.41,0-5.12.02-.84-.29-1.13-1.13-1.25-2.39-.33-4.77-.71-7.13-1.19-1.04-.21-1.8.08-2.17.95-.39.9-.57,1.92.3,2.76.85.82,1.03,2.47.2,3.37-.65.69-.79,1.42-.72,2.27.03.36-.17.86.18,1.05.44.23.59-.31.81-.56.36-.41.81-.58,1.32-.6.71-.03,1.41-.04,2.12-.04,2.75,0,2.79,0,2.77,2.8-.03,4.1.66,3.49-3.56,3.54-1.11.01-2.28.21-2.96-1.06-.15-.28-.46-.35-.65.08-.67,1.55.18,3.02,1.87,3.13.95.06,1.91.01,2.87.01Zm459.51-63.77s-.04,0-.07,0c0,1-.02,2,0,3,.01.51-.26,1.18.41,1.43.59.21,1-.3,1.39-.65.84-.76,1.72-1.43,2.82-1.8.91-.31,1.38,0,1.92.8.86,1.29.46,3.32,2.32,4.02.08.03.04.38.04.58,0,.31.03.64.32.77,1.63.73,1.89,2.04,1.59,3.62-.03.18.03.45.16.58,1.49,1.49,2.71,3.3,4.86,3.98.28.09.56.22.82-.02.31-.29.16-.65,0-.92-.35-.61-.79-1.17-1.14-1.78-3.86-6.6-7.74-13.2-11.55-19.83-.85-1.47-1.88-2.86-2.43-4.49-.21-.63-.56-1.1-1-1.53-.2-.19-.38-.52-.71-.35-.3.15-.26.5-.28.78-.01.33-.02.67,0,1,.17,3.61.35,7.22.53,10.83Zm-92.26,12.44c-4.16-.22-7.48.04-10.8.13-1.24.04-1.6.61-.88,1.63.63.9,1.13,1.85,1.48,2.87.32.95.91,1.23,1.87,1.22,3.7-.03,7.4-.05,11.1.04,1.33.03,2.5-.58,3.79-.6.53,0,.6-.51.6-.94,0-1-.06-2,0-2.99.05-.94-.26-1.39-1.25-1.38-2.24.03-4.49,0-5.9,0Zm-217.86,43.4c.03-1.07-.2-1.66-1.23-1.3-.87.3-1.44-.05-1.87-.77-.55-.92-1.34-1.58-2.28-2.08-1.16-.62-1.23-.92-.19-1.76,1.1-.88,1.59-1.85,1.09-3.26-.33-.92.09-1.5,1.03-1.77.89-.25,1.77-.46,2.7-.39.85.06,1.06-.32.66-1.06-.22-.4-.59-.82-.29-1.27.77-1.15,1.35-2.38,1.98-3.59.31-.6.89-.95.66-1.81-.19-.68-.22-1.4-.64-2-.26-.37-.47-.86-1-.86-.56,0-.74.53-.88.94-.66,1.86-1.95,3.25-3.29,4.64-1.72,1.79-3.66,3.26-5.76,4.56-1.29.8-1.25.86-.09,1.75,2.1,1.61,2.38,3.71.71,5.8-.43.54-.38.78.3.89.76.12,1.41.46,1.98.99,1.06,1.01,1.59,2.2,1.49,3.69-.04.51-.08,1.39.64,1.21,1.47-.37,2.9-.97,4.1-1.96.18-.15.16-.54.18-.62Zm-117.97-15.22c-.32.32-.21.66-.21.98,0,4.08.03,8.15,0,12.23-.01,1.05.27,1.49,1.4,1.48,1.1,0,1.61-.29,1.51-1.49-.16-2.07.81-3.49,2.67-4.36.84-.39,1.67-.4,2.56-.25.4.07.89.11,1-.46.09-.49-.21-.78-.63-.95-.27-.1-.56-.17-.84-.24-3.67-.99-6.16-3.25-7.45-6.94ZM907.75,15.99c.35-.9.15-1.49,0-2.1-.54-2.31-.97-2.59-3.3-2-3.71.93-7.41,1.89-11.12,2.83-.61.15-1.29.17-1.22,1.08.07.91.6,1.4,1.45,1.4,3.71.02,7.52.59,10.86-1.76,1.15-.81,2.31-.98,3.32.54Zm-202.15,9.46c-.47.2-.47.42-.49.62-.12,1.3.17,2.57.24,3.85.1,1.78.17,3.57.24,5.36.03.64.27,1.14.88,1.38.63.24.88-.19,1.13-.67.19-.37.58-.41.96-.47.87-.14,1.58.23,2.42.57-1.8-3.55-3.6-7.1-5.39-10.64Zm-267.74,51.24c.16-.86.02-1.29-.95-.95-.5.18-1.06.18-1.59.27-1.47.25-2.08,1.1-1.67,2.53.22.79.52,1.59,1.2,2.14.27.21.46.42.52.79.24,1.69.3,1.71,2.04,1.28.73-.18,1.13-.44.65-1.29-.52-.93-.65-1.84.69-2.27.34-.11.58-.37.55-.75-.02-.32-.28-.51-.58-.57-.7-.14-1.02-.52-.86-1.18Zm303.18-11.07c-.86.32-1.24.83-1.89.78-.66-.05-.8.43-.82,1-.14,3.14.66,6.09,1.87,8.95.14.33.33.8.77.7.46-.11.32-.61.33-.97.07-1.88-.37-3.71-.61-5.56-.2-1.52-1-3.14.35-4.9Zm2.94,10.32c1.18-.76,1.66-1.61,2.18-2.46,1.14-1.85,1.4-3.96,1.9-6,.12-.48.36-1.05-.3-1.27-.56-.19-1.09.07-1.4.56-1.69,2.71-2.16,5.73-2.39,9.17ZM85.57,54.54s-.02,0-.03,0c0,.58,0,1.17,0,1.75,0,.56-.03,1.16.73,1.2.67.04,1.49.33,1.83-.59.33-.92.96-1.53,1.76-2.03.84-.53.69-1.06-.09-1.48-1.02-.56-2.06-1.08-3.11-1.59-.76-.37-1.09-.04-1.09.75,0,.67,0,1.33,0,2Zm333.95,29.26c1.76-.03,3.27-1.72,3.48-3.75.08-.81-.13-1.15-1.02-1.03-1.39.2-2.67.88-4.12.88-.56,0-.55.55-.34.96.32.63.61,1.27.74,1.97.14.75.6,1.05,1.26.96Zm10.22-4.82c.04-.26.11-.63.16-.99.04-.28-.07-.44-.39-.5-2.59-.49-3.92.7-3.68,3.33.03.33.11.65.18.97.12.6.13,1.33.95,1.41.74.08,1.4-.21,1.84-.83.68-.98,1.04-2.06.94-3.38Zm244.03-32.35c-.15-.81.32-1.9-.33-2.84-.32-.46-.63-1.19-1.26-1.05-.62.14-.13.87-.29,1.32-.08.23-.07.49-.09.74-.12,1.64-.94,2.99-1.79,4.33-.17.27-.42.59-.22.92.25.39.67.23,1.03.16q2.97-.57,2.95-3.58Zm-52.09-12.77c-.85.05-.66.77-.49,1.42.38,1.49,1.3,2.54,2.64,3.3.63.36.31,1.7,1.23,1.61.68-.06.89-1.12,1.58-1.5.67-.37.56-.92-.01-1.27-1.37-.83-2.45-1.98-3.63-3.02-.32-.28-.63-.54-1.31-.54Zm-479.59,21.24c-2.43,0-4.66.03-6.89-.01-.91-.02-1.13.4-1.13,1.22,0,.83.24,1.25,1.14,1.21.87-.04,1.76-.11,2.62.02,1.92.27,3.16-.62,4.26-2.43Zm600.77,18.11c.05-2.49,1.08-4.57,2.41-6.56.25-.38.14-.81-.07-1.19-.22-.41-.51-.93-1.03-.65-.81.44-2.07.19-2.32,1.55-.42,2.37.1,4.59,1,6.85Zm-290.83-33.68s0,0,0-.01c1.2,0,2.41.01,3.61,0,.4,0,.74-.19.77-.65.04-.46-.24-.7-.67-.72-2.33-.08-4.61-.57-6.89-.99-1.06-.19-1.08.68-1.21,1.35-.15.78.33,1.03,1.02,1.03,1.12,0,2.24,0,3.36,0Zm-15.2,15.9s-.03,0-.04,0c0,1.62,0,3.24,0,4.87,0,.33-.02.71.39.82.33.09.63-.14.66-.43.23-1.84.54-3.72-.1-5.5-.29-.82-.2-1.65.34-1.89,2.03-.91,1.07-1.7.05-2.57-.06-.05-.09-.14-.14-.21-.22-.32-.33-.91-.86-.7-.46.18-.3.72-.31,1.12-.01,1.5,0,2.99,0,4.49Zm266.88-22.33c-.06-.26.26-.74-.18-.93-.4-.17-.67.24-.93.49-1.24,1.23-2.47,2.47-3.7,3.72-.2.2-.51.4-.31.73.14.24.46.21.69.13.95-.33,1.89-.09,2.83,0,.85.08,1.35-.28,1.39-1.19.05-.95.13-1.91.21-2.95Zm-26.65,4.15c3.99,0,7.97,0,11.96,0,.25,0,.5,0,.75,0,.04,0,.08,0,.12,0,.41-.02.76-.14.78-.63.02-.54-.33-.74-.8-.74-.62,0-1.25.02-1.87.06-2.36.15-4.72.36-7.08.43-1.35.04-2.57.54-3.86.89Zm132.27-1.19c-.12.01-.25,0-.37.04-.96.27-1.91.56-2.87.82-2.42.64-2.43.63-2.09,3.07.05.38-.16.98.35,1.08.5.09.81-.43.93-.86.34-1.23,1.27-1.68,2.38-1.89.86-.16,1.54-.59,2.09-1.24.18-.21.55-.37.44-.69-.13-.39-.55-.28-.86-.32Zm-226.05-.85c0-.59.49-1.4-.36-1.73-.81-.31-1.5.05-2.04.77-.39.53-.94.93-1.35,1.45-.42.53-1.6.79-1.25,1.48.39.78,1.5.34,2.29.31.4-.01.79-.34,1.18-.34,1.33-.01,1.76-.69,1.53-1.94Zm291.96,5.18c0-.54,0-1.08,0-1.62,0-.29.03-.65-.35-.7-.66-.1-.81-.46-.69-1.06.06-.3-.04-.66-.4-.64-.49.02-.41.46-.34.77.18.79.1,1.58.09,2.36-.01,1.08.06,2.16-.15,3.24-.11.55-.05,1.2.55,1.39.67.21.74-.52.96-.92.49-.89.32-1.86.32-2.82Zm-205.18,6.98c.85-2.08,1.18-4.19,1.06-6.36-.03-.48-.21-.97-.42-1.42-.16-.34-.3-.91-.82-.76-.42.12-.31.62-.32.98-.01,2.11-.02,4.22,0,6.33,0,.38-.13.84.5,1.23Zm254.24-31.19c-.63-1.63-3.53-3.48-5.13-3.34-.25.02-.5.05-.73.13-.4.13-.66.41-.57.84.12.63.04,1.38.7,1.76.41.24.72-.13.94-.41.65-.78,1.33-.62,2.1-.21.85.46,1.61,1.11,2.69,1.22Zm-251.48,20.94c-.33.15-1.39-.25-1.26.47.27,1.51.37,3.15,1.44,4.42.18.22.38.49.72.34.27-.12.23-.41.25-.65.06-1.15-.26-2.31.03-3.46.22-.89-.12-1.26-1.18-1.12Zm150.42,13.1s-.02,0-.03,0c0-.58.04-1.17-.01-1.74-.04-.54-.42-.8-.94-.8-.54,0-.86.29-.87.84-.02,1.12-.02,2.25-.02,3.37,0,.63.36.88.96.87.62,0,.92-.31.92-.92,0-.54,0-1.08,0-1.62Zm-384.54,18.08c-.56-.66-1.45-1.46-.42-1.98,1.55-.79,1.21-1.32.15-2.13-.25-.19-.37-.55-.57-.81-.2-.25-.37-.63-.77-.47-.32.13-.28.48-.29.77-.03,1.12,0,2.25-.07,3.37-.1,1.61.38,1.96,1.97,1.26Zm-388.97-7.79c0-.79,0-1.58,0-2.37,0-.47,0-.98-.64-1.01-.72-.03-.69.51-.76,1.03-.1.76.54,1.43.25,2.19-.33.85-.21,1.72-.22,2.59,0,.43-.09,1.02.59,1.01.65-.01.77-.53.77-1.07,0-.79,0-1.58,0-2.37Zm384.62,27.04c.89.34,1.72.16,2.52.2.7.04,1.09-.26,1.15-.98.05-.57.18-1.14.23-1.72.04-.52-.03-1.05-.65-1.17-.51-.1-1.09-.48-1.54-.07-.49.45-.12,1.01.13,1.48.52.99.04,1.46-.84,1.76-.3.1-.68,0-1,.5Zm-13.9.2c.38-.09,1.32.07.78-.88-.52-.93-.31-1.34.59-1.69.39-.15.52-.55.3-.95-.2-.37-.54-.31-.88-.19-.47.17-.94.35-1.42.47-.76.19-1.42.51-1.17,1.42.23.86.39,1.88,1.8,1.81Zm227.21-12.75c-.76-.17-.88.28-.76.85.14.7.19,1.39.19,2.1,0,1.29.49,1.8,1.75,1.92.24.02.53.14.66-.14.14-.29-.13-.47-.34-.57-1.13-.56-1.01-1.22-.41-2.19,1-1.61.84-1.82-1.09-1.97Zm-600.26-6.24s0,.02,0,.03c.7,0,1.41.04,2.11-.01.61-.05,1.63.36,1.69-.47.05-.83-1.08-.61-1.68-.89-.04-.02-.08-.02-.12-.01-1.8.25-3.59.55-5.41.51-.25,0-.5.15-.48.46.02.32.29.38.54.39,1.12.01,2.24,0,3.36,0Zm227.46,4.79c.05.26.08.63.2.98.11.36.4.56.78.39.41-.19.29-.52.16-.85-.73-1.78-.75-1.81.87-2.8.81-.49.76-1.01.24-1.61-.27-.3-.63-.54-.98-.76-.65-.41-1.01-.23-1.01.56,0,1.33,0,2.66-.26,4.09Zm-239.04-11s-.04,0-.06,0c0-.58.04-1.17-.01-1.75-.04-.45.24-1.23-.4-1.25-.75-.03-.74.78-.75,1.34-.03,1.46,0,2.91.02,4.37,0,.32-.05.76.39.8.51.06.59-.43.63-.78.1-.91.14-1.82.2-2.74Zm793.53-12.47s0,0-.01,0c0,.62-.02,1.25,0,1.87.02.49.28.78.79.78.57,0,.85-.31.82-.87-.04-1.12-.1-2.24-.17-3.36-.03-.45-.18-.85-.74-.8-.51.04-.69.41-.69.88,0,.5,0,1,0,1.5ZM82.16,83.76c-.41-.83-1.05-.59-1.58-.66-1.77-.23-3.77.71-5.26-1.03-.18-.21-.47-.13-.67.07-.26.27-.19.55.04.77.58.56,1.28.92,2.08,1.05,1.77.28,3.5-.17,5.38-.19Zm668.96-21.84c0,.55-.04,1.16.59,1.37.63.21.82-.37,1.08-.79.26-.42.55-.83.84-1.23.15-.21.33-.47.08-.65-.64-.46-1.33-1.03-2.11-.92-.8.12-.13.91-.31,1.37-.11.26-.11.57-.16.85Zm-713.23,6.79s0,.04,0,.07c.7,0,1.41.02,2.11,0,.35-.01.86.04.84-.49-.02-.51-.53-.43-.88-.45-1.48-.1-2.98.18-4.42-.41-.44-.18-.84.02-.91.54-.06.46.24.71.66.73.87.03,1.74,0,2.61,0Zm390.74,19.06c.36-.07.91.2,1.14-.38.09-.23-.14-.42-.33-.45-1.3-.23-1.43-.96-1-2.06.17-.44-.01-.95-.63-.98-.55-.03-.67.38-.7.83-.02.37-.03.75-.09,1.11-.25,1.63-.04,1.9,1.61,1.93Zm397.5-37.53s0,0-.01,0c0,.58-.02,1.16,0,1.73.02.41.19.74.66.73.47,0,.69-.34.62-.75-.18-1.19-.11-2.39-.14-3.58,0-.35-.12-.7-.55-.68-.4.02-.56.34-.58.69-.03.62,0,1.24,0,1.86ZM63.5,63.91s.04,0,.06,0c-.04-.7-.06-1.4-.13-2.1-.03-.27-.06-.63-.43-.66-.33-.02-.56.24-.59.53-.1,1.15-.19,2.3-.21,3.45,0,.42.27.82.79.78.51-.04.67-.42.63-.89-.03-.37-.07-.74-.1-1.11Zm810.06-30.96c.04.7-.15,1.52.93,1.55,1.09.03.99-.78.96-1.47-.03-.68.27-1.61-.91-1.65-1.21-.04-.88.92-.98,1.57ZM21.76,60.41h.04c-.06-.79-.11-1.57-.21-2.35-.03-.23-.2-.48-.49-.47-.09,0-.24.15-.24.23-.09,1.49-.4,2.97-.18,4.47.04.31.28.52.62.5.38-.02.45-.34.46-.63.02-.58,0-1.16,0-1.74Zm326.81-2.37c-.32,0-.39.22-.46.48-.35,1.37.07,2.09,1.48,2.46.31.08.66.36.93.06.32-.35,0-.72-.17-1.02-.28-.51-.61-.99-.95-1.47-.2-.28-.48-.46-.83-.52Z"/><path d="m605.77,8.56c-2.84,3.21-5.45,6.67-8.7,8.85,2.7-2.75,5.7-5.8,8.7-8.85Z"/></g></svg>