<?xml version="1.0" encoding="utf-8"?>
<!-- Generator: Adobe Illustrator 27.5.0, SVG Export Plug-In . SVG Version: 6.00 Build 0)  -->
<svg version="1.1" id="Layer_2_00000158024970739474618130000014183195225673452196_"
	 xmlns="http://www.w3.org/2000/svg" xmlns:xlink="http://www.w3.org/1999/xlink" x="0px" y="0px" viewBox="0 0 950 132.1"
	 style="enable-background:new 0 0 950 132.1;" xml:space="preserve">
<g id="Layer_1-2">
	<path d="M950,83.6c0,15.8,0,71.7,0,87.5c0,0.9-0.2,1-1,1c-316,0-632,0-948,0c-0.9,0-1-0.2-1-1c0-15.7,0-71.3,0-87
		c0.7,0,1.4,0,2.1,0c9.1,0,18.2,0,27.4,0c0.5,0,1.1,0.1,1.5-0.3c0.6-0.7,0.5-3.6-0.2-4.2c-0.6-0.4-0.7-0.8-0.1-1.2
		c0.6-0.4,0.8-1,0.8-1.7c0-5,0-10.1,0-15.1c0-0.5,0-1-0.4-1.4c-0.3-0.3-0.9-0.5-0.6-1.1c0.2-0.5,0.8-0.4,1.2-0.4c0.4,0,0.8,0,1.2,0
		c12.3,0,24.7,0,37,0c0.8,0,1.5,0,2.2,0c0.4,0,0.8,0.1,0.9,0.5c0.1,0.5-0.1,0.9-0.5,1c-0.9,0.3-1,1-1,1.8c0.2,4.8,0.3,9.6,0,14.4
		c-0.1,0.9,0.1,1.6,1.1,2c0.5,0.2,0.9,0.9,0.3,1.1c-1.7,0.6-1.3,1.8-1.3,3c0,5.2,0,10.4,0,15.6c0,0.9,0.3,1.4,1.3,1.4
		c0.6,0,1.2,0,1.8,0c4.8-0.1,9.5-0.7,14.2-1.6c5.3-1.1,9.3-3.7,12.3-8.1c1.4-2.1,2.3-4.2,1.9-6.7c-0.1-0.9,0-1.8,0-2.8
		c0-0.6,0.2-1,0.9-1.1c0.7,0,1.1-0.3,1-1.1c-0.1-0.8-0.7-0.8-1.3-0.8c-1.6,0-3.2,0-4.9,0c-1.7,0-1.8-0.1-1.8-1.8c0-6.7,0-13.3,0-20
		c0-2.2,0-2.2,2.2-2.2c6.8,0,13.7,0,20.5-0.1c1.1,0,1.8,0.2,1.7,1.5c-0.1,0.5,0.3,0.8,0.9,0.9c0.5,0,1-0.2,1-0.7
		c-0.1-1.6,0.9-1.5,2-1.6c6.8,0,13.7,0.2,20.5-0.1c1.1,0,1.8,0.2,1.7,1.5c-0.1,0.5,0.2,0.9,0.8,0.9c0.5,0,1-0.1,1-0.7
		c-0.1-1.7,1.1-1.6,2.2-1.6c6.8,0,13.5,0,20.2-0.1c1.1,0,1.9,0.1,1.8,1.5c-0.1,0.5,0.3,0.8,0.9,0.8c0.5,0,1-0.2,0.9-0.8
		c-0.1-1.5,0.9-1.5,2-1.5c5.4,0,10.8,0,16.1,0c1.8,0,1.9-0.2,2-1.9c0-3.6,0-7.2,0-10.8c0-1.7,0.1-1.8,1.7-1.8
		c5.3-0.2,10.7-0.2,16-0.2c2.4,0,2.6,0.1,2.6,2.5c0,10.7,0,21.3-0.1,32c0,0.8,0.2,1.1,1,0.7c0.8-0.4,1.5-0.9,2.3-1.2
		c4.8-2.4,9.6-4.8,14.4-7.2c0.6-0.3,0.8-0.6,0.4-1.1c-1.1-1.3-2.3-2.6-3.7-3.5c-1.5-1-2.6-0.4-2.7,1.4c0,0.3,0,0.6-0.1,0.9
		c0,0.2-0.1,0.5-0.4,0.5c-0.3,0-0.4-0.3-0.4-0.5c0-0.5-0.1-0.9,0-1.4c0-1.1-0.6-1.3-1.5-1.3c-0.9,0-1.5,0.2-1.5,1.3
		c0,1.4,0,2.8-0.1,4.2c0,0.4,0.2,1.1-0.4,1.1c-0.6,0-0.4-0.7-0.4-1.2c0-1.4,0-2.8,0-4.1c0-0.5,0-1.1-0.6-1.3
		c-0.8-0.3-0.9-0.9-0.9-1.6c0-9.4,0-18.8,0-28.2c0-1.1,0.4-1.5,1.5-1.5c3.6,0,7.2-0.1,10.7,0.1c0.8,0.1,1.1-0.1,1-1
		c-0.2-1.5-0.3-3-0.2-4.5c0.1-0.7,0.2-1.3,1-1.5c1.1-0.4,0.9-1,0.2-1.6c-0.9-0.8-1.3-1.8-1.2-3c0-0.8,0-1.6,0.1-2.4
		c0.1-1,0.1-1.7-1-2.1c-0.6-0.2-1.1-0.9-0.2-1.2c1.3-0.4,1.3-1.2,1.1-2.3c-0.1-0.5-0.1-1.1-0.1-1.6c0-2,0.9-3.3,2.8-4
		c0.5-0.2,1-0.5,1.5-0.1c1.5,1.1,2.9,0.9,4.4,0.1c0.4-0.2,0.9-0.2,1.3-0.1c3,1,3,0.9,3.1,4.1c0,1,0.4,1.3,1.3,1.1
		c1.2-0.2,2.4-0.5,3.6-0.4c1.7,0.1,2,0.4,2.2,2.1c0.1,0.5,0.1,1,0.7,1c0.6,0,1-0.4,1.1-1c0.1-0.6-0.1-1.1-0.3-1.7
		c-0.5-1.5-0.3-1.9,1.3-1.9c4.2-0.1,8.5,0,12.8,0c1.3,0,1.6,0.5,1.3,1.8c-0.4,1.8,0.4,2.7,2.2,2.7c0.1,0,0.2,0,0.2,0
		c4-0.1,3.6,0.6,3.5-3.6c0-3-0.1-3,2.9-4.1c0.6-0.2,1.2-0.2,1.8,0.2c1.2,0.8,2.5,0.7,3.7,0.1c0.8-0.4,1.4-0.5,2.1-0.1
		c1.2,0.7,2.4,0.8,3.6,0c0.7-0.5,1.4-0.3,2.2,0.2c1,0.6,2.5,0.6,3.5,0c1-0.6,1.8-0.6,2.7-0.1c1.2,0.6,2.2,0.5,3.3-0.1
		c0.7-0.4,1.4-0.4,2.1,0.1c1.1,0.7,2.4,0.6,3.5,0c0.9-0.5,1.6-0.5,2.5,0c1.1,0.6,2.1,0.6,3.2,0c0.5-0.3,1.1-0.7,1.8-0.3
		c1.6,1,3.2,1,4.7,0c0.4-0.2,0.7-0.2,1.1-0.1c0.8,0.3,1.6,0.6,2.5,0.9c0.7,0.2,0.8,0.6,0.8,1.3c-0.1,1.9-0.1,3.8-0.1,5.6
		c0,0.8-0.1,1.4-0.9,1.7c-0.5,0.2-0.6,0.6-0.6,1.1c0,0.8,0,1.5,0.1,2.2c0.1,1.6,0,3-1.4,4c-0.8,0.6-0.5,1,0.3,1.3
		c0.8,0.3,1,0.9,1,1.6c0,0.7,0,1.3,0,2c0.1,1.6,0.1,3.2-1.5,4.2c-0.5,0.4-0.3,0.9,0.2,1c1.2,0.3,1.3,1.1,1.2,2.1c0,0.8,0,1.6,0,2.4
		c0.1,1.3-0.1,2.5-1.3,3.3c-0.6,0.5-0.7,1,0.2,1.2c1,0.3,1.2,0.9,1.1,1.8c0,0.7,0,1.3,0,2c0.1,1.6,0.1,3.1-1.5,4.1
		c-0.5,0.4-0.3,0.7,0.2,1.1c1.6,1.3,3.5,1.3,5.5,1.3c7.4-0.2,14.7-0.2,22.1,0c1,0,1.4,0.4,1.4,1.4c0,5.4,0,10.8,0,16.1
		c0,1.2-0.5,1.6-1.7,1.6c-2.4-0.1-4.8,0-7.1,0c-1,0-1.5,0.3-1.5,1.4c0,1-0.1,2.1-0.1,3.1c0,0.3,0,0.7-0.4,0.7
		c-0.5,0.1-0.5-0.4-0.5-0.7c0-1,0-2.1,0-3.1c0-0.9-0.4-1.4-1.4-1.4c-2.7,0-5.3,0-8,0c-0.9,0-1.3,0.4-1.3,1.2
		c-0.1,1.5-0.2,3.1-0.2,4.6c0,0.3,0,0.7-0.4,0.7c-0.4,0-0.4-0.4-0.4-0.7c0-1.1,0-2.2,0-3.2c0-1.8-0.9-2.6-2.6-2.6
		c-2.1,0-2.2,0.1-2,2.2c0.1,1.3,0,2.6-1.4,3.3c-0.3,0.2-0.6,0.4-0.4,0.8c0.3,0.4,0.9,0.7,1.2,0.4c1.2-1.2,1.1,0.1,1.3,0.6
		c0.2,0.5,0.6,0.8,0.5,1.4c-0.1,0-0.2,0.1-0.3,0c-0.3-0.1-0.6-0.3-0.8,0.1c-0.1,0.2-0.2,0.5,0,0.7c0.2,0.3,0.5,0.2,0.8,0.2
		c0.4-0.1,0.7-0.1,1.1,0c0.4,0.1,0.8-0.1,0.8-0.5c0-1.3,0.9-1.2,1.9-1.2c14.9,0,29.8,0,44.8,0c1.6,0,1.7,0.1,1.8,1.8
		c0.1,2.6-0.3,5.2-0.1,7.9c0.2,1.8,0,3.7-0.1,5.5c-0.1,1.8,0,3.6,0,5.4c0,0.4,0.2,0.8,0.7,0.9c0.5,0,0.9-0.2,0.9-0.8
		c0-0.2,0-0.4,0-0.6c0.1-3.6,0.2-7.2,0.3-10.9c0-0.8,0-1.4-1-1.6c-0.3-0.1-0.7-0.2-0.7-0.6c0-0.4,0.3-0.7,0.7-0.8
		c1.2-0.4,2.3-1.1,3.4,0.2c0.1,0.2,0.4,0.2,0.7,0.3c0.6,0.2,0.8,0.6,0.4,1.1c-0.5,0.6-0.4,1.1,0.1,1.7c0.9,1,1.8,2.1,2.8,3.1
		c2.8,3.1,5.1,6.7,9,8.8c1,0.5,1.8,1.3,2.8,1.9c1.2,0.8,2.5,1.7,3.7,2.5c1.1,0.7,1.4,0.5,1.4-0.8c0-1.4-0.1-2.8-0.2-4.2
		c-0.1-2.1,0-2.1,2-2.1c7.5,0,15.1,0,22.6,0c2,0,3.4-0.4,4.9-2c5.2-5.5,10.6-10.7,16-16c0.9-0.9,1.3-1.8,1.3-3.1
		c-0.1-3.9,0-7.8,0-11.6c0-1.8,0.1-1.8,1.8-1.8c6.5,0,13.1,0,19.6,0c2.2,0,2.3,0.1,2.4,2.3c0.1,2.1-0.6,4.1-0.5,6.1
		c0.4,4.5,0,9.1,0.4,13.6c0.1,0.8,0,1.4-0.9,1.7c-0.7,0.3-0.6,1-0.5,1.6c0.1,0.7,0.7,0.7,1.2,0.7c0.8,0,1.7,0,2.5,0
		c0.4,0,0.9,0,1-0.5c0.1-0.5-0.3-0.7-0.7-0.9c-0.6-0.2-1-0.4-0.9-1.1c0.4-5.6-0.9-11-0.7-16.6c0-0.3,0-0.6-0.1-0.9
		c-0.5-1.3-0.3-2.6-0.3-4c0-0.7,0.3-1.1,1-1.1c3,0.1,6-0.8,9-0.5c0.5,0,0.9,0,1.4-0.1c3.6-0.5,7.2-0.7,10.8-0.9
		c0.9,0,1.4,0.4,1.4,1.3c-0.1,5.3,1,10.6,0.8,15.9c0,0.3,0,0.6,0.1,0.8c0.1,0.2,0.3,0.4,0.6,0.4c0.3,0,0.4-0.2,0.5-0.5
		c0-0.4,0-0.8,0-1.1c-0.1-4.3-0.2-8.7-0.3-13c0-1.8,0.1-1.9,1.9-1.9c6.5,0,12.9,0,19.4,0c1.5,0,2.4,0.8,2.5,2.3c0,0.3,0,0.7,0.3,0.7
		c0.5,0.1,0.5-0.3,0.5-0.7c0-0.2,0-0.4,0-0.6c0.1-3.2,0.1-3.2,3.3-3.2c2.7,0,5.3,0.2,7.8-1.4c4.3-2.7,8.8-5,13.2-7.4
		c0.9-0.5,1.2-1.1,1.2-2.1c-0.1-7.3,0.2-14.7-0.2-22c0-1.1,0.3-1.6,1.5-1.6c4.8-0.3,9.7-0.1,14.5-0.1c1.6,0,3.2,0,4.9,0
		c1.1,0,1.5,0.5,1.5,1.6c-0.1,2.4,0,4.8-0.1,7.1c0,0.8,0.2,1.3,1,1.6c4.1,1.7,8.4,2.9,12.5,4.7c2.4,1,5,1.7,7.5,2.9
		c2.5,1.2,5.1,1.5,7.8,1c2.4-0.4,4.9-0.6,7.3-0.8c0.9-0.1,1.4-0.3,1.3-1.3c0-0.8,0-1.5,0-2.2c0-0.9-0.3-1.4-1.3-1.4
		c-0.5,0-1,0-1.5,0c-4.9,0-9.8,0-14.8,0c-0.6,0-1.2,0-1.4-0.7c-0.1-0.7,0.1-1.2,0.9-1.4c0.6-0.2,0.7-0.6,0.7-1.2c0-7.5,0-15,0-22.5
		c0-0.9,0-1.7-1-2.1c-0.5-0.2-0.6-0.7-0.5-1.2c0.1-0.5,0.5-0.6,0.9-0.7c0.6-0.1,1.2-0.1,1.7-0.1c15.5,0,30.9,0,46.4,0
		c0.4,0,0.8,0,1.1,0.1c0.5,0.1,0.9,0.2,1,0.8c0.1,0.6-0.1,1.1-0.6,1.2c-1,0.4-0.9,1.1-0.9,1.9c0,7.4,0.2,14.8-0.1,22.2
		c0,0.7,0.1,1.2,0.8,1.5c0.5,0.2,0.9,0.5,0.8,1.1c-0.1,0.6-0.6,0.8-1.1,0.9c-0.5,0.1-1,0.1-1.5,0.1c-4.9,0-9.8,0-14.8,0
		c-1.2,0-1.4,0.4-1.3,2.1c0.1,1.1,0.6,1.3,1.5,1.2c6-0.7,11.9-1.3,17.9-1.9c6.9-0.7,13.8-1.2,20.6-2.1c0.9-0.1,1.8-0.1,2.6-0.1
		c0.4,0,1,0.1,1,0.6c0.1,1.4,0.7,2.8-0.6,4c-0.4,0.3-0.4,0.6-0.1,1c1.1,1.4,1.2,3.2,0.1,4.6c-0.3,0.3-0.3,0.5,0,0.8
		c1.1,1.2,1.1,3.3,0,4.6c-0.4,0.4-0.3,0.7,0,1.1c1.1,1.3,1.1,3.1,0,4.6c-0.2,0.3-0.2,0.5,0,0.8c1.1,1.4,1.1,3.2,0,4.7
		c-0.3,0.4-0.3,0.6,0,1c1.1,1.4,1.1,3.3,0.1,4.6c-0.3,0.3-0.3,0.5,0,0.8c1,1.2,1,3.3,0,4.5c-0.3,0.4-0.5,0.6-0.1,1.1
		c1.2,1.5,1.2,3.1,0,4.7c-0.2,0.3-0.3,0.5-0.1,0.8c0.7,0.9,3.9,0.6,4.4-0.3c2.7-4.5,5-9.2,7.7-13.7c3.6-6.2,7-12.5,10.7-18.7
		c2.2-3.7,3.9-7.7,6.5-11.3c0.5-0.8,1-1.6,1.1-2.6c0.1-1.9,0.1-1.9,2.1-1.9c0.5,0,0.9,0,1.4,0c0.8,0,1.3,0.4,1.2,1.2
		c-0.3,2.2,0.6,4.2,1.2,6.2c1.8,5.8,5.4,10.5,9.9,14.6c1.2,1.1,2.5,1.9,4.1,2.2c1,0.2,1.8-0.1,2.4-0.9c0.6-0.6,0.5-1.1-0.3-1.4
		c-0.4-0.1-1.1-0.4-0.9-0.6c1-1.1,0.8-2.3,0.7-3.5c0-0.1,0.2-0.3,0.3-0.4c0.8-0.7,0.8-1.2-0.3-1.5c-1-0.3-1-0.8-0.3-1.4
		c0.5-0.5,0.6-1,0.3-1.6c-0.3-0.7-0.2-1.2,0.4-1.6c0.7-0.6,0.5-1-0.3-1.3c-0.4-0.1-1.1-0.4-0.9-0.7c0.9-1.1,0.9-2.2,0.7-3.4
		c0-0.1,0.1-0.2,0.2-0.3c1.2-0.9,0.8-1.5-0.4-1.8c-0.3-0.1-0.6-0.4-0.4-0.6c1-0.9,1-2,0.6-3.2c0-0.1,0.2-0.4,0.4-0.6
		c0.9-0.8,0.7-1.2-0.4-1.5c-1-0.3-1-0.8-0.3-1.4c0.4-0.4,0.8-0.8,0.4-1.3c-1-1-0.7-2.1-0.8-3.3c0-1,0.3-1.6,1.4-1.6
		c0.9,0,1.7-0.1,2.6-0.2c0.8,0,1.5-0.1,1.5-1.1c0-1-0.7-1.1-1.4-1.1c-2.6,0-5.2,0-7.9,0c-1,0-1.5,0.3-1.4,1.4c0.1,1.3,0,2.7,0,4
		c0,0.3,0,0.8-0.5,0.7c-0.3,0-0.4-0.4-0.4-0.7c0-0.8,0-1.5,0-2.2c0-3.3,0-3.3-3.4-3.2c-0.9,0-1.3,0.4-1.3,1.3c0,1.6-0.1,3.2,0,4.8
		c0.3,4.2,0.1,8.3,0.1,12.5c0,0.4,0.1,1.1-0.5,1.1c-0.5,0-0.4-0.7-0.4-1c0-5.6,0-11.2,0-16.8c0-1.7,0.1-1.7-1.7-1.8
		c-1.6-0.1-1.7-0.2-1.7-1.8c0-6.4,0-12.8,0.1-19.1c0-1.6,0.1-1.7,1.7-1.7c16.9,0,33.8,0,50.8,0c1.7,0,1.8,0.1,1.8,1.8
		c0,6.2,0,12.4,0,18.6c0,2,0,2-2,2.2c-0.4,0-0.8,0-0.9,0.5c-0.1,0.4,0,0.7,0.3,1c0.6,0.7,1.5,0.6,2.3,0.7c1,0,1.6-0.4,1.5-1.5
		c0-0.8,0-1.6,0-2.4c-0.1-1.2,0.5-1.7,1.6-1.6c0.8,0,1.5,0,2.2,0c0.6,0,1.1-0.2,1.1-0.9c0.1-0.9,0.7-1.1,1.4-1.1
		c5.9,0,11.8,0,17.8,0c0.5,0,1,0.2,1,0.7c0.1,1.4,1,1.4,2,1.4c0.5,0,1.1,0,1.6,0c0.7,0,1,0.4,1,1c0,0.4,0,0.8-0.1,1.2
		c-0.2,1.9,0.6,2.9,2.5,3c1.5,0.1,3,0,4.5,0c0.3,0,0.7,0,0.8-0.2c0.7-0.9,1.4-0.5,2.2,0c0.3,0.2,0.6,0.3,0.9,0.3c4,0,8,0,12,0
		c0.6,0,1-0.3,1.1-0.9c0.1-0.6,0-1.4,0.8-1.5c0.8-0.1,1,0.7,1.4,1.2c0.1,0.1,0.1,0.2,0.2,0.3c1,1.4,1.9,1.4,2.8,0
		c0.3-0.4,0.7-1,1-0.3c0.8,1.6,2.1,1.1,3.3,1.2c1.1,0.1,1.5-0.4,1.5-1.5c-0.1-2.6,0-5.2-0.1-7.8c0-0.9,0.3-1.3,1.2-1.3
		c1,0,1.9,0,2.9,0c3.7,0,7.4,0,11.1,0c0.9,0,1.5,0.1,1.5,1.3c0,4.6,0,9.2,0,13.8c0,0.8-0.1,1.4-1,1.6c-0.3,0.1-0.6,0.2-0.5,0.6
		c0,0.3,0.3,0.4,0.5,0.4c0.9,0.1,1,0.7,1,1.4c0,4.5,0,9.1,0,13.6c0,0.8-0.2,1.3-1.1,1.4c-0.3,0-0.7,0.1-0.7,0.5
		c0,0.4,0.3,0.5,0.7,0.6c1,0.1,1.1,0.8,1.1,1.6c0,2.3,0,4.6,0,6.9c0,0.9,0.3,1.5,1.2,1.7c5,1.3,10,2.8,15.2,3.6
		c5.8,0.9,11.5,0.6,17.3-0.2c-0.3,1-1.2,1.2-2,1.2c-3.8,0.2-7.7,0.6-11.5,0.3c-3.3-0.2-6.7-0.3-10-1.3c-3-0.9-6.1-1.4-9.1-2.4
		c-0.8-0.3-1.2,0-1.2,0.8c0,0.9,0,1.8,0,2.8c0,0.8-0.1,1.5-1.1,1.7c-0.2,0-0.4,0.1-0.5,0.4c0,0.2,0.1,0.4,0.3,0.5
		c1.4,0.2,1.2,1.2,1.2,2.2c0,4.2,0,8.3,0,12.5c0,1.6,0.1,3,2.1,3.3c0.3,0,0.6,0.3,0.9,0.4c1.7,0.9,2,0.8,2-1.2c0-0.2,0-0.5,0-0.8
		c-0.2-1,0.2-1.4,1.3-1.4c1.8,0.1,3.6,0,5.4,0c0.7,0,1.3,0,1.6-0.7c0.5-0.9,1.2-1,2.1-1c4.6,0,9.2,0,13.8,0c1.6,0,1.9,0.4,1.6,2.1
		c0,0.2-0.1,0.5-0.1,0.7c0,0.3-0.1,0.7,0.3,0.9s0.6-0.1,0.8-0.4c0.6-0.7,1.1-1.5,1.9-2c1.2-0.8,1.4-1.8,1.4-3.1c-0.1-3.3,0-6.7,0-10
		c0-0.7,0-1.3,0.6-1.8c0.7-0.6,0.6-1.1-0.4-1.2c-0.8-0.1-1.1-0.6-1.2-1.3c0-0.4-0.2-0.8-0.2-1.2c0.2-0.6,0.2-1.3,0.2-2
		c0-2.2,0-4.5,0-6.8c0-0.9,0.3-1.3,1.2-1.3c3.5,0,6.9,0,10.4,0c0.8,0,1.2,0.4,1.2,1.2c0,1.2-0.1,2.3-0.1,3.5c0,0.4-0.3,1,0.2,1.3
		c0.4,0.3,0.8-0.1,1.1-0.3c1.1-0.5,2.2-1.1,3.2-1.7c1.7-1,1.8-1.6,0.7-3.2c-0.5-0.8-0.4-1.2,0.6-1.3c0.2,0,0.5,0,0.8,0
		c15.2,0,30.4,0,45.6,0c0.3,0,0.6,0,0.9,0c0.4,0,0.9,0,1,0.5c0.2,0.4-0.2,0.7-0.4,1c-0.5,0.4-0.6,0.9-0.6,1.5c0,5.4,0,10.8,0,16.2
		c0,0.7,0.2,1.3,0.7,1.8c2.2,2.2,4.5,4.4,6.7,6.6C944,82.3,946.7,83.4,950,83.6L950,83.6z M691.8,48C691.8,48,691.8,48,691.8,48
		c0-2.5,0-4.9,0-7.4c0-0.4,0.2-0.8-0.3-1c-0.5-0.2-0.7,0.3-1,0.6c-0.3,0.5-0.5,0.9-0.8,1.4c-0.9,1.7-1.7,3.3-2.7,4.9
		c-4.2,6.9-7.9,14.1-12,21.1c-2.8,4.8-5.4,9.7-8.3,14.4c-0.7,1.1-0.6,1.4,0.8,1.4c3.8,0,7.6,0,11.4,0c0.7,0,1.3-0.2,1.8-0.7
		c2.9-3.1,6.3-5.7,8.6-9.3c0.2-0.4,0.5-0.5,0.9-0.5c1.9-0.2,2-0.2,1.9-2.2c-0.2-5.1,0.4-10.2-0.4-15.3
		C691.5,53.1,691.8,50.5,691.8,48L691.8,48z M227.5,102.5c2.3,0,4.6,0,6.9,0c0.4,0,0.8,0.1,1-0.4c0.1-0.4-0.2-0.6-0.4-0.8
		c-0.6-0.5-0.9-1.2-1-1.9c-0.1-1.4-0.1-2.8,0-4.1c0-0.6,0.2-1,0.9-1.2c1.1-0.4,1.2-0.9,0.3-1.7c-0.6-0.6-1.1-1.2-1.1-2
		c-0.1-1.4-0.1-2.8,0-4.1c0-0.5,0.2-0.9,0.8-1.2c1.2-0.5,1.3-0.9,0.3-1.8c-0.6-0.6-1-1.2-1-2.1c-0.1-1.2-0.1-2.3-0.1-3.5
		c0-0.8,0.1-1.5,1-1.8c0.5-0.2,0.8-0.6,0.4-1.1c-0.3-0.5-0.8-0.5-1.2-0.2c-0.6,0.4-1.2,0.8-1.8,1.1c-5.2,2.1-10.1,5-15.2,7.2
		c-1.5,0.6-1.7,1.4-1.7,2.8c0.3,8.9,0.3,17.7,0,26.6c-0.1,2.2,0,2.3,2.2,2.5c1.5,0.2,1.7,0,1.7-1.5c0-3.1,0-6.2-0.1-9.4
		c0-1.2,0.4-1.6,1.5-1.6C223,102.6,225.2,102.5,227.5,102.5L227.5,102.5z M103.2,88.4c-0.7,0.2-0.8,0.6-1,0.9c-1,1.4-1.7,3-3.1,4.1
		c-3,2.3-6,4.8-10,5.4c-4.1,0.7-8.2,1.9-12.5,1.8c-1.3,0-2.7-0.1-4,0c-0.8,0.1-1.2,0.3-1.2,1.2c0,2.6,0,5.2,0.1,7.9
		c0,1.8,0.2,1.9,2,2c4.4,0.1,8.8-0.4,13.2,0.5c1.5,0.3,2.8-0.1,3.8-1.4c3.7-4.5,7.9-8.4,11.7-12.8c0.3-0.3,0.5-0.7,0.6-1.1
		C103.1,94,102.9,91.2,103.2,88.4L103.2,88.4z M696.7,42c-0.5,0.6-0.4,1.2-0.4,1.8c0,1.5,0.1,3.1,0,4.6c-0.2,4,0.3,7.9,0.5,11.8
		c0,0.6,0.2,1,0.5,1.5c1.9,3.3,3.9,6.5,5.8,9.8c0.6,1,1.3,1.5,2.5,1.4c1-0.1,1.9,0.1,2.9,0c1.1-0.1,1.5,0.4,1.4,1.4
		c-0.1,2.5,0,5-0.1,7.5c0,1.2,0.5,1.6,1.6,1.6c1.3,0.1,1.8-0.6,2.5-1.5c0.6-0.8,0.7-1.2-0.4-1.5c-1.1-0.3-1-0.8-0.3-1.5
		c0.5-0.4,0.6-0.9,0.3-1.4c-0.3-0.7-0.2-1.2,0.4-1.8c0.7-0.6,0.5-1.1-0.3-1.3c-0.3-0.1-1-0.4-0.8-0.6c0.9-1.1,0.7-2.4,0.8-3.7
		c0-0.1,0.2-0.2,0.2-0.3c0.9-0.8,0.7-1.2-0.4-1.5c-0.9-0.2-1-0.8-0.3-1.3c0.6-0.5,0.7-1.1,0.4-1.8c-0.3-0.6-0.1-1,0.4-1.4
		c0.8-0.7,0.7-1.2-0.3-1.4c-0.8-0.2-1-0.6-0.5-1.4c0.8-1.1,0.6-1.4-0.7-1.6c-1.9-0.2-3.5-1-4.9-2.3c-4.5-4-8.2-8.6-10.1-14.5
		C697.2,42.6,697.1,42.3,696.7,42L696.7,42z M560.6,98.5c0,3.4,0,6.8,0,10.1c0,1,0.4,1.4,1.4,1.4c2.3,0,4.7,0,7,0
		c1.1,0,1.6-0.4,1.6-1.5c0-1.1,0-2.2,0-3.4c0-0.8-0.1-1.6,0.7-2.1c0.3-0.2,0.3-0.5,0-0.8c-1.1-1.3-1.1-3.4-0.1-4.6
		c0.3-0.4,0.4-0.6,0-1.1c-1.1-1.2-1.1-3.3,0-4.5c0.3-0.3,0.4-0.6,0-0.9c-1-1.1-1.1-3.4-0.1-4.5c0.4-0.4,0.4-0.7,0-1.1
		c-1-1.1-1-3.4-0.1-4.4c0.3-0.4,0.5-0.6,0-1c-1-1-0.9-3.4,0-4.4c0.4-0.4,0.5-0.7,0-1.1c-1-1.1-1-3.3,0-4.5c0.3-0.4,0.3-0.5,0-0.9
		c-1-1-1-3.3,0-4.5c0.2-0.3,0.6-0.6,0.2-1c-0.8-0.8-1.8-1.2-3-1c-1.1,0.2-0.8,1.3-0.8,2c0.2,10.8-0.3,21.6-0.3,32.3
		c0,0.1,0,0.2,0,0.2c-0.1,0.4,0.2,1-0.4,1c-0.5,0-0.4-0.7-0.4-1c0-3.5,0-6.9,0-10.4c0-0.8,0.1-1.7-1.1-1.7c-1.2,0-1.1,0.9-1.1,1.7
		c0,1.2,0,2.3,0,3.5c0,0.3,0.1,0.9-0.4,0.9c-0.4,0-0.3-0.5-0.3-0.8c0-0.8,0-1.5,0-2.2c0-3.2,0.3-3.1-3.3-3c-0.5,0-0.9,0.1-1,0.7
		c-0.1,0.5,0,1,0.5,1.1c0.9,0.3,0.9,0.9,0.9,1.7C560.6,91.9,560.6,95.2,560.6,98.5L560.6,98.5z M58.6,80.1c-2.5,0-4.9,0.1-7.4,0
		c-2.7-0.2-5.2,0.2-6.9,2.5c-0.1,0.1-0.3,0.2-0.4,0.3c-0.3,0.2-0.8,0.4-0.6,0.8c0.2,0.4,0.6,0.3,1,0.3c2.6,0,5.2,0,7.8,0
		c3.9,0.1,3.5-0.7,3.5,3.7c0,0.7-0.1,1.2-0.9,1.4c-0.5,0.1-0.6,0.5-0.6,1c0,1,0,1.9,0,2.9c0,0.4,0.1,0.9,0.6,1
		c0.8,0.2,0.9,0.8,0.9,1.4c0,0.8,0.3,1.3,1.2,1.5c2.6,0.5,5.1,1.1,7.7,1.6c1.5,0.3,3,0.4,4.5,0.3c0.9,0,1.3-0.4,1.3-1.3
		c0-1.2,0-2.4,0-3.6c-0.1-4.1,0.2-8.2-0.2-12.2c-0.1-1.3-0.7-1.6-1.8-1.6C65,80.2,61.8,80.1,58.6,80.1L58.6,80.1z M378.5,86
		c-0.4,1-0.2,1.8-0.2,2.5c0,1.9-0.3,3.7-0.6,5.6c-0.4,2.4,0,4.8,0.1,7.2c0,0.6,0.4,1,0.8,1.4c2.8,2.8,5.5,5.5,8.3,8.3
		c0.7,0.7,1.5,1,2.6,1c3.1,0,6.2,0,9.4,0c0.7,0,1.6,0.2,1.7-0.8c0-1,1-2.4-0.7-3c-0.5-0.2-0.6-0.6-0.6-1.1c0-0.7,0-1.4,0-2.1
		c0-0.4-0.1-0.9-0.5-1.1c-2.6-1.1-4.7-3-7-4.6c-2.6-1.8-5.2-3.7-7.2-6.3C382.8,90.6,380.6,88.4,378.5,86L378.5,86z M61.5,125
		L61.5,125c1.3,0,2.7,0,4,0c1.1,0.1,1.6-0.4,1.5-1.5c-0.1-3.4,0-6.8,0-10.2c0-1.2,0.3-1.8,1.6-1.7c1,0.1,1.3-0.4,1.4-1.4
		c0.3-3,0.1-6,0.2-9c0-1.2-0.4-1.6-1.6-1.6c-3.7-0.1-7.3-0.2-10.8-1.4c-2-0.7-3.7,0.7-3.7,2.8c0,0.5,0,1,0,1.5c0,0.7,0,1.4,0.9,1.7
		c0.5,0.2,0.6,0.7,0.6,1.1c0,0.7,0,1.3,0,2c0,0.9,0.1,1.8-1,2.1c-0.3,0.1-0.4,0.5-0.4,0.8c0,1,0,1.9,0,2.9c0,0.4,0.1,0.8,0.6,0.8
		c0.5,0.1,0.8-0.2,0.8-0.7c0.1-1,0.8-1.2,1.7-1.2c2,0,3.9,0,5.9,0c1.5,0,1.7,0.2,1.7,1.8c0,2-0.2,4-0.2,6c0,1.2-0.5,1.6-1.6,1.5
		c-1.8,0-3.6,0-5.4,0c-1.1,0-2-0.1-2.2-1.5c0-0.3-0.3-0.6-0.7-0.6c-0.3,0-0.5,0.2-0.7,0.5c-1.2,2.7,0.2,5.2,3.2,5.3
		C58.7,125.1,60.1,125,61.5,125L61.5,125z M438.8,99.7C438.8,99.7,438.8,99.7,438.8,99.7c0-3.4,0-6.8-0.1-10.2
		c0-1.1,0.4-1.5,1.5-1.5c3.3,0,6.7,0,10,0c0.5,0,1,0,1.3,0.3c1,0.8,1.7,0.7,2-0.7c0.1-0.4,0.5-0.6,0.8-0.7c0.4-0.2,0.6-0.5,0.6-0.9
		c0.1-1-0.5-1.2-1.3-1.2c-2,0-4.1,0-6.1-0.1c-1.6-0.1-1.8-0.3-1.8-1.9c0-1.2,0-2.5,0-3.8c0-0.4,0.2-1-0.3-1.2
		c-0.5-0.2-0.8,0.3-1.1,0.6c-5.2,5.3-10.4,10.7-15.9,15.7c-0.3,0.2-0.6,0.5-0.5,0.9c0.1,0.4,0.6,0.3,1,0.3c1.2,0,2.5,0,3.8,0
		c0.8,0,1.3,0.3,1.2,1.3c-0.1,3.2-0.1,6.4-0.1,9.6c0,0.9-0.1,1.6-1.1,1.9c-0.9,0.3-0.6,1.2-0.6,1.8c0,0.7,0.5,0.6,1,0.6
		c1.3,0.1,2.6,0.3,4,0.4c1.4,0.1,1.7-0.1,1.7-1.6C438.8,106.4,438.8,103.1,438.8,99.7L438.8,99.7z M215.4,81.1
		c0,1.3,0.4,1.6,1.3,1.1c5.3-2.8,10.6-5.6,16.2-7.8c0.9-0.4,1.2-1.1,1.1-2c-0.1-1.3-0.1-2.6-0.1-3.9c0-0.7,0.1-1.3,0.9-1.6
		c0.5-0.1,1-0.4,0.6-1.1c-0.3-0.5-0.9-0.6-1.4-0.2c-1.5,1.2-3.3,1.9-5,2.8c-4.2,2.1-8.3,4.4-12.7,6.1c-0.7,0.3-0.9,0.8-0.9,1.4
		C215.3,77.7,215.7,79.5,215.4,81.1L215.4,81.1z M930.9,83.5L930.9,83.5c4,0,7.9,0,11.9,0c0.4,0,1,0.2,1.1-0.3
		c0.2-0.5-0.4-0.8-0.7-1c-1.6-1.3-3-2.7-4.4-4.2c-1-1.1-2.1-2.2-3.2-3.3c-0.3-0.3-0.7-0.8-1.1-0.2c-0.3,0.5,0,4,0.4,4.5
		c0.3,0.3,0.8,0.6,0.5,1.2c-0.3,0.5-0.8,0.4-1.2,0.4c-3.7,0.1-7.5,0.1-11.2,0.2c-2.5,0-4.9,0-7.4,0c-0.9,0-1.2,0.3-1.2,1.3
		c0.1,2,0.1,4,0.1,6c0,1.7,0.4,2.1,2,2.5c1,0.2,1.3-0.1,1.3-1.1c0-1.4,0-2.8,0-4.1c0-1.6,0.2-1.8,1.8-1.8
		C923.2,83.5,927.1,83.5,930.9,83.5L930.9,83.5z M217.1,128.1L217.1,128.1c5.4,0,10.9,0,16.4,0c1.6,0,1.8-0.2,1.8-1.7
		c0-1.4-0.2-1.6-1.7-1.6c-3.2,0-6.4,0-9.6,0c-1.8,0-3.6,0.2-5.2-0.8c-0.3-0.2-0.7-0.1-1.1,0c-1.8,0.1-3.6,0.4-5.4,0.3
		c-1.7-0.1-3.3,0.6-5.1,0.2c-2-0.4-4.3,0.1-6.4,0.2c-1.5,0.1-1.6,0.3-1.7,1.8c0,1.3,0.8,1.4,1.8,1.4
		C206.2,128,211.7,128.1,217.1,128.1L217.1,128.1z M530.7,60.8c0.5,0.4,1,0.2,1.4,0.2c3.2,0,6.3,0,9.5,0c1.9,0,2,0,2,2
		c0,6.7,0,13.4,0,20.1c0,0.8,0,1.4-0.9,1.6c-0.7,0.2-0.7,0.9-0.6,1.5c0.1,0.6,0.5,0.8,1.1,0.8c0.9,0,1.8,0,2.8,0
		c0.5,0,0.9-0.2,1-0.8c0.1-0.5,0-0.9-0.6-1.1c-0.9-0.2-1-0.9-1-1.6c0-1.8,0.1-3.5,0.1-5.2c0-0.8,0.1-1.6-1.6-1.6
		c1.6-0.7,1.6-1.8,1.6-2.8c0-6.6,0-13.2,0-19.9c0-0.2,0-0.5,0-0.8c-0.1-0.8-0.5-0.9-1.1-0.3c-0.6,0.6-1.3,1-2,1.4
		C538.6,56.7,534.5,58.3,530.7,60.8L530.7,60.8z M817.3,122.5c3.6,0,7.1,0,10.7,0c0.8,0,1-0.5,1-1.2c0-1.9,0-3.8,0-5.7
		c0-0.8-0.4-1.2-1.2-1.3c-2.9-0.5-5.8-1.1-8.7-1.6c-0.7-0.1-1.4-0.1-1.8,0.5c-0.5,0.6,0,1.2,0.3,1.7c0.5,0.8,0.7,1.5-0.5,1.8
		c-1,0.2-0.8,0.6-0.2,1.1c0.4,0.3,0.9,0.6,0.4,1.2c-0.5,0.7-0.4,1.2,0.1,1.8C818.1,121.3,818.2,121.9,817.3,122.5L817.3,122.5z
		 M326,95.3c0-3.8,0-7.6,0-11.4c0-1.8-0.6-2.2-2.3-1.7c-0.8,0.2-1.4,0.7-1.9,1.3c-0.4,0.5-0.5,1.1,0.2,1.3c1,0.3,1.1,1,1.1,1.8
		c0,0.7-0.1,1.3,0,2c0.2,1.6,0,3-1.4,4c-0.5,0.4-0.4,1,0.2,1.1c1.1,0.3,1.1,1,1.1,1.9c0,0.8-0.1,1.7,0,2.5c0.1,1.3-0.1,2.4-1.2,3.2
		c-0.7,0.6-0.7,1.2,0.2,1.4c0.7,0.2,0.9,0.7,0.9,1.3c0,0.8,0,1.6,0,2.4c0.1,1.5,0.2,2.9-1.2,4c-0.7,0.6-0.3,1.3,0.7,1.4
		c1.1,0.1,2.2,0,3.4,0c0.6,0,1.4,0.1,1.4-0.8c0-1,0.6-2.2-0.5-2.8c-0.8-0.4-0.9-1-0.9-1.7C326,102.9,326,99.1,326,95.3L326,95.3z
		 M443.3,125.5L443.3,125.5c2.6,0,5.2,0,7.9,0c2.1,0,2.4-0.4,2.1-2.4c-0.1-0.8-0.4-1-1.1-0.6c-0.8,0.5-1.6,0.7-2.5,0.7c-3,0-6,0-9,0
		c-1.9,0-2-0.2-2-2c0-2.5,0-5,0-7.5c0-0.9-0.3-1.3-1.2-1.2c-1.2,0.1-2.3,0.1-3.5-0.2c-0.6-0.2-0.8,0.1-0.8,0.7c0,3.7,0.1,7.3,0,11
		c0,1.2,0.5,1.6,1.6,1.6C437.7,125.5,440.5,125.5,443.3,125.5L443.3,125.5z M818.8,111.9c1.6-0.3,3,0.4,4.4,0.6s2.9,0.3,4.3,0.7
		c1.3,0.3,1.4,0.3,1.4-1.1c0-1.9,0-3.8,0-5.6c0-0.4-0.1-1.1,0.4-1.2c1.6-0.2,1.3-1.3,1.3-2.3c0-1.4-0.3-1.7-1.8-1.7
		c-1.4,0-1.6,0.2-1.7,1.7c0,0.3,0,0.6,0,0.9c0,0.3-0.1,0.6-0.5,0.6c-0.4-0.1-0.4-0.4-0.4-0.7c0-0.5,0.1-0.9,0.1-1.4
		c0-0.4-0.1-0.8-0.6-1c-1.4-0.6-3,0.1-3.4,1.6c-0.7,2.2-1.8,4-3.7,5.3c-0.4,0.2-0.6,0.6-0.6,1c0,0.8-0.3,1.3-1.1,1.5
		c-0.2,0.1-0.5,0.2-0.4,0.5c0,0.3,0.3,0.4,0.5,0.5C817.7,111.8,818.3,111.8,818.8,111.9L818.8,111.9z M356.4,112c4.2,0,8.3,0,12.5,0
		c1.5,0,1.6-0.1,1.6-1.7c0-1.8-0.1-1.9-1.6-2.1c-3-0.3-6.1,0-9.1,0c-5.3,0-10.6,0-15.9,0c-1.3,0-1.6,0.5-1.6,2.5
		c0,1.2,0.7,1.2,1.6,1.2C348.1,112,352.2,112,356.4,112L356.4,112z M567.5,39.2c0.1,1-0.1,2,1.2,2.5c3.1,1.2,6,2.9,8.8,4.7
		c0.6,0.4,1.3,0.7,2,0.5c2.9-0.4,5.9-0.3,8.8-0.9c0.2,0,0.6,0,0.6-0.3c0-0.2-0.2-0.3-0.4-0.4c-0.2-0.2-0.5-0.3-0.8-0.4
		c-6.3-1.9-12.4-4.5-18.5-6.8C567.7,37.5,567.5,37.7,567.5,39.2L567.5,39.2z M567.6,51.1L567.6,51.1c0,0.2,0,0.4,0,0.6
		c0,2.5,0,5.1,0,7.6c0,1.5,0.8,2,2.1,1.7c0.3-0.1,1.8-2.2,1.7-2.5c0-0.1-0.1-0.2-0.2-0.3c-1.1-1.4-1.2-3.3-0.1-4.7
		c0.2-0.3,0.5-0.6,0.2-0.9c-1.2-0.8-0.8-2-0.9-3.1c0-1.5,0.3-1.9,1.9-2c1.1-0.1,2.2,0,3.2-0.1c0.4,0,0.9,0,1.1-0.4
		c0.2-0.5-0.4-0.7-0.7-0.8c-2.4-1.3-5-2.3-7.3-3.7c-1-0.6-1,0.2-1,0.8C567.6,45.9,567.6,48.5,567.6,51.1L567.6,51.1z M94.5,112.1
		L94.5,112.1c0.7,0,1.4-0.1,2.1,0c1.3,0.2,2-0.4,2.5-1.6c1.1-2.5,2.2-5,3.4-7.5c0.4-1,0.7-2,0.6-3c0-0.4,0.2-0.9-0.2-1.2
		c-0.5-0.2-0.7,0.3-1,0.6c-1.8,1.8-3.1,3.9-5,5.6c-2.1,1.8-3.8,3.9-5.6,6c-0.2,0.2-0.5,0.4-0.4,0.7c0.1,0.4,0.5,0.3,0.9,0.3
		C92.6,112.1,93.5,112.1,94.5,112.1z M413.9,109.7c-0.7,0.5-1.4,0.6-1.9,1.1c-0.3,0.3-0.8,0.5-0.6,1c0.2,0.4,0.6,0.3,1,0.3
		c4.6,0,9.2,0,13.9,0c0.5,0,1,0.2,1.4-0.3c-0.3-0.5-0.8-0.4-1.2-0.4c-2.4-0.1-4.8-0.5-7.2-0.9c-2.7-0.5-5.3-1.6-8.1-1.9
		c-2.6-0.3-5.2-0.2-7.9-0.2c-0.7,0-1,0.4-1,1.1c0,0.4,0,0.8,0,1.2c0,1,0.4,1.3,1.4,1.3c1.6,0,3.2-0.1,4.8,0c1.2,0.1,2.1-0.2,2.8-1.2
		C411.8,110,412.5,109.4,413.9,109.7L413.9,109.7z M869.5,89.3L869.5,89.3c0-2.2,0-4.4,0-6.6c0-0.3,0-0.7-0.4-0.9
		c-0.4-0.2-0.6,0.2-0.8,0.4c-0.7,0.8-1.3,1.6-2.1,2.3c-0.9,0.7-1.2,1.5-1.1,2.6c0.2,2.4,0.3,4.7,0.1,7.1c-0.3,3.2-0.2,2.8,2.9,2.9
		c1,0,1.4-0.4,1.4-1.4C869.5,93.5,869.5,91.4,869.5,89.3L869.5,89.3z M834.6,91.1L834.6,91.1c0,0.9,0,1.8,0,2.6
		c0,3.6,0.2,3.8,3.8,3.3c0.7-0.1,1.1-0.4,1.1-1.1c0-2.6,0-5.2,0-7.9c0-0.6-0.2-1.1-0.8-1.3c-1-0.3-1.9-0.8-2.8-1.3
		c-0.9-0.4-1.3-0.1-1.3,0.9C834.6,87.9,834.6,89.5,834.6,91.1L834.6,91.1z M887,62C887,62,887,62,887,62c0-1,0-2,0-3
		c0-0.4,0.2-1-0.1-1.2c-0.5-0.3-0.8,0.3-1.2,0.5c-0.4,0.2-0.7,0.5-1.1,0.6c-2.8,0.7-3.9,2.3-3.3,5.1c0,0.1,0,0.2,0,0.2
		c0,0.7-0.3,1.2-1.1,1.3c-0.4,0-1,0-0.9,0.6c0.1,0.5,0.7,0.4,1.1,0.4c1.8,0,3.7-0.1,5.5-0.1c0.8,0,1.1-0.3,1.1-1.1
		C887,64.2,887,63.1,887,62L887,62z M904.3,105c0.9,0,1.8,0,2.6,0c0.7,0,1.1-0.3,1.1-1.1c0-1.3,0-2.7,0-4c0-0.8-0.4-1.2-1.1-1.2
		c-1.1,0-2.2,0-3.4,0c-2.7,0-2.7,0-2.8,2.7C900.8,105.6,900.4,105,904.3,105L904.3,105z M195.3,100.7
		C195.3,100.7,195.3,100.7,195.3,100.7c0-2,0-4,0-6c0-0.4,0.2-0.9-0.4-1c-1-0.1-2.9,1.6-2.9,2.6c0,2.4,0,4.8-0.1,7.2
		c-0.1,1.5-0.1,2.9,1.9,3.2c0.2,0,0.4,0.2,0.5,0.3c0.8,0.6,1.1,0.3,1.1-0.6C195.3,104.6,195.3,102.6,195.3,100.7L195.3,100.7z
		 M38.1,84c2.5,0.7,4.8-0.4,6.7-2.7c0,0,0.1-0.1,0.1-0.1c0.2-0.3,0.8-0.4,0.6-0.8c-0.2-0.4-0.7-0.2-1-0.2c-3.1,0-6.2,0-9.2,0
		c-2,0-2.1,0.1-2.1,2.1c0,0.2,0,0.4,0,0.6c0,0.8,0.4,1.2,1.1,1.2C35.3,84,36.5,84,38.1,84L38.1,84z M531.7,87c2.5,0,4.9,0,7.4,0
		c1,0,1.3-0.6,1.3-1.4c0-0.8-0.6-1-1.2-0.9c-4.4,0.1-8.8-0.3-13.1,0.2c-0.7,0.1-1.5,0.6-2.2-0.2c-0.2-0.2-0.4,0-0.5,0.2
		c-0.5,1,0.1,2.1,1.3,2.1C527,87.1,529.3,87,531.7,87L531.7,87z M336,112L336,112c1.3,0,2.6,0,3.9,0c1,0,1.6-0.2,1.6-1.4
		c0-1.9-0.1-2.2-1.4-2.4c-2.8-0.3-5.6,0.1-8.4,0.1c-0.6,0-1,0.4-1,1c0,0.5,0,0.9-0.1,1.4c-0.1,0.9,0.3,1.3,1.2,1.3
		C333.3,112,334.7,112,336,112L336,112z M219.3,119.3C219.3,119.3,219.3,119.3,219.3,119.3c0-0.3,0-0.6,0-0.9c0-2.8,0-2.8-2.9-2.9
		c-0.8,0-1.1,0.2-1,1c0.1,1.1,0.1,2.2,0.1,3.2c0,0.9-0.4,1.3-1.3,1.5c-1.4,0.2-2.8,0.1-4.1,0.2c-1,0.1-1.4,0.9-0.9,1.7
		c0.3,0.5,0.9,0.4,1.4,0.4c2.6,0,5.2-0.8,7.8-0.6c0.7,0.1,0.9-0.3,0.9-1C219.3,121,219.3,120.2,219.3,119.3L219.3,119.3z M834.8,105
		L834.8,105c0.5,0,1.1,0,1.6,0c2.2-0.1,3-1.1,3.1-4.2c0-1.8,0.2-2.2-2.6-2.1c-0.4,0-0.7-0.1-1.1-0.1c-0.8-0.1-1.2,0.3-1.2,1.1
		c0.1,1.1-0.4,1.6-1.5,1.6c-0.9,0-1.2,0.4-1.3,1.2c-0.2,2.4-0.2,2.4,2.2,2.4C834.2,105,834.5,105,834.8,105L834.8,105z M903.3,90.7
		L903.3,90.7c0,0.5,0,1.1,0,1.6c0,3.9-0.1,2.9,3.2,3.5c0,0,0.1,0,0.1,0c0.9,0.1,1.3-0.2,1.3-1.2c0-1.9,0-3.8,0-5.7
		c0-0.4,0-1.1-0.6-1.1c-0.6,0-0.6,0.6-0.7,1c-0.1,0.3,0,0.9-0.5,0.9c-0.5-0.1-0.3-0.7-0.3-1.1c0.1-1.4-0.3-1.9-1.7-2.2
		c-0.7-0.2-1,0-1,0.8C903.3,88.3,903.3,89.5,903.3,90.7L903.3,90.7z M161.5,79L161.5,79c1.1,0,2.2,0,3.2,0c1.2,0,2.5,0,3.7,0
		c0.6,0,1.1-0.2,1.1-0.9c0-0.7-0.5-0.9-1.1-0.9c-0.2,0-0.4,0-0.6,0c-4.3,0-8.6,0-13,0c-0.7,0-1.6,0-1.5,1c0,0.9,0.8,0.9,1.5,0.9
		C157.1,79,159.3,79,161.5,79L161.5,79z M147.3,65.2L147.3,65.2c0,2.2,0,4.5,0,6.7c0,0.7,0.1,1.4,1,1.4c0.9,0,0.9-0.7,0.9-1.3
		c0-4.4,0-8.9,0-13.4c0-0.7-0.1-1.3-1-1.3c-0.9,0-0.9,0.7-0.9,1.3C147.3,60.8,147.3,63,147.3,65.2L147.3,65.2z M173.3,65.2
		L173.3,65.2c0,2.3,0,4.6,0,6.9c0,0.6,0.1,1.2,0.9,1.2c0.9,0,1-0.5,1-1.2c0-4.5,0-9,0-13.5c0-0.7-0.1-1.3-1-1.3
		c-0.9,0-0.9,0.7-0.9,1.3C173.3,60.8,173.3,63,173.3,65.2L173.3,65.2z M135.4,77.1c-2.3,0-4.6,0-6.9,0c-0.6,0-1.1,0.1-1.2,0.8
		c0,0.7,0.5,1,1.1,1c0.2,0,0.3,0,0.5,0c4.3,0,8.7,0,13,0c0.7,0,1.5,0.1,1.4-0.9c0-0.9-0.8-1-1.4-1C139.8,77.1,137.6,77.1,135.4,77.1
		L135.4,77.1z M689.2,80.2c0-1.1,0-1.9,0-2.8c0-0.3,0-0.6-0.3-0.8c-0.3-0.2-0.6,0.1-0.8,0.3c-1.9,1.9-3.8,3.7-5.7,5.6
		c-0.6,0.6-0.3,1,0.5,1c0.9,0,1.8,0,2.6,0C689.9,83.5,689.2,84,689.2,80.2L689.2,80.2z M195.1,124.5c0.5,0,1,0,1.5,0
		c0.9,0,1.7,0,1.7-1.2c0-1.5-0.1-1.9-1.5-2c-1-0.1-1.6-0.4-1.5-1.5c0-0.6-0.2-0.9-0.8-1.1c-1.8-0.5-2.6,0.1-2.6,1.9
		c0,0.2,0,0.5,0,0.8C191.9,124.7,191.3,124.5,195.1,124.5L195.1,124.5z M123.2,65.3c0,0-0.1,0-0.1,0c0-2.2,0-4.4,0-6.6
		c0-0.7,0.1-1.3-0.8-1.3c-0.9,0-0.9,0.6-0.9,1.3c0,1.3,0,2.7,0,4c0,3,0,6.1-0.1,9.1c0,0.8-0.2,1.5,0.9,1.5c1.1,0.1,1.1-0.7,1.1-1.5
		C123.2,69.7,123.2,67.5,123.2,65.3L123.2,65.3z M697.1,63.5l-0.2,0.1c0,2.9,0,5.8,0,8.8c0,0.5,0.4,0.7,0.9,0.7c1.1,0,2.2,0,3.4,0
		c0.8,0,0.9-0.4,0.6-1.1c-0.5-1-1-2.1-1.6-3.1C699.1,67.1,698.1,65.3,697.1,63.5L697.1,63.5z M415.7,108.5c0.3,0.5,0.7,0.4,1,0.5
		c3.8,1,7.8,1.3,11.7,1.8c1.5,0.2,1.9-0.3,1.5-1.8c-0.3-1-1.1-0.9-1.8-0.9c-3,0.2-6.1-0.2-9.1-0.1
		C417.9,108.2,416.8,108.2,415.7,108.5L415.7,108.5z M900.8,87.9C900.8,87.9,900.8,87.9,900.8,87.9c0,2,0,4,0,6
		c0,0.6-0.1,1.4,0.8,1.4c1,0,0.9-0.8,0.9-1.4c0-1.6,0-3.2,0-4.7c0-1.3,0.3-2.7-0.7-3.8c-0.1-0.2-0.2-0.5,0-0.6
		c1.2-0.6,0.7-1.7,0.7-2.7c0.1-0.7-0.1-1.3-0.9-1.3c-0.9-0.1-0.9,0.7-0.9,1.3C900.7,84,900.8,85.9,900.8,87.9L900.8,87.9z
		 M565.5,122.8L565.5,122.8c-1.2,0-2.4,0-3.6,0c-0.7,0-1.3,0.1-1.4,1.1c0,0.9,0.5,1.1,1.3,1.2c2.9,0.4,5.8,0.1,8.7,0
		c0.8,0,1.1-0.2,0.6-1c-0.6-0.9-1.3-1.3-2.4-1.3C567.7,122.9,566.6,122.8,565.5,122.8L565.5,122.8z M195.3,89.1c0-0.6,0-1.2,0-1.9
		c0-0.6,0.2-1.4-0.8-1.5c-1.1-0.1-2.3,0.6-2.4,1.3c-0.1,1.9-0.2,3.8-0.2,5.7c0,0.7,0.3,0.9,0.9,0.7c1.8-0.4,2.4-1.2,2.4-3
		C195.3,90,195.3,89.6,195.3,89.1L195.3,89.1z M520,75.6C520,75.6,519.9,75.6,520,75.6c0-2.6,0-5.2,0-7.9c0-0.4,0-0.9-0.5-0.8
		c-0.4,0-0.4,0.5-0.4,0.8c0,0.2,0,0.3,0,0.5c0,5.3,0,10.7,0,16c0,0.8,0.1,1.7-0.9,2.2c-0.2,0.1-0.4,0.2-0.3,0.5
		c0,0.1,0.2,0.2,0.4,0.2c1,0.1,2-0.2,2.8-0.9c0.5-0.4,0.4-1-0.2-1.3c-0.9-0.4-0.9-1.1-0.9-1.8C520,80.5,520,78,520,75.6L520,75.6z
		 M203.4,121.4c-1.2,0-2.3,0-3.5,0c-0.9,0-0.9,0.7-1,1.3c0,0.5-0.1,1.2,0.6,1.1c2.6-0.1,5.2,0.2,7.7-0.3c0.6-0.1,0.9-0.5,0.9-1.2
		c0-0.7-0.3-1-1-1.1C206,121,204.7,121.1,203.4,121.4L203.4,121.4z M191.8,110.5C191.8,110.5,191.8,110.5,191.8,110.5
		c0,0.5,0,1.1,0,1.6c0,1.9,0.1,1.9,2,1.9c1.1,0,1.5-0.5,1.4-1.5c0-0.6,0-1.2,0-1.9c0-2.1-0.4-2.7-2.4-3.3c-0.6-0.2-1-0.1-1,0.6
		C191.8,108.8,191.8,109.7,191.8,110.5L191.8,110.5z M819,101.1c-2-0.1-2.2,0.1-1.3,1.9c0.2,0.4,0.5,1,0,1.2
		c-1.6,0.6-1.1,1.3-0.3,2.2c0.1,0.2,0.1,0.5,0.1,0.7c0,0.2-0.1,0.5,0.2,0.7c0.3,0.2,0.5-0.1,0.8-0.3c1-0.9,1.9-1.9,2.5-3.2
		C822.1,101.5,822,101.2,819,101.1L819,101.1z M461.8,84.7L461.8,84.7c-1,0-2,0-3,0c-0.7,0-1.5,0.1-1.5,1.1c0,1,0.7,1.2,1.5,1.2
		c2,0,4,0,6,0c0.9,0,1.3-0.4,1.3-1.3c0.1-0.9-0.5-1.1-1.3-1.1C463.9,84.6,462.8,84.6,461.8,84.7L461.8,84.7z M725,22.6
		c-1.2,0-2.4,0-3.6,0c-0.4,0-0.8-0.1-1,0.3c-0.2,0.4,0.1,0.8,0.3,1.1c0.3,0.4,0.6,0.7,1.1,0.7c2.3,0,4.7,0,7,0c0.6,0,1.2-0.3,1.2-1
		c0-0.8-0.5-1.1-1.2-1.1C727.4,22.6,726.2,22.6,725,22.6z M917.5,101.8C917.5,101.8,917.6,101.8,917.5,101.8c0-0.5,0-1.1,0-1.6
		c0.1-1.3-0.2-1.6-1.6-1.5c-0.4,0-0.8,0.1-1.1,0.1c-0.5,0.1-0.7,0.3-0.7,0.8c0,1.4,0,2.8,0.1,4.2c0,0.7,0.3,1,1,1.1
		c1.9,0.2,2.2-0.1,2.2-2C917.5,102.7,917.5,102.3,917.5,101.8L917.5,101.8z M112,77.1c-1.3,0-2.6,0-3.9,0c-0.6,0-1.2,0-1.2,0.8
		c0,0.8,0.5,1.1,1.2,1.1c2.6,0,5.1,0,7.7,0c0.6,0,1.1-0.2,1.1-0.9c0-0.8-0.4-1-1.1-1C114.5,77.1,113.3,77.1,112,77.1L112,77.1z
		 M566,119.5L566,119.5c1.5,0,3,0,4.5,0c0.3,0,0.7,0,0.8-0.4c0.2-0.4-0.2-0.7-0.5-0.9c-0.6-0.4-1.3-0.6-2-0.6
		c-2.4,0.2-4.8,0.1-7.1,0.1c-0.5,0-1.2,0-1.2,0.8c0,0.8,0.6,0.9,1.2,0.9C563.1,119.5,564.5,119.5,566,119.5L566,119.5z M487.5,87
		L487.5,87c1,0,1.9,0,2.9,0c1.2,0,1.5-0.5,1.5-1.8c0-1.1-0.9-0.9-1.5-0.9c-1.1,0.1-2.1,0.2-3.2,0.4c-1,0.2-2,0.5-2.8,1.2
		c-0.2,0.2-0.6,0.4-0.4,0.8c0.1,0.3,0.5,0.2,0.8,0.2C485.6,87,486.6,87,487.5,87L487.5,87z M917.6,94.1c-0.1-1.6-0.9-2.5-2.4-3
		c-2.3-0.7-0.1,0-0.1,0c-0.7-0.3-1,0-0.9,0.7c0.2,1.2,0.2,2.3,0,3.5c-0.1,0.5,0,0.9,0.5,1.1c1.9,0.7,3.1-0.1,2.9-2.1
		C917.6,94.3,917.6,94.2,917.6,94.1L917.6,94.1z M183.5,79L183.5,79c1.1,0,2.2,0,3.4,0c0.7,0,1.1-0.2,1.1-1c0-0.7-0.5-0.9-1.1-0.9
		c-2.2,0-4.5,0-6.7,0c-0.6,0-1.1,0.2-1.1,0.9c0,0.7,0.4,0.9,1,0.9C181.2,79,182.4,79,183.5,79L183.5,79z M742.5,22.6L742.5,22.6
		c-0.8,0-1.5-0.1-2.2,0c-0.6,0-1.5-0.3-1.7,0.4c-0.2,0.8,0.7,1.2,1.4,1.6c0.2,0.1,0.5,0.2,0.7,0.2c1.7,0,3.4,0,5.1,0
		c0.7,0,1.1-0.3,1.1-1.1c0-0.7-0.5-1-1.1-1C744.7,22.6,743.6,22.6,742.5,22.6L742.5,22.6z M378.5,112c0.9,0,1.4-0.2,2.7-1.6
		c1.8-1.7,1.8-1.2,0-3.1c-0.5-0.6-0.9-0.5-1.5,0c-0.9,0.8-1.6,1.7-2.3,2.6c-0.4,0.4-0.4,1-0.2,1.5C377.5,111.9,378,112,378.5,112
		L378.5,112z M195.1,128L195.1,128c0.6,0,1.2,0,1.9,0c0.9,0,1.3-0.3,1.3-1.2c0-0.9-0.3-1.5-1.3-1.4c-1.2,0-2.5,0.1-3.7,0.1
		c-0.9,0-1.4,0.2-1.4,1.2c0,1,0.4,1.4,1.4,1.4C193.9,128,194.5,128.1,195.1,128L195.1,128z M375.8,101.4c-0.2-0.9,0.2-1.9-1-1.9
		c-1.1,0-0.7,1-0.8,1.7c0,0.3,0,0.6,0,0.9c0.4,2.5,0.2,4.9-0.4,7.3c-0.1,0.5-0.2,1.1,0,1.6c0.1,0.4,0.2,1,0.8,1
		c0.6,0,0.5-0.6,0.6-1.1C375.5,107.6,374.8,104.3,375.8,101.4z M507.1,87L507.1,87c2.4,0,4.8,0,7.2,0c0.4,0,1.1,0.2,1.1-0.5
		c0-0.6-0.6-0.4-1-0.4c-4.9,0-9.7,0-14.6,0c-0.4,0-1-0.1-1,0.4c0,0.6,0.6,0.4,1,0.4C502.3,87,504.7,87,507.1,87L507.1,87z M477.9,87
		c2,0.2,3.9-0.1,5.7-1.2c0.3-0.2,0.8-0.5,0.6-1c-0.2-0.4-0.7-0.3-1-0.2c-1.8,0.4-3.7,0.5-5.6,0.5c-0.8,0-1.5,0.3-2.3,0.5
		c-0.4,0.1-0.8,0.2-0.7,0.7c0,0.5,0.5,0.6,0.9,0.6C476.3,87,477,87,477.9,87L477.9,87z M192.6,77.1L192.6,77.1c-0.5,0-0.9,0-1.4,0
		c-0.5,0-1,0.1-1.1,0.7c-0.1,0.6,0.2,1.1,0.9,1.1c0.8,0.1,1,0.5,1.1,1.2c0.2,1.1,1.1,0.8,1.8,0.8c0.6,0,1.2,0,1.3-0.8
		c0.6-2.3,0-3.1-2.4-3.1C192.7,77.1,192.6,77.1,192.6,77.1L192.6,77.1z M102.9,104c-1.6,2.3-2.1,4.8-3.2,7.1c-0.2,0.4,0,0.7,0.4,0.9
		c1.8,0.7,2.9-0.1,2.9-2c0-1.2,0-2.5,0-3.7C103,105.6,103.3,104.9,102.9,104L102.9,104z M453.2,96.1L453.2,96.1c0-1.5,0-2.9,0-4.4
		c0-0.5-0.1-1-0.7-1c-0.6,0-0.7,0.5-0.7,1c0,2.9,0,5.7,0,8.6c0,0.5,0.1,1.1,0.8,1.1c0.6,0,0.6-0.6,0.6-1.1
		C453.2,98.9,453.2,97.5,453.2,96.1z M122.4,79C122.4,79,122.4,79,122.4,79c0.7,0,1.3,0,2,0c0.6,0,1.1-0.2,1.1-0.9c0-0.7-0.4-1-1-1
		c-0.8,0-1.2-0.3-1.4-1.1c-0.1-0.5-0.4-0.8-1-0.8c-0.5,0-0.7,0.4-0.8,0.8c-0.1,0.8-0.6,1-1.3,1.1c-0.5,0.1-1,0.2-1,0.9
		c0,0.7,0.5,0.9,1.1,0.9C120.9,79,121.6,79,122.4,79L122.4,79z M148.5,79C148.5,79,148.5,79,148.5,79c0.7,0,1.3,0,2,0
		c0.6,0,1.1-0.2,1.2-0.9c0.1-0.7-0.4-1-1-1c-0.9,0-1.4-0.3-1.5-1.2c-0.1-0.5-0.5-0.6-1-0.6c-0.4,0-0.7,0.3-0.8,0.7
		c-0.1,0.8-0.6,1.2-1.3,1.3c-0.4,0.1-0.8,0.4-0.7,0.9c0.1,0.5,0.5,0.8,1,0.8C147.1,79,147.8,79,148.5,79L148.5,79z M552.3,87
		c0.8,0,1.7,0,2.5,0c0.7,0,1.2-0.2,1.1-1c0-0.7-0.5-0.9-1.1-0.9c-1.7,0-3.4,0-5.1,0c-0.6,0-1.1,0.2-1.1,0.9c0,0.7,0.5,1,1.2,1
		C550.7,87,551.5,87,552.3,87L552.3,87z M453.2,115.6C453.2,115.6,453.2,115.6,453.2,115.6c0-1.3,0-2.7,0-4c0-0.4-0.1-0.9-0.7-0.9
		c-0.5,0-0.7,0.4-0.7,0.9c0,2.6,0,5.2,0,7.7c0,0.5,0.1,1,0.7,1c0.6,0,0.6-0.5,0.7-1C453.3,118.1,453.2,116.9,453.2,115.6
		L453.2,115.6z M174.2,79c0.6,0,1.2,0,1.9,0c0.5,0,0.8-0.2,0.9-0.7c0.1-0.5,0-1-0.6-1.1c-0.7-0.1-1.1-0.5-1.2-1.2
		c-0.1-0.5-0.6-0.7-1.1-0.7c-0.5,0-0.6,0.4-0.7,0.8c-0.1,0.7-0.5,1.1-1.2,1.3c-0.5,0.1-0.9,0.4-0.8,1c0.1,0.6,0.5,0.7,1,0.8
		C173.1,79,173.7,79,174.2,79L174.2,79z M906,83.4C906,83.4,905.9,83.4,906,83.4c0-0.6,0-1.2,0-1.7c0.1-0.8-0.4-1-1.1-1
		c-0.7,0-1.6-0.2-1.7,0.8c-0.1,1,0,2.1,0.2,3.1c0.2,1,1.2,1.3,2,1.3c0.9-0.1,0.4-0.9,0.5-1.4C906,84.1,905.9,83.7,906,83.4L906,83.4
		z M843.2,105L843.2,105c1.1,0,2.2,0,3.4,0c0.6,0,1.1-0.2,1.3-0.9c0.1-0.2,0.2-0.5,0-0.7c-0.2-0.2-0.5-0.1-0.7-0.1
		c-1.7,0.4-3.3,0.5-5,0.4c-0.8-0.1-1.6,0-2.3,0.2c-0.3,0.1-0.7,0.3-0.6,0.7c0,0.4,0.4,0.5,0.8,0.5C841.1,105,842.2,105,843.2,105
		L843.2,105z M61.4,126.1c-1.5,0-3,0-4.5,0c-0.4,0-0.9,0-0.8,0.5c0,0.4,0.5,0.4,0.8,0.4c3,0.1,6-0.1,9,0.2c0.4,0,0.8,0,0.9-0.5
		c0.1-0.6-0.5-0.6-0.9-0.6C64.4,126.1,62.9,126.1,61.4,126.1L61.4,126.1z M733.8,22.6L733.8,22.6c-0.4,0-0.8,0-1.1,0
		c-0.1,0-0.2,0-0.2,0c-1,0.1-1.1,0.4-0.6,1.3c0.6,0.9,3.1,1.3,4,0.7c0.4-0.3,0.4-0.7,0.4-1.1c0-0.5-0.3-0.8-0.8-0.8
		C734.9,22.6,734.4,22.6,733.8,22.6L733.8,22.6z M495.1,80.5c-0.4,0.9-0.3,1.6-0.3,2.2c0,0.5,0,1-0.5,1.3c-1.1,0.6-0.9,1.6-0.6,2.5
		c0.2,0.5,2.1,0.7,2.7,0.4c0.5-0.2,0.4-0.6,0-0.7c-1.2-0.6-1-1.6-1-2.7C495.5,82.6,495.6,81.7,495.1,80.5L495.1,80.5z M826.3,32
		L826.3,32c1.2,0,2.4,0,3.6,0c0.3,0,0.8,0,0.8-0.4c0-0.5-0.4-0.5-0.7-0.5c-2.4,0-4.8,0-7.2,0c-0.3,0-0.8,0-0.7,0.5
		c0,0.4,0.5,0.4,0.8,0.4C824,32,825.2,32,826.3,32L826.3,32z M826.5,66.1L826.5,66.1c-1.2,0-2.4,0-3.6,0c-0.3,0-0.9-0.1-0.8,0.4
		c0,0.4,0.5,0.4,0.8,0.4c2.4,0,4.7,0,7.1,0c0.3,0,0.8,0,0.8-0.4c0-0.5-0.5-0.5-0.8-0.5C828.8,66.1,827.7,66.1,826.5,66.1L826.5,66.1
		z M908,83.9C908,83.9,908,83.9,908,83.9c0-0.8,0-1.7,0-2.5c0-0.3-0.2-0.6-0.5-0.6c-0.3-0.1-0.6,0.2-0.6,0.5
		c-0.4,1.6-0.4,3.2-0.1,4.8c0,0.4,0.3,0.7,0.8,0.6c0.4-0.1,0.5-0.4,0.5-0.8C908,85.2,908,84.6,908,83.9L908,83.9z M377.1,105.7
		c0,0.6,0,1.1,0,1.5c0,0.2,0,0.6,0.4,0.5c0.8-0.2,1.3-0.7,1.7-1.3c0.4-0.5,0.1-0.9-0.2-1.3c-0.5-0.4-1-1.3-1.5-1.1
		C376.7,104.3,377.2,105.2,377.1,105.7L377.1,105.7z M382.2,112c0.8,0,1.6,0,2.4,0c0.3,0,0.8,0,0.6-0.5c-0.3-0.7-0.9-1.2-1.5-1.6
		c-0.5-0.3-0.8,0.3-1.1,0.6c-0.3,0.2-0.5,0.5-0.8,0.8c-0.2,0.2-0.3,0.4-0.2,0.7C381.7,112.2,381.9,112.2,382.2,112L382.2,112z
		 M744.3,26.6L744.3,26.6c-0.4,0-0.8-0.1-1.1,0c-0.3,0-0.7-0.1-0.8,0.4c-0.1,0.4,0.3,0.5,0.6,0.7C744,28,745,28.1,746,28
		c0.3,0,0.7-0.2,0.7-0.6c0-0.5-0.3-0.7-0.7-0.7C745.4,26.6,744.9,26.6,744.3,26.6L744.3,26.6z M728.4,28c0.5,0,0.7,0,0.8,0
		c0.5,0,1.1-0.1,1-0.8c0-0.6-0.6-0.6-1.1-0.6c-0.8,0-1.5,0-2.2,0c-0.3,0-0.6,0.1-0.7,0.4c-0.1,0.4,0.2,0.6,0.6,0.7
		C727.4,27.9,728,27.9,728.4,28L728.4,28z M318.2,10c-0.5,0-0.8,0-1.2,0.1c-0.4,0-0.9,0.1-0.8,0.7c0,0.5,0.5,0.7,0.9,0.7
		c0.4,0,0.8,0,1.1,0c0.7,0,1.7,0.3,1.7-0.7C319.9,9.5,318.8,10.2,318.2,10L318.2,10z M805.5,28c0.5-0.1,1.3,0.1,1.3-0.7
		c0-0.8-0.7-0.7-1.2-0.7c-0.8,0-1.5,0-2.2,0c-0.2,0-0.6-0.1-0.7,0.2c-0.1,0.3,0.2,0.5,0.5,0.6C803.9,27.8,804.7,27.9,805.5,28z
		 M295,11.5c0.6-0.2,1.9,0.4,1.8-0.8c0-1.1-1.2-0.6-1.8-0.6c-0.7,0-1.8-0.4-1.8,0.7C293.2,11.9,294.4,11.3,295,11.5L295,11.5z"/>
</g>
</svg>
