<?xml version="1.0" encoding="utf-8"?>
<!-- Generator: Adobe Illustrator 27.5.0, SVG Export Plug-In . SVG Version: 6.00 Build 0)  -->
<svg version="1.1" id="Layer_2_00000080188065186878252840000009340363725045174695_"
	 xmlns="http://www.w3.org/2000/svg" xmlns:xlink="http://www.w3.org/1999/xlink" x="0px" y="0px" viewBox="0 0 950 186"
	 style="enable-background:new 0 0 950 186;" xml:space="preserve">
<g id="Layer_1-2">
	<path d="M950,79.5c0,15.2,0,90.3,0,105.5c0,0.8-0.2,1-1,1c-316,0-632,0-948,0c-0.9,0-1-0.2-1-1c0.1-2.7,0-65.3,0-68
		c0.3,0.6,0.4,1.5,1.5,1.4c0.4,0,0.5,0.4,0.5,0.8c-0.1,0.7-0.2,1.4-1,1.8c-0.8,0.4-0.7,1.1-0.5,1.7c0.1,0.4,0.5,0.5,0.9,0.4
		c0.7-0.2,1.1-0.6,1.1-1.3c0-0.3,0-0.6,0-0.9c0.2-2.1-0.3-4.2-0.3-6.3c0-4.2,0-8.5,0-12.7c0-2-0.2-2.2-2.2-2.1v-1.5
		c0.8,0.3,1.5,0.3,2.1-0.3c0.5-0.6,0.4-1.4,0.1-2C1.8,95,0.8,95.1,0,95v-2c1.9,0.2,2.3-0.1,2.2-1.9c0-0.2,0-0.5,0-0.8
		c-0.1-1.4-0.1-2.6,1.7-2.8c0.3,0,0.6-0.2,0.5-0.6c0-0.3-0.2-0.4-0.5-0.5c-0.2-0.1-0.5-0.1-0.7-0.2c-1.8-0.4-1.8-0.4-1.8-2.3
		c-0.1-3.8,0.2-7.7-0.1-11.5c-0.1-0.8,0.4-0.7,0.9-0.6c2,0.3,3.9,0,5.9,0c9.8,0,19.5,0,29.2,0c1.7,0,1.9,0.2,1.9,2
		c0.1,3.3-0.4,6.6,0,9.9c0.2,1.9,0.1,1.9-1.8,2.4c-0.3,0.1-0.6,0.2-0.7,0.6c-0.1,0.3,0,0.6,0.2,0.8c0.5,0.5,2.6,0.4,2.9-0.2
		c0.4-0.9,1.2-1.1,2-1.2c1.5-0.3,3.1-0.7,4.7-1c0.8-0.1,1.3-0.3,1.4-1.2c0-0.5,0.4-0.8,0.9-0.9c1.2-0.4,2.3-0.4,3.3,0.3
		c0.3,0.2,0.8,0.4,0.7,0.9c-0.1,0.5-0.5,0.6-0.9,0.7c-0.8,0.1-0.9,0.5-0.9,1.2c0,1,0.4,1.6,1.5,1.7c1.1,0.1,1.5,0.7,1.4,1.8
		c-0.1,1.7,0,3.4,0,5.1c0,0.9,0.4,1.3,1.3,1.3c2.2,0,4.3,0,6.5,0c0.6,0,1-0.2,1.2-0.8c0.3-1,0.9-0.8,1.3-0.1c0.4,0.9,1.1,1.2,1.9,1
		c1-0.2,0.8-1.1,0.8-1.8c0-1.4-0.2-2.8,1.2-3.7c0.3-0.2,0.7-1,0-1.2c-1.3-0.3-1.2-1.2-1.2-2.2c0-1.3,0-2.6,0-3.9
		c0-1.6,0.3-1.9,2-1.7c0.5,0.1,1,0.1,1.5,0c0.6-0.1,1-0.5,0.9-1.1c-0.1-0.7-0.6-0.6-1.2-0.6c-1.8,0-3.6-0.1-5.4-0.1
		c-1.1,0-1.7-0.4-1.5-1.7c0.2-1.1,0.1-2.2,0.1-3.2c0-1.8,0-1.8-1.8-1.8c-1,0-1.4-0.4-1.4-1.4c0-1,0.3-1.6,1.4-1.6
		c1.7,0,3.4-0.2,5.1,0.3c1.2,0.3,2.5,0.5,3.7,0.2c0.5-0.1,1-0.2,0.8-0.8C71,68.8,70.5,69,70,69c-2,0-2,0-2-2c0-0.2,0-0.5,0-0.8
		c0-1.2-0.6-1.8-1.8-1.7c-0.5,0-0.9,0-1.4,0c-0.9,0-1.3-0.4-1.3-1.3c0-0.9,0-1.8,0-2.8c0-2,0.3-2.3,2.3-2.2c0.5,0,1.1,0.2,1.6,0.2
		c0.8,0.1,1.6,0.3,2.5,0.4c0.3,0,0.8,0.1,0.8-0.4c0-0.4-0.4-0.5-0.7-0.5c-1.2,0-2.3-0.1-3.5,0c-1.2,0-1.7-0.5-1.7-1.6
		c0-0.8,0.2-1.3,0.8-1.9c1.5-1.3,2.9-2.6,4.3-3.9c0.3-0.3,1.1-0.8,0.1-1.1c-0.8-0.3-1.2-0.7-1.3-1.6c0-0.3-0.4-0.5-0.7-0.7
		c-1.2-0.8-2.5-0.5-3.8-0.5c-0.6,0-1.3,0-1.4-0.9c-0.1-0.9,0-1.8,0-2.7c0-0.5,0.4-0.8,0.9-0.8c0.5,0,1-0.1,1.5,0
		c1.7,0.6,3.2-0.2,4.7-0.5c0.5-0.1,1.2-0.2,1.2-0.9c-0.1-0.7-0.8-0.6-1.3-0.6c-1.5,0-3,0-4.5,0c-0.9,0-1.3-0.4-1.3-1.3
		c0-1.3,0-2.7,0-4c0-1.3,0.6-2,1.9-2c1.4,0,4.8-2.5,5.2-3.8c0.1-0.3,0.1-0.7,0.1-1c-0.1-1.8,0.8-2.7,2.7-2.7c0.3,0,0.6,0,0.9,0
		c0.8,0,1.4-0.3,1.9-0.8c0.8-0.8,1.5-1.6,2.3-2.3c0.7-0.7,0.9-1.4,0.6-2.4c-0.4-1.2-0.1-1.8,1.3-2c1.5-0.2,3.1-0.2,4.6,0
		c1.4,0.1,1.8,0.6,1.3,2c-0.4,1.1,0,1.8,0.9,2.4c1.7,1.2,3.6,1.2,5.5,1.2c0.7,0,1.3-0.1,1.8,0.6c0.8,1.4,3.1,1.6,4.2,0.4
		c0.6-0.7,1.2-1.4,1.9-2c0.6-0.5,0.8-1.1,0-1.8c-0.4-0.3-0.5-0.8-0.5-1.3c0-1.4,0-2.8-0.2-4.1c-0.1-0.4,0-0.8,0.3-1.1
		c0.8-0.9,0.9-2,1-3.1c0-0.7,0.2-1.4,0.2-2.2c0.5,1.1,0.4,2.3,0.4,3.4c0,1.2,0.3,1.8,1.7,1.9c1.6,0.1,3.2,0.5,4.8,0.3
		c0.8-0.1,1,0.4,0.9,1.1c-0.1,1.2-0.1,2.4-0.2,3.6c0,0.6-0.2,1-0.6,1.5c-0.3,0.4-0.9,0.8-0.4,1.4c0.4,0.5,1,0.2,1.5,0
		c1.1-0.5,2.2-1.1,3.3-1.7c0.7-0.4,1.3-0.4,1.6,0.5c0.4,1.2,1.3,1.4,2.4,1.2c1.6-0.3,3.2-0.5,4.8-0.6c1-0.1,1.7,0.4,1.9,1.4
		c0.1,0.6,0.3,1.3,0.7,1.9c0.2,0.4,0.5,0.7,1,0.5c0.4-0.1,0.5-0.5,0.5-0.9c0-0.5,0-1.1,0-1.6c0-0.7,0.1-1.5,1.1-1.5
		c1.1,0,1.2,0.8,1.1,1.6c-0.3,1.4,0.2,2.5,1,3.7c0.6,0.9,1.4,2,0.8,3.2c-1.2,2.7-1,5.5-0.8,8.3c0.1,0.7,0.4,1.1,1,0.7
		c0.7-0.5,1.3-0.2,2-0.2c1.9,0.1,4,1.1,5.7-0.7c0.4,0.4,0.5,1.2,1.2,1c0.7-0.2,0.6-0.8,0.5-1.4c-0.1-1,0.6-1,1.3-1
		c1,0,0.7,0.5,0.6,1c-0.1,0.4-0.1,1,0.3,1.2c0.5,0.3,0.9,0,1.2-0.4c0.4-0.5,0.6-0.1,1,0c1.7,0.5,3.4,0.7,5.1,0.2
		c0.6-0.2,1-0.5,1.6,0c0.3,0.2,0.7,0.2,1.1-0.1c0.3-0.3,0.3-0.7,0.2-1c-0.1-0.3-0.6-0.8,0-1c0.6-0.2,1.3-0.1,1.9,0
		c0.4,0.1-0.1,0.6-0.1,0.8c-0.1,0.5-0.3,1.2,0.4,1.4c0.7,0.2,1.2-0.2,1.5-0.8c0.3-0.6,0.2-1.2,0.2-1.8c0.2-3.2-0.7-6.4-0.5-9.7
		c0.1-1.1,0.4-1.6,1.6-1.5c2.1,0,4.2,0.3,6.2,0.2c4.1-0.3,8.2,0.2,12.3-0.1c1.2-0.1,2.5,0.2,3.7,0.1c4.6-0.4,9.1,0.1,13.7-0.2
		c0.9-0.1,1.4,0.4,1.3,1.3c-0.1,1.5-0.1,3-0.1,4.5c0,0.4,0,0.7-0.2,1.1c-0.8,1.4-0.4,2.3,1.1,2.5c0.9,0.1,1.3,0.6,1.3,1.5
		c0,0.9-0.1,1.7-1.2,1.8c-1,0.1-1.4,0.6-1.2,1.5c0.2,1.1,0.9,0.5,1.5,0.4c1.3-0.2,1.7,0.1,1.7,1.4c0,0.7,0,1.4,0,2.1
		c0,0.6-0.2,1-0.9,1.2c-1.1,0.4-1.9,1.1-2.4,2.2c-0.2,0.5-0.4,1.3,0.3,1.5c0.9,0.3,2,0.5,2.8-0.2c0.6-0.5-0.4-0.9-0.6-1.3
		c-0.1-0.2-0.2-0.3,0.1-0.5c0.9,0.7,1.4,1.8,2.3,2.5c0.1,0.1,0.2,0.5,0.1,0.7c-0.3,0.9-0.2,1.8-0.2,2.7c0,1.1-0.4,1.5-1.5,1.5
		c-0.6,0-1.2,0-1.9,0c-1,0-1.5,0.4-1.4,1.4c0.1,1.2,0,2.4,0,3.6c0,1,0.5,1.4,1.5,1.3c1.6-0.2,2,0.1,2,1.7c0,1.5,0,3,0,4.5
		c0,2.9,0,2.9-2.9,2.5c-0.7-0.1-0.8,0.2-0.8,0.8c0.1,0.4,0.2,0.8,0.5,1.1c0.5,0.4,0.5,0.7,0,1.1c-0.4,0.4-0.5,0.9-0.1,1.3
		c0.4,0.4,1,0.5,1.5,0.2c0.6-0.5,1.2-0.4,1.9-0.2c2.2,0.6,4.6,0,6.8,0.4c0.4,0.1,0.9-0.1,1.2-0.6c0.3-0.5-0.2-0.8-0.5-1
		c-0.2-0.2-0.4-0.5-0.3-0.8c0.3-1.2-0.5-1-1.2-0.9c-1.7,0.5-3.4,0.7-5.2,0.6c-0.4,0-1.2,0.2-1.2-0.5c0-0.6,0.7-0.7,1.2-0.7
		c0.4,0,0.8,0,1.2,0c1.7-0.1,3.3-0.1,5-0.2c0.8,0,1.3-0.4,0.8-1.3c-0.5-0.9-0.3-1.8-0.1-2.7c0.1-0.4,0.3-0.8,0.1-1.2
		c-0.5-1.1-0.3-2.2,0.1-3.3c0.1-0.4,0.1-0.7-0.3-1c-0.4-0.2-0.7-0.5-0.5-1c0.1-0.5,0.6-0.6,1.1-0.7c0.7,0,1.1-0.2,0.9-1
		c-0.1-0.7,0.3-1.1,1-1.2c0.6-0.1,1.2-0.1,1.8-0.1c14.5,0,29.1,0,43.6,0c0.6,0,1.2,0,1.8,0c0.4,0,0.9,0.1,0.9,0.5
		c0.2,1.2,1,1.8,2.1,2.2c0.5,0.2,1,0.7,0.3,1.2c-0.6,0.4-0.8,0.8-0.5,1.4c0.3,0.7,0.7,1.2,1.5,1.2c1.4,0,2.8,0,4.1,0
		c0.7,0,1.2,0.3,1.2,1.1c0,1.4,0,2.8,0,4.2c0,0.5-0.2,0.9-0.8,0.9c-1.9-0.1-3.8,0.5-5.6-0.5c-0.2-0.1-0.4-0.3-0.6-0.1
		c-0.2,0.2-0.1,0.4,0,0.6c0.7,1.2,0.6,2.4,0.1,3.6c-0.3,0.7,0.1,0.8,0.7,0.7c1.6-0.4,3.3-0.1,5-0.3c0.9-0.1,1.3,0.3,1.3,1.2
		c0,3.8,0,7.5,0,11.2c0,0.9-0.5,1.4-1.4,1.4c-1.2,0-2.3,0-3.5,0c-0.5,0-1.4-0.3-1.5,0.4c-0.1,0.8,0.8,0.9,1.5,1
		c0.4,0.1,0.8,0,1.1,0.1c1.5,0.1,3-0.2,4.5-0.2c3.7-0.2,5.2-1.9,5.1-5.6c0-1.2,0.5-2,1.6-2c1,0,1.4-0.5,1.8-1.2
		c0.8-1.5,1-1.5,2.6-0.9c0.2,0.1,0.4,0.1,0.6,0.2c0.6,0.2,1.4-0.7,1.8,0.2c0.4,0.9-0.7,1-1,1.5c-0.3,0.5-0.3,0.9,0.1,1.4
		c0.2,0.3,0.6,0.5,1,0.4c0.6-0.2,0.5-0.7,0.4-1.1c-0.1-1.5,0.3-3.1-0.2-4.6c-0.1-0.2,0-0.5,0.1-0.7c0.1-0.7,0.7-1.7-0.1-2
		c-0.9-0.3-1.2,0.8-1.6,1.4c-0.5,0.7-0.9,1.4-1.7,1.8c0.7-1.2,1.5-2.3,2.3-3.4c0.6-0.8,1.3-1.7,1.3-2.8c0-2.9-0.1-5.7-0.1-8.6
		c0-4.7,0.1-9.5,0-14.2c0-4.1,0.1-8.3,0.1-12.4c0-1.3,0.1-2.7,0-4c-0.3-2.7-0.4-2.7,2.4-2.7c0.1,0,0.2,0,0.4,0
		c17,0.1,34.1-0.2,51.1,0.2c1.7,0,1.8,0,1.8-1.8c0-4,0-8-0.1-12c0-0.8,0.3-1.3,1.1-1.3c1.5-0.1,2.9-0.1,4.4,0.1c0.8,0.1,1,0.5,1,1.3
		c0,7.6-0.1,15.2-0.1,22.8c0,5.3,0,10.6,0,15.9c0,1.6-0.3,1.8-1.9,1.7c-1.3-0.1-2.6-0.1-3.9-0.3c-1.1-0.1-1.3,0.4-1.2,1.3
		c0.1,0.7,0.2,1.4,0.2,2.1c0,1,0.4,1.3,1.3,1.4c1.2,0.2,2.1-0.7,3.2-0.7c3.5,0,7.1,0,10.6,0c0.8,0,1.3,0.4,1.2,1.2
		c-0.2,2.9-0.2,5.7-0.1,8.6c0,1,0.3,2.2-0.4,3c-0.8,0.9-2.1,0.3-3.1,0.4c-0.7,0.1-1.1,0.3-1.2,1c-0.1,0.7-0.2,1.3-0.2,2
		c0,2.4,0,4.8,0,7.1c0,0.4,0.2,1-0.6,1.3c0-3-0.1-5.8,0-8.6c0.1-3.2,0-2.8-2.8-2.9c-1.9-0.1-3.8,0.3-5.6-1.1
		c-1.1-0.9-2.5-0.1-2.5,1.2c-0.1,5.1-0.1,10.1,0,15.2c0,0.7,0.2,1.2,1,1.2c2.6,0.1,5.2,0.8,7.8,1c5.4,0.3,10.7,1.2,16,1.9
		c3.2,0.4,6.4,0.5,9.6,1.3c0.4,0.1,0.8,0,1.2-0.2c0.3-0.2,0.5-0.6,0.4-1c-0.1-0.4-0.5-0.4-0.8-0.4c-0.7,0-1.3,0-2,0
		c-1.6,0-1.9-0.2-1.9-1.8c0-7.4,0-14.8,0-22.2c0-0.9,0.4-1.4,1.3-1.4c3.7,0,7.4-0.2,11.1,0.2c1.5,0.1,1.6,0.1,1.6-1.4
		c0-2.2-0.1-4.3-0.2-6.5c0-1.8,0-3.6,0-5.4c-0.5,0-0.8,0.4-1.2,0.6c-2.5,1.5-5,3-8,3.3c-2.9,0.3-5.7,0.8-8.5,1.1
		c-1.9,0.2-3.8,0.5-5.7,0.1c-3.6-0.7-7-1.7-10.5-2.6c-0.7-0.2-1.4-0.5-2.1-0.9c-0.6-0.4-1.1-0.9-1.2-2c1.8,1.8,4,2.1,6,2.6
		c4.5,1,8.9,2.7,13.6,2c5.5-0.8,11-1.1,15.9-4.2c2-1.2,2.1-1.2,1.9-3.5c-0.2-1.6,0.5-2.5,2.1-2.6c0.4,0,0.8,0,0.9-0.5
		c0-0.4-0.3-0.6-0.6-0.7c-1-0.3-1.1-0.9-1.1-1.8c0.1-1.9,0.5-3.8,0.4-5.7c-0.1-1.2,0.5-1.7,1.6-1.6c1.7,0.1,3.3,0.2,5,0.3
		c1.1,0.1,2.3-0.2,2.7,1.6c0.4-1.4,1.3-2.1,2.6-2.1c1.7,0,3.3,0,5,0c1,0,1.9,0.1,1.7,1.5c0,0.3,0.1,0.6,0.4,0.7
		c0.4,0,0.4-0.4,0.4-0.6c-0.1-1.2,0.6-1.5,1.6-1.5c2,0,4,0,6,0c0.9,0,1.4,0.3,1.4,1.3c0,0.3,0,0.8,0.5,0.8c0.5,0,0.5-0.5,0.4-0.8
		c-0.1-1.1,0.5-1.3,1.4-1.3c1.6,0,3.2,0,4.8,0c1.4,0,3.2-0.5,3.3,2.2c0.4-2.1,1.8-1.7,3-1.7c1.5,0,3,0,4.5,0c0.9,0,1.9-0.1,2.2,1.2
		c0.2-1.8,0.3-2,2-2c2,0,4,0,6,0c0.9,0,1.6,0.2,1.2,1.4c-0.1,0.5-0.1,1,0.5,1.1c0.5,0,0.5-0.5,0.5-0.8c0-1.1,0.6-1.4,1.5-1.3
		c2,0,4.1,0,6.1,0c1,0,1.4,0.4,1.4,1.4c0,1.7,0,3.3,0,5c0,2.5,0,2.5-2.4,2.8c-0.1,0-0.2,0-0.2,0c-0.3,0.1-0.6,0.2-0.6,0.5
		c0,0.4,0.3,0.6,0.7,0.6c0.7,0,1.4,0,2.1,0c0.5,0,1,0,1,0.6c0.1,0.8,0.4,1.3,1.3,1.2c0.9-0.2,0.7-0.9,0.7-1.5
		c-0.3-2-0.1-4.1-0.2-6.1c0-1.1,0.4-1.6,1.5-1.7c3.1-0.2,6.2-0.1,9.2-0.1c1.9,0,2.1,0.2,2.1,2.1c0,7.7-0.1,15.4,0,23.1
		c0,4.3-0.2,8.7,0.2,13c0,0.4-0.1,0.8,0.4,1c0.5,0.2,0.8-0.2,1.1-0.5c1-1.1,1.3-3.2,0.5-4.6c-0.2-0.4-0.4-0.8-0.3-1.2
		c0.2-1.3,0.4-2.5-1-3.4c0.5-0.2,0.8,0,1.1,0.1c1.8,0.7,2.2,0.6,2.8-1.3c0.1-0.2,0.2-0.4,0.3-0.5c0.8-1.4,1.2-2.9,0.4-4.5
		c-0.4-0.7-0.4-1.4,0.2-2c0.6-0.6,1.4-0.4,2.1,0c0.3,0.2,0.6,0.6,0.8,0.9c1.2,1.6,1.3,1.6,3.1,0.7c1.9-1,3.9-0.8,5.3,0.5
		c1.5,1.3,1.3,2.8,0.4,4.4c-0.4,0.7-0.1,1,0.6,1c0.8,0.1,1.5,0.1,2.2,0.2c1,0.1,1.9,0.6,2.3,1.7c0.4,1.1,0.2,2.1-0.7,2.8
		c-0.4,0.3-0.6,0.6-0.2,1.1c1.3,1.3,0.7,2.7,0.2,4.1c-0.2,0.5-0.8,1.1-0.7,1.6c0.1,0.7,1.1,0.4,1.5,0.8c0.1,0.1,0.3,0.2,0.4,0.3
		c1.3,2.2,2.6,4.4,3.7,6.8c0.3,0.7,0.3,0.9,1,0.8c0.8-0.1,1.7-0.1,2.4,0.4c0.6,0.4,0.3,1.2,0.4,1.8c0.1,0.8,0.8,0.8,1.3,0.8
		c0.8-0.1,1.7,0.3,2.3-0.6c0.1-0.1,0-0.3,0-0.4c-0.6-0.9-0.2-2-0.2-2.9c0-6.2,0-12.4,0-18.6c0-8.9,0-17.7,0-26.6
		c0-3.4-0.1-6.7-0.1-10.1c0.1-5.4,0.1-10.8,0-16.2c0-0.5,0-0.8,0.6-0.9c0.2,0,0.5-0.1,0.5-0.4c0-0.4-0.4-0.4-0.6-0.5
		c-0.2,0-0.4,0-0.6,0c-1.7-0.1-1.7-0.1-1.7-1.8c0-3.3,0-6.7,0-10c0-0.5,0-1-0.3-1.5c29.7,0,59.5,0,89.2,0c0,3.5,0,7.1,0,10.6
		c0,2.3,0.4,2.8-2.5,2.7c-0.1,0-0.2,0-0.4,0c-0.3,0-0.6,0.1-0.6,0.4c0,0.3,0.3,0.4,0.5,0.4c0.9,0,0.9,0.5,0.8,1.2
		c-0.2,1.1-0.1,2.2-0.2,3.3c-0.1,1.2-0.1,2.6,0.1,3.9c0.3,1.5-0.1,3.1,0.9,4.4c0.2,0.3,0.2,0.7,0.3,1.1h0c-0.2-0.2-0.4-0.4-0.7-0.6
		c-0.2-0.1-0.4-0.2-0.6-0.1c-0.2,0.1-0.2,0.4-0.1,0.6c0.6,1.9,0,3.9,0.2,5.8c0.2,1.6,0,3.3,0,5c0,0.9,0.3,1.1,1,1
		c3-0.1,6.1,0,9.1-0.2c2.2-0.2,3.4,0.2,2.9,3c-0.1,0.5-0.1,1.1-0.1,1.6c0,3,0,6.1,0,9.1c0,1.2-0.5,1.7-1.7,1.7c-2.5,0-4.9,0-7.4,0
		c-0.9,0-1.8,0-2.8,0.1c-0.7,0.1-1.8,0.7-1.4,1.2c0.8,1.2-0.3,2.2,0.2,3.3c0.3,0.8,0.2,2.1,0,3.1c-0.2,1.3-0.2,1.7,1.1,1.9
		c1.3,0.2,2.6,0.1,3.9,0.1c1.6,0,1.8,0.1,1.8,1.7c0,1,0.4,1.2,1.3,1.1c2-0.3,4-0.4,6-0.7c3-0.4,6.1-0.2,9-1.1
		c1.1-0.3,1.5-0.8,1.5-1.9c-0.1-2.5,0-5,0-7.5c0-1,0.4-1.4,1.3-1.3c0.9,0,1.8,0,2.6,0c0.4,0,1,0.1,1-0.5c0-0.5-0.6-0.4-1-0.4
		c-0.8,0-1.7,0-2.5,0c-1,0-1.4-0.4-1.4-1.4c0-3.2,0-6.4,0-9.6c0-1.1,0.4-1.6,1.5-1.5c3.2,0,6.3,0,9.5,0c0.8,0,1.5,0.3,2.1,0.9
		c2,2.2,4.2,4.2,6.2,6.4c1.3,1.4,2.7,2.2,4.6,2.1c1.4,0,1.8-0.1,1.9-1.6c0.1-0.8,0.4-1,1.2-0.8c1.5,0.3,2.6-0.8,2.3-2.3
		c-0.1-0.5-0.3-1.1,0.1-1.4c0.6-0.5,0.9-1.1,1.1-1.9c0.1-0.5,0.6-0.7,0.9-0.2c0.6,1.3,1.6,2.3,1.2,4c-0.3,1.3,1.1,2.2,2.3,1.8
		c1.1-0.3,0.8,0.5,0.9,1c0.1,0.5,0.2,1,0.8,1.1c0.5,0.1,1-0.1,1.3-0.5c0.2-0.3,0.3-0.6,0.5-0.8c0.6-0.7,1.2-1.4,1.9-1.9
		c0.2,0.2,0.3,0.3,0.5,0.5c-0.7,0.5-1.4,1-2,1.6c-0.7,0.7-0.5,1.2,0.5,1.3c0.6,0.1,1.2,0,1.8,0c0.9,0,2.1,0.4,1.1-1.2
		c-0.2-0.3-0.1-0.7-0.1-1.1c-0.3-3.5,0.2-7.1,0-10.6c0-0.9,0.4-1.3,1.3-1.3c1.4,0,2.8,0,4.1-0.1c11.7-0.2,23.3-0.1,35-0.1
		c1.3,0,2.6,0,3.9,0c1,0,1.3,0.4,1.3,1.4c0,3.7,0,7.4,0,11.1c0,1.1-0.4,1.5-1.5,1.5c-2,0-4-0.1-6,0.2c-0.5,0.1-1.3-0.6-1.4,0.5
		c0,0.6-0.6,1.2-0.2,1.8c0.6,1.2-0.2,2.3,0,3.6c0.2,1.2,0,2.7,0.1,4c0.1,0.4,0,0.8-0.2,1.2c-0.5,0.8-0.1,1.2,0.6,1.4
		c0.6,0.2,1.2,0.2,1.7,0.2c3.1,0,6.2,0,9.2,0c1.1,0,1.6,0.4,1.5,1.6c-0.1,2.1-0.2,4.2-0.2,6.2c0,3.8,0,7.6,0.1,11.4
		c0,1.5,0,3,0.1,4.5c0,0.9-0.4,1.3-1.3,1.3c-1.4,0-2.8,0-4.2,0c-2.3-0.1-4.6,0.2-6.9-0.2c-0.9-0.2-1.6-0.3-0.7,0.9
		c0.2,0.3,0,0.6,0,0.8c0,1.2,0.3,2.3-0.1,3.5c-0.1,0.4,0.5,1.1,0.3,1.7c-0.1,0.2,0.2,0.3,0.5,0.2c0.9-0.4,1.9,0,2.8-0.1
		c3.5-0.3,3.1,0.5,3.1-3.1c0-1.8,0.1-2,1.9-1.9c3.9,0.3,7.7-0.3,11.3-1.9c0.4-0.2,0.8-0.3,1.2-0.4c1.6-0.2,2.2-1.3,2.3-2.8
		c0-0.4,0-0.8,0-1.1c0.1-1.7,0.6-3.4,0.8-5.1c-0.1,1.5,0.3,2.9,0.9,4.2c0.1,0.3,0.1,0.7,0.1,1c0.1,2.5,1.6,4.2,3,6
		c0,0,0.1,0,0.2-0.1c0.1-0.5-0.1-0.9-0.1-1.3c-0.4-3.7-0.2-3.9,3.5-3.8c1.1,0,1.5,0.5,1.4,1.5c-0.2,1.5,0.3,2.5,1.7,3.1
		c0.3,0.1,0.5,0.5,0.9,0.4c0.5-0.2,0.2-0.7,0.2-1c0-3.1,0-6.2,0-9.2c0-0.8,0.2-1.4,0.8-1.9c1.6-1.6,3.2-3.2,4.8-4.8
		c0.6-0.6,1.2-1,2.1-1.1c0.3-0.1,0.8,0,0.9-0.5c0-0.4-0.4-0.6-0.7-0.8c-1.1-0.7-1.3-1.9-0.8-3.5c0.4-1.3,1.3-0.8,2.2-0.8
		c0.3,0,0.7,0.1,1,0.1c6.8,0.1,13.6,0.3,20.5,0.1c5.1-0.1,10.2,0.4,15.3-0.3c0.5-0.1,0.9,0,1.3,0.4c0.8,1,0.6,3.1-0.5,3.9
		c-0.3,0.2-0.5,0.4-0.5,0.8c0,0.5,0.4,0.6,0.8,0.7c0.5,0.1,0.9,0.2,1.2,0.5c1.3,1.4,2.8,2.3,4.7,2.6c0.5,0.1,0.8,0.4,0.4,1
		c-0.6,0.8-0.2,1.3,0.3,1.8c1.4,1.3,2.7,2.8,4.1,4c1,0.9,1.4,1.9,1.4,3.3c-0.1,2.5,0,5.1,0,7.6c0,0.7,0,1.5,0.8,1.7
		c1.5,0.4,3.1,0.8,4.5-0.1c1.1-0.8,0.8-2.1,0.7-3.2c0-0.1,0-0.2,0-0.2c-0.1-0.9,0.3-1.3,1.2-1.3c0.8,0,1.5,0,2.3,0
		c-0.3-0.5-0.7-0.9-0.6-1.4c0.2-1.6,0.1-3.2,0.1-4.9c0-0.8,0.4-1.2,1.2-1.2c3,0,6.1,0,9.1,0c1,0,1.5,0.5,1.4,1.6
		c-0.2,1.4-0.3,2.9,0,4.4c0,0.2,0,0.5-0.1,0.7c-0.6,0.9-0.2,1.1,0.7,1c2-0.3,4-0.2,6-0.2c10.9,0,21.8,0,32.8,0
		c1.5,0,2.2,0.7,2.2,2.2c0,0.6,0.1,1.2,0,1.9c-0.2,1,0.2,1.4,1.2,1.5c1.7,0.2,3.3,0.6,5,1.3c1.4,0.6,2.8,0.8,4.3,0.9
		c1.1,0.1,1.4-0.3,0.9-1.3c-0.3-0.7-0.4-1.2,0-1.9c0.5-0.8,0.2-1.2-0.7-1.2c-0.8,0-1.5,0-2.2,0c-0.8,0-1.2-0.4-1.2-1.2
		c0-6.3,0-12.6,0-18.9c0-0.8,0.4-1.2,1.2-1.2c0.8,0,1.5,0,2.2,0.2c0.3,0.1,0.8,0.3,0.9-0.3c0.1-0.5-0.3-0.8-0.8-0.8
		c-0.7,0-1.4,0.1-2.1,0.1c-0.5,0-1,0-1.3-0.5c-0.9-1.6,0-3.2,1.9-3.2c0.2,0,0.3,0,0.5,0c1,0,2.2-1.3,1.9-2.3
		c-0.4-0.9-0.1-1.7-0.1-2.7c0.1-1.2-0.3-2.4,0-3.8c0.1-0.8-0.7-1.7,0.2-2.7c0.3-0.3-0.1-0.7-0.3-1c-0.4-0.5-0.5-1.1,0-1.6
		c0.6-0.6,0.5-1.1,0-1.7c-0.4-0.4-0.5-0.9,0-1.3c0.7-0.6,0.5-1.2,0-1.8c-0.3-0.3-0.4-0.7-0.1-1.2c0.8-1.6-0.2-3.3,0.3-4.9
		c0,0,0-0.1,0-0.1c-0.7-1.4,0.7-3-0.3-4.4c0-0.1,0.2-0.4,0.3-0.5c0.4-0.4,0.5-0.8,0-1.3c-0.5-0.6-0.6-1.2,0-1.9
		c0.4-0.4,0.4-0.9,0-1.3c-0.6-0.6-0.6-1.2,0-1.8c0.1-0.1,0.3-0.4,0.3-0.5c-0.7-1.1-0.3-2.2-0.2-3.4c0.1-0.9-0.7-1.8,0-2.9
		c0.1-0.1,0-0.5-0.1-0.7c-0.5-0.8-0.6-1.6,0-2.4c0.2-0.3,0.1-0.7-0.1-0.9c-0.5-0.8-0.6-1.4,0.1-2.1c0.4-0.4,0-0.8-0.3-1.2
		c-0.4-0.6-0.6-1.1,0-1.7c0.6-0.5,0.5-1,0-1.5c-0.5-0.6-0.5-1.1,0.1-1.6c0.5-0.5,0.4-0.9,0-1.4c-0.5-0.6-0.6-1.2,0-1.8
		c0.3-0.3,0.4-0.7,0.2-1c-0.6-0.8-0.8-1.6-0.3-2.6c0.1-0.2,0-0.7-0.1-1c-0.8-1.6-0.1-1.7,1.3-1.7c12,0,24,0,36,0c0.2,0,0.3,0,0.5,0
		c1.3,0,1.4,0.3,0.9,1.4c-0.2,0.5-0.6,0.9-0.1,1.5c0.5,0.6,0.4,1.2,0,1.8c-0.3,0.4-0.6,0.9-0.1,1.3c0.7,0.7,0.5,1.4,0,2
		c-0.3,0.5-0.5,0.9,0.1,1.3c0.6,0.5,0.5,1,0.2,1.5c-0.3,0.5-0.7,1-0.1,1.6c0.5,0.5,0.3,1,0.1,1.6c-0.6,1.5,0.5,3-0.2,4.5
		c0,0,0.1,0.1,0.1,0.2c0,1.6,0,3.2,0,4.8c0,0.2-0.2,0.4-0.3,0.5c-0.2,0.3-0.2,0.6,0.1,0.8c0.8,0.7,0.5,1.5,0,2.2
		c-0.3,0.4-0.4,0.9,0.1,1.2c0.7,0.5,0.3,1,0.2,1.6c-0.4,1.4,0.3,3-0.2,4.5c0,0,0.1,0.1,0.1,0.2c0.6,0.5,0.5,1.1,0.1,1.7
		c-0.2,0.4-0.6,0.9-0.1,1.4c0.6,0.6,0.5,1.1,0.2,1.8c-0.5,0.8-0.3,1.3,0.7,1.3c0.7,0,1.4,0,2.1,0c0.7,0,1.1-0.3,1.2-1
		c0.1-0.9,0.2-1.7,0.1-2.6c-0.1-0.7-0.2-1.7,0.7-1.7c0.8,0,0.5,1,0.5,1.5c0,0.1,0,0.2,0,0.4c0.3,3.8-0.1,3.4,3.4,3.4
		c0.3,0,0.6,0,0.9,0c1,0,1.2-0.3,0.9-1.3c-0.5-1.4,0.5-2.8-0.3-4.2c-0.1-0.1,0.2-0.4,0.4-0.6c0.4-0.5,0.4-0.9,0-1.3
		c-0.3-0.3-0.7-0.8-0.3-1.2c0.8-0.8,0.2-1.6,0.1-2.4c0-1.3-0.2-2.8,0-3.9c0.5-1.7-0.6-3.4,0.2-5c0,0-0.1-0.1-0.1-0.2
		c-0.5-1.4,0.6-3-0.3-4.4c0-0.1,0.2-0.4,0.3-0.5c0.5-0.5,0.5-1,0-1.5c-0.5-0.5-0.5-1,0-1.6c0.5-0.5,0.4-1,0-1.5
		c-0.4-0.4-0.6-1-0.1-1.5c1-0.9,0.1-1.5-0.2-2.3c-0.3-0.8,1.2-1.4,0.4-2.4c-0.1-0.2-0.2-0.4-0.3-0.5c-0.2-0.3-0.2-0.7,0-0.9
		c0.6-0.8,0.4-1.5,0-2.2c-0.4-0.8-0.1-1.2,0.8-1.2c0.3,0,0.7,0,1,0c10.6,0,21.2,0,31.8,0c0.4,0,0.8,0,1.1,0c0.3,0,0.7,0.2,0.6,0.5
		c-0.6,1.2-0.6,2.4-0.2,3.6c0,0.1,0,0.2-0.1,0.2c-0.6,0.8-0.8,1.5,0.1,2.3c0.1,0.1,0.1,0.3,0.1,0.4c-0.5,1.1-0.9,2.1,0,3.1
		c0,0,0,0.2,0,0.2c-0.7,0.9-0.3,1.8-0.2,2.8c0.1,1.1-0.5,2.4,0.1,3.5c-1.4,1.3,0.9,3.2-0.7,4.5c-0.1,0,0.1,0.5,0.3,0.6
		c0.6,0.6,0.5,1.2,0.1,1.8c-0.2,0.4-0.7,0.9-0.2,1.4c0.8,0.7,0.2,1.4,0.1,2.1c0,1.4-0.1,2.8,0,4.2c0,0.7,0.1,1.3,0,2.1
		c-0.2,1.4,0.2,2.7,0,4.2c-0.1,0.6,0,1.5,0,2.3c0.1,1.4-0.1,2.8,0.1,4.1c0.1,0.9,0.4,1.6-0.1,2.4c-0.1,0.2-0.3,0.5-0.1,0.7
		c0.2,0.2,0.4,0.2,0.7,0.2c3.1-0.8,6.3-0.1,9.4-0.4c0.6-0.1,0.9,0.3,0.6,0.9c-0.4,0.8-0.5,1.7-0.5,2.6c0,6.2,0,12.5,0,18.8
		c0,0.4-0.1,0.9,0.1,1.2c0.4,1.2,0.8,2.2-1,2.4c-0.2,0-0.3,0.3-0.5,0.4c-1.8,1.8-3.5,3.6-5.3,5.3c-0.8,0.8-1.6,1.7-2.6,2.4
		c-0.8,0.6-1.2,1-0.6,1.9c0.3,0.4-0.1,0.9-0.2,1.3c-0.4,1.4,0.4,3-0.2,4.4c0,0,0.1,0.2,0.1,0.2c0.6,0.5,0.5,1,0.1,1.6
		c-0.5,0.8-0.3,1.6,0.4,2.2c1.3,1.2,2.8,1.4,4.5,1.1c0.4-0.1,0.9-0.4,1,0.2c0.1,0.6-0.4,0.8-0.9,0.8c-1.5,0-3.1,0.5-4.4-0.7
		c-0.5-0.5-1.2-0.1-1,0.4c0.7,1.2,0.5,2.2,0.1,3.3c0,0.1,0,0.2,0.1,0.2c0.8,0.8,0.5,1.6,0,2.4c-0.2,0.3-0.2,0.7,0.1,1
		c0.4,0.3,0.7,0.1,1-0.1c0.6-0.5,1.2-1,1.8-1.5c1.2-0.9,2.3-1.9,3.4-2.9c-0.5,1.3-1.6,2.2-2.6,3c-1.3,1-2.5,2.2-3.6,3.4
		c-0.4,0.4-0.6,0.9-0.1,1.3c0.7,0.6,0.5,1.1,0,1.7c-0.3,0.4-0.6,0.9-0.2,1.4c0.7,0.7,0.2,1.2,0.1,1.9c-0.2,1.5,0,3,0.1,4.5
		c0,0.7,0.3,1.2,0,1.9c-0.7,1.3,0.1,2.6,1.6,2.6c1.5,0.1,2.9,0.1,4.4,0.2c0.9,0,1.3-0.3,1.3-1.3c0-11.3,0-22.7-0.1-34
		c0-2.6,2.2-5.7,4.8-6.6L950,79.5z M156,48L156,48c0.7-2.7,0.3-5-2.1-6.7c-1.3-1-2.5-1-3.7,0.1c-0.5,0.5-0.9,1-1.4,1.5
		c-0.7,0.6-0.9,1.2-0.8,2.1c0.1,0.7,0.2,1.5,0.1,2.2c0,0.1-0.1,0.3-0.2,0.4c-0.2,0.1-0.4,0-0.4-0.2c-0.4-1.8-1.8-3.4-1-5.5
		c0.2-0.5,0.3-1.1-0.3-1.3c-0.5-0.3-1.1-0.2-1.3,0.5c-0.1,0.4-0.3,0.5-0.6,0.2c-1.8-1.6-3.8-0.7-5.7-0.7c-0.4,0-0.6,0.3-0.7,0.6
		c-1.1,1.9-1.9,2.2-4.1,1.6c0.3-0.6,0.8-1.2,0.3-1.9c-0.3-0.3-0.6-0.3-1-0.2c-0.7,0.3-0.1,0.9-0.3,1.3c-0.3,0-0.4-0.2-0.5-0.4
		c-0.5-0.8-1.2-1.3-2.1-1.1c-0.9,0.2-0.7,1.3-0.8,2c0,0.1,0,0.2,0,0.4c0.1,1.9,0.2,3.7,0.2,5.6c-0.1,3.7-0.3,7.5-0.2,11.2
		c0,0.9,0.2,1.3,1.1,0.7c0.7-0.5,1.5-0.6,2.2-0.1c0.7,0.5,0.5,1.3,0.4,2.1c-0.3,1.8-0.7,3.7-0.5,5.6c0.2,2.2,0,2.5-2.1,2.3
		c-0.9-0.1-1.2,0.2-1.2,1.1c0.1,1.1,0.2,2.2,0.2,3.2c0,1.5-0.1,1.5,1.4,1.1c2.9-0.7,3.5-0.4,3.9,2.3c0.3,1.9-0.2,2.4-2.1,2.5
		c-0.8,0-1.6,0-2.4,0.1c-0.7,0-1.2,0.4-1.1,1.1c0.1,0.8,0.7,0.5,1.2,0.4c1.5-0.1,2.9-0.5,4.5-0.4c1.5,0.1,1.7,0.2,1.6,1.8
		c-0.1,1.6-0.4,3.2,0,4.7c0.2,1,0,1.9,0,2.9c-0.1,0.8-0.4,1.1-1.2,1.1c-1.6,0.1-3.3,0.1-4.8-0.4c-0.9-0.3-1.1,0.1-1.2,0.9
		c-0.1,1.6,0.2,3.1,0.5,4.6c0.1,0.4,0.1,0.8,0.7,0.9c0.2,0.1,0.5,0,0.7-0.2c0.3-0.4,0.1-0.8-0.1-1.2c-0.1-0.1-0.2-0.2-0.2-0.3
		c-0.2-0.9,0-1.8,0.7-2.2c0.9-0.5,1.1,0.4,1.3,1c0.3,0.6,0.8,0.7,1.4,0.7c1.7,0,3.3,0,5,0c0.5,0,1.2,0.2,1.5-0.4
		c0.3-0.6-0.3-1-0.6-1.4c-0.9-1.2-1.9-2.2-2.3-3.8c1.1,1.3,2.2,2.7,3.2,4.1c0.7,1,1.6,1.3,2.8,1.3c3.7-0.1,7.4,0,11.1-0.1
		c0.5,0,1.1,0,1.2-0.6c0.2-0.6,0.3-1.2-0.1-1.7c-0.4-0.4-0.8,0.1-1.2,0.2c-1.8,0.7-2.6,0.1-2.6-1.8c0-1.7,0-3.4-0.1-5.1
		c0-1,0.4-1.5,1.4-1.5c0.4,0,0.9,0.1,1.4,0.2c0.4,0.1,0.9,0.6,1.3,0.1c0.3-0.3,0.2-0.8,0-1.2c-0.3-0.6-0.9-0.3-1.3-0.2
		c-1.2,0.3-2.5,0.3-3.7,0.2c-0.9-0.1-1.3-0.5-1.3-1.4c0-1.3,0-2.7,0-4c0-1,0.5-1.4,1.4-1.4c1.3,0,2.6,0,3.9,0c0.5,0,1.1,0.2,1.1-0.6
		c0-0.6-0.1-1.2-0.9-1.3c-0.4-0.1-0.9,0.1-1-0.5c0.2-0.1,0.3-0.2,0.5-0.2c1.4-0.3,1.6-0.8,1.4-2.4c-0.2-1.3-1.2-1.1-2-1.1
		c-0.8,0-1.2,0.4-1.2,1.3c0,0.6,0,1.2,0.1,1.9c0.2,1,0,1.6-1.2,1.7c-1.3,0.1-1.7-0.2-1.8-1.4c0-0.7,0-1.4,0-2.1
		c0-0.6-0.2-1.1-0.8-1.4c-1.2-0.8-1.2-2.1,0-2.8c1.1-0.7,2.3-1.1,3.6-0.3c0.8,0.5,2,0.7,2.7,0c0.8-0.7,0.3-1.9,0.3-2.9
		c0-0.3-0.4-0.5-0.6-0.3c-1.2,0.7-2.4,0.2-3.7,0.1c-0.6-0.1-1.5,0-1.6-0.9c-0.1-0.7,0.4-1.1,1-1.4c0.2-0.1,0.5-0.2,0.4-0.5
		c-0.1-0.3-0.4-0.3-0.6-0.3c-0.9-0.1-1.8,0.1-2.7,0.3c-2.7,0.8-5.4,1.7-8.1,2.5c-2,0.6-4,1.1-6,1.7c-0.3,0.1-0.7,0.3-0.9-0.1
		c-0.2-0.5,0.3-0.6,0.6-0.8c0.2-0.1,0.5-0.2,0.7-0.2c4.6-1.5,9.4-2.7,14-4.1c2-0.6,2.4-1.2,1.9-3.3c-0.1-0.2-0.1-0.4-0.2-0.6
		c-0.3-0.9,0-1.4,0.9-1.5c1-0.1,2-0.2,3-0.3c0.7-0.1,1.5,0.8,1.9,0.2c0.3-0.5,0.1-1.4,0-2.1C156.2,51.6,156.5,49.7,156,48L156,48z
		 M590,75.5C590,75.5,590,75.5,590,75.5c0,1.9,0,3.8,0,5.8c0,0.6,0,1.2,1,1c2.6-0.8,5.3-1.6,7.9-2.3c2.3-0.7,4.6-1.3,7-2
		c0.3-0.1,0.8-0.3,1,0.2c0.2,0.5-0.4,0.6-0.7,0.7c-1.4,0.5-2.8,1.1-4.2,1.4c-3.5,0.9-6.9,1.9-10.4,2.8c-1.1,0.3-1.5,0.9-1.5,2
		c0.1,1.8,0,3.5,0,5.2c0,1.1-0.5,1.5-1.5,1.5c-1.4,0-2.8,0-4.1-0.1c-1.4-0.1-1.4-0.1-1.1,1.3c0,0.2,0.1,0.4,0,0.6
		c-0.2,1.5,0,1.7,1.5,1.9c1.6,0.2,3.2-0.2,4.9-0.2c4.7,0.1,9.3-0.1,14,0.2c2.2,0.1,4.4,0.2,6.6,0.4c2.6,0.2,5.2,0.2,7.9,0.3
		c0.8,0,1.9-0.2,1.9-1c0-0.9-1.1-0.6-1.7-0.6c-3,0-6.1,0-9.1,0c-1,0-1.5-0.3-1.5-1.5c0-3.3,0-6.7,0-10c0-1,0.4-1.4,1.4-1.3
		c0.9,0,1.8,0,2.8,0c0.3,0,0.8,0.1,0.8-0.4c0-0.4-0.4-0.3-0.7-0.3c-1,0-1.9-0.1-2.9,0c-0.9,0-1.3-0.4-1.3-1.3c0-3.3,0-6.7,0-10
		c0-0.9,0.4-1.3,1.3-1.3c1,0,1.9,0,2.9,0c0.3,0,0.9,0,0.8-0.5c0-0.4-0.5-0.4-0.8-0.4c-1,0-2-0.1-3,0c-0.9,0.1-1.4-0.8-2.2-0.7
		c-5.1,0.5-10.3,1.1-15.4,1.6c-1,0.1-1.3,0.6-1.3,1.6C590.1,71.8,590,73.6,590,75.5L590,75.5z M357.8,110.3c0.5,0.1,0.6-0.1,0.7-0.3
		c0.8-1.1,1.5-1,2,0.3c0.3,0.6,0.3,1.3,0.2,2c0,0.3-0.1,0.7,0.3,0.8c0.3,0.1,2.1-1.2,2.2-1.7c0.2-0.7-0.5-0.5-0.8-0.7
		s-0.4-0.5-0.5-0.8c-0.2-1.3,1.1-2.1,2.4-1.6c0.5,0.2,1,0.7,1.4,0c0.6-1,1.6-1.5,2.3-2.3c0.4-0.5,0.7-0.5,1,0.1
		c0.4,0.7,0.9,1.4,1.8,1.7c0.6,0.2,0.6,0.7,0.3,1.1c-0.7,1-0.2,1.3,0.7,1.7c1.5,0.4,2.7,1.2,2.8,2.9c0.1,0.9,0.1,1.8,1.4,1.3
		c0.3-0.1,0.5,0.2,0.7,0.4c1.1,0.9,2.3,1.7,2.8,3.1c0.1,0.2,0.2,0.4,0.4,0.4c0.3-0.1,0.3-0.4,0.3-0.6c-0.1-0.9-0.4-1.7-1-2.4
		c-1.6-1.6-1.3-3.3-0.2-5c0.1-0.2,0.4-0.3,0.2-0.5c-1.1-1.1,0-2.6-0.8-3.8c-0.2-0.3,0-0.7,0.4-0.8c1.3-0.2,1.3-1.1,1.2-2
		c0-0.9,0-1.8,0-2.7c0-0.7-0.2-1.2-1-1.2c-3.2,0-6.5-0.1-9.7-0.1c-1.4,0-1.5,0.3-1.4,1.7c0.1,0.7,0.2,1.4-0.2,2.4
		c-0.6-1-0.4-1.8-0.4-2.6c0-0.5,0-1.3-0.7-1.3c-1.9-0.2-3.9-0.5-5.8,0.2c-0.9,0.3-1.6,0.5-2.4-0.2c-0.4-0.4-0.7-0.2-0.8,0.3
		C357.7,103.4,357.8,106.9,357.8,110.3L357.8,110.3z M611.9,111.2c0.5,0.3,0.5,0.7,0.6,1.1c0.2,0.5,0.3,0.9,0.9,0.7
		c0.6-0.2,0.5-0.7,0.3-1.1c-0.2-0.4-0.4-0.8-0.3-1.3c0.3-1-0.1-1.4-1.1-1.3c-0.4,0-0.8,0.1-0.9-0.4c0-0.5,0.4-0.6,0.8-0.6
		c1.3,0.1,1.6-0.6,1.5-1.7c0-0.4,0-0.8,0-1.2c0-0.3,0-0.7,0.4-0.8c0.3-0.1,0.5,0.2,0.7,0.4c1,1,2.1,1.1,3.1,0.1
		c0.2-0.2,0.4-0.5,0.7-0.3c0.3,0.1,0.2,0.5,0.2,0.8c0,0.8-0.1,1.5,0.2,2.2c0.2,0.5,0.6,0.7,1.1,0.5c0.5-0.1,0.5-0.5,0.4-0.9
		c-0.1-1.1-0.3-2.2-0.1-3.2c0.2-1,0-1.9,0.1-2.9c0.2-1.4,0.3-1.6-1.2-1.6c-4.5,0-9-0.1-13.5,0c-2.1,0-3.8,1.8-3.8,3.8
		c0,2.9,0.2,5.8-0.1,8.6c-0.3,2.6,0.7,3.9,3,4.6c0.1,0,0.2,0.1,0.2,0.1c0.6,0.4,1.1,0.3,1.5-0.2c0.5-0.5,0.9-1,1.5-1.4
		c1.7-1.2,3.3-0.6,3.7,1.4c0,0.2,0,0.3,0.1,0.5c0.1,0.3,0.2,0.7,0.6,0.7c0.4-0.1,0.4-0.5,0.4-0.8c0.1-0.8-0.3-1.5-0.6-2.3
		C612.1,113.6,611.5,112.5,611.9,111.2L611.9,111.2z M592,108.7c0,2.4,0,4.8,0,7.2c0,1.7-0.3,2-2,2c-2,0-4.1,0.1-6.1-0.5
		c-0.3-0.1-0.7-0.1-0.9,0.2c-0.3,0.3-0.1,0.7,0,1.1c1.1,2.4,1.8,2.6,4.1,1.3c0.1-0.1,0.2-0.1,0.3-0.2c0.9-0.5,1.6-0.6,2.1,0.5
		c0.1,0.2,0.4,0.5,0.6,0.6c1.9,0.2,3.8,0.6,5.5-0.8c1.3-1.1,2.5-2.4,3.7-3.5c0.8-0.7,1.1-1.6,1.1-2.7c0-3.3,0-6.7,0.1-10
		c0-1.1-0.3-1.9-1-2.7c-1-1.2-2.2-1.8-3.8-1.6c-0.7,0.1-1.5,0-2.2,0c-1,0-1.5,0.4-1.5,1.5C592.1,103.6,592,106.1,592,108.7
		L592,108.7z M348.2,116.4c0.6-0.9,0.9-1.5,1.4-2.1c0.5-0.7,0.8-1.3,0.4-2.2c-0.2-0.4-0.1-0.7,0.1-1.1c1.1-1.6,3.3-1.5,4.2,0.2
		c0.3,0.6,0.4,1.2,0.6,1.8c0.1,0.5,0.4,0.9,0.9,1.2c0.6,0.2,1,0.1,0.9-0.6c-0.5-2.6-0.1-5.3-0.2-8c-0.1-1.7,0-3.4,0-5.1
		c0-1.2-0.2-1.3-1.2-0.7c-0.6,0.4-1.2,0.4-1.8,0.1c-0.4-0.2-0.8-0.4-1.3-0.4c-4.6,0-9.1-0.1-13.7-0.1c-0.7,0-1.3,0-2,0.2
		c-0.5,0.2-1.1,0.4-1,1.1c0.1,0.6,0.8,0.3,1.2,0.4c0.7,0.1,1.4-0.1,1.8,0.8c0.6,1.6,1,1.8,2.4,1.1c1.3-0.7,2.1-0.1,2.7,0.9
		c0.6,1,1.2,2.1,0.8,3.4c-0.2,0.6,0,1,0.5,1.3c0.6,0.4,0.8,1,0.5,1.6c-0.3,0.6-0.9,0.2-1.3,0.1c-0.4-0.1-0.9-0.3-1.1,0.2
		c-0.2,0.5,0.2,0.9,0.6,1.1c0.5,0.3,1,0.4,1.5,0.4c0.6,0,1.1,0.1,1.7,0.4C348.1,113.2,348.2,114.6,348.2,116.4L348.2,116.4z
		 M368,95.5c-0.3-0.3-0.4-0.3-0.4-0.4c0.1-1.9-1.2-2.1-2.6-2.3c-0.7-0.1-1.4-0.3-2.1-0.3c-5.6-0.2-11.1-1.2-16.6-1.8
		c-3.1-0.4-6.3-0.8-9.4-1.2c-0.6-0.1-1.4-0.2-1.7,0.7c-0.6,1.8-0.2,3.6,0.7,5.2c0.7,1.2,2,0.8,3.1,0.9c6.7,0.3,13.4-0.4,20-0.3
		c3.4,0.1,6.8,0.5,10.2,0.3c3.2-0.1,6.4,0,9.6-0.1c0.6,0,1.4,0.1,1.4-0.8c0-0.8-0.8-0.9-1.4-0.9c-1.7,0-3.3-0.2-5-0.5
		c-0.5-0.1-1-0.2-1.6-0.1c-0.7,0.2-0.5,0.9-0.8,1.4c-0.5-0.7-0.1-1.9-1.5-1.8C368.5,93.4,367.8,93.9,368,95.5L368,95.5z M145.6,102
		L145.6,102c-2,0-4.1,0-6.1,0c-1.7,0-3.4,0.1-5.1,0.2c-1.1,0.1-1.6,0.5-1.6,1.6c0,0.9-0.1,1.9-0.2,2.9c0,3.5-0.2,7,0.2,10.5
		c0,0.3,0,0.8,0.3,0.9c0.5,0.2,0.6-0.3,0.8-0.6c0.5-0.8,0.8-0.7,1.2,0.1c0.4,0.7,0.8,0.8,1.3,0.1c0.6-0.9,1-0.9,1.5,0.1
		c0.3,0.5,0.6,1,1.2,0.5c0.5-0.4,0.5-1.1,0-1.5c-1.2-0.8-0.6-1.4,0.1-2c0.6-0.4,0.7-0.9,0.1-1.4c-0.8-0.7-0.7-1.3,0.1-1.9
		c0.5-0.4,0.7-0.9,0-1.3c-0.8-0.5-0.6-1.1-0.4-1.8c0.3-1.4,1.5-1.6,2.5-2.1c0.4-0.2,0.8,0,0.9,0.4c0.5,0.9,1,0.7,1.6,0.1
		c0.4-0.4,1-0.9,1.5-0.3c0.8,1.1,1.4,0.6,2.1-0.1c1.1-1,1.4-0.9,1.8,0.4c0.3,0.9,0.7,0.9,1.3,0.3c0.6-0.6,1.1-1.2,1.7-1.7
		c0.8-0.7,1.2-0.5,1.5,0.5c0.1,0.4,0.2,0.8,0.7,0.9c0.5,0.1,0.8-0.3,1.1-0.7c0.3-0.6,0.3-1.2,0.3-1.8c0-1.9-0.1-2-2-2
		C151.4,102,148.4,102,145.6,102L145.6,102z M843.1,109.2L843.1,109.2c0,0.7,0,1.4,0,2.1c0,0.8,0,1.5,0,2.2c0,1.4,0.7,2.1,2.1,2.1
		c2,0,2.1,0.1,2.1,2c0,3.1,0,3.2-3.1,2.9c-1.8-0.2-1,1.1-1.2,1.8c-0.2,1,0.5,1.1,1.2,1c3.2-0.5,6.3-0.9,9.5-0.9c0.5,0,1-0.2,0.7-0.8
		c-0.5-1.2,0.9-2.7-0.4-3.8c-0.1-0.1,0.2-0.5,0.3-0.8c0.2-0.4,0.8-0.9,0.3-1.3c-0.5-0.4-0.9,0.1-1.3,0.3c-0.2,0.1-0.4,0.2-0.6,0.2
		c-1.9,0.4-2.4,0-2.4-1.9c0-3.2,0-6.3,0-9.5c0-0.9,0.4-1.2,1.2-1.2c0.9-0.1,1.7,0.1,2.6,0.4c0.3,0.1,0.6,0.2,0.8-0.1
		c0.2-0.3,0-0.6-0.1-0.8c-0.5-1-1.5-1.2-2.5-1.1c-2.6,0.3-5.1,0.6-7.7,0.5c-1,0-1.4,0.5-1.4,1.5
		C843.1,105.7,843.1,107.5,843.1,109.2L843.1,109.2z M62.8,107.6L62.8,107.6c0-1.4,0-2.8,0-4.1c0-1-0.5-1.4-1.4-1.4
		c-2.1,0-4.2,0-6.2,0c-1,0-1.4,0.4-1.3,1.4c0,1.9,0,3.8,0,5.7c0,0.8,0.4,1.4,1,1.8c2.2,1.5,4.6,1.9,7.1,1.8c0.8,0,0.8-0.5,0.8-1.1
		C62.8,110.3,62.8,108.9,62.8,107.6z M65.6,112.7c-0.2,0.5-0.6,0.5-1,0.6c-0.5,0.2-0.8,0.5-0.8,1c0,2.4,0.1,4.7,0.2,7.1
		c0,0.4,0.3,0.9,0.6,0.7c1.3-0.8,2.8-0.1,4.1-0.4c0.7-0.2,1.3-0.1,1.7,0.7c0.1,0.2,0.3,0.4,0.6,0.3c0.3-0.1,0.3-0.4,0.2-0.6
		c-0.1-1.4-0.1-2.9-0.1-4.4c0-0.7-0.2-1.1-1.1-0.8c-0.5,0.2-1,0.2-1.5,0.2c-1.8,0-1.9-0.1-2-1.9c-0.2-2.7,0.1-5.3,0-8
		c0-2.7-0.6-3.1,3-2.9c0.7,0,1.3,0.1,1.3-0.9c0-0.9-0.3-1.4-1.3-1.4c-1.4,0-2.8,0.1-4.1,0c-1.2-0.1-1.6,0.5-1.6,1.6
		c0,2.3,0,4.7-0.2,7C63.8,112.4,63.8,112.5,65.6,112.7L65.6,112.7z M53.8,116.9c0,1.5,0.1,3.1-0.1,4.6c0,0.3-0.1,0.6,0.1,0.8
		c0.3,0.3,0.6-0.1,0.9-0.2c1.2-0.8,2.3-0.8,3.5,0.1c0.8,0.7,1.4,0.7,2.1-0.2c0.3-0.4,0.7-0.8,1.1,0c0.2,0.3,0.5,0.5,0.8,0.4
		c0.4-0.1,0.6-0.5,0.6-0.9c0-2.3,0-4.7,0-7c0-0.7-0.4-1-1-1c-0.5,0-1.1,0-1.6,0c-2-0.1-3.9-0.3-5.3-2c-0.2-0.2-0.4-0.4-0.7-0.3
		c-0.4,0.2-0.3,0.5-0.4,0.9C53.8,113.7,53.8,115.3,53.8,116.9L53.8,116.9z M204.6,92.8c0.5-0.1,0.8-0.2,1-0.7c0.8-1.6-0.1-3-2.1-2.8
		c-1.3,0.1-2.6,0.1-4,0.1c-1.8,0.1-1.8,0-1.6,1.9c0.1,0.9,0.3,1.9-0.3,3.1c-0.5-1.4-0.2-2.6-0.3-3.8c0-0.4,0.2-1-0.3-1.2
		c-0.5-0.2-1,0-1.4,0.3c-0.6,0.4-1,0.9-1,1.6c0,1.2,0,2.5,0,3.7c0,0.7,0.4,1.1,1.1,1.1c3,0,6,0,9,0c0.7,0,1.1-0.6,1.4-1.1
		c0.3-0.6-0.2-0.9-0.5-1.3C205.2,93.5,204.9,93.2,204.6,92.8L204.6,92.8z M204.1,102.5c-0.6-0.4-0.6-0.8-0.6-1.2
		c-0.1-1.7-0.6-2.1-2.2-1.7c-0.6,0.2-1.1,0.2-1.7,0c-1.4-0.3-2.7-0.2-4.1-0.1c-0.5,0-0.9,0.3-0.9,0.8c0,1.6-0.2,3.2,0.2,4.8
		c0.2,1,1.8,1.8,2.6,1.2c1.3-1.1,2.9-0.8,4.4-1.1c0.8-0.2,1.5,0,2.1,0.8c0.6,0.8,1.5,0.5,1.6-0.4c0.2-1.7,0.4-3.3,0.2-5
		c-0.1-0.6-0.5-0.9-1-0.9c-0.6,0-0.6,0.5-0.6,0.9C204,101.2,204.1,101.8,204.1,102.5L204.1,102.5z M784.7,100.2
		c0.6,0.9,0.7,1.7,0.6,2.5c0,1.1,0.1,2.1,0.5,3.1c0.2,0.4,0.4,0.9,1,0.8c0.5-0.1,0.5-0.6,0.5-1c0-2.8,0-5.6,0-8.4c0-1-0.3-1.4-1.4-1
		c-1.2,0.4-2.5,0.4-3.7,0c-1-0.4-1.2,0-1.2,0.9c0,4.2,0,8.5,0,12.7c0,0.5-0.1,1,0.4,1.3c0.2,0.1,0.4,0.1,0.6-0.1
		c0.4-0.4,0.4-1,0.2-1.5c0-0.1-0.1-0.2-0.1-0.4c-0.4-0.8-0.2-1.5,0.6-1.9c1.4-0.7,1.6-1.9,1.7-3.2
		C784.6,102.9,784.6,101.7,784.7,100.2L784.7,100.2z M13.5,86c-2.6,0-4.5,0-6.4,0c-0.5,0-0.9,0.1-1,0.7c0,0.6,0.4,0.9,0.9,0.9
		c0.2,0,0.4,0,0.6,0c3.4,0,6.7,0,10.1,0c1.3,0,2.6-0.4,3.8-0.3c4,0.5,7.9,0.2,11.9,0.3c0.7,0,1.5,0.1,1.4-0.9c0-0.9-0.8-0.8-1.4-0.8
		c-3.1,0-6.2,0-9.4,0c-1.3,0-2.5,0.6-3.7,0.3C17.9,85.9,15.4,86.1,13.5,86L13.5,86z M846.1,101.4c2.4,0,4.7,0,7.1,0
		c0.7,0,1.4-0.2,1.5-1c0-0.8-0.4-1.5-1.2-1.8c-0.2-0.1-0.5-0.1-0.7-0.1c-2.4-0.5-4.8-0.9-7.2-1.6c-2.4-0.7-2.4-0.7-2.4,1.8
		C843,100.7,844,101.7,846.1,101.4L846.1,101.4z M450.1,64.3c0,2.4,0,4.3,0,6.2c0,0.8-0.1,1.6,1,1.7c1.1,0,0.9-0.9,0.9-1.6
		c0-2.5,0-4.9,0-7.4c0.1-2.3-0.2-4.6,0-7c0.1-1.7,0-3.5,0-5.2c0-0.7-0.2-1.2-1-1.2c-0.7,0-0.9,0.5-0.9,1.1c0,0.3,0,0.7,0,1
		C450.2,56.2,450,60.5,450.1,64.3L450.1,64.3z M690.2,110.2c-0.9,0-2,0-3,0.4c-1.2,0.3-1.5,1.1-1,2.2c0.2,0.5,0.1,0.8-0.1,1.3
		c-0.6,1.2,0.3,2.6,1.6,2.5c0.6,0,1.2,0,1.8-0.1c1.4-0.1,3.1-1.8,3.3-3.2C693.3,110.8,692.8,110.2,690.2,110.2L690.2,110.2z
		 M689.3,99.7C689.3,99.7,689.3,99.7,689.3,99.7c-0.9,0-1.8,0-2.6,0c-0.7,0-1.1,0.4-0.6,1.1c0.4,0.5,0.5,0.9,0,1.4
		c-0.2,0.1-0.2,0.4,0,0.6c0.6,0.7,0.3,1.4,0,2.1c-0.3,0.8,0.1,1.1,0.9,1.1c0.5,0,1-0.2,1.4-0.4c1-0.6,2-1,3.1-1.3
		c1.1-0.3,2-3.2,1.3-4.1c-0.2-0.3-0.6-0.3-0.9-0.3C691,99.7,690.2,99.7,689.3,99.7L689.3,99.7z M142.1,98.2L142.1,98.2
		c3,0,6.1,0,9.1,0c0.6,0,1.2-0.1,1.2-0.8c0-0.8-0.6-0.9-1.3-0.8c-4.4,0.3-8.7-0.1-13.1,0c-1.5,0-3,0.1-4.5,0.1
		c-0.7,0-1.4-0.1-1.4,0.8c-0.1,0.9,0.8,0.8,1.4,0.8C136.4,98.3,139.2,98.2,142.1,98.2L142.1,98.2z M892.5,48.2c0,0.1,0,0.2,0,0.4
		c0.1,0.6-0.2,1.5,0.6,1.5c0.8,0.1,0.8-0.8,0.9-1.4c0-0.8,0.4-1.2,1.2-1.2c0.8,0,1.6,0,1.9,1.1c0.1,0.5-0.1,1.3,0.6,1.3
		c0.7,0,0.6-0.8,0.8-1.2c0.5-0.9,1.1-1.6,2-2c1.1-0.5,2,0,2.1,1.3c0,0.4,0,0.8,0,1.2c0,0.4,0.1,0.8,0.6,0.8c0.4,0,0.6-0.3,0.7-0.6
		c0.9-2.2-0.5-4.4-2.9-4.4c-0.4,0-0.8,0-1.1,0c-0.6,0-1,0.2-0.9,0.9c0.1,0.9-0.5,1.1-1.2,1.1c-0.7,0-1.1-0.2-1.2-1
		c0-0.4-0.1-0.7-0.5-0.9c-1.6-0.6-3.3,0.3-3.5,2C892.6,47.5,892.5,47.9,892.5,48.2L892.5,48.2z M131.2,111.8
		c0.2-2.8-0.2-5.5-0.2-8.2c0-0.6,0.2-1.5-0.6-1.6c-0.9-0.1-1,0.8-1.1,1.5c0,0.2,0,0.4,0,0.6c0,3.6,0,7.2,0,10.7
		c0,0.8,0.1,1.5,0.3,2.2c0.2,0.6,0.6,0.6,1.1,0.3c0.5-0.3,0.6-0.8,0.6-1.3C131.2,114.7,131.2,113.2,131.2,111.8L131.2,111.8z
		 M620.3,46.8C620.3,46.8,620.3,46.8,620.3,46.8c0,0.8,0,1.5,0,2.2c0,1.1,0.4,1.6,1.7,1.5c1.5-0.1,3.1-0.2,4.6,0.2
		c0.3,0.1,0.6,0.3,0.8,0c0.2-0.3-0.1-0.6-0.3-0.8c-1.9-1.9-3.8-3.8-5.7-5.7c-0.2-0.2-0.5-0.4-0.8-0.2c-0.3,0.2-0.3,0.5-0.3,0.8
		C620.3,45.4,620.3,46.1,620.3,46.8L620.3,46.8z M380.2,78.2c0-3.1,0-6.2,0-9.4c0-0.4,0.1-1.1-0.5-1.1c-0.7-0.1-0.7,0.6-0.7,1.1
		c0,6.2,0,12.4,0,18.6c0,0.5,0,1.2,0.6,1.2c0.7,0,0.5-0.7,0.5-1.2C380.3,84.4,380.3,81.3,380.2,78.2L380.2,78.2z M689.2,109.5
		c4.2-0.1,3.5,0.4,3.6-3.8c0-0.2,0-0.3,0-0.5c-0.1-0.5-0.4-0.6-0.8-0.5c-1.8,0.7-3.5,1.4-5.3,2.1c-0.3,0.1-0.6,0.3-0.6,0.7
		c0.2,2,0.1,2,2.3,1.9C688.6,109.5,688.9,109.5,689.2,109.5z M942.5,78.2c-0.1-0.7-0.2-1.4-0.2-2.1c-0.1-0.6-0.4-0.8-1-0.8
		c-1,0-3.2,1.8-3.3,2.8c0,0.2,0,0.4,0.1,0.5c0.7,0.8,0.4,1.5,0,2.3c-0.3,0.5-0.3,1.1,0.3,1.4c0.6,0.3,1,0.1,1.4-0.3
		c0.7-0.8,1.4-1.5,2.2-2.2C942.3,79.3,942.5,78.8,942.5,78.2z M340.1,98.4c3.5-0.2,6.9-0.2,10.4-0.2c0.5,0,1.1,0,1.6,0
		c0.4,0,1,0,1-0.5c0-0.7-0.5-0.7-1-0.7c-5,0-9.9,0-14.9,0c-0.4,0-1,0-1,0.7c0,0.6,0.5,0.7,1,0.7C338.2,98.5,339.1,98.4,340.1,98.4
		L340.1,98.4z M338.3,65.5c0-1,0-2,0-3c0-0.3,0.1-0.7-0.3-0.9c-0.4-0.1-0.6,0.2-0.8,0.5c-0.5,0.5-1.1,1-1.5,1.7
		c-0.9,1.6-1.2,3.4-0.5,5.2c0.4,1,1.4,0.8,2.2,0.7c0.8,0,1-0.7,1-1.3C338.3,67.4,338.3,66.4,338.3,65.5L338.3,65.5z M375.4,91
		c-1,0-1.9,0-2.9,0c-0.6,0-0.9,0.4-0.9,1c0,0.6,0.2,1.1,0.8,1.2c2.2,0.4,4.5,0.3,6.7,0.5c1.2,0.1,1-1.1,1.1-1.9c0-0.8-0.5-1.1-1.2-1
		C377.8,91.1,376.6,91,375.4,91L375.4,91z M390.4,46.2c1.6,0,3.2,0,4.7,0c0.4,0,0.8,0,0.9-0.5c0-0.6-0.5-0.6-0.9-0.7
		c-0.9,0-1.8,0-2.6,0c-0.8,0-1.1-0.4-1.1-1.2c0-1,0.1-2.1,0-3.1c0-0.4,0.1-1-0.4-1c-0.5,0-0.4,0.6-0.5,1c-0.3,1-0.1,2.1,0,3.1
		c0.1,1.2-0.3,1.7-1.5,1.7c-1.1,0-2.2,0-3.4-0.3c-0.4-0.1-1-0.3-1.1,0.3c-0.1,0.6,0.6,0.6,1,0.6C387.1,46.2,388.8,46.2,390.4,46.2
		L390.4,46.2z M584.5,109.2L584.5,109.2c0-1.7,0-3.4,0-5.1c0-0.5-0.1-0.9-0.8-0.9c-0.5,0-0.7,0.4-0.6,0.9c0.2,2.2-0.1,4.4,0.1,6.6
		c0.1,1.2-0.4,2.5,0,3.7c0.1,0.4,0.2,1,0.9,0.9c0.5-0.1,0.4-0.7,0.4-1.1C584.5,112.5,584.5,110.8,584.5,109.2z M411.4,46.2
		L411.4,46.2c1.2,0,2.5,0,3.7,0c0.4,0,0.8,0,0.8-0.5c0-0.5-0.4-0.6-0.8-0.6c-0.8,0-1.6,0-2.4,0c-1.6,0-1.8-0.2-1.6-1.8
		c0.1-1,0-2,0-3c0-0.2-0.1-0.5-0.4-0.6c-0.4,0-0.4,0.3-0.4,0.6c0,0.6,0,1.2,0,1.8c0,0.9,0.5,1.8-0.1,2.6c-0.6,0.9-1.7,0.3-2.6,0.5
		c-0.4,0.1-0.9,0.1-0.9,0.7c0,0.6,0.6,0.5,1,0.5C409,46.2,410.2,46.2,411.4,46.2L411.4,46.2z M374,97C374,97,374,97.1,374,97
		c-1.5,0-3,0-4.5,0c-0.5,0-1.3-0.1-1.3,0.6c0,0.8,0.8,0.7,1.3,0.8c0.1,0,0.2,0,0.4,0c3-0.1,5.9-0.2,8.8-0.2c0.4,0,1,0,1-0.6
		c0-0.6-0.6-0.6-1.1-0.6C377.2,97,375.6,97,374,97L374,97z M613,98.2c2.1,0,4.2,0,6.3-0.2c0.4-0.1,1.1,0.1,1.1-0.5
		c0-0.6-0.7-0.5-1.1-0.5c-2.5-0.1-4.9-0.1-7.3-0.2c-1,0-2.1-0.1-3.1,0c-0.5,0-1,0.4-1,0.9c0,0.6,0.6,0.4,1,0.4
		C610.3,98.2,611.6,98.2,613,98.2L613,98.2z M438.6,46.2C438.6,46.2,438.6,46.2,438.6,46.2c0.9,0.1,1.8,0.1,2.6,0.1
		c0.4,0,0.9,0.1,0.9-0.4c0.1-0.5-0.4-0.6-0.7-0.7c-0.9-0.2-1-0.7-0.9-1.5c0.1-1.1,0-2.2,0-3.2c0-0.3,0-0.8-0.5-0.8
		c-0.5,0-0.5,0.4-0.5,0.7c0,0.9,0,1.8,0,2.6c0,1.5-0.2,1.7-1.7,1.8c-0.8,0-1.5,0-2.2,0.1c-0.5,0-0.8,0.2-0.8,0.8
		c0,0.5,0.5,0.6,0.8,0.6C436.6,46.2,437.6,46.2,438.6,46.2L438.6,46.2z M58.4,98.2L58.4,98.2c1.2,0,2.3,0,3.5,0c0.6,0,1.3,0,1.3-0.9
		c-0.1-0.9-0.7-0.8-1.4-0.8c-2.3,0.2-4.6,0.3-7,0.2c-0.6,0-1.2,0-1.2,0.8c0,0.8,0.6,0.8,1.2,0.8C56,98.2,57.2,98.2,58.4,98.2
		L58.4,98.2z M192.3,33c0-0.1,0-0.2,0-0.3c-1.8-0.5-3.7-0.2-5.4-0.8c-0.1,0-0.2,0.1-0.4,0.1c-2.2,0.6-4.4,0.6-6.6,0.1
		c-1.3-0.3-2.5,0.2-3.7,0.5c0,0.1,0,0.2,0,0.3L192.3,33L192.3,33z M157.8,33h16.7c0-0.1,0-0.2,0-0.3c-1.2-0.2-2.4-0.8-3.5-0.6
		c-2.5,0.5-4.9,0.7-7.4,0c-0.2,0-0.4-0.1-0.6,0c-1.2,0.5-2.4,0.4-3.7,0.4C158.9,32.5,158.3,32.4,157.8,33L157.8,33z M401.4,46.2
		C401.4,46.2,401.4,46.2,401.4,46.2c1,0,2.1,0,3.1,0c0.3,0,0.7-0.1,0.7-0.5c0-0.4-0.4-0.5-0.7-0.6c-0.7,0-1.3-0.1-2-0.1
		c-0.9,0-1.3-0.4-1.3-1.3c0-1.2,0-2.3,0-3.5c0-0.3,0.1-0.9-0.4-0.8c-0.4,0-0.4,0.5-0.4,0.9c0,1,0.1,2.1,0.1,3.1
		c0.1,1.1-0.3,1.7-1.5,1.6c-0.1,0-0.2,0-0.2,0c-0.5,0-1,0-1.1,0.6c0,0.7,0.6,0.6,1,0.6C399.6,46.3,400.5,46.2,401.4,46.2L401.4,46.2
		z M592.7,98L592.7,98c2.3,0,4.7,0.1,7,0c0.4,0,1.1,0.2,1.1-0.5c-0.1-0.7-0.7-0.5-1.2-0.4c-5,0.4-10,0.3-15,0c-0.3,0-0.9-0.3-1,0.2
		c-0.1,0.5,0.5,0.5,0.8,0.5c0.7,0.1,1.4,0.2,2.1,0.2C588.6,98,590.6,98,592.7,98L592.7,98z M64.6,73.3c1.8,0.3,3.5,0.1,5.1,0.2
		c0.7,0,1.4,0,1.4-1c0-0.9-0.6-1.1-1.4-1.2C67.7,70.9,66.2,71.8,64.6,73.3z M67.5,98.2L67.5,98.2c0.8,0,1.6,0,2.4,0
		c0.5,0,1.1,0.1,1.2-0.6c0.1-0.7-0.6-0.6-1.1-0.8c-1.6-0.5-3.3,0-4.9-0.3c-0.7-0.1-1.1-0.1-1.2,0.6c-0.1,0.8,0.4,1.1,1,1.1
		C65.8,98.2,66.7,98.2,67.5,98.2L67.5,98.2z M529.8,14.2L529.8,14.2c1.2,0,2.5,0,3.7,0c0.4,0,1,0.1,1-0.4c0-0.6-0.6-0.6-1-0.7
		c-0.1,0-0.2,0-0.4,0c-2.5-0.1-4.9,0-7.3,0.2c-0.3,0-0.8,0-0.8,0.4c0,0.5,0.5,0.5,0.9,0.5C527.3,14.2,528.6,14.2,529.8,14.2
		L529.8,14.2z M518.1,14.2C518.1,14.2,518.1,14.2,518.1,14.2c1.2,0,2.4,0,3.6,0c0.2,0,0.5,0,0.6-0.3c0-0.3-0.2-0.4-0.5-0.5
		c-0.6-0.1-1.2-0.3-1.8-0.3c-1.9-0.1-3.7,0-5.6,0.2c-0.3,0-0.9,0-0.8,0.5c0,0.5,0.6,0.4,0.9,0.4C515.7,14.2,516.9,14.2,518.1,14.2
		L518.1,14.2z M71.2,51.7c0-0.3,0.1-0.6-0.2-0.8c-0.3-0.2-0.5,0.1-0.7,0.3c-0.9,0.8-1.7,1.7-2.6,2.5c-0.2,0.2-0.4,0.5-0.2,0.9
		c0.2,0.3,0.5,0.3,0.8,0.3c2.4,0.1,2.6,0,2.8-2.4C71.1,52.2,71.2,51.9,71.2,51.7z M552.8,14.2L552.8,14.2c1.2,0,2.5,0,3.7,0
		c0.2,0,0.5,0,0.6-0.3c0-0.3-0.2-0.4-0.5-0.5c-0.3-0.1-0.6-0.2-1-0.2c-2.2-0.3-4.3,0-6.4,0.1c-0.3,0-0.9,0-0.8,0.5
		c0,0.5,0.5,0.4,0.9,0.4C550.5,14.2,551.6,14.2,552.8,14.2L552.8,14.2z M506.5,14.2C506.5,14.2,506.5,14.2,506.5,14.2
		c1.1,0,2.2,0,3.4,0c0.3,0,0.9,0.1,0.9-0.4c0-0.5-0.5-0.5-0.8-0.6c-0.1-0.1-0.3-0.1-0.5-0.1c-2.2-0.2-4.4,0.2-6.6,0.2
		c-0.3,0-0.7,0-0.7,0.4c0,0.5,0.4,0.5,0.7,0.5C504.1,14.2,505.3,14.2,506.5,14.2z M422.4,46c-1.6-0.5-1.4-1.7-1.4-2.8
		c0-0.9,0-1.8,0-2.8c0-0.3,0.1-0.7-0.5-0.7c-0.4,1-0.1,2-0.1,3c0,2,0,2-2,2.4c-0.2,0-0.3,0.1-0.5,0.1c-0.2,0.1-0.4,0.3-0.4,0.6
		c0,0.2,0.2,0.4,0.4,0.4C419.4,46.3,420.8,46.3,422.4,46z M600.5,119.1c0-0.3,0-0.5,0-0.7c0-0.4,0.2-0.9-0.4-1.1
		c-0.4-0.1-0.7,0.2-0.9,0.5c-0.7,0.8-1.4,1.5-2.1,2.3c-0.2,0.2-0.5,0.7,0,0.8c1,0.2,2,0.3,2.9-0.1
		C600.8,120.5,600.5,119.6,600.5,119.1L600.5,119.1z M541.4,14.2L541.4,14.2c1.2,0,2.3,0,3.5,0c0.3,0,0.8,0,0.8-0.4
		c0-0.4-0.4-0.5-0.7-0.6c-0.2-0.1-0.4-0.1-0.6-0.1c-2.1-0.2-4.2,0.2-6.3,0.2c-0.3,0-0.7,0.1-0.7,0.5c0,0.4,0.4,0.4,0.7,0.4
		C539.2,14.2,540.3,14.2,541.4,14.2z M602.1,119.5c0,0.4-0.1,0.9,0.3,1.1c0.4,0.2,0.8,0,1.1-0.3c0.2-0.2,0.4-0.4,0.6-0.6
		c1.6-1.6,1.6-1.8-0.5-2.7c-1.2-0.5-1.5-0.3-1.5,1C602.2,118.5,602.2,119,602.1,119.5L602.1,119.5z M564,14.2
		C564,14.2,564,14.2,564,14.2c1.1,0,2.2,0,3.2,0c0.3,0,0.9,0.1,0.9-0.4c0-0.4-0.5-0.4-0.8-0.5c-2.3-0.5-4.5-0.1-6.8,0.1
		c-0.3,0-0.6,0.1-0.6,0.4c0,0.4,0.4,0.4,0.7,0.4C561.7,14.2,562.9,14.2,564,14.2L564,14.2z M574.9,14.2
		C574.9,14.2,574.9,14.2,574.9,14.2c1,0,2.1,0,3.1,0c0.3,0,0.8,0.1,0.9-0.3c0.1-0.5-0.4-0.5-0.8-0.6c-2.2-0.6-4.5,0-6.7,0.1
		c-0.2,0-0.5,0.1-0.5,0.5c0,0.3,0.3,0.4,0.6,0.4C572.6,14.2,573.7,14.2,574.9,14.2L574.9,14.2z M71.3,110.6L71.3,110.6
		c0-1.2,0-2.3,0-3.5c0-0.4,0.1-1-0.4-1c-0.6,0-0.6,0.6-0.6,1.1c0.2,1.8,0.1,3.5,0,5.2c0,0.6,0,1.2,0,1.9c0,0.4,0,0.9,0.5,0.9
		c0.5,0,0.4-0.6,0.4-0.9C71.3,113,71.3,111.8,71.3,110.6L71.3,110.6z M364.1,97.1c0,0,0-0.1,0-0.1c-0.7,0-1.4,0-2.1,0
		c-0.4,0-0.9-0.1-1,0.5c-0.1,0.6,0.4,0.7,0.9,0.8c1.5,0.3,3.1-0.1,4.6,0.1c0.4,0.1,0.8-0.1,0.8-0.6c0.1-0.6-0.4-0.7-0.8-0.7
		C365.7,97.1,364.9,97.1,364.1,97.1L364.1,97.1z M800,89.8c-2.4-1.1-4.9-0.9-7.4-0.5c-0.2,0-0.4,0.2-0.4,0.4c0,0.4,0.4,0.4,0.7,0.4
		c1.5,0,3,0.1,4.5,0C798.2,90.2,799.1,90.4,800,89.8L800,89.8z M71.1,64.2C71.1,64.2,71,64.2,71.1,64.2c-0.1-1-0.1-1.9-0.1-2.9
		c0-0.2-0.1-0.5-0.4-0.5c-0.3,0-0.4,0.2-0.4,0.5c0,1.9,0,3.8,0,5.7c0,0.3,0.1,0.6,0.5,0.6c0.4,0,0.4-0.3,0.4-0.6
		C71.1,66.1,71.1,65.1,71.1,64.2L71.1,64.2z M203.5,75.5C203.5,75.5,203.5,75.5,203.5,75.5c-0.6,0.1-1.2,0-1.9,0.1
		c-0.4,0-0.7,0.3-0.7,0.7c-0.1,0.3,0,0.5,0.2,0.7c0.4,0.3,0.7,0.1,1-0.2c0.2-0.2,0.5-0.5,0.8-0.2c0.5,0.5,1,0.6,1.4-0.1
		c0.2-0.3,0.4-0.1,0.6,0.1c0.2,0.2,0.5,0.3,0.8,0.1c0.2-0.2,0.3-0.4,0.2-0.7c-0.1-0.3-0.3-0.5-0.6-0.5
		C204.7,75.5,204.1,75.5,203.5,75.5z M71.1,85C71.1,85,71,85,71.1,85c-0.1-0.5,0-1-0.1-1.5c0-0.4-0.1-0.8-0.6-0.8
		c-0.4,0-0.7,0.3-0.7,0.7c-0.2,1.1-0.1,2.2,0,3.2c0,0.3,0.3,0.6,0.7,0.7c0.5,0,0.7-0.3,0.7-0.7C71.1,86.1,71.1,85.6,71.1,85L71.1,85
		z M129.3,86.9L129.3,86.9c0,0.9,0,1.7,0,2.6c0,0.3,0.1,0.6,0.4,0.7c0.4,0,0.5-0.3,0.5-0.6c0-1.7,0-3.4,0-5.1c0-0.3-0.1-0.6-0.4-0.7
		c-0.5,0-0.5,0.4-0.5,0.7C129.3,85.3,129.3,86.1,129.3,86.9L129.3,86.9z M618.1,82C618.1,82,618.1,81.9,618.1,82
		c0.8-0.1,1.5-0.1,2.2-0.1c0.3,0,0.7-0.2,0.6-0.6c0-0.4-0.4-0.4-0.7-0.4c-1.5,0.1-3.1,0.1-4.6,0.2c-0.2,0-0.5,0-0.6,0.3
		c0,0.3,0.3,0.4,0.5,0.4C616.5,81.9,617.3,81.9,618.1,82z M616.5,108.5c0.5-0.1,1-0.2,1.5-0.5c0.5-0.3,0.5-0.8,0.2-1.2
		c-0.3-0.4-0.7-0.4-0.9,0c-0.5,0.7-0.9,0.2-1.3-0.1c-0.4-0.3-1-0.6-1.2,0.1c-0.2,0.6-0.1,1.1,0.6,1.3
		C615.6,108.3,616,108.4,616.5,108.5L616.5,108.5z M686.5,97.6c0.6,0.2,5,0.5,5.5,0.3c0.2-0.1,0.5-0.1,0.5-0.4
		c0-0.5-0.4-0.4-0.8-0.4c-1.3,0-2.6,0-4,0C687.3,97,686.8,97,686.5,97.6z M621,55.4c0-0.3,0-0.4-0.1-0.5c-0.8-0.8-4.5-1.3-5.5-0.8
		c-0.2,0.1-0.4,0.2-0.3,0.5c0.1,0.2,0.3,0.3,0.5,0.3C617.4,55.1,619.2,54.7,621,55.4L621,55.4z M80.6,23.8c0-0.8-0.5-1.3-1-0.9
		c-0.7,0.5-1.3,1.2-1.9,1.8c-0.3,0.3-0.3,0.6,0.1,0.8C78.7,25.9,80.6,24.6,80.6,23.8z M606.8,98c-1.1-1.1-2.5-1.1-3.9-1
		c-0.3,0-0.6,0.1-0.6,0.5c0,0.4,0.3,0.6,0.6,0.6C604.2,98.3,605.5,98.2,606.8,98L606.8,98z M620.6,110.5c0-0.5,0.1-1.1-0.6-1.1
		c-0.7,0-0.7,0.6-0.6,1.1c0.1,0.5,0,0.9-0.3,1.3c-0.3,0.4-0.3,0.8,0,1.1c0.2,0.2,0.5,0.4,0.9,0.3c0.4-0.2,0.4-0.6,0.4-1
		C620.6,111.7,620.6,111.1,620.6,110.5z"/>
	<path d="M352.4,68.8c4.6,2.8,9,5.8,13,9.5C360.7,75.6,356.6,72.2,352.4,68.8z"/>
	<path d="M200.7,54.1c-0.4-1.3,0.4-2.9-0.7-4.2c1.4,0.9,2.4,2,3.5,3.2c0.5,0.6,0.9,1.3,1.5,1.8c0.7,0.8,0.8,1.6,0,2.6
		c-0.3-1.8-1.2-3.2-2.2-4.5c-0.3-0.4-0.7-1-1.3-0.8c-0.6,0.2-0.3,0.9-0.3,1.3c0,0.2,0,0.3-0.1,0.5C200.9,54.1,200.8,54.1,200.7,54.1
		L200.7,54.1z"/>
	<path d="M606.7,47.2c-1.9,0.3-8.5-3.5-9.5-5.5C600.6,43.5,603.5,45.5,606.7,47.2z"/>
	<path d="M584.5,28c0.8,0.5,1,1.3,1.5,2c1.3,1.9,2.7,3.7,4,5.6c0.9,1.3,2.2,2.1,3.5,3.2C590.9,38.4,585.7,31.9,584.5,28L584.5,28
		L584.5,28z"/>
	<path d="M692.4,62.4c-1.9-3.2-3.3-6.6-4.5-10.1C689.8,55.5,691.4,58.8,692.4,62.4z"/>
	<path d="M704,88.3c-2.1-2.9-2.9-6.4-4.3-9.6C701.5,81.7,703,84.9,704,88.3z"/>
	<path d="M156,48c-0.8,1.4-1.9,2.5-3.2,3.2c-2.2,1.2-4.3,2.5-6.7,3.4c-3.5,1.3-7.1,1.2-10.7,0.7c-1.8-0.2-3.2-1.4-4.4-2.8
		c0.9,0,1.6,0.6,2.4,1c1.2,0.6,2.4,0.9,3.7,1.1c4.1,0.4,7.9-0.3,11.6-2.3C151.2,50.9,153.6,49.5,156,48L156,48L156,48z"/>
	<path d="M131.8,48c0,0.4,0,0.7-0.1,1.1c-0.1,0.5-0.2,1-0.9,1c-0.6,0-0.9-0.4-1-0.9c-0.2-0.8-0.1-1.6-0.1-2.3c0.1-0.6,0.4-1,1-1
		c0.7,0,0.9,0.5,0.9,1.1C131.8,47.3,131.7,47.7,131.8,48C131.7,48,131.8,48,131.8,48L131.8,48z"/>
</g>
</svg>
