<?xml version="1.0" encoding="UTF-8"?><svg id="Layer_2" xmlns="http://www.w3.org/2000/svg" xmlns:xlink="http://www.w3.org/1999/xlink" viewBox="0 0 950 88.56"><defs><style>.cls-1{fill:url(#linear-gradient);}</style><linearGradient id="linear-gradient" x1="475" y1="88.56" x2="475" y2="0" gradientUnits="userSpaceOnUse"><stop offset="0" stop-color="#1f1c38"/><stop offset=".99" stop-color="#343142"/></linearGradient></defs><g id="Object"><polygon id="lay1" class="cls-1" points="950 79.22 932.65 78.8 930.2 56.04 923.24 56.04 923.24 37.13 924.1 37.13 924.1 35.42 920.71 35.42 920.71 28.06 920.3 28.06 920.3 35.42 917.96 35.42 917.96 29.39 917.55 29.39 917.55 35.42 903.46 35.42 903.46 37.13 904.43 37.13 904.43 75.49 888.34 75.49 888.34 58.31 879.18 58.31 879.18 16.08 880.02 16.08 880.02 14.01 878.19 14.01 878.19 11.36 876.08 11.36 876.08 10.36 876.08 7.33 876.08 4.7 873.54 4.7 873.54 0 873.23 0 872.93 0 872.93 4.7 871.56 4.7 870.73 7.33 865.19 7.33 865.19 11.36 850.68 11.36 850.68 14.01 848.85 14.01 848.85 16.08 849.68 16.08 849.68 43.56 837.54 43.56 837.54 70.55 824.07 64.58 824.07 38.38 826.24 38.38 826.24 36.45 822.42 36.45 822.42 31.23 806.05 31.23 806.05 36.45 800.7 36.45 800.7 31.23 797.95 31.23 797.95 36.45 795.2 36.45 795.2 31.23 792.17 31.23 792.17 36.45 785.85 36.45 785.85 38.38 786.81 38.38 786.81 74.69 780.67 74.69 780.67 74.31 779.56 74.31 779.56 63.96 780.67 63.96 780.67 63.13 779.56 63.13 779.56 52.79 780.67 52.79 780.67 51.96 779.56 51.96 779.56 41.61 780.67 41.61 780.67 40.78 779.56 40.78 779.56 30.43 780.67 30.43 780.67 29.6 779.56 29.6 779.56 19.25 780.67 19.25 780.67 18.42 779.56 18.42 779.56 7.71 781.46 7.71 781.46 6.88 782.43 6.88 782.43 4.61 764.34 4.61 764.34 2.08 764.93 2.08 764.93 1.35 755.09 1.35 755.09 2.08 755.67 2.08 755.67 4.61 751.19 4.61 751.19 6.88 752.16 6.88 752.16 7.71 754.06 7.71 754.06 18.42 752.95 18.42 752.95 19.25 754.06 19.25 754.06 29.6 752.95 29.6 752.95 30.43 754.06 30.43 754.06 40.78 752.95 40.78 752.95 41.61 754.06 41.61 754.06 51.96 752.95 51.96 752.95 52.79 754.06 52.79 754.06 63.13 752.95 63.13 752.95 63.96 754.06 63.96 754.06 74.31 752.95 74.31 752.95 75.14 754.06 75.14 754.06 83.6 747.89 83.6 747.89 50.92 723.05 50.92 723.05 74.69 719.02 74.69 719.02 .64 716.03 .64 716.03 2.55 710.53 3.89 710.53 2.66 707.54 2.66 707.54 4.62 702.04 5.97 702.04 4.55 699.05 4.55 699.05 6.7 693.55 8.05 693.55 6.88 690.56 6.88 690.56 8.78 685.06 10.12 685.06 9.11 682.07 9.11 682.07 81.84 677.88 81.84 677.88 43.07 662.33 43.07 662.33 66.91 646.39 66.91 646.39 46.58 644.43 46.58 644.43 39.9 645.59 39.9 645.59 39.23 640.43 39.23 640.43 37.13 639.88 37.13 639.88 39.23 638.23 39.23 638.23 28.45 637.82 28.45 637.82 39.23 635.67 39.23 635.67 39.9 636.94 39.9 636.94 46.58 626.42 46.58 626.42 62.08 616.18 62.08 610.83 81.84 600.09 81.84 600.09 17.35 585.89 17.35 585.89 15.04 586.69 15.04 586.69 14.23 575.93 14.23 575.93 15.04 576.78 15.04 576.78 17.35 576.78 21.06 576.78 65.23 570.08 65.23 570.08 48.54 572.46 48.54 572.46 47.03 555.6 47.03 555.6 36.95 552.38 36.95 552.38 34.88 545.21 34.88 545.21 36.95 539.36 36.95 539.36 72.95 520.2 72.95 520.2 46.25 504.07 46.25 504.07 67.34 490.07 67.34 490.07 80.83 479.97 80.83 479.97 63.87 466.69 63.87 466.69 78.33 459.15 78.33 456.01 57.37 449.33 57.37 449.33 39.24 450.16 39.24 450.16 37.6 446.92 37.6 446.92 30.54 446.52 30.54 446.52 37.6 444.28 37.6 444.28 31.81 443.88 31.81 443.88 37.6 430.37 37.6 430.37 39.24 431.3 39.24 431.3 76.03 415.87 76.03 415.87 59.55 407.08 59.55 407.08 19.06 407.89 19.06 407.89 17.07 406.13 17.07 406.13 14.53 404.11 14.53 404.11 13.57 404.11 10.67 404.11 8.14 401.68 8.14 401.68 3.63 401.38 3.63 401.09 3.63 401.09 8.14 399.78 8.14 398.98 10.67 393.67 10.67 393.67 14.53 379.75 14.53 379.75 17.07 378 17.07 378 19.06 378.8 19.06 378.8 45.4 367.16 45.4 367.16 71.29 354.24 65.56 354.24 40.44 356.32 40.44 356.32 38.59 352.66 38.59 352.66 33.58 336.95 33.58 336.95 38.59 331.82 38.59 331.82 33.58 329.19 33.58 329.19 38.59 326.55 38.59 326.55 33.58 323.65 33.58 323.65 38.59 317.59 38.59 317.59 40.44 318.51 40.44 318.51 75.26 312.62 75.26 312.62 74.9 311.55 74.9 311.55 64.97 312.62 64.97 312.62 64.18 311.55 64.18 311.55 54.25 312.62 54.25 312.62 53.46 311.55 53.46 311.55 43.53 312.62 43.53 312.62 42.74 311.55 42.74 311.55 32.81 312.62 32.81 312.62 32.02 311.55 32.02 311.55 22.1 312.62 22.1 312.62 21.3 311.55 21.3 311.55 11.03 313.38 11.03 313.38 10.23 314.31 10.23 314.31 8.05 296.96 8.05 296.96 5.63 297.53 5.63 297.53 4.93 288.08 4.93 288.08 5.63 288.65 5.63 288.65 8.05 284.35 8.05 284.35 10.23 285.28 10.23 285.28 11.03 287.11 11.03 287.11 21.3 286.04 21.3 286.04 22.1 287.11 22.1 287.11 32.02 286.04 32.02 286.04 32.81 287.11 32.81 287.11 42.74 286.04 42.74 286.04 43.53 287.11 43.53 287.11 53.46 286.04 53.46 286.04 54.25 287.11 54.25 287.11 64.18 286.04 64.18 286.04 64.97 287.11 64.97 287.11 74.9 286.04 74.9 286.04 75.69 287.11 75.69 287.11 83.8 281.19 83.8 281.19 52.47 257.36 52.47 257.36 75.26 253.5 75.26 253.5 4.25 250.64 4.25 250.64 6.08 245.36 7.37 245.36 6.18 242.49 6.18 242.49 8.07 237.21 9.36 237.21 8 234.35 8 234.35 10.06 229.07 11.35 229.07 10.23 226.21 10.23 226.21 12.05 220.93 13.34 220.93 12.38 218.07 12.38 218.07 82.11 214.05 82.11 214.05 44.93 199.14 44.93 199.14 67.8 183.85 67.8 183.85 48.3 181.97 48.3 181.97 41.9 183.08 41.9 183.08 41.25 178.14 41.25 178.14 39.24 177.61 39.24 177.61 41.25 176.03 41.25 176.03 30.92 175.63 30.92 175.63 41.25 173.57 41.25 173.57 41.9 174.78 41.9 174.78 48.3 164.7 48.3 164.7 63.17 154.88 63.17 149.75 82.11 139.46 82.11 139.46 20.27 125.83 20.27 125.83 18.06 126.6 18.06 126.6 17.28 116.28 17.28 116.28 18.06 117.09 18.06 117.09 20.27 117.09 23.83 117.09 66.19 110.67 66.19 110.67 50.19 112.95 50.19 112.95 48.74 96.79 48.74 96.79 39.07 93.7 39.07 93.7 37.08 86.82 37.08 86.82 39.07 81.22 39.07 81.22 73.59 62.84 73.59 62.84 47.99 47.37 47.99 47.37 68.21 33.94 68.21 33.94 81.15 24.26 81.15 24.26 64.88 11.53 64.88 11.53 78.75 0 78.75 0 88.56 11.53 88.56 15.42 88.56 21.79 88.56 24.26 88.56 33.94 88.56 47.37 88.56 51.88 88.56 54.3 88.56 62.84 88.56 81.22 88.56 86.82 88.56 93.7 88.56 96.79 88.56 108.85 88.56 110.67 88.56 117.09 88.56 127.87 88.56 133.18 88.56 139.46 88.56 164.7 88.56 170.53 88.56 180.37 88.56 183.85 88.56 199.4 88.56 203.57 88.56 218.07 88.56 219.5 88.56 220.93 88.56 226.21 88.56 229.07 88.56 234.35 88.56 236.74 88.56 237.21 88.56 242.49 88.56 245.36 88.56 249.9 88.56 250.64 88.56 252.07 88.56 253.5 88.56 257.36 88.56 277.05 88.56 279.87 88.56 281.19 88.56 287.11 88.56 297.53 88.56 307.07 88.56 311.55 88.56 318.51 88.56 335.78 88.56 354.05 88.56 354.24 88.56 367.16 88.56 374.38 88.56 378.8 88.56 381.59 88.56 403.21 88.56 407.08 88.56 411.71 88.56 415.87 88.56 431.3 88.56 442.77 88.56 445.11 88.56 449.33 88.56 454.67 88.56 466.69 88.56 470.75 88.56 475 88.56 477.39 88.56 479.97 88.56 490.07 88.56 504.07 88.56 508.77 88.56 511.29 88.56 520.2 88.56 539.36 88.56 545.21 88.56 552.38 88.56 555.6 88.56 568.18 88.56 570.08 88.56 576.78 88.56 588.01 88.56 593.55 88.56 600.09 88.56 626.42 88.56 632.5 88.56 642.76 88.56 646.39 88.56 662.6 88.56 666.96 88.56 682.07 88.56 683.57 88.56 685.06 88.56 690.56 88.56 693.55 88.56 699.05 88.56 701.55 88.56 702.04 88.56 707.54 88.56 710.53 88.56 715.26 88.56 716.03 88.56 717.53 88.56 719.02 88.56 723.05 88.56 743.58 88.56 746.52 88.56 747.89 88.56 754.06 88.56 764.93 88.56 774.88 88.56 779.56 88.56 786.81 88.56 804.82 88.56 823.87 88.56 824.07 88.56 837.54 88.56 845.08 88.56 849.68 88.56 852.6 88.56 875.14 88.56 879.18 88.56 884 88.56 888.34 88.56 904.43 88.56 916.39 88.56 918.84 88.56 923.24 88.56 950 88.56 950 79.22"/></g></svg>