<?xml version="1.0" encoding="UTF-8"?><svg id="Layer_2" xmlns="http://www.w3.org/2000/svg" xmlns:xlink="http://www.w3.org/1999/xlink" viewBox="0 0 950 170.55"><defs><style>.cls-1{fill:url(#linear-gradient);}</style><linearGradient id="linear-gradient" x1="475" y1="170.55" x2="475" y2="0" gradientUnits="userSpaceOnUse"><stop offset="0" stop-color="#5c55a9"/><stop offset=".13" stop-color="#554e9a"/><stop offset=".71" stop-color="#38335e"/><stop offset=".99" stop-color="#2d2947"/></linearGradient></defs><g id="Object"><polygon id="lay2" class="cls-1" points="949.24 129.41 928.59 129.41 928.59 92.83 915.88 92.83 915.88 51.36 914.17 51.36 914.17 28.52 905.97 28.52 905.97 19.83 901.55 19.83 901.55 12.52 900 12.52 900 0 899.6 0 899.6 12.52 898.05 12.52 898.05 19.83 893.62 19.83 893.62 28.52 885.36 28.52 885.36 51.36 883.72 51.36 883.72 114.43 879.98 95.2 876.05 95.2 876.05 78.33 877.86 78.33 877.86 77.6 837.86 77.6 837.86 78.33 839.67 78.33 839.67 111.79 835.01 111.79 835.01 129.41 823.59 129.41 814.03 111.79 768.65 111.79 759.09 129.41 741.33 129.41 741.33 95.08 722.32 95.08 722.32 42.09 705.22 42.09 705.22 29.79 704.29 29.79 704.29 42.09 702.37 42.09 702.37 19.38 701.45 19.38 701.45 42.09 699.24 42.09 699.24 25.71 698.32 25.71 698.32 42.09 695.42 42.09 695.42 116.74 686.61 116.74 686.61 87.32 685.21 87.32 685.21 82.19 683.82 82.19 683.82 78.62 673.91 78.62 673.91 82.19 672.52 82.19 672.52 87.32 667.48 87.32 667.48 85.12 665.04 85.12 665.04 87.32 664.18 87.32 664.18 81.43 660.7 81.43 660.7 87.32 659.71 87.32 653.09 136.31 640.71 136.31 644.06 118.81 628.29 118.81 628.29 29.88 632.29 29.88 632.29 28.48 628.29 28.48 628.29 25.97 623.21 25.97 623.21 21.86 581.67 21.86 581.67 25.97 576.59 25.97 576.59 28.48 572.58 28.48 572.58 29.88 576.59 29.88 576.59 85.24 569.79 85.24 569.79 74.85 527.87 74.85 527.87 87.54 518.73 87.54 518.73 111.16 503.94 111.16 503.94 33.95 499 33.95 499 28.7 495.1 28.7 495.1 14.82 494.27 14.82 494.27 28.7 492.43 28.7 492.43 11.32 491.6 11.32 491.6 28.7 489.33 28.7 489.33 33.95 488.11 33.95 488.11 111.16 457.48 111.16 457.48 65.88 458.92 65.88 458.92 62.82 449.47 62.82 449.47 54.51 444.95 54.51 444.95 62.82 440.84 62.82 440.84 54.51 436.72 54.51 436.72 62.82 428.73 62.82 428.73 54.51 404.25 54.51 404.25 62.82 398.53 62.82 398.53 65.88 401.78 65.88 401.78 82.94 392.74 82.94 392.74 121.44 380.33 121.44 380.33 111.16 366.51 111.16 366.51 133.57 349.79 133.57 349.79 143.14 325.15 143.14 325.15 148.75 314.41 148.75 314.41 136.31 296.91 136.31 290.29 87.32 289.3 87.32 289.3 81.43 285.82 81.43 285.82 87.32 284.96 87.32 284.96 85.12 282.52 85.12 282.52 87.32 277.48 87.32 277.48 82.19 276.09 82.19 276.09 78.62 266.18 78.62 266.18 82.19 264.79 82.19 264.79 87.32 263.39 87.32 263.39 116.74 254.58 116.74 254.58 42.09 251.68 42.09 251.68 25.71 250.76 25.71 250.76 42.09 248.55 42.09 248.55 19.38 247.63 19.38 247.63 42.09 245.71 42.09 245.71 29.79 244.78 29.79 244.78 42.09 227.68 42.09 227.68 95.08 208.67 95.08 208.67 129.41 190.91 129.41 181.35 111.79 135.97 111.79 126.41 129.41 114.99 129.41 114.99 111.79 110.33 111.79 110.33 78.33 112.14 78.33 112.14 77.6 72.14 77.6 72.14 78.33 73.95 78.33 73.95 95.2 70.02 95.2 66.28 114.43 66.28 51.36 64.64 51.36 64.64 28.52 56.38 28.52 56.38 19.83 51.95 19.83 51.95 12.52 50.4 12.52 50.4 0 50 0 50 12.52 48.45 12.52 48.45 19.83 44.03 19.83 44.03 28.52 35.83 28.52 35.83 51.36 34.12 51.36 34.12 92.83 21.41 92.83 21.41 129.41 .76 129.41 0 170.55 325.15 170.55 333.04 170.55 616.96 170.55 634.15 170.55 950 170.55 949.24 129.41"/></g></svg>