<?xml version="1.0" encoding="UTF-8"?><svg id="Layer_2" xmlns="http://www.w3.org/2000/svg" xmlns:xlink="http://www.w3.org/1999/xlink" viewBox="0 0 948.52 266.09"><defs><style>.cls-1{fill:url(#linear-gradient-2);}.cls-2{fill:url(#linear-gradient);}</style><linearGradient id="linear-gradient" x1="243.09" y1="74.38" x2="243.09" y2="71.96" gradientUnits="userSpaceOnUse"><stop offset="0" stop-color="#5c55a9"/><stop offset=".43" stop-color="#4f4794"/><stop offset=".99" stop-color="#41397d"/></linearGradient><linearGradient id="linear-gradient-2" x1="474.26" y1="266.09" x2="474.26" y2="0" xlink:href="#linear-gradient"/></defs><g id="Object"><g id="lay3"><path class="cls-2" d="m244.3,73.17c0-.67-.54-1.21-1.21-1.21s-1.21.54-1.21,1.21.54,1.21,1.21,1.21,1.21-.54,1.21-1.21Z"/><polyline class="cls-1" points="0 266.09 139.26 266.09 948.52 266.09 948.52 245.89 939.43 245.89 939.43 174.99 939.9 174.99 939.9 174.04 936.57 174.04 936.57 168.31 937 168.31 937 167.4 933.94 167.4 933.94 164.11 934.22 164.11 934.22 163.4 932.9 163.4 932.9 160.29 931.65 160.29 931.45 160.29 931.45 149.2 931.31 149.2 931.14 149.2 930.97 149.2 930.97 160.29 930.38 160.29 930.38 154.11 930.24 154.11 930.07 154.11 929.9 154.11 929.9 160.29 928.44 160.29 928.44 163.4 926.93 163.4 926.93 164.11 927.4 164.11 927.4 167.4 924.35 167.4 924.35 168.31 924.78 168.31 924.78 174.04 921.45 174.04 921.45 174.99 921.92 174.99 921.92 245.89 914.16 245.89 914.16 136.34 915.59 136.34 915.59 132.99 912.47 132.99 912.47 128.7 887.78 128.7 887.78 122.19 878.35 122.19 876.94 117.94 874.61 117.94 874.61 110.34 874.09 110.34 873.57 110.34 873.57 117.94 869.25 117.94 869.25 122.19 869.25 127.09 869.25 128.7 865.67 128.7 865.67 132.99 862.55 132.99 862.55 136.34 863.98 136.34 863.98 245.89 832.66 245.89 832.66 65.81 752.71 49.22 761.47 245.89 642.27 245.89 642.27 178.8 642.74 178.8 642.74 177.85 639.41 177.85 639.41 172.12 639.84 172.12 639.84 171.21 636.78 171.21 636.78 167.92 637.06 167.92 637.06 167.21 635.74 167.21 635.74 164.1 634.48 164.1 634.29 164.1 634.29 153.01 634.15 153.01 633.98 153.01 633.8 153.01 633.8 164.1 633.22 164.1 633.22 157.92 633.08 157.92 632.91 157.92 632.73 157.92 632.73 164.1 631.28 164.1 631.28 167.21 629.76 167.21 629.76 167.92 630.24 167.92 630.24 171.21 627.19 171.21 627.19 172.12 627.62 172.12 627.62 177.85 624.29 177.85 624.29 178.8 624.75 178.8 624.75 245.89 615.49 245.89 615.49 136.34 616.92 136.34 616.92 132.99 613.81 132.99 613.81 128.7 589.12 128.7 589.12 122.19 579.68 122.19 578.28 117.94 575.95 117.94 575.95 110.34 575.43 110.34 574.91 110.34 574.91 117.94 570.58 117.94 570.58 122.19 570.58 127.09 570.58 128.7 567 128.7 567 132.99 563.89 132.99 563.89 136.34 565.31 136.34 565.31 245.89 526.87 245.89 526.87 134.63 522.55 134.63 522.55 68.05 511.41 68.05 511.41 50.22 507.42 50.22 507.42 24.06 485.48 24.06 485.48 4.84 483.53 4.84 483.53 24.06 479.23 24.06 479.23 0 477.28 0 477.28 24.06 463.41 24.06 463.41 68.05 456.24 68.05 456.24 134.63 450.1 134.63 450.1 245.89 387.71 245.89 387.71 97.79 388.79 97.79 388.79 96.07 381.11 96.07 381.11 85.78 382.11 85.78 382.11 84.14 375.06 84.14 375.06 78.22 375.69 78.22 375.69 76.95 372.66 76.95 372.66 71.37 369.76 71.37 369.31 71.37 369.31 51.41 369 51.41 368.6 51.41 368.19 51.41 368.19 71.37 366.84 71.37 366.84 60.24 366.53 60.24 366.13 60.24 365.73 60.24 365.73 71.37 362.38 71.37 362.38 76.95 358.88 76.95 358.88 78.22 359.98 78.22 359.98 84.14 352.93 84.14 352.93 85.78 353.92 85.78 353.92 96.07 346.24 96.07 346.24 97.79 347.32 97.79 347.32 245.89 294.94 245.89 294.94 105.53 296.79 105.53 296.79 101.51 292.76 101.51 292.76 96.38 260.81 96.38 260.81 88.58 248.61 88.58 246.78 83.48 243.77 83.48 243.77 74.38 243.09 74.38 242.42 74.38 242.42 83.48 236.83 83.48 236.83 88.58 236.83 94.45 236.83 96.38 232.19 96.38 232.19 101.51 228.16 101.51 228.16 105.53 230.01 105.53 230.01 245.89 201.45 245.89 201.45 146.31 202.17 146.31 202.17 144.98 197.04 144.98 197.04 137 197.7 137 197.7 135.72 193 135.72 193 131.13 193.42 131.13 193.42 130.15 191.4 130.15 191.4 125.81 189.46 125.81 189.16 125.81 189.16 110.34 188.95 110.34 188.69 110.34 188.42 110.34 188.42 125.81 187.51 125.81 187.51 117.19 187.3 117.19 187.04 117.19 186.77 117.19 186.77 125.81 184.53 125.81 184.53 130.15 182.2 130.15 182.2 131.13 182.93 131.13 182.93 135.72 178.23 135.72 178.23 137 178.89 137 178.89 144.98 173.76 144.98 173.76 146.31 174.48 146.31 174.48 245.89 139.26 245.89 90.17 245.89 90.17 174.99 90.64 174.99 90.64 174.04 87.31 174.04 87.31 168.31 87.74 168.31 87.74 167.4 84.69 167.4 84.69 164.11 84.96 164.11 84.96 163.4 83.64 163.4 83.64 160.29 82.39 160.29 82.19 160.29 82.19 149.2 82.06 149.2 81.88 149.2 81.71 149.2 81.71 160.29 81.12 160.29 81.12 154.11 80.99 154.11 80.81 154.11 80.64 154.11 80.64 160.29 79.19 160.29 79.19 163.4 77.67 163.4 77.67 164.11 78.15 164.11 78.15 167.4 75.09 167.4 75.09 168.31 75.52 168.31 75.52 174.04 72.19 174.04 72.19 174.99 72.66 174.99 72.66 245.89 64.9 245.89 64.9 136.34 66.33 136.34 66.33 132.99 63.22 132.99 63.22 128.7 38.53 128.7 38.53 122.19 29.09 122.19 27.68 117.94 25.35 117.94 25.35 110.34 24.83 110.34 24.31 110.34 24.31 117.94 19.99 117.94 19.99 122.19 19.99 127.09 19.99 128.7 16.41 128.7 16.41 132.99 13.3 132.99 13.3 136.34 14.72 136.34 14.72 245.89"/></g></g></svg>