<?xml version="1.0" encoding="utf-8"?>
<!-- Generator: Adobe Illustrator 27.5.0, SVG Export Plug-In . SVG Version: 6.00 Build 0)  -->
<svg version="1.1" id="Layer_2_00000160191891141971556410000000823127038874502289_"
	 xmlns="http://www.w3.org/2000/svg" xmlns:xlink="http://www.w3.org/1999/xlink" x="0px" y="0px" viewBox="0 0 1200 459.1"
	 style="enable-background:new 0 0 1200 459.1;" xml:space="preserve">
<style type="text/css">
	.st0{opacity:0.1;}
	.st1{fill:url(#SVGID_1_);}
</style>
<g id="OBJECTS" class="st0">
	<linearGradient id="SVGID_1_" gradientUnits="userSpaceOnUse" x1="600" y1="154" x2="600" y2="459.1">
		<stop  offset="0" style="stop-color:#FFFFFF"/>
		<stop  offset="0.2005" style="stop-color:#BBBBBB;stop-opacity:0.7995"/>
		<stop  offset="0.4155" style="stop-color:#797979;stop-opacity:0.5845"/>
		<stop  offset="0.6108" style="stop-color:#454545;stop-opacity:0.3892"/>
		<stop  offset="0.7795" style="stop-color:#1F1F1F;stop-opacity:0.2205"/>
		<stop  offset="0.9148" style="stop-color:#080808;stop-opacity:8.515352e-02"/>
		<stop  offset="1" style="stop-color:#000000;stop-opacity:0"/>
	</linearGradient>
	<path class="st1" d="M1176.7,215.2c-3.6,0.8-6.9,2.2-9.9,4.1c-5.7-7-15.9-10.3-27.6-8c-4.1,0.8-8,2.3-11.6,4.2
		c-1.7-6.3-6.9-10.7-13.8-11.9c0-0.5,0.1-1.1,0.1-1.7c0-16-14.7-26.1-32.9-22.9c-3.8,0.7-7.5,1.9-10.9,3.6
		c-6.8-14.2-23.8-22.1-43.7-19c-14.7,2.3-27.8,10.1-36.5,20.6c-3.3-0.7-6.9-0.8-10.6-0.3c-8.1,1.1-15.3,5.1-20.5,10.4
		c-0.7-4.2-4.9-7-10-6.3c-4.8,0.6-8.8,4-9.9,8c-3-0.3-6.2-0.4-9.5,0c-11,1.3-20.8,6.9-27.1,14.6c-7.2-4.3-16.2-6.3-26.2-5.3
		c-20.3,2-37.3,16.2-41,33.3c-2.9-1.8-6.6-2.7-10.6-2.4c-0.5,0.1-1.1,0.1-1.6,0.2c-3.3-10-14-16.5-26.8-15.6
		c-6.3,0.4-12.2,2.7-16.8,6.1c-1.9-6.5-8.7-10.9-16.9-10.4c-2.4,0.2-4.6,0.7-6.7,1.6c-2.6-7-10.3-11.8-19.4-11.3
		c-9.2,0.4-17,6.1-19.5,13.5c-3.3-0.8-6.8-1.1-10.5-1c-18.4,0.7-33.4,14.1-33.4,30.1c0,0.8,0,1.6,0.1,2.3c-2.8-0.6-5.8-1-8.8-0.9
		c-5.7,0.2-11.1,1.6-15.7,3.9c-0.6-19.3-18.8-34.5-41.3-34.4c-20.2,0.1-37,12.4-40.6,29c-3.6-2.4-8-4-12.9-4.2
		c-7.2-28.4-36.2-50.1-71-51.6c-17.3-0.7-33.2,3.7-45.6,11.7c-6.5-8.8-17.6-15-30.2-16c-12.6-0.9-23.7,3.8-30.2,11.8
		c-4.3-3.5-9.9-5.9-15.9-6.3c-9.2-0.8-17.2,2.8-21.5,8.8c-14.3-0.9-26.9,4.1-34.8,12.7c-3.5-3.1-8.1-5.2-13.2-5.8
		c-4.2-0.4-8.1,0.2-11.4,1.7c-8.9-13.5-24.6-23.8-42.5-26.1c-13.4-1.7-25.6,1.1-34.5,7.4c-3.7-4.5-9.3-7.9-15.6-8.8
		c-4-0.6-7.8-0.2-10.9,1.1c-11.2-15.5-29.4-27.4-50-30.9c-23.7-4.1-44.1,3.7-54.3,19c-2.6-1-5.3-1.8-8-2.4c-20.3-4-36.8,7-36.8,25
		c0,0.3,0,0.7,0,1c-2.1-1.1-4.4-2-6.9-2.5C9.2,192.7,0,198.8,0,208.8v250.3h1200V230.8C1200,219.3,1189.6,212.4,1176.7,215.2z"/>
</g>
</svg>
