<?xml version="1.0" encoding="UTF-8"?><svg id="Layer_2" xmlns="http://www.w3.org/2000/svg" viewBox="0 0 490 490"><defs><style>.cls-1{fill:#fff;}</style></defs><g id="Layer_1-2"><path class="cls-1" d="m381.5,228.1L193.9,97.5c-10-7.4-30.6-3.7-32.1,16.8v261.2c1.1,24.2,24.7,22.8,32.1,16.8l187.6-130.6c6.7-4.1,16.2-20,0-33.6h0Zm-178.8,108.3v-183l131.4,91.5-131.4,91.5h0Z"/><path class="cls-1" d="m245,0C109.9,0,0,109.9,0,245s109.9,245,245,245,245-109.9,245-245S380.1,0,245,0Zm0,449.2c-112.6,0-204.2-91.6-204.2-204.2S132.4,40.8,245,40.8s204.2,91.6,204.2,204.2-91.6,204.2-204.2,204.2Z"/></g></svg>