<?xml version="1.0" encoding="UTF-8"?><svg id="Layer_2" xmlns="http://www.w3.org/2000/svg" viewBox="0 0 1200 225.35"><defs><style>.cls-1{fill:#8ab118;}.cls-2,.cls-3{fill:#abce26;}.cls-3{opacity:.5;}.cls-4{fill:#333231;}.cls-5{fill:#705323;}</style></defs><g id="OBJECTS"><path class="cls-3" d="m1179.52,91.75c-2.41.6-4.71,1.59-6.86,2.88.01-.4.03-.8.03-1.2,0-20.57-16.44-33.19-36.78-28.56-2.75.63-5.43,1.55-8.02,2.71-10.2-17.45-30.65-26.42-54.3-21.69-20.59,4.13-38.86,17.7-50.01,35.36-3.14-1.47-6.88-2-10.9-1.3-6.31,1.1-11.94,4.96-15.64,10.13-8.92-7.16-21.06-10.52-34.47-8.48-17.91,2.73-33.63,14.39-42.38,29.79-3.24-1.77-7.15-2.54-11.36-1.99-5.04.65-9.65,3.07-13.19,6.55-7.83-9.9-20.44-15.6-34.77-14.54-4.32-6.9-12.34-11-21.53-10.08-6.05.6-11.6,3.28-15.92,7.25-6.5-9.1-17.59-14.5-30.21-13.49-12.58,1.01-23.66,8.16-30.18,18.26-12.47-9.18-28.35-14.21-45.65-13.37-7.62.38-14.96,1.86-21.86,4.29-1.54-10.28-10.38-18.18-21.09-18.18-5.42,0-10.34,2.03-14.11,5.35-6.43-3.41-13.76-5.35-21.54-5.35-12.54,0-23.9,5.02-32.19,13.16-2.34-1.36-5.05-2.16-7.95-2.16-6.94,0-12.81,4.46-14.97,10.66-7.92-6.65-18.14-10.66-29.29-10.66-22.24,0-40.75,15.92-44.77,36.99-4.72-2.72-10.13-4.38-15.88-4.63-3.66-.16-7.18.27-10.48,1.19-2.49-8.48-10.28-14.96-19.51-15.48-9.1-.51-16.8,4.93-19.4,12.94-2.06-.99-4.33-1.62-6.71-1.78-8.16-.55-14.99,4.52-16.87,11.91-4.68-3.89-10.52-6.44-16.85-6.96-.96-.08-1.91-.09-2.84-.08-2.18-13.47-13.86-23.76-27.95-23.76-11.25,0-20.97,6.56-25.54,16.07-6.73-5.34-14.88-8.95-23.68-9.96-9.91-1.14-19,1.2-26.15,6.06-6.35-8.78-16.14-15.16-27.13-16.68-3.28-.45-6.45-.43-9.46,0-1.04-4.63-5.05-8.54-9.86-9.25-5.12-.75-9.34,2.42-10.02,7.25-5.19-6.17-12.48-10.63-20.54-11.92-3.76-.6-7.34-.44-10.62.34-8.64-12-21.77-20.97-36.45-23.61-19.9-3.57-36.87,5.52-43.71,21.7-3.42-1.89-7.1-3.3-10.94-4.08-18.18-3.69-32.88,7.91-32.88,26.23,0,.63.02,1.27.06,1.9-6.89,1.46-12.09,6.47-13.77,13.62-3.59-2.19-7.49-3.83-11.56-4.76-11.68-2.68-21.9,1.11-27.63,9.07-3.02-2.17-6.39-3.81-9.95-4.68-12.89-3.17-23.32,4.73-23.32,17.81v92.81h1200v-117.97c0-11.48-9.16-18.43-20.48-15.63Z"/><path class="cls-1" d="m135.6,104.77c0,13.71-11.11,19.83-24.82,19.83s-24.82-6.12-24.82-19.83,11.11-79.44,24.82-79.44,24.82,65.73,24.82,79.44Z"/><path class="cls-2" d="m132.01,94.05c0-8-3.79-33.76-9.67-53.8-3.45-8.84-7.38-14.92-11.54-14.92-13.71,0-24.82,65.73-24.82,79.44,0,.27,0,.54.01.81,4.36,5.67,12.22,8.3,21.2,8.3,13.71,0,24.82-6.12,24.82-19.83Z"/><rect class="cls-5" x="107.89" y="121.21" width="5.8" height="10.21"/><path class="cls-1" d="m260.94,104.77c0,13.71-11.11,19.83-24.82,19.83s-24.82-6.12-24.82-19.83,11.11-79.44,24.82-79.44,24.82,65.73,24.82,79.44Z"/><path class="cls-2" d="m257.34,94.05c0-8-3.79-33.76-9.67-53.8-3.45-8.84-7.38-14.92-11.54-14.92-13.71,0-24.82,65.73-24.82,79.44,0,.27,0,.54.01.81,4.36,5.67,12.22,8.3,21.2,8.3,13.71,0,24.82-6.12,24.82-19.83Z"/><rect class="cls-5" x="233.22" y="121.21" width="5.8" height="10.21"/><path class="cls-1" d="m415.27,104.77c0,13.71-11.11,19.83-24.82,19.83s-24.82-6.12-24.82-19.83,11.11-79.44,24.82-79.44,24.82,65.73,24.82,79.44Z"/><path class="cls-2" d="m411.67,94.05c0-8-3.79-33.76-9.67-53.8-3.45-8.84-7.38-14.92-11.54-14.92-13.71,0-24.82,65.73-24.82,79.44,0,.27,0,.54.01.81,4.36,5.67,12.22,8.3,21.2,8.3,13.71,0,24.82-6.12,24.82-19.83Z"/><rect class="cls-5" x="387.56" y="121.21" width="5.8" height="10.21"/><path class="cls-1" d="m1143.47,101.15c0,15.57-12.62,22.52-28.18,22.52s-28.18-6.95-28.18-22.52,12.62-90.22,28.18-90.22,28.18,74.65,28.18,90.22Z"/><path class="cls-2" d="m1139.39,88.98c0-9.09-4.3-38.34-10.99-61.1-3.92-10.05-8.38-16.95-13.11-16.95-15.57,0-28.18,74.65-28.18,90.22,0,.31,0,.62.02.92,4.95,6.44,13.88,9.42,24.08,9.42,15.57,0,28.18-6.95,28.18-22.52Z"/><rect class="cls-5" x="1111.99" y="119.83" width="6.59" height="11.59"/><path class="cls-1" d="m985.24,104.77c0,13.71-11.11,19.83-24.82,19.83s-24.82-6.12-24.82-19.83,11.11-79.44,24.82-79.44,24.82,65.73,24.82,79.44Z"/><path class="cls-2" d="m981.64,94.05c0-8-3.79-33.76-9.67-53.8-3.45-8.84-7.38-14.92-11.54-14.92-13.71,0-24.82,65.73-24.82,79.44,0,.27,0,.54.01.81,4.36,5.67,12.22,8.3,21.2,8.3,13.71,0,24.82-6.12,24.82-19.83Z"/><rect class="cls-5" x="957.52" y="121.21" width="5.8" height="10.21"/><path class="cls-1" d="m101.46,98.41c0,16.98-13.76,24.56-30.74,24.56s-30.74-7.58-30.74-24.56S53.74,0,70.72,0s30.74,81.43,30.74,98.41Z"/><path class="cls-2" d="m97,85.13c0-9.92-4.7-41.82-11.98-66.64C80.74,7.53,75.88,0,70.72,0c-16.98,0-30.74,81.43-30.74,98.41,0,.34,0,.67.02,1.01,5.4,7.02,15.14,10.28,26.27,10.28,16.98,0,30.74-7.58,30.74-24.56Z"/><rect class="cls-5" x="67.12" y="118.78" width="7.18" height="12.64"/><path class="cls-1" d="m486.62,98.41c0,16.98-13.76,24.56-30.74,24.56s-30.74-7.58-30.74-24.56S438.9,0,455.88,0s30.74,81.43,30.74,98.41Z"/><path class="cls-2" d="m482.17,85.13c0-9.92-4.7-41.82-11.98-66.64-4.27-10.96-9.14-18.49-14.3-18.49-16.98,0-30.74,81.43-30.74,98.41,0,.34,0,.67.02,1.01,5.4,7.02,15.14,10.28,26.27,10.28,16.98,0,30.74-7.58,30.74-24.56Z"/><rect class="cls-5" x="452.29" y="118.78" width="7.18" height="12.64"/><path class="cls-1" d="m934.38,98.41c0,16.98-13.76,24.56-30.74,24.56s-30.74-7.58-30.74-24.56S886.66,0,903.64,0s30.74,81.43,30.74,98.41Z"/><path class="cls-2" d="m929.93,85.13c0-9.92-4.7-41.82-11.98-66.64-4.27-10.96-9.14-18.49-14.3-18.49-16.98,0-30.74,81.43-30.74,98.41,0,.34,0,.67.02,1.01,5.4,7.02,15.14,10.28,26.27,10.28,16.98,0,30.74-7.58,30.74-24.56Z"/><rect class="cls-5" x="900.05" y="118.78" width="7.18" height="12.64"/><path class="cls-1" d="m769.71,104.24c0,13.98-11.33,20.22-25.31,20.22s-25.31-6.24-25.31-20.22,11.33-81.01,25.31-81.01,25.31,67.04,25.31,81.01Z"/><path class="cls-2" d="m766.04,93.31c0-8.16-3.87-34.43-9.87-54.86-3.52-9.02-7.52-15.22-11.77-15.22-13.98,0-25.31,67.04-25.31,81.01,0,.28,0,.56.02.83,4.44,5.78,12.47,8.46,21.62,8.46,13.98,0,25.31-6.24,25.31-20.22Z"/><rect class="cls-5" x="741.45" y="121.01" width="5.91" height="10.41"/><path class="cls-1" d="m744.05,110.41c0,10.81-8.76,15.63-19.57,15.63s-19.57-4.83-19.57-15.63,8.76-62.63,19.57-62.63,19.57,51.83,19.57,62.63Z"/><path class="cls-2" d="m741.21,101.96c0-6.31-2.99-26.62-7.63-42.42-2.72-6.97-5.82-11.77-9.1-11.77-10.81,0-19.57,51.83-19.57,62.63,0,.22,0,.43.01.64,3.43,4.47,9.64,6.54,16.72,6.54,10.81,0,19.57-4.83,19.57-15.63Z"/><rect class="cls-5" x="722.2" y="123.37" width="4.57" height="8.05"/><rect class="cls-4" x="266.78" y="127.69" width="11.54" height="3.73"/><rect class="cls-4" x="268.65" y="100.95" width="7.36" height="26.74"/><rect class="cls-4" x="271.34" y="59.39" width="2.42" height="52.35"/><circle class="cls-4" cx="272.55" cy="59.39" r="4.69"/><path class="cls-4" d="m272.55,24.27v33.35l8.39-2.19,3.29-19.63-11.69-11.53Zm6.75,28.66l-4.45,1.18v-15.94l6.92-1.48-2.47,16.24Z"/><path class="cls-4" d="m260.94,35.8l3.29,19.63,8.39,2.19V24.27l-11.69,11.53Zm9.39,18.31l-4.45-1.18-2.47-16.24,6.92,1.48v15.94Z"/><rect class="cls-4" x="564.95" y="127.69" width="11.54" height="3.73"/><rect class="cls-4" x="566.81" y="100.95" width="7.36" height="26.74"/><rect class="cls-4" x="569.5" y="59.39" width="2.42" height="52.35"/><circle class="cls-4" cx="570.71" cy="59.39" r="4.69"/><path class="cls-4" d="m570.71,24.27v33.35l8.39-2.19,3.29-19.63-11.69-11.53Zm6.75,28.66l-4.45,1.18v-15.94l6.92-1.48-2.47,16.24Z"/><path class="cls-4" d="m559.1,35.8l3.29,19.63,8.39,2.19V24.27l-11.69,11.53Zm9.39,18.31l-4.45-1.18-2.47-16.24,6.92,1.48v15.94Z"/><rect class="cls-4" x="863.11" y="127.69" width="11.54" height="3.73"/><rect class="cls-4" x="864.98" y="100.95" width="7.36" height="26.74"/><rect class="cls-4" x="867.67" y="59.39" width="2.42" height="52.35"/><circle class="cls-4" cx="868.88" cy="59.39" r="4.69"/><path class="cls-4" d="m868.88,24.27v33.35l8.39-2.19,3.29-19.63-11.69-11.53Zm6.75,28.66l-4.45,1.18v-15.94l6.92-1.48-2.47,16.24Z"/><path class="cls-4" d="m857.27,35.8l3.29,19.63,8.39,2.19V24.27l-11.69,11.53Zm9.39,18.31l-4.45-1.18-2.47-16.24,6.92,1.48v15.94Z"/><rect class="cls-4" x="1161.27" y="127.69" width="11.54" height="3.73"/><rect class="cls-4" x="1163.14" y="100.95" width="7.36" height="26.74"/><rect class="cls-4" x="1165.83" y="59.39" width="2.42" height="52.35"/><circle class="cls-4" cx="1167.04" cy="59.39" r="4.69"/><path class="cls-4" d="m1167.04,24.27v33.35l8.39-2.19,3.29-19.63-11.69-11.53Zm6.75,28.66l-4.45,1.18v-15.94l6.92-1.48-2.47,16.24Z"/><path class="cls-4" d="m1155.43,35.8l3.29,19.63,8.39,2.19V24.27l-11.69,11.53Zm9.39,18.31l-4.45-1.18-2.47-16.24,6.92,1.48v15.94Z"/></g></svg>