<?xml version="1.0" encoding="UTF-8"?><svg id="Layer_2" xmlns="http://www.w3.org/2000/svg" viewBox="0 0 1200 280.65"><defs><style>.cls-1{fill:#9bd3dd;}</style></defs><g id="OBJECTS"><polygon class="cls-1" points="1200 134.34 1200 280.61 786.89 280.61 786.89 280.65 740.22 280.65 740.22 280.61 189.4 280.61 189.4 280.65 142.73 280.65 142.73 280.61 0 280.61 0 62.17 22.86 27.3 22.86 0 42.85 0 42.85 14.74 62.83 14.74 62.83 28.25 62.92 97.76 85.25 97.76 85.25 123.69 88.4 123.69 88.4 97.44 92.84 97.44 92.84 94.54 121.75 94.54 121.75 97.44 126.19 97.44 126.19 152.17 130.79 152.17 130.79 76.75 136.28 76.75 136.28 73.17 171.98 73.17 171.98 76.75 177.46 76.75 177.46 122.33 182.86 122.33 182.86 97.44 187.3 97.44 187.3 94.54 216.22 94.54 216.22 97.44 220.66 97.44 220.66 106.81 229.94 117.12 229.94 134.41 254.29 134.41 254.29 123.69 260.69 123.69 260.69 97.44 284.31 97.44 284.31 81.9 294.38 73.03 294.38 47.87 317.93 47.87 317.93 143.29 331.83 143.29 331.83 113.91 339.15 113.91 339.15 106.81 355.16 113.91 359.08 113.91 359.08 60.73 383.16 28.57 407.23 60.73 407.23 167.95 415.1 167.95 415.1 109.03 427.39 109.03 426.68 87.32 440.67 87.32 440.67 81.1 461.92 81.1 461.92 87.32 465.6 87.32 463.44 153.49 466.75 153.49 466.75 130.15 493.41 113.91 493.41 143.29 520.07 143.29 520.07 120.34 528.89 120.34 528.89 21.09 574.32 67.1 574.32 113.81 597.49 130.68 597.49 62.17 620.35 27.3 620.35 0 640.34 0 640.34 14.74 660.32 14.74 660.32 28.25 660.41 97.76 682.73 97.76 682.73 123.69 685.89 123.69 685.89 97.44 690.33 97.44 690.33 94.54 719.24 94.54 719.24 97.44 723.68 97.44 723.68 152.17 728.28 152.17 728.28 76.75 733.77 76.75 733.77 73.17 769.47 73.17 769.47 76.75 774.95 76.75 774.95 122.33 780.35 122.33 780.35 97.44 784.79 97.44 784.79 94.54 813.71 94.54 813.71 97.44 818.15 97.44 818.15 106.81 827.43 117.12 827.43 134.41 851.78 134.41 851.78 123.69 858.18 123.69 858.18 97.44 881.8 97.44 881.8 81.9 891.87 73.03 891.87 47.87 915.42 47.87 915.42 143.29 929.32 143.29 929.32 113.91 936.64 113.91 936.64 106.81 952.65 113.91 956.57 113.91 956.57 60.73 980.65 28.57 1004.72 60.73 1004.72 167.95 1012.59 167.95 1012.59 109.03 1024.88 109.03 1024.17 87.32 1038.16 87.32 1038.16 81.1 1059.41 81.1 1059.41 87.32 1063.09 87.32 1060.93 153.49 1064.24 153.49 1064.24 130.15 1090.9 113.91 1090.9 143.29 1117.56 143.29 1117.56 120.34 1126.38 120.34 1126.38 21.09 1171.81 67.1 1171.81 113.81 1200 134.34"/></g></svg>