<?xml version="1.0" encoding="UTF-8"?><svg id="Layer_2" xmlns="http://www.w3.org/2000/svg" viewBox="0 0 1200 312.2"><defs><style>.cls-1{fill:#b2e0ea;}</style></defs><g id="OBJECTS"><polygon class="cls-1" points="1200 116.1 1200 312.2 0 312.2 0 110.99 37.79 83.45 37.79 103.99 65.98 83.45 65.98 96.99 82.44 96.99 82.44 119.94 109.1 119.94 109.1 90.55 135.75 106.8 135.75 130.14 138.13 130.14 136.9 77.23 140.25 77.23 140.25 71.57 142.73 71.57 144.71 37.36 146.7 71.57 159.59 71.57 159.59 77.23 172.31 77.23 171.86 96.99 182.85 96.99 182.85 144.6 196.12 144.6 196.12 132.93 205.11 132.93 205.11 72.9 224.27 47.31 243.42 72.9 243.42 90.55 247.34 90.55 263.36 83.45 263.36 90.55 270.67 90.55 270.67 119.94 284.57 119.94 284.57 24.52 295.15 24.52 295.15 0 297.54 0 297.54 24.52 308.13 24.52 308.13 49.68 318.19 58.54 318.19 74.08 341.81 74.08 341.81 100.33 348.22 100.33 348.22 111.05 360.62 111.05 360.62 93.77 369.9 83.45 369.9 74.08 374.34 74.08 374.34 71.19 403.26 71.19 403.26 74.08 407.7 74.08 407.7 98.98 417.54 98.98 417.54 58.47 421.98 58.47 421.98 55.58 450.89 55.58 450.89 58.47 455.33 58.47 455.33 128.82 464.37 128.82 464.37 74.08 468.81 74.08 468.81 71.19 497.73 71.19 497.73 74.08 502.17 74.08 502.17 100.33 514.63 100.33 514.63 43.87 530.84 43.87 530.84 32.92 547.05 32.92 547.05 20.96 563.27 20.96 563.27 77.23 590.57 77.23 589.67 116.1 597.49 116.1 597.49 110.99 635.28 83.45 635.28 103.99 663.47 83.45 663.47 96.99 679.93 96.99 679.93 119.94 706.58 119.94 706.58 90.55 733.24 106.8 733.24 130.14 735.62 130.14 734.39 77.23 737.74 77.23 737.74 71.57 740.22 71.57 742.2 37.36 744.19 71.57 757.08 71.57 757.08 77.23 769.8 77.23 769.35 96.99 780.34 96.99 780.34 144.6 793.61 144.6 793.61 132.93 802.6 132.93 802.6 72.9 821.76 47.31 840.91 72.9 840.91 90.55 844.83 90.55 860.85 83.45 860.85 90.55 868.16 90.55 868.16 119.94 882.06 119.94 882.06 24.52 892.64 24.52 892.64 0 895.03 0 895.03 24.52 905.61 24.52 905.61 49.68 915.68 58.54 915.68 74.08 939.3 74.08 939.3 100.33 945.71 100.33 945.71 111.05 958.11 111.05 958.11 93.77 967.39 83.45 967.39 74.08 971.83 74.08 971.83 71.19 1000.75 71.19 1000.75 74.08 1005.19 74.08 1005.19 98.98 1015.03 98.98 1015.03 58.47 1019.47 58.47 1019.47 55.58 1048.38 55.58 1048.38 58.47 1052.82 58.47 1052.82 128.82 1061.86 128.82 1061.86 74.08 1066.3 74.08 1066.3 71.19 1095.22 71.19 1095.22 74.08 1099.66 74.08 1099.66 100.33 1112.12 100.33 1112.12 43.87 1128.33 43.87 1128.33 32.92 1144.54 32.92 1144.54 20.96 1160.75 20.96 1160.75 77.23 1188.06 77.23 1187.16 116.1 1200 116.1"/></g></svg>