<?xml version="1.0" encoding="UTF-8"?><svg id="Layer_2" xmlns="http://www.w3.org/2000/svg" viewBox="0 0 1200 459.06"><defs><style>.cls-1{fill:#f3fdff;}</style></defs><g id="OBJECTS"><path class="cls-1" d="m1176.68,70.1c-3.56.88-6.93,2.51-9.95,4.68-5.73-7.96-15.95-11.75-27.63-9.07-4.07.93-7.96,2.58-11.56,4.76-1.67-7.15-6.87-12.17-13.77-13.62.04-.63.06-1.27.06-1.9,0-18.31-14.7-29.92-32.88-26.23-3.83.78-7.51,2.19-10.94,4.08-6.84-16.18-23.8-25.27-43.71-21.7-14.68,2.64-27.81,11.61-36.45,23.61-3.28-.78-6.86-.94-10.62-.34-8.06,1.28-15.34,5.75-20.54,11.92-.68-4.83-4.9-8-10.02-7.25-4.8.7-8.81,4.62-9.86,9.25-3.01-.43-6.18-.45-9.46,0-10.99,1.52-20.78,7.9-27.13,16.68-7.15-4.86-16.24-7.2-26.15-6.06-20.35,2.35-37.31,18.55-40.98,38.14-2.89-2.06-6.58-3.11-10.6-2.73-.54.05-1.08.13-1.61.23-3.28-11.37-14.04-18.95-26.82-17.91-6.33.52-12.17,3.07-16.85,6.96-1.88-7.39-8.72-12.46-16.87-11.91-2.38.16-4.64.79-6.71,1.78-2.6-8.02-10.3-13.46-19.4-12.94-9.22.52-17.01,7-19.51,15.48-3.3-.92-6.82-1.35-10.48-1.19-18.44.82-33.4,16.08-33.4,34.4,0,.89.05,1.77.11,2.64-2.81-.72-5.77-1.07-8.84-.99-5.72.15-11.09,1.77-15.74,4.48-.58-22.13-18.84-39.49-41.29-39.43-20.22.07-37.04,14.24-40.61,33.22-3.58-2.8-8.04-4.55-12.89-4.78-7.18-32.51-36.25-57.3-71.01-59.01-17.3-.84-33.18,4.2-45.65,13.37-6.51-10.11-17.6-17.25-30.18-18.26-12.61-1.01-23.71,4.39-30.21,13.49-4.32-3.97-9.87-6.65-15.92-7.25-9.19-.92-17.21,3.18-21.53,10.08-14.34-1.05-26.94,4.65-34.77,14.54-3.54-3.48-8.15-5.9-13.19-6.55-4.21-.54-8.13.23-11.36,1.99-8.75-15.41-24.46-27.07-42.38-29.79-13.41-2.04-25.56,1.32-34.47,8.48-3.7-5.17-9.33-9.03-15.64-10.13-4.02-.7-7.76-.17-10.9,1.3-11.16-17.66-29.42-31.23-50.01-35.36-23.65-4.73-44.11,4.24-54.3,21.69-2.58-1.16-5.26-2.08-8.02-2.71-20.34-4.63-36.78,7.99-36.78,28.56,0,.4.02.8.03,1.2-2.14-1.3-4.45-2.29-6.86-2.88C9.16,44.32,0,51.26,0,62.75v396.31h1200V87.91c0-13.07-10.43-20.98-23.32-17.81Z"/></g></svg>