<?xml version="1.0" encoding="UTF-8"?><svg id="Layer_2" xmlns="http://www.w3.org/2000/svg" viewBox="0 0 169.49 66.32"><defs><style>.cls-1{fill:#c8943a;}.cls-2{fill:#f2f2f3;}.cls-3{opacity:.95;}</style></defs><g id="Base"><g class="cls-3"><path class="cls-2" d="m152.99,66.32c-9.1,0-16.5-7.4-16.5-16.5s7.4-16.5,16.5-16.5,16.5,7.4,16.5,16.5-7.4,16.5-16.5,16.5Zm0-30.64c-7.8,0-14.14,6.34-14.14,14.14s6.34,14.14,14.14,14.14,14.14-6.34,14.14-14.14-6.34-14.14-14.14-14.14Z"/></g><g class="cls-3"><path class="cls-2" d="m152.99,38.04c-6.51,0-11.79,5.28-11.79,11.79s5.28,11.79,11.79,11.79,11.79-5.28,11.79-11.79-5.28-11.79-11.79-11.79Zm-2.39,17.53h-2.39v-11.97h2.39v11.97Zm1.43.48v-12.73l9.11,6.36-9.11,6.36Z"/></g><path class="cls-2" d="m30.1,8.64c0-2.35.5-8.64,8.93-8.64,7.58,0,8.75,5.09,8.89,7.83.04.5-.28.89-.78,1l-3.95.89c-.75.14-1.32-.36-1.42-1.1-.18-1.56-.82-2.49-2.74-2.49-2.63,0-2.81,1.67-2.81,4.41v5.12c0,2.74.18,4.41,2.81,4.41,1.96,0,2.49-.93,2.7-2.56.11-.75.68-1.21,1.39-1.03l4.02.89c.5.11.82.5.78,1.03-.14,2.7-1.32,7.79-8.89,7.79-8.43,0-8.93-6.3-8.93-8.64v-8.89Z"/><path class="cls-2" d="m55.43.64c.71,0,1.07.36,1.07,1.07v16.65c0,.68.39,1.07,1.07,1.07h7.93c.71,0,1.07.35,1.07,1.07v3.98c0,.71-.36,1.07-1.07,1.07h-14.05c-.68,0-1.07-.39-1.07-1.07V1.71c0-.71.39-1.07,1.07-1.07h3.98Z"/><path class="cls-2" d="m73.74.64c.71,0,1.07.36,1.07,1.07v22.77c0,.67-.36,1.07-1.07,1.07h-3.91c-.68,0-1.07-.39-1.07-1.07V1.71c0-.71.39-1.07,1.07-1.07h3.91Z"/><path class="cls-2" d="m78.01,8.64c0-2.35.5-8.64,8.93-8.64,7.58,0,8.75,5.09,8.89,7.83.04.5-.28.89-.78,1l-3.95.89c-.75.14-1.32-.36-1.42-1.1-.18-1.56-.82-2.49-2.74-2.49-2.63,0-2.81,1.67-2.81,4.41v5.12c0,2.74.18,4.41,2.81,4.41,1.96,0,2.49-.93,2.7-2.56.11-.75.68-1.21,1.39-1.03l4.02.89c.5.11.82.5.78,1.03-.14,2.7-1.32,7.79-8.89,7.79-8.43,0-8.93-6.3-8.93-8.64v-8.89Z"/><path class="cls-2" d="m118.28,24.26c.5.71.18,1.28-.68,1.28h-5.34c-.57,0-.96-.21-1.28-.71l-4.41-6.76c-.14-.21-.36-.21-.5,0l-1.46,1.99c-.11.14-.14.28-.14.46v3.95c0,.67-.36,1.07-1.07,1.07h-4.06c-.68,0-1.07-.39-1.07-1.07V1.71c0-.71.39-1.07,1.07-1.07h4.06c.71,0,1.07.36,1.07,1.07v7.15c0,.36.25.43.43.14l5.58-7.68c.32-.46.71-.68,1.28-.68h5.27c.89,0,1.17.57.68,1.32l-7.19,9.89c-.11.18-.14.32,0,.5l7.75,11.92Z"/><path class="cls-2" d="m136.81,7.83c0-.71-.36-1.07-1.07-1.07h-4.98c-.68,0-1.07-.39-1.07-1.07V1.71c0-.71.39-1.07,1.07-1.07h18.21c.71,0,1.07.36,1.07,1.07v3.98c0,.68-.36,1.07-1.07,1.07h-4.98c-.68,0-1.07.36-1.07,1.07v16.65c0,.67-.36,1.07-1.07,1.07h-3.98c-.68,0-1.07-.39-1.07-1.07V7.83Z"/><path class="cls-2" d="m169.32,17.54c0,2.35-.5,8.64-8.93,8.64s-8.93-6.3-8.93-8.64v-8.89c0-2.35.5-8.64,8.93-8.64s8.93,6.3,8.93,8.64v8.89Zm-6.12-7.01c0-2.74-.18-4.41-2.81-4.41s-2.81,1.67-2.81,4.41v5.12c0,2.74.18,4.41,2.81,4.41s2.81-1.67,2.81-4.41v-5.12Z"/><path class="cls-2" d="m40.61,44.46c-.71.14-1.07-.18-1.17-.89-.25-1.46-1.42-2.38-3.09-2.38-1.39,0-2.24.82-2.1,1.64.5,2.77,11.74,2.7,11.74,10.88,0,1.07-1.21,7.36-9.64,7.36-7.47,0-9.07-4.91-9.25-7.68-.04-.64.28-1.03.92-1.17l4.02-.89c.71-.14,1.1.18,1.17.92.14,1.71,1.46,2.7,3.13,2.7s3.02-1.03,2.81-1.99c-.68-3.02-11.38-2.35-11.38-10.53-.04-1.07.6-7.36,8.57-7.36,7.33,0,9.03,4.77,9.25,7.33.04.64-.28,1.03-.92,1.17l-4.06.89Z"/><path class="cls-2" d="m53.88,42.83c0-.71-.36-1.07-1.07-1.07h-4.98c-.68,0-1.07-.39-1.07-1.07v-3.98c0-.71.39-1.07,1.07-1.07h18.21c.71,0,1.07.36,1.07,1.07v3.98c0,.68-.36,1.07-1.07,1.07h-4.98c-.68,0-1.07.36-1.07,1.07v16.65c0,.67-.35,1.07-1.07,1.07h-3.98c-.68,0-1.07-.39-1.07-1.07v-16.65Z"/><path class="cls-2" d="m86.14,59.33c0,.78-.36,1.21-1.07,1.21h-3.98c-.68,0-1.07-.36-1.07-1.07v-3.09c0-.71-.36-1.07-1.07-1.07h-3.06c-.68,0-1.07.36-1.07,1.07v3.09c0,.71-.36,1.07-1.07,1.07h-3.98c-.68,0-1.07-.43-1.07-1.21v-15.08c0-4.48.71-9.25,8.72-9.25s8.71,4.77,8.71,9.25v15.08Zm-6.12-15.08c0-1.71-.25-2.56-2.6-2.56s-2.6.85-2.6,2.56v3.88c0,.67.39,1.07,1.07,1.07h3.06c.71-.04,1.07-.39,1.07-1.1v-3.84Z"/><path class="cls-2" d="m108.27,58.62c.5.92-.07,1.92-1.17,1.92h-4.06c-.36,0-.68-.18-.82-.5l-3.7-7.15c-.07-.11-.18-.18-.29-.18h-1.42c-.64,0-1.1.46-1.1,1.1v5.62c0,.64-.46,1.1-1.1,1.1h-3.98c-.64,0-1.1-.46-1.1-1.1v-22.69c0-.64.46-1.1,1.1-1.1h7.79c6.33,0,8.89,2.7,8.89,8.54,0,3.31-.82,5.62-2.7,6.97-.14.11-.18.28-.11.46l3.77,7.01Zm-11.45-16.86c-.64,0-1.1.46-1.1,1.1v2.63c0,.64.46,1.1,1.1,1.1h1.81c1.71,0,2.56-.21,2.56-2.42s-.85-2.42-2.56-2.42h-1.81Z"/><path class="cls-2" d="m115.59,42.83c0-.71-.36-1.07-1.07-1.07h-4.98c-.68,0-1.07-.39-1.07-1.07v-3.98c0-.71.39-1.07,1.07-1.07h18.21c.71,0,1.07.36,1.07,1.07v3.98c0,.68-.36,1.07-1.07,1.07h-4.98c-.68,0-1.07.36-1.07,1.07v16.65c0,.67-.35,1.07-1.07,1.07h-3.98c-.68,0-1.07-.39-1.07-1.07v-16.65Z"/><path class="cls-1" d="m15.13,21.42c-.76.57-1.52,1.15-2.29,1.72-.12.09-.1.14-.03.23.87,1.18,1.82,2.3,2.8,3.38,1.25,1.38,2.64,2.59,4.34,3.44,1.69.85,3.51,1.25,5.5,1.11.3-.02.61-.09.91-.16.54-.12.93.25.79.77-.03.12-.11.26-.22.33-.56.39-1.12.79-1.71,1.13-.97.58-2.02.99-3.1,1.28-1.54.41-3.06.49-4.59.32-1.57-.17-3.05-.61-4.46-1.2-1.36-.57-2.62-1.3-3.82-2.12-1.21-.82-2.33-1.74-3.4-2.73-.07-.07-.14-.13-.2-.21-.07-.09-.14-.07-.23,0-1.34,1.01-2.68,2.02-4.02,3.03-.12.09-.24.18-.38.24-.42.21-.92-.08-.92-.52,0-1.8-.02-3.6-.03-5.39-.01-2.19-.03-4.39-.04-6.58C.03,17.89.01,16.3,0,14.71c0-.12,0-.24.01-.36.02-.38.47-.76.88-.64.54.16,1.08.32,1.62.48,2.64.78,5.29,1.56,7.93,2.34,2.07.61,4.13,1.22,6.2,1.83.19.06.37.12.56.16.28.07.45.24.5.52.05.29-.09.51-.34.69-.75.56-1.49,1.12-2.24,1.68h0Z"/></g></svg>