<?xml version="1.0" encoding="utf-8"?>
<!-- Generator: Adobe Illustrator 27.5.0, SVG Export Plug-In . SVG Version: 6.00 Build 0)  -->
<svg version="1.1" id="Layer_1" xmlns="http://www.w3.org/2000/svg" xmlns:xlink="http://www.w3.org/1999/xlink" x="0px" y="0px"
	 viewBox="0 0 48 48" style="enable-background:new 0 0 48 48;" xml:space="preserve">
<style type="text/css">
	.st0{fill:#FFFFFF;}
</style>
<path d="M44,24H4c0,0.3,0,1.7,0,2c0,11,9,20,20,20s20-9,20-20C44,25.7,44,24.3,44,24z"/>
<circle class="st0" cx="24" cy="24" r="19"/>
<path d="M24,44C13,44,4,35,4,24S13,4,24,4s20,9,20,20S35,44,24,44z M24,6C14.1,6,6,14.1,6,24s8.1,18,18,18s18-8.1,18-18S33.9,6,24,6
	z"/>
<path d="M20.8,31.1L20.8,31.1c-1,0-1.9-0.8-1.9-1.9V18.7c0-1,0.8-1.9,1.9-1.9h0c1,0,1.9,0.8,1.9,1.9v10.5
	C22.7,30.2,21.9,31.1,20.8,31.1z"/>
<path d="M27.2,31.1L27.2,31.1c-1,0-1.9-0.8-1.9-1.9V18.7c0-1,0.8-1.9,1.9-1.9h0c1,0,1.9,0.8,1.9,1.9v10.5
	C29.1,30.2,28.3,31.1,27.2,31.1z"/>
</svg>
