<?xml version="1.0" encoding="iso-8859-1"?>
<!-- Generator: Adobe Illustrator 27.5.0, SVG Export Plug-In . SVG Version: 6.00 Build 0)  -->
<svg version="1.1" baseProfile="basic" id="Layer_1"
	 xmlns="http://www.w3.org/2000/svg" xmlns:xlink="http://www.w3.org/1999/xlink" x="0px" y="0px" viewBox="0 0 48 48"
	 xml:space="preserve">
<path d="M44,24H4c0,0.338,0,1.662,0,2c0,11.028,8.972,20,20,20s20-8.972,20-20C44,25.662,44,24.338,44,24z"/>
<circle style="fill:#FFFFFF;" cx="24" cy="24" r="19"/>
<path d="M24,44C12.972,44,4,35.028,4,24S12.972,4,24,4s20,8.972,20,20S35.028,44,24,44z M24,6C14.075,6,6,14.075,6,24
	s8.075,18,18,18s18-8.075,18-18S33.925,6,24,6z"/>
<path d="M19,18.154v11.691c0,0.932,1.005,1.518,1.816,1.059l10.316-5.846c0.822-0.466,0.822-1.651,0-2.117l-10.316-5.846
	C20.005,16.636,19,17.222,19,18.154z"/>
</svg>