<?xml version="1.0" encoding="utf-8"?>
<!-- Generator: Adobe Illustrator 27.5.0, SVG Export Plug-In . SVG Version: 6.00 Build 0)  -->
<svg version="1.1" id="mixtape" xmlns="http://www.w3.org/2000/svg" xmlns:xlink="http://www.w3.org/1999/xlink" x="0px" y="0px"
	 viewBox="0 0 964 600" style="enable-background:new 0 0 964 600;" xml:space="preserve">
<style type="text/css">
	.st0{fill:#333333;}
	.st1{opacity:0.2;fill:#333333;}
	.st2{fill:#DCDCDB;}
	.st3{fill:#949594;}
	.st4{fill:#FFD583;}
	.st5{fill:#BFBEBE;}
	.st6{fill:#FFFFFF;}
</style>
<path class="st0" d="M725,131c19.7-0.1,39.4-0.1,59.1-0.2c3,0,5.4,1.2,7.7,3.1c3.3,3.8,3.7,8.3,3.6,13.1
	c-0.1,71.3-0.1,142.6-0.1,213.9c0,3-0.9,6.5,3.8,7.2c1.6,0.2,1.4,2,1.4,3.3c0,25.5,0.1,51,0.1,76.5c0,1.7-0.1,3.5-2.2,3.9
	c-2.9,0.6-3,2.7-3,4.9c-0.1,9.5-0.2,19-0.2,28.5c0,12.4-3.4,15.8-15.6,15.8c-54.2-0.1-108.3-0.2-162.5-0.2
	c-134.6,0-269.3,0.1-403.9,0.2c-4.6,0-9.4,0.8-13.7-1.7c-4.2-2.9-5.7-7-5.6-12.1c0.2-10.3,0-20.6,0-31c0-1.4,0.7-3.6-1.2-3.9
	c-4.7-0.7-3.9-4-3.9-7.1c0-24.3,0.1-48.6,0-72.9c0-2.5,0-4.5,3.2-5.1c3.2-0.6,2-3.4,2-5.3c0.1-50.3,0-100.6,0-150.8
	c0-22.1,0-44.3,0-66.4c0-9.7,4.3-14.1,13.9-14.1c19,0,37.9,0.2,56.9,0.2c-0.1,3.3,1.8,4.1,4.8,4.1c11.5-0.1,22.9-0.1,34.4,0
	c3,0,4.8-0.9,4.8-4.1l0.2-0.2c0,0-0.2-0.2-0.2-0.2c1.5,0,3,0.1,4.5,0.1c101.3,0,202.7,0,304,0c6.8,0,13.7-0.1,20.5-0.2
	c12.4,0.1,24.8,0.2,37.1,0.3c2,0,3.9,0.2,5.9,0.3c-0.3,3.5,1.7,4.1,4.6,4c11.3-0.1,22.6-0.1,33.9,0C722.7,135.2,724.7,134.4,725,131
	z M221.3,492.3c0.3-0.3,0.7-0.7,1-1c0.3-0.4,0.5-0.8,0.8-1.2c0.9-0.4,1.1-1.1,1-2c2.5-3.7,2.8-7.4-0.2-11.1c0.2-0.9,0.1-1.7-0.9-2.1
	c-0.3-0.4-0.6-0.8-0.8-1.2c-0.3-0.3-0.7-0.7-1-1c-0.4-0.3-0.8-0.5-1.2-0.8c-4.1-3.5-8.4-4.3-13-0.9c-0.9-0.3-1.7-0.1-2.1,0.9
	c-1.7,0.3-2.6,1.4-3,3c-1,0.3-1.2,1.1-1,2l0.1-0.1c-1.4,0.7-1.5,1.4,0.1,2.1l0.4,0.1l0.4,0c0,0.3,0,0.6-0.2,0.8c-0.4,0-0.8,0-1.3,0
	c-2.8,3.9-0.9,7.1,1.5,10.3c0.3,0.4,0.6,0.8,0.8,1.1c0.3,0.3,0.7,0.7,1,1c0.4,0.3,0.8,0.6,1.2,0.8c0.6,0.4,1.3,0.8,1.9,1.1
	c4.7,2.7,9.2,2.3,13.3-1.1C220.5,492.9,220.9,492.6,221.3,492.3z M505,446c0-0.7-0.2-1.2-1.1-0.9c0.2-0.8-0.1-1.2-1-1
	c0.2-0.8-0.3-1-1-1c-0.2-1.2-1.1-1.2-2-1.1l0.1,0.1c-0.3-0.4-0.7-0.8-1-1.1c-0.6-0.7-1.4-0.9-2.3-0.7c-2.8,0-5.6-0.4-7.8,1.8
	l0.1-0.1c-0.7,0.1-1.2,0.2-1.1,1.1l0.1-0.1c-2.6,0.1-3.7,1.6-4.1,4c-1.1,0.3-1.2,1.1-1,2.1l0.1-0.1c-1.3,0.5-1.1,1.6-1.1,2.6
	c-2,5.1-0.5,9.2,4.5,12.5c0.7,0.7,1.5,1.3,2.6,1.1l-0.1,0c3.1,3,6.6,2.5,10.1,1l-0.1,0.1c0.9,0,1.7,0,2.1-1.1l-0.1,0.1
	c2.7-0.7,4.4-2.3,5.1-5c3-4.4,2.9-8.7-0.1-13.1C506,446.4,505.8,445.9,505,446z M788,476c0-0.6-0.2-1.1-1-1c0-2-1.1-2.9-3-3
	c-0.7-2.1-2.4-2-4.1-2l0.1,0.1c-2.2-1.4-4.4-1.2-6.6,0l0.1-0.1c-1,0-2,0-2.6,1.1c0,0,0.1-0.1,0.1-0.1c-3.3,0.7-5.1,3-6.1,6.1
	l0.1-0.1c-1.3,0.9-1.1,2.5-1.5,3.8c-0.4,1.2-0.5,2.4,0,3.7c1,4.4,2.7,8.3,7.4,9.7c2.8,2.1,5.8,2.6,9,0.8c1.8,0.5,3.2-0.3,4.4-1.6
	c1.9-0.9,3.4-2.1,3.7-4.3l0,0.1c1.2-0.7,1.6-1.5,0-2.2c0.2-0.3,0.1-0.6-0.2-0.9l0.1-0.1c0.1,0.3,0.4,0.4,0.7,0.3
	c2.6-2.6,1.7-5.4,0.4-8.2l0.1,0.1C789,477.2,789,476.3,788,476z M763.8,241.8c0-24.2,0.1-48.4,0.1-72.7c0-1.1-0.5-2.2-0.8-3.3
	c-2.8-7-5.7-8.8-14.3-8.8c-169.3,0-338.6,0-508,0c-1.3,0-2.7-0.1-4,0c-5.9,0.5-10.8,5.2-10.8,11.1c-0.1,24.5,0.1,49,0.2,73.5
	c0,50.1-0.1,100.3-0.1,150.4c0,7.4,5.1,11.8,13.2,11.8c170.4,0,340.8,0,511.3,0c6.8,0,10.2-2.4,12.7-8.9c0.5-0.6,0.7-1.3,0.3-2.1
	c0-49.9,0-99.9,0-149.8C763.6,242.7,763.7,242.3,763.8,241.8z M425,467c0.4-2.4,0.8-4.9-0.9-7.1c-3.4-4.2-8-1.5-12-2.1
	c-3-0.4-6.5-0.3-7.3,3.4c-0.8,4-2.4,8.5,2.2,11.6c1.6,1,3.3,1,5,0.5c2.3,0.1,4.6,0.2,6.9,0.3C423.6,473.8,425.7,471.7,425,467z
	 M365.2,464.1c-5.6-3.1-11.8-1.9-15.2,3c-3.1,4.3-2.1,8,2,11c1.9,2,4.2,3.2,7.1,2.8c5.3,0.4,8.9-2,10.9-6.9
	C372.2,468.9,368.5,466.5,365.2,464.1z M585,467c0.3-2.4,0.7-4.9-0.9-7c-2.8-4.1-7-2-10.5-2.1c-8.9-0.2-11,3-8.7,12.2
	c1.1,4,4.1,3.9,7.2,3.4c2.3,0.1,4.6,0.2,6.8,0.3C583.5,473.8,585.6,471.6,585,467z M634.3,480.2c2.8-0.9,4.8-2.5,5.9-5.3
	c3.1-4.6,0-7.3-3.1-10c-4.8-3.6-10.3-3.6-14.5,0.2c-3.1,2.8-5.6,6-2.4,10.3C624.8,481.1,628.1,482.2,634.3,480.2z M495.1,410.1
	c-59.5,0-119,0-178.5,0c-1.3,0-2.7,0-4,0c-2.1,0-2.6,0.7-1.4,2.7c2.1,3.5,5.4,3.3,8.8,3.3c116.7,0,233.3,0,350,0c1.2,0,2.3,0,3.5,0
	c3.2,0,5.5-2.4,5.5-4.7c0-2.4-3.2-1.2-4.9-1.2C614.4,410.1,554.8,410.1,495.1,410.1z"/>
<path class="st1" d="M199.7,499.4c4.3,2.4,9.1,1.7,13.7,1.7c134.6,0,269.3-0.1,403.9-0.2c54.2,0,108.3,0.1,162.5,0.2
	c12.2,0,15.6-3.5,15.6-15.8c0-9.5,0.1-19,0.2-28.5c0-2.2,0.1-4.3,3-4.9c2.1-0.4,2.2-2.2,2.2-3.9c0-25.5-0.1-51-0.1-76.5
	c0-1.3,0.2-3.1-1.4-3.3c-4.8-0.7-3.8-4.2-3.8-7.2c0-71.3,0-142.6,0.1-213.9c0-4.8-0.3-9.3-3.6-13.1c1.9-2.8,3.3-1.1,4.7,0.5
	c3.7,4.4,5.5,9.5,5.5,15.1c0.1,30.5,0.7,61-0.2,91.4c-1.2,39.8-0.3,79.5-0.8,119.3c0,1.3-0.2,2.8,0.3,3.9c7.1,14.4,4.4,30,5.5,45.1
	c0.5,6.5-0.2,13,0.1,19.5c0.5,11.3-0.5,22.2-5,32.7c-1.7,4.1-0.9,8.5-0.6,12.8c0.8,10.3,2.3,20.8-6.9,28.7c-2.9,2.5-6,4-9.9,4
	c-18.2-0.1-36.4,0.7-54.5-0.3c-16.3-0.9-32.6,0.1-48.9-0.8c-31-1.7-62,0-92.9-1c-58.8-1.8-117.6-0.9-176.4-0.6
	c-27.5,0.2-55-0.1-82.4,0.9c-20.6,0.8-41.3-0.2-61.8,1c-18.5,1-37,0.3-55.4,0.9c-3.9,0.1-7.1-1.3-10.3-3.2
	C200.2,502.9,198.9,501.6,199.7,499.4z"/>
<path class="st2" d="M637.9,130.5c-6.8,0.1-13.7,0.2-20.5,0.2c-101.3,0-202.7,0-304,0c-1.5,0-3-0.1-4.5-0.1c1.2-1.9,3.2-1.5,5-1.5
	c106.4,0,212.7,0,319.1,0C634.7,129.1,636.7,128.4,637.9,130.5z"/>
<path class="st3" d="M309,131c0,3.2-1.8,4.1-4.8,4.1c-11.5-0.1-22.9-0.1-34.4,0c-3,0-4.9-0.8-4.8-4.1C279.7,131,294.3,131,309,131z"
	/>
<path class="st3" d="M725,131c-0.3,3.4-2.3,4.2-5.5,4.2c-11.3-0.1-22.6-0.1-33.9,0c-3,0-4.9-0.5-4.6-4
	C695.6,130.5,710.3,130.7,725,131z"/>
<path class="st4" d="M763.6,243.1c0,49.9,0,99.9,0,149.8c-0.1,0.7-0.2,1.4-0.3,2.1c-2.5,6.5-5.9,8.9-12.7,8.9
	c-170.4,0-340.8,0-511.3,0c-8.1,0-13.2-4.4-13.2-11.8c0-50.1,0.1-100.3,0.1-150.4c1.5,0,3,0.1,4.5,0.1c175.3,0,350.5,0,525.8,0
	c2.2,0,4.3-0.1,6.5-0.2c0.1,0.2,0.2,0.3,0.4,0.4c0,0.1-0.1,0.3,0,0.4C763.4,242.6,763.5,242.8,763.6,243.1z M673,379
	c-0.3,0.3-0.8,0.8-0.7,0.9c0.6,0.9,0.9-0.1,1.3-0.3c0.3-0.4,0.6-0.8,0.9-1.2c0.2-0.3,0.5-0.6,0.7-0.9c0.1-0.3,0.3-0.6,0.4-0.9
	c-0.5-0.6-1.1-1.1-1.6-1.7l0,0.1c-1.1-1.4-2.2-1.3-3.3,0c-0.1,0.1-0.2,0.2-0.3,0.4c0,0.1,0.1,0.2,0.2,0.3c1.1,0.1,2.1,0.3,3.2,0.4
	c0,0.6,0,1.3,0,1.9C673.6,378.3,673.3,378.6,673,379z M641.9,375c-0.6,0.2-0.7,0.5-0.4,1c0,1.7,0,3.3,0,5c-0.1,0.1-0.3,0.4-0.2,0.4
	c0.2,0.2,0.4,0.4,0.6,0.6l0.2,0.1c0.3,0.6,0.5,0.5,0.6-0.1c0-2.3,0-4.6,0.1-6.9c-0.1-0.2-0.2-0.4-0.3-0.7c-0.2,0.2-0.3,0.3-0.5,0.5
	L641.9,375z M367,375c-0.7,0-1,0.3-1.1,0.9c-1.4,1.7-1.5,3.4,0,5.2c0.4,0.3,0.7,0.6,1.1,0.9c1.8,1.7,3.1,0.8,4.4-0.6
	c1.5-1.1,0.9-2.9,1.7-4.3c1.2,0.7,2.5,1.4,3.7,2c0.6,0.3,1.3,0.7,1.1,1.4c-0.2,0.5-0.8,0.9-1.3,1.2c-0.7,0.5-2.2-1.2-2.2,0.3
	c0,1.4,1.9,1,2.9,0.8c1.2-0.2,2.3-1.1,2.3-2.3c0-0.8-0.9-1.7-1.6-2.3c-0.9-0.7-2.9-0.2-2.6-2.1c0.2-1.6,2.4-0.1,3-1.4
	c-3-1.6-4.2,0.5-5.3,2.6c-1.6,0-1.2-2.7-3.1-2.3C369,373.8,368,373.7,367,375z M400,375c-1-1.3-2.1-1.2-3.2-0.3
	c-3.8,2.5-3.8,5,0.1,7.5c0.8,0.9,1.6,0.8,2.5,0.1c3-1.1,3-3.3,2.3-5.9C401.2,375.9,401,375,400,375z M284,311
	c0.2,0.6,0.1,1.3,1.1,1.1l-0.1,0c-0.1,1.2,0.7,2.9,1.5,1.5c0.8-1.4,1.7-4.2-0.7-5.9c-0.4,0.9-0.8,1.7-1.3,2.6
	c-0.4-0.7-0.9-1.4-1.3-2.2c-0.5-1-1.4-1.7-1.8-0.2c-0.4,1.7-0.1,3.6-0.1,5.6c1.8-0.9-0.3-3.2,1.9-3.6
	C283.3,310.3,283.7,310.7,284,311L284,311z M718.1,375.9c-0.1-0.6-0.4-1-1.1-0.9c-2.9-2-4.6-0.4-5.4,2.2c-1.2,4.1,1.7,5.3,4.9,6.2
	c0.4,0.1,0.8,0.1,1.2,0.2c-0.2-0.2-0.4-0.4-0.7-0.5c0.6-0.8,1.1-1.7,1.7-2.5C719.1,378.9,719.7,377.3,718.1,375.9z M657.1,378.9
	c-0.6-1.3-2-0.9-3-1.4c0.1-0.7,0.1-1.3,0.2-2c0.8-0.3,2.6,0.3,2.4-0.6c-0.4-1.6-1.9-0.9-3.1-0.4c-1.6,1.1-2.9,2.3-0.2,3.6
	c1,0.5,2,1,3,1.5c0.8,1.3-0.7,1.6-1.1,2.4c-0.9-0.2-2.1-1.8-2.7-0.2c-0.4,1.1,1.2,1.2,2.1,1.2c0.8,0,1.6-0.1,2.1-0.9
	C658.3,381.1,658.8,380,657.1,378.9z M317.4,379.2c0.5-0.5,0.5-0.9,0-1.4c-0.3-0.7-0.7-1.5-1-2.2c-1.5-1.9-3.4-2.1-5.1-0.5
	c-1.9,1.7-2.2,3.9-0.4,6c1.7,2.5,3.5,2.4,5.4,0.2C316.7,380.6,317.1,379.9,317.4,379.2z M589.6,377.6c-0.6,0.5-0.7,1.1,0,1.7
	c0.4,0.8,0.9,1.5,1.3,2.3c1.7,2.2,3.4,2.1,5.1,0c1.6-2.5,2.2-4.8-1-6.6c-0.4-1-1.2-0.9-2-0.8c-0.2,0-0.4,0.3-0.6,0.5
	c0.8,0.2,1.5,0.4,2.3,0.6c0.9,1.4,1.6,2.9,1.1,4.6c-1.2,1.2-2.6,1.8-4.3,0.9c-0.2-1.2-0.3-2.5-0.6-3.7c-0.1-0.3-0.4-0.5-0.7-0.8
	C590.1,376.8,589.8,377.2,589.6,377.6z M409.4,374.4c-0.3,0.4-0.6,0.8-1,1.2c-0.4,0.9-0.8,1.9-1.3,2.8c-0.9-1.4-0.8-3.5-3.1-3.7
	c-0.1,0-0.2,1.4-0.3,2.2c-0.6,1.7-1.3,4.5,0.1,4.8c2.3,0.5,0.1-3.1,2.1-3.8c0.2,0.5,0.1,1.4,1.1,1c-0.2,1.6,0.4,3.4,1.9,3.3
	c1.6-0.1,0.7-2.2,0.9-3.3c0.1-1.4-0.1-2.9-0.2-4.4l-0.1-0.2L409.4,374.4z M587.4,374.3c-0.3,0.5-0.5,0.9-0.8,1.4
	c-0.4,0.9-0.8,1.8-1.3,2.7c-0.8-1.4-1.2-4-2.7-3.7c-1.8,0.3-0.7,2.8-1,4.3c-0.2,0.8-0.1,1.6-0.2,2.5l0,0.2c1,0.5,1.4,0.2,1.5-0.9
	c0.1-0.9-0.5-2.2,0.7-2.5c0.4-0.1,1.1,1.5,1.7,2.3c0.5,0.6,0.8,1.6,1.4,1.8c1.1,0.3,1.1-0.7,1.1-1.5c-0.1-2.1-0.1-4.2-0.2-6.3
	l-0.1-0.2C587.6,374.2,587.4,374.3,587.4,374.3z M287.8,297.2c0.3,0.2,0.5,0.4,0.8,0.7c-0.2-0.3-0.3-0.7-0.5-1
	c-0.1-1.6-0.2-3.2-0.3-4.9c-1.5-1.6-3.5-1.9-4.4,0c-0.8,1.7-1.3,4.5,0.3,5.9c1.3,1.1,0.6-2.3,2.3-2.2
	C286.7,296.1,287.2,296.6,287.8,297.2z M634.1,374.9c0.2,2.6-1.4,5.4,1,7.7c1,0.4,2,0.7,2.8-0.2c3.1-2.7,1.9-5.3-0.1-7.9
	C636.5,373.9,635.2,373.4,634.1,374.9z M625.4,380.8c0-0.1,0.1-0.3,0.1-0.4c-0.1-0.3-0.2-0.5-0.3-0.7c-0.1-1.7-0.2-3.4-0.3-5.1
	c0-0.8-0.4-0.4-0.7-0.2c-0.5,2.5-0.4,5.1,0,7.6c1.1,1.5,2.6,0.9,4,0.8c0.2,0,0.3-0.7,0.4-1.1c-0.9-0.1-1.9-0.2-2.8-0.4
	C625.7,381.1,625.6,381,625.4,380.8z M301,298.2c3-1.6,3.1-3.7,1-6.2c-2-2-3.9-1.3-5.1,0.7c-1.6,2.6-0.5,4.6,2.2,5.8
	C299.9,299.1,300.5,299.2,301,298.2z M672.5,380.8c-1.1-1.1-1.8-0.1-2.1,0.7c-0.3,1.1,0.8,1,1.5,1.1c1.1,0.3,2.6,1,3-0.3
	C675.4,380.5,673.3,381.5,672.5,380.8z M692.3,377c-0.2,1.4-0.3,2.8-0.4,4.3c-0.1,0.9,0.6,1.1,1.2,1c1.1-0.1,0.5-0.8,0.4-1.4
	c-0.1-0.6-0.1-1.2-0.2-1.7c0-0.7-0.1-1.4-0.1-2c-0.2-0.3-0.4-0.5-0.5-0.8C692.5,376.6,692.4,376.8,692.3,377z M278.5,313.6
	c1.7-1.8,2.2-3.6,0.3-5.5c-1.9-1.9-4.1-1.9-5.4,0.3c-1.1,1.9-1.3,4.5,1.6,5.7C276.4,315.7,277.4,314.4,278.5,313.6z M613,377.8
	c0,1.1,0,2.2,0.1,3.3c0,0.3,0.4,0.6,0.6,0.9c0.2-0.5,0.5-1.1,0.7-1.6c0.6-0.5,0.7-1,0-1.6c-0.7-1.3,0.8-3.4-1.1-4.2
	c-0.6-0.3-1.1,0.8-1.1,1.7c-0.7,0.8-1.4,1.6-2.1,2.4c-0.4-1-0.7-2.1-1.2-3.1c-0.3-0.7-0.7-1.6-1.6-0.9c-0.4,0.3-0.3,1.1-0.5,1.7
	l-0.3,0.1c0,0,0.3,0,0.3,0c0,1.3-0.1,2.6-0.1,3.9l-0.2,0l0.2,0c0.1,0.3,0.1,0.7,0.2,0.9c0.2,0.3,0.8,1.1,0.9,0.2
	c0.1-2.8,0.2-4.6,2.7-1c0.3,0.4,0.9-1,1.2-1.7C612.1,378.6,612.6,378.2,613,377.8z M291.8,375c-0.1-0.2-0.2-0.4-0.3-0.7
	c-0.2,0.2-0.3,0.4-0.5,0.5c-0.9,2.3-0.4,4.6-0.2,7c0.2,0.8,0.5,1,0.9,0.1C291.7,379.7,291.8,377.3,291.8,375z M392.6,374.4
	L392.6,374.4c-2.8,2-1.3,4.7-1.2,7.2c0,0.1,0.7,0.4,0.7,0.3c1.6-1.8,0.5-4,0.8-6.1C393,375.4,392.7,374.9,392.6,374.4z M289.8,307.7
	c-0.4,0.4-0.8,0.8-1.2,1.3c-0.7,4.6,0.2,5.7,4.4,5c2.8-1.2,2.6-3.6,1.6-5.6C293.6,306.6,291.7,305.9,289.8,307.7z M305.2,377.9
	c-0.6,2,1.4,4.5,1.8,4.1c2-1.8,0.8-4.5,1-6.8c-2.9-0.8,1.8,5.2-2.9,2.7c-0.4-1.4-1.7-3.8-2.1-3.3c-1.8,2.1-1,4.8-0.6,7.5
	C304,381,301.4,377.4,305.2,377.9z M706.1,382.6c1.2,0.3,3.4,0.9,3.4-0.3c0.1-2.2-2.3-0.6-3.4-1.3c-0.7-2.7,1.5-2,2.8-2.3
	c0.4-2.9-2.2-0.7-2.9-1.7c0-0.3,0-0.7,0-1c1-0.7,2.6,0.3,3.5-1c-1.4-1.4-3.8-1.2-4.1-0.1C704.7,377.3,703.7,380.3,706.1,382.6z
	 M284.6,375c-1.4-1.5-3.8-1.2-4.1-0.1c-0.6,2.5-1.7,5.4,0.6,7.8c1.3,0.4,3.4,0.9,3.5-0.3c0.1-2.2-2.3-0.6-3.4-1.4
	c-0.9-3.4,2.9-1.1,3.4-2.9c-0.8-1.4-2.3-0.5-3.4-1c0-0.4,0-0.7,0-1.1C282.2,375.3,283.7,376.3,284.6,375z M351.5,380.3
	c-0.1,1-0.3,1.9-0.4,2.9c1.7,0.2,1.7-1.3,1.8-2.2c0.4-2.4,0.5-4.8-1.8-6.7c-0.7,1.8,0.3,3.1,0.5,4.5
	C351.6,379.2,351.6,379.8,351.5,380.3z M269.3,380.5c-0.6-2.4,2-3.5,2.3-6.8c-2,3.7-3.8,2.8-5.7,1.4c-3.5-1.3-4.7-1.2-6.5,0.5
	c0.4,0,0.9,0.1,1.3,0.1c0.2,2.1,0.5,4.2,0.8,7.5c1.7-7,1.7-7,3.7-7.9l0.1,0.3l0.3,0c2.3,1.8,2.4,4.4,2.7,7l0.1,0.2l0.2-0.2
	C268.9,381.8,269.1,381.2,269.3,380.5l0.2,0L269.3,380.5z M696.8,377c0.5-0.1,1,0,1.4-0.2c0.5-0.2,0.4-0.5-0.2-0.6
	c-1-0.2-1.9,0-2.6,0.8c-2.1,2.6,2.3,2.4,1.8,4.2c-0.2,0.7-3.1-0.5-1.2,1.5c0.7,0.8,2.2,0.2,3.1-0.6c1.2-1.1,0.8-2-0.3-2.8
	C698,378.7,696.5,378.6,696.8,377z M279,297.3c-0.8-0.5-1.4-1.4-0.4-1.9c1.4-0.7,3.4-0.9,0.1-1.8c-0.7-0.2-0.3-1,0.2-1.6
	c0.4-0.5,2.1,0.7,1.3-0.9c-0.1-0.3-2.6,0.2-2.6,0.3c0,2.4-2.5,5.5,1.6,7c0.9,0.5,2.3,0.8,2.2-0.5C281.3,296.6,279.9,297.3,279,297.3
	z M681,375c-5.4-0.9-3.6,2.8-3.6,5.4c1,2,2.4,3.7,4.3,1.4C683.5,379.6,684.3,376.9,681,375z M358.5,380.2c0.1,0.6,0.2,1.2,0.4,1.8
	c0,0.1-0.1,0.2-0.1,0.3c0.1-0.1,0.1-0.2,0.2-0.3c1.6-0.2,0.4-2.6,2.2-2.8c1.9-0.2,3.4-1.2,2.5-3.3c-0.8-1.9-2.7-2.2-4.7-1.4
	l-0.3,0.1l0.1,0.3c-0.6,1-0.5,2.1-0.2,3.2C358.6,378.8,358.6,379.5,358.5,380.2z M274.5,380.2c0.4-0.3,0.7-0.8,1.2-0.9
	c1.8-0.3,3.2-1.1,2.7-3.2c-0.4-1.7-1.9-2.2-3.5-2c-2.2,0.3-1.8,2-1.8,3.4c0,1.6,0.2,3.2,0.3,4.8l0.1,0.2c0,0,0.2-0.2,0.2-0.2
	c0.2-0.7,0.5-1.3,0.7-2l0.3,0L274.5,380.2z M646,380.9c1-0.1,2-0.1,3-0.2c0.3,0.2,0.6,0.3,0.9,0.4c0.2,0.3,0.4,0.6,0.6,1
	c0.6-0.5,0.3-1,0-1.5c-0.6-1.7-1.2-3.4-1.9-5.1c-0.2-0.4-0.9-1.6-1.4-0.7c-1.2,2.3-2.1,4.8-3.1,7.2c0.4-0.1,0.9,0,1.2-0.2
	C645.7,381.6,645.8,381.2,646,380.9z M270.1,310.6c0.1,0.9,0.3,1.8,0.4,2.7c1.1-0.6,0.3-1.6,0.4-2.4c0.1-1,0.2-1.9,0.1-2.9
	c-0.1-0.7-0.6-1.2-1.2-0.6c-0.4,0.4-0.4,1.1-0.6,1.7c-1.6,1.3-2.2,0.4-2.7-1.1c-0.3-0.8-1.4-1.6-1.8-0.6c-0.6,1.6-0.5,3.5-0.6,5.3
	c-0.1,0.7,0.8,1.5,0.9,1.2C265.9,311.5,269.3,313,270.1,310.6z M321.8,379c0.9,1,1.8,2,2.9,3.2c0.5-2-1.6-2.9-0.5-4.7
	c1.1-1.8-0.3-2.8-1.8-3.3c-1.2-0.3-3.1-0.6-3.1,1.3c0,1.8-1.4,4.1,1,5.4C320.8,380.4,321.3,379.7,321.8,379z M615.8,382.3
	L615.8,382.3c1.6-0.4,2.8-2.4,4.8-1.1c0.6,0.4,1,1.6,1.9,0.9c1-0.7-0.1-1.5-0.3-2.1c-0.7-2-1-5.4-2.7-5.4c-2.5-0.1-2.3,3.4-3.2,5.4
	C615.9,380.6,615.9,381.5,615.8,382.3z M505,390.2c6.9-4,13.8-8.1,20.7-12c2-1.1,3.2-1.7,0.2-3.3c-6.8-3.6-13.5-7.3-20.1-11.1
	c-2.6-1.5-3.3-0.8-2.9,1.8c0.9,4.6-1.5,5.1-5.3,4.9c-6.3-0.3-12.7-0.1-19-0.1c-8.9,0-8.8,0-8.7,9c0,2.8,0.7,3.7,3.6,3.7
	c7.5-0.2,15,0.4,22.5-0.2c6-0.5,8,1.6,7.1,7.3C503.7,391.7,504.4,390.9,505,390.2z M666.2,312.1c2.1-7,2.5-14.1,1.1-21.2
	c-0.1-0.6-0.2-1.2-0.3-1.7c-0.3-1.1-0.5-2.2-0.8-3.2c0.2-0.3,0.1-0.6-0.2-0.8c-5.5-16.9-16.6-27.9-34.1-32.2
	c-0.2-0.3-0.5-0.4-0.8-0.2c-2.6-0.3-5.3-0.7-7.9-0.7c-85.4,0-170.7,0-256.1,0c-2.3,0-4.7,0-7,0.4c-20.8,4-32.8,16.9-37.9,37
	c0,0,0,0.1,0,0.1c-0.1,1-0.2,2-0.3,2.9l-0.2,0l0.2,0c-0.1,1.1-0.2,2.1-0.3,3.2c-0.8,2.9-0.7,5.7,0.2,8.6
	c2.4,19.4,15.6,35.3,33.1,39.9c0.3,0.1,0.7,0.3,1,0.4c1.8,0.4,3.6,0.8,5.5,1.2c0,0,0.1,0,0.1,0c1.3,0.1,2.7,0.2,4,0.2
	c86.1,0,172.1,0,258.2,0c3.5,0,7-0.5,10.3-1.5c0.6-0.2,1.1-0.3,1.7-0.5c15.3-5.3,25.2-15.8,30.3-31.1
	C666.3,312.7,666.4,312.4,666.2,312.1z M714.7,298.9c0,9.7,3.1,15.8,9.2,17.8c9.3,3.1,16.9-1.5,19.4-11.7c2.8-11.3-2.4-22.5-11.1-24
	c-0.3-0.1-0.7-0.1-1-0.1C720.5,279.8,714.7,286.2,714.7,298.9z M698.8,280.8c-3.8-0.1-7.3,0.6-10.4,2.8c-8.8,6.2-9.7,23.6-1.6,30.7
	c4.5,3.9,13.3,4.1,18.2,0.4c4.6-3.4,6.2-9.8,3.8-14.8c-2.6-5.4-8.3-7.6-15.3-6.1c-0.7,0.2-1.5,1.1-2.3,0.2c-0.8-0.9-0.3-1.9,0.2-2.8
	c2.4-4.9,6.7-4.7,11.2-4.1c1.7,0.2,4,2.3,4.5-1.4c0.5-3.1-1.3-4.2-3.9-4.6C701.8,281,700.3,280.9,698.8,280.8z M252.4,305.3
	c-4-0.6-6.9-0.4-6.5,5.1c0.3,4-0.1,6.9,5.6,6.6c4.3-0.2,6.7-0.6,6.4-5.9C257.6,307.2,257.6,304.1,252.4,305.3z M252.3,299.9
	c4.5,1,5.6-1,5.7-5.3c0-4.4-1.1-6-5.8-6c-4.8,0-6.1,1.3-6.2,6.1C245.8,299.9,248.2,300.6,252.3,299.9z M326.8,382.1
	c1.3-2,1.5-2.1,3.4-1.4c3.8,1.5,5.2,0.3,4.7-3.8c-0.1-1,0-2.3-1.1-2.5c-1.2-0.3-1.5,1-1.9,1.9c-0.7,1.4-1.3,2.5-2.3,0.1
	c-0.3-0.8-0.5-2.2-1.8-2c-1.6,0.3-0.9,1.9-1,2.9C326.7,378.9,326.8,380.5,326.8,382.1z M381,378.8c0.4,1-0.7,3.3,0.8,3.3
	c2.1,0,0.7-2.4,1.1-3.6c0.3-1-0.6-2.5,1-2.9c0.8-0.2,1.9,0.3,2.2,1.5c0.4,1.7-0.7,4.8,0.9,4.7c2.2-0.2,0.5-3.3,1.3-5
	c0.2-0.4,0.5-0.8,0.9-1.1c0.8-0.7,1.1-1.1-0.2-1.6C385.1,372.6,381,375,381,378.8z M339.6,381.2c1.2-2.4,2.7,3.1,3.1,0
	c0.3-2.1-0.9-6.5-3.2-6.6c-2.5-0.1-3.4,4.3-3.3,6.4C336.5,384.4,338.2,379.1,339.6,381.2z M599.2,382.5c1.8-7.6,3.8-0.5,5.8-0.6
	c-3.4-1.7,2-8.8-4.5-7.5C597.1,375.2,599.7,379.4,599.2,382.5z M268.3,291.6c-0.2-0.2-0.5-0.7-0.8-0.8c-1-0.3-2-0.1-2.8,0.6
	c-0.7,0.6-0.5,1.5-0.8,2.1c-0.6,1.5,7.9,2.1,0.4,4c0.2,0.3,0.3,0.6,0.5,0.8c1.3,0.8,2.5,0.6,3.6-0.4c1.3-1.1,1.1-2.1,0.1-3.4
	C268.2,293.9,263.3,293.5,268.3,291.6z M290.1,293.3c0,1.5,0,2,0,2.5c-0.1,1.5,0.3,2.7,2,2.9c0.8,0.1,2.2,0.1,2.3-0.3
	c0.8-2-1.4-0.9-2-1.7c-0.5-0.7-0.2-1.4,0.4-1.5c1.8-0.5,3.1-0.7,0.1-1.5c-1-0.3-1.1-1.2,0.1-1.6c0.6-0.2,1.4-0.1,1.3-1
	c0-0.2-1.2-0.3-1.9-0.3C289.9,290.8,290.1,292.6,290.1,293.3z M345.1,374.7c-0.3,0.1-0.8,0.2-0.8,0.3c-0.3,2.6-1.3,5.3,0.7,7.5
	c0.8,0.9,3.1,1.1,3.6,0.1c1-1.9-1.2-1.1-1.9-1.6c-1.5-1.1-0.6-2.7-0.8-4.1C345.8,376,346.1,375.1,345.1,374.7z M667.8,382.9
	c-0.5-2.3-0.7-3.2-0.9-4.1c-0.3-1.6,0.8-4.7-1.6-4.4c-3.6,0.3,1.1,2.6-0.3,4c-0.6,0.6-0.3,1.9-0.7,2.7c-0.7,1.3-0.4,1.9,1,1.7
	C666.3,382.8,667.9,383.6,667.8,382.9z M299.4,383.5c-1.1-3.1-0.2-6.1,0.3-9.8C296.3,377.4,296.4,380.5,299.4,383.5z M272.7,290.8
	c-0.5,0.4-2.6,0.1-1.7,0.8c2.3,1.8-0.5,5.9,2.2,5.9c1.9,0-0.3-4,1.8-5.9C275.6,291,273.5,291.2,272.7,290.8z M688,376.3
	c0.2,3.1,0.3,5.5,0.4,7.8c0.3-0.3,0.7-0.5,1-0.8c2.7-2.1-1.7-3.8-0.4-5.9C689,377.4,688.8,377.2,688,376.3z"/>
<path class="st2" d="M762.9,241.5c-2.2,0.1-4.3,0.2-6.5,0.2c-175.3,0-350.5,0-525.8,0c-1.5,0-3-0.1-4.5-0.1
	c-0.1-24.5-0.2-49-0.2-73.5c0-5.9,4.9-10.6,10.8-11.1c1.3-0.1,2.7,0,4,0c169.3,0,338.6,0,508,0c8.6,0,11.5,1.8,14.3,8.8
	C763.1,191.1,763,216.3,762.9,241.5z M735.9,174.6c-1.2,1-0.7,2.3-0.7,3.6c0,0.2,0.5,0.3,0.7,0.4c0.1-0.8,0.3-1.5,0.4-2.3
	c0.7-0.2,1.4-0.5,2.2-0.7C737.7,174.8,736.9,174.4,735.9,174.6z M689.6,177.6c-1,0.1-1.9,0.1-2.9,0.2c-1.9-3.4-0.1-4.8,4.5-5.2
	c-4-1.2-5.8-0.6-6.6,2.2c-0.5,0.5-0.5,1-0.1,1.5c0.5,0.9,1,1.7,1.5,2.6c1.7,1.6,3.3,1,4.7-0.5c0.5-0.8,1.2-1.8,0.1-2.4
	C690.1,175.7,689.9,177,689.6,177.6z M721.9,178.1c1.3,1.9,3.1,1.9,4.6,0.7c1.7-1.3,2.2-3.2,0.9-5.2c-1.2-2.3-3.2-2.5-5-1.2
	C720.4,174,720.2,176.1,721.9,178.1z M649,176.1c-0.3,0-0.7-0.1-1-0.1c0.1-1.7-1.1-4.3-2-3.7c-2.1,1.4-0.8,4-0.9,6.2
	c1.9-0.3-0.5-4.4,2.9-2.6c0,1.4,1,3.5,1.7,2.9c2.2-1.6,1.1-4.2,0.9-6.9c-1.9,1.6-0.8,3.1-0.9,4.3C649.6,176.1,649.3,176,649,176.1z
	 M696,176c-0.1-1.6-1.2-4.3-2.1-3.6c-2,1.4-0.7,4-0.9,6.2c2.1,0-0.7-4.4,2.8-2.4c0.1,1.3,1.1,3.4,1.8,2.8c2.1-1.6,1.1-4.2,0.9-6.9
	c-1.9,1.6-0.7,3-0.8,4.3c-0.2-0.2-0.5-0.3-0.8-0.2C696.7,175.9,696.4,175.9,696,176z M733,172c-6.9-0.7-2.8,4.3-3.4,6.7
	c0.5-1.6,3.5-2.5,1.4-5.1c-0.4-0.5,1.2-0.6,1.9-0.7c0.1-0.1,0.4-0.2,0.4-0.2C733.2,172.5,733.1,172.2,733,172z M661.2,178
	c-0.3-1-1.4-1.6-0.8-3.1c1-2.6-0.9-2.9-2.9-3c-1,0-1.7,0.3-1.7,1.3c0,1.8,0.1,3.6,0.2,5.4c0,0,0.7,0.1,0.7,0c1.9-5,2.8,1.1,4.3,0.4
	c0.9,0.6,2.3,0.8,2.4-0.2C663.5,177.4,661.9,178.4,661.2,178z M253,184c-4.3,11.3-8.5,22.6-12.8,33.9c2.9,1.7,5.8,1.6,8.7,0
	c0.7-1.6,1.5-3.3,2.2-4.9c0.3-0.2,0.6-0.5,0.9-0.7c5.6,0.9,13.5-4,15.8,5.9c2.3,1.5,4.8,0.6,7.2,0.6c2.9-0.8,0.7-2.5,0.4-3.4
	c-3.8-10.5-7.7-20.8-11.6-31.3C260.2,182.6,256.6,182.7,253,184z M742.3,189.9c0-0.2,0-0.4,0-0.6c-149.9,0-299.8,0-449.7,0
	c0,0.2,0,0.4,0,0.6C442.5,189.9,592.4,189.9,742.3,189.9z M292.7,218.2c0,0.2,0,0.4,0.1,0.5c149.9,0,299.7,0,449.6,0
	c0-0.2,0-0.4,0-0.5C592.4,218.2,442.5,218.2,292.7,218.2z M716.8,175.2c1.4-4.7-1.3-5.1-5.3-5.3c-4.2-0.1-5.7,0.9-5.7,5.5
	c0,4.6,1.4,5.8,5.9,5.8C716.3,181.3,717.8,179.7,716.8,175.2z M669.4,175.8c-1.3,4.5,0.9,5.4,5.2,5.5c4.6,0.1,5.8-1.3,5.9-5.9
	c0.1-4.6-1.7-5.4-5.8-5.4C670.4,169.9,668.3,171,669.4,175.8z M735,174.2c1.8-0.8,3-1,3.7-1.7c0.3-0.4-0.8-0.5-1.3-0.5
	c-1-0.1-2-0.1-2.2,1.2C735.1,173.5,735.2,174.2,735,174.2z M653.7,178.6c-0.1-0.1-0.2-0.4-0.2-0.4c-0.3,0.1-0.5,0.2-0.8,0.3
	c0.1,0.1,0.2,0.4,0.2,0.4C653.2,178.8,653.4,178.7,653.7,178.6z"/>
<path class="st3" d="M495.1,410.1c59.7,0,119.3,0,179,0.1c1.7,0,5-1.2,4.9,1.2c0,2.3-2.3,4.7-5.5,4.7c-1.2,0-2.3,0-3.5,0
	c-116.7,0-233.3,0-350,0c-3.4,0-6.6,0.2-8.8-3.3c-1.2-2-0.7-2.7,1.4-2.7c1.3,0,2.7,0,4,0C376.1,410.1,435.6,410.1,495.1,410.1z"/>
<path class="st5" d="M637.1,464.9c3.1,2.7,6.2,5.4,3.1,10c-1.5-0.1-2.2-1.3-3.2-2.1c-2.5-2.2-5.3-2.3-7.3,0.4c-2,2.9,0,4.4,2.7,5.4
	c0.7,0.3,1.3,1,1.9,1.6c-6.2,2-9.5,0.8-14-4.8C625.5,471.3,629.4,464.9,637.1,464.9z"/>
<path class="st5" d="M572.1,473.5c-3.2,0.5-6.2,0.5-7.2-3.4c4.4-6.7,10.2-11,18.7-9.9c0.1,0,0.3-0.1,0.4-0.2c1.6,2.2,1.3,4.6,0.9,7
	C573.7,464.4,573.7,464.4,572.1,473.5z"/>
<path class="st5" d="M359,480.9c-2.9,0.4-5.2-0.8-7.1-2.8c1.4-6.8,5-11.3,12.1-12.6c0.5-0.1,0.8-1,1.2-1.5c3.3,2.5,7,4.8,4.7,9.9
	c-0.7-0.3-1.7-0.4-2.2-0.9c-2.8-2.5-5.9-3-8.9-1c-3.3,2.2-0.7,4.9,0.2,7.4C359.1,479.9,359,480.4,359,480.9z"/>
<path class="st3" d="M407.1,472.9c-4.6-3.1-3.1-7.6-2.2-11.6c0.8-3.8,4.3-3.8,7.3-3.4c4,0.5,8.6-2.2,12,2.1c-1.8,1.1-3.7,1-5.7,1.1
	c-6.5,0.3-9.4,3.2-10.2,9.9C408.2,471.6,407.5,472.2,407.1,472.9z"/>
<path class="st3" d="M365.2,464.1c-0.4,0.5-0.7,1.4-1.2,1.5c-7.1,1.3-10.7,5.8-12.1,12.6c-4.1-3.1-5.1-6.7-2-11
	C353.4,462.2,359.6,461,365.2,464.1z"/>
<path class="st5" d="M407.1,472.9c0.4-0.7,1.1-1.3,1.2-2c0.8-6.7,3.7-9.6,10.2-9.9c2-0.1,3.9,0,5.7-1.1c1.7,2.2,1.3,4.6,0.9,7.1
	c-9.5-3.7-11.3-2.8-13,6.4C410.3,473.9,408.6,473.9,407.1,472.9z"/>
<path class="st2" d="M412.1,473.4c1.7-9.2,3.4-10.1,13-6.4c0.7,4.7-1.5,6.8-6.1,6.7C416.7,473.7,414.4,473.5,412.1,473.4z"/>
<path class="st3" d="M637.1,464.9c-7.8,0-11.6,6.4-16.8,10.5c-3.2-4.4-0.7-7.5,2.4-10.3C626.9,461.3,632.4,461.3,637.1,464.9z"/>
<path class="st2" d="M572.1,473.5c1.6-9.1,1.6-9.1,12.9-6.4c0.6,4.6-1.4,6.8-6,6.7C576.6,473.7,574.4,473.6,572.1,473.5z"/>
<path class="st2" d="M359,480.9c0-0.5,0.1-1-0.1-1.5c-0.8-2.5-3.5-5.1-0.2-7.4c3-2,6.2-1.5,8.9,1c0.6,0.5,1.5,0.6,2.2,0.9
	C367.9,478.9,364.4,481.3,359,480.9z"/>
<path class="st3" d="M584,460c-0.1,0.1-0.3,0.2-0.4,0.2c-8.6-1.1-14.3,3.1-18.7,9.9c-2.3-9.1-0.2-12.4,8.7-12.2
	C577,458,581.2,455.8,584,460z"/>
<path class="st3" d="M762.9,241.5c0.1-25.2,0.1-50.4,0.2-75.7c0.3,1.1,0.8,2.2,0.8,3.3c0,24.2-0.1,48.4-0.1,72.7
	c0,0-0.5,0.1-0.5,0.1C763.1,241.8,763,241.7,762.9,241.5z"/>
<path class="st2" d="M634.3,480.2c-0.6-0.5-1.2-1.3-1.9-1.6c-2.7-1-4.7-2.5-2.7-5.4c2-2.8,4.8-2.6,7.3-0.4c1,0.9,1.7,2,3.2,2.1
	C639.2,477.7,637.1,479.4,634.3,480.2z"/>
<path class="st3" d="M486.4,464c-5-3.3-6.4-7.3-4.5-12.5c0.4-0.9,0.7-1.7,1.1-2.6c0,0-0.1,0.1-0.1,0.1c0.5,0,0.9,0.1,1.4,0.1
	c0,2.3,0,4.5-0.1,6.8c-0.1,1.5,0.6,2.7,1.7,3.6c4.2,6.6,10.1,4.7,16,3.4c-0.3,0.7-0.7,1.4-1,2c0,0,0.1-0.1,0.1-0.1
	c-0.7,0.4-1.4,0.7-2.1,1.1c0,0,0.1-0.1,0.1-0.1c-3.5,0.6-6.8,0-10.1-1c0,0,0.1,0,0.1,0C488.2,464.7,487.3,464.3,486.4,464z"/>
<path class="st2" d="M201.6,479.9c0.2-0.2,0.2-0.5,0.2-0.8c0.1-0.6,0.3-1.2,0.4-1.9c0,0-0.1-0.1-0.1-0.1c1.5,0.2,1.5-1.4,2.3-2.1
	c0.4,0,0.6-0.2,0.6-0.5c0.6-0.9,2.1-1,2.1-2.4l0,0c3.6,0,7.2,0,10.8,0c0,0-0.1,0-0.1,0c-0.4,1.1,1,1.1,1.2,1.9
	c-3.4,0.4-6.7-1.4-10.2,0.4c-5,2.5-5.4,7.1-6.7,11.4C202,483.9,201.8,481.9,201.6,479.9z"/>
<path class="st3" d="M496.8,440.2c0.9-0.2,1.7,0,2.3,0.7c-0.4,1,0.6,0.9,1,1.1c0,0-0.1-0.1-0.1-0.1c-0.1,0.5-0.1,1-0.2,1.4
	c-4-0.7-7.9-0.5-11.7,0.9c-0.1-0.5-0.1-0.9-0.2-1.4c0,0-0.1,0.1-0.1,0.1c0.4-0.4,0.7-0.7,1.1-1.1c0,0-0.1,0.1-0.1,0.1
	C491.6,441.4,494.2,440.8,496.8,440.2z"/>
<path class="st3" d="M773.5,469.9C773.5,469.9,773.4,470,773.5,469.9c2.2,0.1,4.4,0.1,6.6,0.1c0,0-0.1-0.1-0.1-0.1
	c0.6,0.8,2.1,0.9,1.9,2.4c-4.1-0.5-8.3-1.3-11.9,1.7c-0.5-1.3,0.5-2.1,1.1-3.1c0,0-0.1,0.1-0.1,0.1
	C771.8,470.6,772.6,470.3,773.5,469.9z"/>
<path class="st3" d="M766.1,484.8c-1.5,3.4-1.5-1.7-2.6-0.5c-0.5-1.2-0.5-2.4,0-3.7c1.8-0.7,1.2-2.4,1.5-3.8c0,0-0.1,0.1-0.1,0.1
	c0.8-0.3,1.6-0.6,2.4-0.9C766.6,479,765.5,481.8,766.1,484.8z"/>
<path class="st3" d="M207.1,471.1c4.6-3.4,8.9-2.6,13,0.9c0,0,0,0,0,0c-0.7,0-1.4,0.1-2.1,0.1c0,0,0.1,0,0.1,0
	C214.6,468.3,210.8,470.2,207.1,471.1L207.1,471.1z"/>
<path class="st3" d="M506,447c3,4.3,3.1,8.7,0.1,13.1c0,0-0.1-0.1-0.1-0.1c0-1,0-2,0-3l0,0c1.9-2.3,1.9-4.7,0-7l0,0
	C506,449,506,448,506,447L506,447z"/>
<path class="st3" d="M220.1,493.1c-4.2,3.4-8.6,3.9-13.3,1.1c0,0,0.2-0.3,0.2-0.3c3.8,1,7.6,2.6,11-1l0,0c0.7,0,1.3,0,2,0
	C220,493,220.1,493.1,220.1,493.1z"/>
<path class="st3" d="M767.3,476.2c-0.8,0.3-1.6,0.6-2.4,0.9c0.9-3.1,2.8-5.4,6.1-6.1c-0.6,1-1.5,1.8-1.1,3.1c-0.5,0.3-0.9,0.7-1.4,1
	c-0.8-0.1-1.4,0.1-1.5,1.1L767.3,476.2z"/>
<path class="st3" d="M224,477c3,3.6,2.6,7.3,0.2,11.1c0,0-0.1-0.1-0.1-0.1C225.7,484.3,225.2,480.7,224,477L224,477z"/>
<path class="st3" d="M201.6,479.9c0.2,2,0.3,4,0.5,6c0,0.7-0.1,1.4-0.1,2.2c-2.2-2.4-2.7-5.1-1.7-8.2
	C200.8,479.9,201.2,479.9,201.6,479.9z"/>
<path class="st3" d="M200.4,479.8c-1,3-0.5,5.8,1.7,8.2l0,0c0,0.7,0,1.4,0,2l-0.1,0.1C199.4,487,197.6,483.7,200.4,479.8z"/>
<path class="st3" d="M488.9,465c3.3,1,6.7,1.6,10.1,1C495.5,467.5,492.1,468,488.9,465z"/>
<path class="st3" d="M779.9,494.9c-3.2,1.7-6.2,1.3-9-0.8c0,0,0.1-0.1,0.1-0.1C774,494.5,776.9,495.7,779.9,494.9L779.9,494.9z"/>
<path class="st3" d="M496.8,440.2c-2.6,0.6-5.2,1.2-7.8,1.8C491.2,439.7,494,440.1,496.8,440.2z"/>
<path class="st3" d="M501,465.1c0.3-0.7,0.7-1.4,1-2l0,0c0.6,0,1-0.3,1-1l0,0c0.7,0,1-0.3,1-1l0,0c0.7-0.3,1.3-0.6,2-1
	c0,0,0.1,0.1,0.1,0.1C505.4,462.8,503.6,464.4,501,465.1z"/>
<path class="st3" d="M787.9,485.8c0-2.6,0.1-5.2,0.1-7.8c0.4,0,0.7,0,1.1,0c0,0-0.1-0.1-0.1-0.1c0.1,2.8,0.6,5.5-0.4,8.2
	C788.3,486.2,788,486.1,787.9,485.8z"/>
<path class="st3" d="M488,442.9c0.1,0.5,0.1,0.9,0.2,1.4c0,0-0.1-0.2-0.1-0.2c-1,0.1-1.2,0.6-1,1.5c0.2,0.5,0,0.6-0.5,0.5
	c-0.8-0.1-1.4,0.1-1.5,1.1l0,0c-0.4-0.1-0.8-0.1-1.2-0.2l-0.1-0.1C484.3,444.5,485.4,443,488,442.9z"/>
<path class="st3" d="M788.6,486.1c1.1-2.7,0.5-5.5,0.4-8.2C790.2,480.7,791.2,483.5,788.6,486.1z"/>
<path class="st3" d="M788.1,489c-0.3,2.2-1.9,3.4-3.7,4.3L784,493c0-0.3,0-0.7,0-1c0,0,0,0,0,0c0.3-0.3,0.6-0.6,1-1c0,0,0,0,0,0
	c0.3-0.3,0.6-0.6,1-1c0,0,0,0,0,0C786.7,489.6,787.4,489.3,788.1,489z"/>
<path class="st3" d="M780.1,470c-2.2,0-4.4,0-6.6,0C775.6,468.8,777.9,468.6,780.1,470z"/>
<path class="st3" d="M765,476.9c-0.3,1.3,0.3,3-1.5,3.8C763.9,479.4,763.7,477.9,765,476.9z"/>
<path class="st3" d="M781.9,472.3c0.2-1.5-1.3-1.5-1.9-2.4c1.7,0,3.4,0,4.1,2l0,0c-0.7,0-1.4,0.1-2.1,0.1L781.9,472.3z"/>
<path class="st3" d="M205,474.5c-0.1,0.3-0.3,0.5-0.6,0.5c-0.8,0-1.6,0-2.4-0.1c0,0,0,0,0,0c0.4-1.6,1.4-2.7,3-3l0,0
	C205,472.8,205,473.7,205,474.5z"/>
<path class="st3" d="M788.1,489c-0.7,0.3-1.4,0.7-2,1c-0.4-1.8,0.5-3,1.8-4c0.3,0.3,0.3,0.6,0.2,0.9C788,487.6,788,488.3,788.1,489
	L788.1,489z"/>
<path class="st3" d="M784,472c1.9,0.1,3,1,3,3l0,0c-0.3,0-0.7,0-1,0l0,0C786,473.5,784.6,473,784,472L784,472z"/>
<path class="st3" d="M784.3,493.3c-1.2,1.3-2.6,2.1-4.4,1.6c0,0,0.1,0.1,0.1,0.1c0.7-0.7,1.3-1.3,2-2c0,0,0,0,0,0c0.7,0,1.3,0,2,0
	L784.3,493.3z"/>
<path class="st3" d="M763.2,394.9c0.1-0.7,0.2-1.4,0.3-2.1C764,393.6,763.8,394.3,763.2,394.9z"/>
<path class="st3" d="M206.8,494.3c-0.6-0.4-1.3-0.8-1.9-1.1c0,0,0.1-0.1,0.1-0.1c0.7,0.3,1.3,0.7,2,1
	C207,494,206.8,494.3,206.8,494.3z"/>
<path class="st3" d="M224.1,488.1c0,0.9-0.1,1.6-1,2c0,0-0.1-0.1-0.1-0.1c0-0.7,0-1.3,0-2c0,0,0,0,0,0c0.3,0,0.7,0,1,0L224.1,488.1z
	"/>
<path class="st3" d="M788,489.1c0-0.7,0-1.5,0-2.2C789.6,487.6,789.2,488.3,788,489.1z"/>
<path class="st3" d="M202.3,477.2c-0.1,0.6-0.3,1.2-0.4,1.9c0,0-0.4,0-0.4,0s-0.4-0.1-0.4-0.1c0-0.7,0-1.4-0.1-2.1
	c0,0-0.1,0.1-0.1,0.1C201.4,477.1,201.8,477.1,202.3,477.2z"/>
<path class="st3" d="M201,476.9c0,0.7,0,1.4,0.1,2.1C199.5,478.4,199.6,477.7,201,476.9z"/>
<path class="st3" d="M789.1,478c-0.4,0-0.7,0-1.1,0c0,0,0,0,0,0c0-0.7,0-1.4,0-2l0,0C789,476.3,789,477.2,789.1,478z"/>
<path class="st3" d="M223,475c1,0.4,1.2,1.1,0.9,2.1c0,0,0.1-0.1,0.1-0.1c-0.3,0-0.7,0-1,0h0C223,476.3,223,475.7,223,475L223,475z"
	/>
<path class="st3" d="M202.3,477.2c-0.4-0.1-0.9-0.1-1.3-0.2c-0.2-0.9,0-1.7,1-2c0,0,0,0,0,0c0,0.7,0.1,1.4,0.1,2.1L202.3,477.2z"/>
<path class="st3" d="M205,472c0.4-1,1.1-1.2,2.1-0.9c0,0-0.1-0.1-0.1-0.1c0,0.4,0.1,0.8,0.1,1.1c0,0,0,0,0,0
	C206.4,472.1,205.7,472,205,472L205,472z"/>
<path class="st3" d="M773.5,469.9c-0.9,0.4-1.7,0.7-2.6,1.1C771.5,469.9,772.5,469.9,773.5,469.9z"/>
<path class="st3" d="M499,466.1c0.7-0.4,1.4-0.7,2.1-1.1C500.7,466.1,499.8,466,499,466.1z"/>
<path class="st3" d="M486.4,464c0.9,0.4,1.7,0.7,2.6,1.1C487.9,465.3,487.1,464.7,486.4,464z"/>
<path class="st3" d="M483,448.9c-0.4,0.9-0.7,1.7-1.1,2.6C481.9,450.5,481.7,449.4,483,448.9z"/>
<path class="st3" d="M484.3,449.1c-0.5,0-0.9-0.1-1.4-0.1c-0.2-1-0.1-1.8,1-2.1c0,0,0.1,0.1,0.1,0.1c0,0.7,0.1,1.4,0.1,2.1
	C484.1,449.1,484.3,449.1,484.3,449.1z"/>
<path class="st3" d="M499.8,443.4c0.1-0.5,0.1-1,0.2-1.4c0.9-0.1,1.8-0.1,2,1.1c0,0,0,0,0,0c-0.7,0-1.4,0.1-2.1,0.1
	C499.9,443.1,499.8,443.4,499.8,443.4z"/>
<path class="st3" d="M500.1,442c-0.4-0.3-1.4-0.1-1-1.1C499.4,441.3,499.7,441.6,500.1,442z"/>
<path class="st3" d="M489,441.9c-0.4,0.4-0.7,0.7-1.1,1.1C487.8,442.2,488.4,442,489,441.9z"/>
<path class="st3" d="M502,443c0.7,0,1.2,0.2,1,1c0,0,0,0,0,0C502.7,443.7,502.3,443.3,502,443L502,443z"/>
<path class="st3" d="M503,444c0.8-0.1,1.2,0.2,1,1c0,0,0.1-0.1,0.1-0.1C503.7,444.7,503.3,444.3,503,444L503,444z"/>
<path class="st3" d="M503.9,445.1c0.9-0.3,1.1,0.2,1.1,0.9c0,0,0,0,0,0C504.7,445.7,504.3,445.3,503.9,445.1L503.9,445.1z"/>
<path class="st3" d="M505,446c0.8-0.1,1,0.4,1,1c0,0,0,0,0,0C505.7,446.7,505.3,446.3,505,446L505,446z"/>
<path class="st3" d="M763.3,241.9c0,0,0.5-0.1,0.5-0.1c-0.1,0.4-0.1,0.8-0.2,1.2c-0.1-0.3-0.2-0.5-0.3-0.8
	C763.3,242.2,763.3,242,763.3,241.9z"/>
<path class="st3" d="M220,472c0.4,0.3,0.8,0.5,1.2,0.8c0,0-0.2,0.2-0.2,0.2C220.7,472.7,220.3,472.3,220,472
	C220,472,220,472,220,472z"/>
<path class="st3" d="M221.2,472.8c0.3,0.3,0.7,0.7,1,1c0,0-0.2,0.2-0.2,0.2c-0.3-0.3-0.7-0.7-1-1C221,473,221.2,472.8,221.2,472.8z"
	/>
<path class="st3" d="M222.2,473.8c0.3,0.4,0.6,0.8,0.8,1.2c0,0,0,0,0,0c-0.3-0.3-0.7-0.7-1-1L222.2,473.8z"/>
<path class="st3" d="M787,475c0.8-0.1,1,0.4,1,1c0,0,0,0,0,0c-0.3,0-0.7,0-1,0c0,0,0,0,0,0C787,475.7,787,475.3,787,475L787,475z"/>
<path class="st3" d="M202.7,491.3c-0.3-0.4-0.6-0.8-0.8-1.1c0,0,0.1-0.1,0.1-0.1c0.3,0.3,0.7,0.7,1,1
	C203,491,202.7,491.3,202.7,491.3z"/>
<path class="st3" d="M223.1,490.1c-0.3,0.4-0.5,0.8-0.8,1.2c0,0-0.3-0.3-0.3-0.3c0.3-0.3,0.7-0.7,1-1L223.1,490.1z"/>
<path class="st3" d="M203.7,492.3c-0.3-0.3-0.7-0.7-1-1c0,0,0.3-0.3,0.3-0.3c0.3,0.3,0.7,0.7,1,1C204,492,203.7,492.3,203.7,492.3z"
	/>
<path class="st3" d="M222.3,491.3c-0.3,0.3-0.7,0.7-1,1c0,0-0.3-0.3-0.3-0.3c0.3-0.3,0.7-0.7,1-1C222,491,222.3,491.3,222.3,491.3z"
	/>
<path class="st3" d="M204.9,493.1c-0.4-0.3-0.8-0.6-1.2-0.8c0,0,0.3-0.3,0.3-0.3c0.3,0.3,0.7,0.7,1,1
	C205,493,204.9,493.1,204.9,493.1z"/>
<path class="st3" d="M221.3,492.3c-0.4,0.3-0.8,0.6-1.2,0.9c0,0-0.1-0.1-0.1-0.1c0.3-0.3,0.7-0.7,1-1L221.3,492.3z"/>
<path class="st0" d="M322.2,289.4c5.1-20.1,17.1-33,37.9-37c2.3-0.4,4.6-0.4,7-0.4c85.4,0,170.7,0,256.1,0c2.6,0,5.3,0.5,7.9,0.7
	c0,0,0.4,0.2,0.4,0.2l0.5-0.1c17.5,4.2,28.6,15.3,34.1,32.2c-0.2,0.3-0.1,0.6,0.2,0.8c0.3,1.1,0.5,2.2,0.8,3.2
	c0.1,0.6,0.2,1.2,0.3,1.8c1.3,7.2,1,14.2-1.1,21.2c-0.3,0.2-0.3,0.5-0.2,0.8c-5,15.3-14.9,25.8-30.3,31.1c-0.6,0.2-1.1,0.3-1.7,0.5
	c-3.4,1-6.8,1.5-10.3,1.5c-86.1,0-172.1,0-258.2,0c-1.3,0-2.7-0.1-4-0.2c0,0-0.1,0-0.1,0c-1.8-0.4-3.6-0.8-5.5-1.2
	c-0.3-0.1-0.7-0.3-1-0.4c-17.5-4.6-30.7-20.5-33.1-39.9c-0.1-2.9-0.1-5.7-0.2-8.6c0.1-1.1,0.2-2.1,0.3-3.2c0,0,0,0,0,0
	c0.1-1,0.2-2,0.3-2.9C322.2,289.6,322.2,289.4,322.2,289.4z M636,260.9L636,260.9c-0.6-1.2-1.9-1.1-3-1.5c-0.7-0.1-1.3-0.3-2-0.4
	c-0.7-0.2-1.4-0.4-2-0.6c-0.9-0.6-1.9-0.7-3-0.4c-3.7-0.6-7.3-0.6-11,0c-1.3,0.1-2.7,0-3.9,0.3c-15.8,3.5-28.6,16.8-31.3,32.6
	c-3,17.8,3,32.2,17.9,42.4c24.2,16.6,59.4,1.7,63.2-26.4c1.2-5.3,1.3-10.6,0.1-15.9c-2.5-13.5-9.6-23.5-22.4-29.1
	C638,261,637,260.8,636,260.9z M439,316.9c0.3-0.2,0.3-0.5,0.1-0.9c0.3-2,0.7-4,1-6c0-0.5,0.1-0.9,0.1-1.4c0.6-5.8,0.6-11.5,0-17.3
	c0.1-0.2,0.2-0.3,0.2-0.5c-0.1-0.3-0.2-0.6-0.3-0.9c-0.6-3.3-1.3-6.6-1.9-10c0-0.1,0.1-0.2,0.1-0.3c-0.1-0.2-0.2-0.4-0.3-0.6
	c-1.4-4.7-2.7-9.4-5.9-13.3c-0.3-0.4-0.7-0.6-1.1-0.1c-0.6,0.1-1.3,0.2-1.9,0.3c-1.7,0-3.4-0.1-5-0.1c-0.9-1.2-1.7-2.9-3.3-2.3
	c-1.4,0.5-0.8,2.4-0.8,3.6c0,21.3,0,42.5,0,63.8c0,1.4-0.8,3.4,0.8,4c1.4,0.5,2.5-1.3,3.4-2.4c3.1-0.2,6.2,0.9,9.3-0.1
	c2.4-3.5,3.5-7.5,4.7-11.5c0.1-0.3,0.1-0.7,0.2-1C438.5,318.9,438.7,317.9,439,316.9z M506.4,273c6,19.8,5.4,39.5-1.3,59
	c0,0.7,0.4,0.8,1,0.5c1.7,0,3.4-0.1,5.1-0.1c16.2,0.8,32.3,0.3,48.5,0.2c1.7,0,3.5,0.1,5.2,0.1c1.7,0.6,2.7,3.4,4.4,2.4
	c1.6-0.9,0.7-3.4,0.7-5.1c0-20.6,0.1-41.1,0-61.7c0-1.7,1-4.3-0.6-5.1c-1.7-0.9-2.7,1.9-4.3,2.7c-1.4,0-2.7,0.1-4.1,0.1
	c-1.6-0.4-3.2-0.3-4.8,0.2c-15-1-30.1-0.3-45.1-0.4C503.5,265.8,503.4,266,506.4,273z M329.5,285c-0.2,0.7-0.4,1.3-0.5,2
	c-0.1,0.3-0.2,0.7-0.3,1c-0.8,0.9-0.9,1.9-0.7,3c-1.2,5.3-1.2,10.6,0,16c2,16.3,18,31.2,35.3,33c19.7,2,37.4-8.6,43.6-26
	c0.6-2,1.2-4,1.7-5.9c0.1-0.7,0.2-1.3,0.3-2c1.1-4.6,1.1-9.3,0.1-13.9c-1.9-14.9-10.4-25.1-23.6-31.1c-14.2-6.4-28.3-5.1-41.1,4.2
	c-6,4.4-11.6,9.4-13.3,17.3C330.5,283.3,330,284.1,329.5,285z"/>
<path class="st0" d="M503.2,390c0.9-5.6-1.1-7.7-7.1-7.3c-7.4,0.6-15,0-22.5,0.2c-2.9,0.1-3.6-0.9-3.6-3.7c-0.1-9-0.2-9,8.7-9
	c6.3,0,12.7-0.2,19,0.1c3.8,0.2,6.1-0.3,5.3-4.9c-0.5-2.6,0.3-3.3,2.9-1.8c6.6,3.9,13.3,7.6,20.1,11.1c3,1.6,1.7,2.2-0.2,3.3
	c-6.9,3.9-13.8,8-20.7,12C504.4,390.1,503.8,390.1,503.2,390z"/>
<path class="st2" d="M714.7,298.9c0-12.7,5.9-19.1,16.5-18c0.3,0,0.7,0.1,1,0.1c8.7,1.5,13.9,12.7,11.1,24
	c-2.5,10.2-10.1,14.8-19.4,11.7C717.8,314.7,714.6,308.6,714.7,298.9z M734.4,299.2c-0.3-2.9-0.3-5.5-0.8-8.1
	c-0.4-2.3-1.9-3.9-4.5-3.9c-2.3,0-3.8,1.4-4.3,3.4c-1.4,5.7-1.5,11.5,0.1,17.2c0.6,2.1,2.2,3.3,4.5,3.2c2.4-0.1,3.7-1.6,4.1-3.6
	C734.1,304.6,734.2,301.8,734.4,299.2z"/>
<path class="st2" d="M698.8,280.8c1.5,0.1,3,0.2,4.5,0.4c2.6,0.4,4.4,1.5,3.9,4.6c-0.6,3.7-2.9,1.6-4.5,1.4
	c-4.5-0.6-8.8-0.7-11.2,4.1c-0.4,0.9-0.9,1.9-0.2,2.8c0.7,0.8,1.5-0.1,2.3-0.2c7.1-1.5,12.8,0.7,15.3,6.1c2.4,5,0.8,11.4-3.8,14.8
	c-4.9,3.7-13.8,3.5-18.2-0.4c-8.2-7.1-7.3-24.5,1.6-30.7C691.6,281.4,695,280.6,698.8,280.8z M700.9,305.4c-0.2-3.2-1.1-6.1-5-6
	c-3.6,0.1-4.6,2.9-4.6,5.9c0,3.1,0.8,6.3,4.7,6.3C699.8,311.6,700.8,308.7,700.9,305.4z"/>
<path class="st2" d="M252.4,305.3c5.2-1.3,5.2,1.8,5.5,5.8c0.4,5.3-2,5.6-6.4,5.9c-5.6,0.3-5.3-2.7-5.6-6.6
	C245.6,305,248.5,304.8,252.4,305.3z"/>
<path class="st2" d="M252.3,299.9c-4,0.7-6.4,0.1-6.3-5.2c0.1-4.8,1.4-6.1,6.2-6.1c4.7,0,5.8,1.6,5.8,6
	C257.9,298.9,256.8,300.9,252.3,299.9z"/>
<path class="st3" d="M326.8,382.1c0-1.6-0.1-3.2,0-4.8c0.1-1-0.7-2.6,1-2.9c1.3-0.3,1.5,1.2,1.8,2c0.9,2.4,1.6,1.3,2.3-0.1
	c0.4-0.9,0.8-2.1,1.9-1.9c1.1,0.2,1,1.5,1.1,2.5c0.5,4.2-0.9,5.3-4.7,3.8C328.3,380,328.1,380.1,326.8,382.1z"/>
<path class="st3" d="M381,378.8c0-3.8,4.2-6.2,7.8-4.7c1.3,0.5,1,0.9,0.2,1.6c-0.4,0.3-0.7,0.7-0.9,1.1c-0.7,1.7,0.9,4.8-1.3,5
	c-1.6,0.1-0.5-3-0.9-4.7c-0.3-1.3-1.3-1.7-2.2-1.5c-1.5,0.3-0.7,1.9-1,2.9c-0.4,1.3,1,3.6-1.1,3.6
	C380.3,382.1,381.3,379.8,381,378.8z"/>
<path class="st3" d="M339.6,381.2c-1.4-2.1-3.1,3.2-3.3-0.2c-0.2-2.1,0.8-6.4,3.3-6.4c2.2,0.1,3.4,4.5,3.2,6.6
	C342.3,384.3,340.8,378.8,339.6,381.2z"/>
<path class="st0" d="M373.2,377.2c1.2-2,2.3-4.1,5.3-2.6c-0.6,1.3-2.8-0.1-3,1.4c-0.3,1.9,1.7,1.4,2.6,2.1c0.7,0.6,1.6,1.5,1.6,2.3
	c0,1.2-1.1,2.1-2.3,2.3c-1.1,0.2-2.9,0.5-2.9-0.8c0-1.5,1.5,0.2,2.2-0.3c0.5-0.4,1.1-0.7,1.3-1.2c0.2-0.7-0.4-1.1-1.1-1.4
	c-1.3-0.6-2.5-1.3-3.7-2L373.2,377.2z"/>
<path class="st3" d="M615.8,382.3c0.1-0.8,0.1-1.7,0.4-2.4c1-2,0.7-5.4,3.2-5.4c1.7,0,2,3.4,2.7,5.4c0.2,0.7,1.3,1.5,0.3,2.1
	c-0.9,0.7-1.3-0.5-1.9-0.9C618.6,380,617.4,381.9,615.8,382.3C615.8,382.3,615.8,382.3,615.8,382.3z M619.9,378.1
	c-0.1-0.2-0.3-0.5-0.4-0.7c-0.3,0.3-0.7,0.6-1,1c0,0,0.3,0.5,0.5,0.6C619.6,379.1,619.8,378.6,619.9,378.1z"/>
<path class="st0" d="M599.2,382.5c0.6-3.1-2.1-7.3,1.4-8c6.5-1.3,1.1,5.8,4.5,7.5C602.9,382.1,600.9,374.9,599.2,382.5z
	 M600.1,376.4c-0.2,0.9,0.1,1.5,0.8,1.6c0.9,0.1,1.7-0.1,1.8-1.1c0-0.4-0.5-1.1-1-1.3C600.8,375.1,600.4,375.8,600.1,376.4z"/>
<path class="st0" d="M320.2,381.1c-2.5-1.4-1-3.6-1-5.4c0-1.9,1.9-1.6,3.1-1.3c1.5,0.4,2.9,1.5,1.8,3.3c-1,1.7,1,2.7,0.5,4.7
	c-1.1-1.2-2-2.2-2.9-3.2C320,378.8,319.8,379.6,320.2,381.1z M321.8,378c0.8-0.1,1.3-0.6,1.1-1.3c-0.2-0.5-0.8-1.3-1.2-1.3
	c-0.8,0-1.5,0.6-1.3,1.6C320.5,377.9,321.1,378,321.8,378z"/>
<path class="st3" d="M268.3,291.6c-5,1.9-0.2,2.3,0.4,3c1,1.3,1.2,2.3-0.1,3.4c-1.1,0.9-2.3,1.2-3.6,0.4c-0.2-0.2-0.4-0.5-0.5-0.8
	c7.5-1.9-1-2.5-0.4-4c0.3-0.7,0.1-1.6,0.8-2.1c0.8-0.7,1.8-1,2.8-0.6C267.9,290.9,268.1,291.4,268.3,291.6z"/>
<path class="st3" d="M290.1,293.3c0-0.7-0.2-2.5,2.3-2.4c0.6,0,1.8,0.1,1.9,0.3c0.1,0.9-0.7,0.8-1.3,1c-1.2,0.4-1.1,1.3-0.1,1.6
	c3,0.8,1.7,1.1-0.1,1.5c-0.6,0.2-0.9,0.8-0.4,1.5c0.5,0.8,2.8-0.3,2,1.7c-0.1,0.3-1.5,0.4-2.3,0.3c-1.7-0.2-2-1.5-2-2.9
	C290.1,295.3,290.1,294.8,290.1,293.3z"/>
<path class="st3" d="M270.1,310.6c-0.8,2.4-4.2,0.9-5.1,3.4c-0.1,0.3-1-0.5-0.9-1.2c0.1-1.8,0.1-3.7,0.6-5.3
	c0.3-0.9,1.5-0.2,1.8,0.6c0.5,1.5,1.2,2.4,2.7,1.1C269.9,309.3,270.3,309.8,270.1,310.6z"/>
<path class="st0" d="M718.7,380.5c-0.6,0.8-1.1,1.7-1.7,2.5c-0.2,0.1-0.3,0.2-0.5,0.4c-3.2-0.9-6.1-2.1-4.9-6.2
	c0.8-2.6,2.5-4.1,5.4-2.2c-0.2,0.2-0.4,0.4-0.6,0.5c-2.1-0.9-3.1,0.2-3.5,2.1c-0.2,1.3-0.2,2.6,1.1,3.5c1.9,1.2,2.6-0.5,3.8-1.3
	C718.1,380.1,718.4,380.3,718.7,380.5z"/>
<path class="st3" d="M345.1,374.7c1,0.4,0.7,1.3,0.8,2.1c0.2,1.4-0.7,3,0.8,4.1c0.7,0.5,2.9-0.3,1.9,1.6c-0.6,1-2.8,0.9-3.6-0.1
	c-2-2.2-1-4.9-0.7-7.5C344.3,374.9,344.8,374.8,345.1,374.7z"/>
<path class="st0" d="M649.9,381.1c-0.3,0-0.6-0.2-0.9-0.4c-0.1-0.6-0.1-1.2-0.2-1.8c-0.1-0.8-0.4-1.8-1.2-1.7
	c-1,0.1-0.7,1.1-0.6,1.9c-0.3,0.6-0.6,1.2-0.9,1.8c-0.2,0.3-0.3,0.7-0.6,0.8c-0.4,0.2-0.8,0.1-1.2,0.2c1-2.4,1.8-4.9,3.1-7.2
	c0.5-0.9,1.2,0.2,1.4,0.7c0.7,1.7,1.3,3.4,1.9,5.1C650.4,380.7,650.2,380.9,649.9,381.1z"/>
<path class="st0" d="M273.4,382.5c-0.1-1.6-0.3-3.2-0.3-4.8c0-1.4-0.4-3.1,1.8-3.4c1.6-0.2,3.1,0.3,3.5,2c0.5,2.1-0.8,2.8-2.7,3.2
	c-0.4,0.1-0.8,0.6-1.2,0.9c0,0-0.3,0.1-0.3,0.1l0.1,0.2c-0.2,0.7-0.5,1.3-0.7,2C273.6,382.5,273.4,382.5,273.4,382.5z M277,376.4
	c-0.3-0.2-0.8-1-1.3-0.9c-0.8,0.1-1.4,0.8-1.3,1.7c0.1,0.8,0.8,0.9,1.5,0.9C276.7,378,277,377.4,277,376.4z"/>
<path class="st3" d="M667.8,382.9c0,0.7-1.6-0.1-2.5,0c-1.4,0.2-1.7-0.4-1-1.7c0.4-0.8,0.1-2.1,0.7-2.7c1.3-1.5-3.3-3.7,0.3-4
	c2.4-0.2,1.3,2.8,1.6,4.4C667.2,379.7,667.4,380.6,667.8,382.9z"/>
<path class="st0" d="M358.6,378.1c-0.3-1.1-0.4-2.1,0.2-3.2c0,0,0.3-0.1,0.3-0.1l0-0.3c1.9-0.9,3.8-0.6,4.7,1.4
	c0.9,2.1-0.7,3.1-2.5,3.3c-1.8,0.2-0.6,2.6-2.2,2.8l-0.1,0c-0.1-0.6-0.2-1.2-0.4-1.8C359.1,379.5,359.1,378.8,358.6,378.1z
	 M360.8,374.9c-0.4,0.8-0.8,1.3-0.9,1.8c-0.1,0.7,0.2,1.3,1,1.3c0.9,0,1.5-0.6,1.3-1.5C362.1,376.1,361.5,375.7,360.8,374.9z"/>
<path class="st0" d="M265.3,375.2c-2,0.9-2,0.9-3.7,7.9c-0.4-3.3-0.6-5.4-0.8-7.5c-0.4-0.9-0.8-0.6-1.3-0.1c1.8-1.7,3-1.8,6.5-0.5
	c0,0,0.1-0.1,0.1-0.1C265.7,374.8,265.5,374.9,265.3,375.2z"/>
<path class="st0" d="M585.4,380.4c-0.6-0.8-1.3-2.3-1.7-2.3c-1.2,0.2-0.7,1.6-0.7,2.5c-0.1,1.1-0.5,1.5-1.5,0.9c0,0,0.2-0.1,0.2-0.1
	s-0.2-0.1-0.2-0.1c0.1-0.8,0-1.7,0.2-2.5c0.3-1.5-0.8-4,1-4.3c1.5-0.3,1.9,2.3,2.7,3.7c0.2,0.5,0.5,1.1,0.7,1.6
	C585.8,380.1,585.6,380.3,585.4,380.4z"/>
<path class="st3" d="M286.1,295.6c-1.7-0.1-1,3.3-2.3,2.2c-1.6-1.4-1.2-4.1-0.3-5.9c0.9-1.9,2.9-1.6,4.4,0c-0.4,0-0.8,0-1.2,0.1
	c-1.9,0.3-2.5,0.9-0.6,2.2C286.1,294.7,286.1,295.1,286.1,295.6z"/>
<path class="st0" d="M681,375c3.3,1.9,2.5,4.6,0.8,6.8c-1.9,2.3-3.3,0.6-4.3-1.4c0.2-0.1,0.4-0.3,0.6-0.4c0,0,0.3,0.1,0.3,0.1
	l0.3-0.1c1.8,2.6,2.7,0.8,2.9-0.9C681.8,377.8,681.2,376.4,681,375L681,375z"/>
<path class="st3" d="M299.4,383.5c-2.9-3-3.1-6.1,0.3-9.8C299.1,377.4,298.2,380.4,299.4,383.5z"/>
<path class="st0" d="M606.7,380.5c0-1.3,0.1-2.6,0.1-3.9c0,0,0-0.1,0-0.1c0.2-0.6,0.1-1.4,0.5-1.7c0.9-0.7,1.3,0.2,1.6,0.9
	c0.4,1,0.8,2,1.2,3.1c0.6,0.1,1.1,0.2,1.7,0.3c-0.3,0.7-0.9,2.1-1.2,1.7c-2.5-3.6-2.6-1.8-2.7,1c0,0.9-0.7,0.1-0.9-0.2
	C606.7,381.2,606.7,380.9,606.7,380.5C606.7,380.5,606.7,380.5,606.7,380.5z"/>
<path class="st0" d="M299.1,298.5c-2.7-1.2-3.8-3.1-2.2-5.8c1.2-2,3.1-2.7,5.1-0.7c0,0,0.1-0.1,0.1-0.1c-4.3-0.1-5.8,1.4-3.1,5.4
	C299,297.7,299.1,298.1,299.1,298.5z"/>
<path class="st0" d="M279.1,298.4c-4.1-1.4-1.6-4.5-1.6-7c0-0.1,2.5-0.6,2.6-0.3c0.7,1.6-0.9,0.4-1.3,0.9c-0.5,0.6-0.9,1.4-0.2,1.6
	c3.3,0.9,1.3,1.1-0.1,1.8c-1,0.5-0.3,1.4,0.4,1.9C279,297.7,279.1,298.1,279.1,298.4z"/>
<path class="st3" d="M696.8,377c-0.3,1.6,1.1,1.7,2,2.3c1.1,0.8,1.5,1.7,0.3,2.8c-0.9,0.9-2.4,1.4-3.1,0.6c-1.8-2.1,1.1-0.9,1.2-1.5
	c0.5-1.8-3.9-1.6-1.8-4.2C695.9,377,696.4,377,696.8,377z"/>
<path class="st3" d="M272.7,290.8c0.8,0.3,3,0.1,2.3,0.8c-2,1.9,0.1,5.9-1.8,5.9c-2.7,0,0.1-4.1-2.2-5.9
	C270.1,291,272.1,291.3,272.7,290.8z"/>
<path class="st0" d="M268.4,382.4c-0.4-2.5-0.4-5.2-2.7-7c0.2-0.1,0.3-0.3,0.4-0.5c0,0-0.1,0.1-0.1,0.1c1.9,1.4,3.7,2.3,5.7-1.4
	c-0.3,3.4-3,4.5-2.3,6.8c0,0,0,0,0,0c-0.2,0.6-0.4,1.3-0.6,1.9C268.7,382.5,268.4,382.4,268.4,382.4z"/>
<path class="st3" d="M351.7,378.7c-0.2-1.4-1.2-2.7-0.5-4.5c2.3,1.9,2.1,4.4,1.8,6.7c-0.1,0.9-0.2,2.4-1.8,2.2
	c0.1-1,0.3-1.9,0.4-2.8C351.6,379.8,351.6,379.2,351.7,378.7z"/>
<path class="st0" d="M281.1,382.6c-2.3-2.4-1.2-5.3-0.6-7.8c0.3-1.1,2.7-1.4,4.1,0.1c-1.4-0.4-2.7-0.7-3.5,1c0,0.4,0,0.7,0,1.1
	c0.8,1.6,2.1,1.3,3.4,1c-0.4,1.7-4.3-0.5-3.4,2.9C281.2,381.5,281.1,382.1,281.1,382.6z"/>
<path class="st3" d="M293,314c-4.2,0.6-5.1-0.5-4.4-5c0.4,0,0.8,0,1.3,0c-0.1,2.2-0.3,4.5,3.1,4C292.9,313.4,293,313.7,293,314z"/>
<path class="st0" d="M688,376.3c0.9,0.9,1.1,1.1,1.1,1.1c-1.3,2.1,3,3.8,0.4,5.9c-0.3,0.3-0.7,0.5-1,0.8
	C688.3,381.7,688.1,379.4,688,376.3z"/>
<path class="st0" d="M275.1,314.1c-3-1.2-2.7-3.8-1.6-5.7c1.2-2.2,3.5-2.2,5.4-0.3c-0.5,0-1-0.1-1.6-0.1c-4.3,0.2-3.9,2.3-2.2,5.1
	C275,313.4,275.1,313.7,275.1,314.1z"/>
<path class="st0" d="M708.9,378.7c-1.3,0.3-3.5-0.5-2.8,2.3c0,0.5,0,1.1,0,1.6c-2.4-2.4-1.4-5.3-0.7-7.7c0.3-1.2,2.7-1.4,4.1,0.1
	c-1.4-0.3-2.8-0.7-3.5,1.1c0,0.3,0,0.7,0,1C706.4,378.6,708,378.2,708.9,378.7z"/>
<path class="st0" d="M305.2,377.9c-3.8-0.4-1.2,3.1-2.9,4.3c-0.4-2.7-1.2-5.4,0.6-7.5c0.4-0.5,1.7,1.9,2.1,3.3L305.2,377.9z"/>
<path class="st0" d="M310.9,381.1c-1.7-2.1-1.4-4.3,0.4-6c1.7-1.6,3.6-1.3,5.1,0.5c-0.2,0.2-0.4,0.4-0.6,0.5
	c-4.8-1.9-5.1,0.7-4.3,4.3C311.3,380.7,311.1,380.9,310.9,381.1z"/>
<path class="st0" d="M305.1,378c4.7,2.5,0-3.5,2.9-2.7c-0.2,2.2,1,4.9-1,6.8c-0.4,0.4-2.4-2.1-1.8-4.1
	C305.2,377.9,305.1,378,305.1,378z"/>
<path class="st0" d="M409.6,374.5c0.1,1.5,0.3,2.9,0.2,4.4c-0.1,1.2,0.8,3.2-0.9,3.3c-1.5,0.1-2.1-1.6-1.9-3.3c0,0-0.1,0.1-0.1,0.1
	c4.4,0.5,1.3-2.1,1.4-3.4c0.3-0.4,0.6-0.8,1-1.2C409.4,374.4,409.6,374.5,409.6,374.5z"/>
<path class="st0" d="M293,314c0-0.3,0-0.7,0-1c1.9-3.3,1.5-5.3-2.9-5l-0.3-0.3c1.9-1.8,3.8-1.1,4.8,0.7
	C295.6,310.4,295.8,312.8,293,314z"/>
<path class="st3" d="M392.6,374.4c0.1,0.5,0.4,1,0.3,1.4c-0.2,2,0.8,4.2-0.8,6.1c-0.1,0.1-0.7-0.2-0.7-0.3
	C391.3,379.1,389.8,376.4,392.6,374.4C392.5,374.4,392.6,374.4,392.6,374.4z"/>
<path class="st0" d="M290.8,381.9c-0.2-2.3-0.7-4.7,0.2-7c0,0,0.4,0.1,0.4,0.1s0.4,0,0.4,0c0,2.3,0,4.7,0,7
	C291.4,381.8,291.1,381.8,290.8,381.9z"/>
<path class="st0" d="M396.8,382.2c-3.9-2.5-3.9-5-0.1-7.5c0,0,0.3,0.3,0.3,0.3c-1.6,2.3-1.8,4.6,0.1,6.8L396.8,382.2z"/>
<path class="st0" d="M641.5,381c0-1.7,0-3.3,0-5c0.1-0.3,0.2-0.7,0.4-1c0,0,0.1-0.1,0.1-0.1c0,0,0.4,0.2,0.4,0.2l0.4,0
	c0,2.3,0,4.6-0.1,6.9c-0.2-0.1-0.4-0.1-0.6,0.1c0,0-0.2-0.1-0.2-0.1C641.8,381.6,641.7,381.3,641.5,381z"/>
<path class="st0" d="M614.3,380.3c-0.2,0.5-0.5,1.1-0.7,1.6c-0.2-0.3-0.5-0.6-0.6-0.9c-0.1-1.1-0.1-2.2-0.1-3.3
	c-0.3-0.5-0.6-1-0.9-1.5c0-0.9,0.5-2,1.1-1.7c1.9,0.8,0.5,2.8,1.1,4.1C614.3,379.2,614.3,379.8,614.3,380.3z"/>
<path class="st0" d="M637.9,374.4c1.9,2.6,3.2,5.2,0.1,7.9c0-0.4,0-0.9,0-1.3c0.6-1.1,0.2-1.8-0.9-2.3c0.3-0.6,0.6-1.2,0.9-1.8
	c0.1-0.3,0.1-0.6,0-1C637.9,375.5,637.9,375,637.9,374.4z"/>
<path class="st0" d="M677.4,380.4c-0.1-2.6-1.8-6.4,3.6-5.4c0,0,0.1-0.1,0.1-0.1c-2.5,0.3-2.4,2.3-2.8,4.1c-0.1,0.3-0.2,0.6-0.3,0.9
	C677.8,380.2,677.6,380.3,677.4,380.4z"/>
<path class="st0" d="M587.7,374.4c0.1,2.1,0.1,4.2,0.2,6.3c0,0.8,0,1.8-1.1,1.5c-0.6-0.2-0.9-1.1-1.4-1.8c0.2-0.2,0.4-0.3,0.6-0.5
	c1.9-1.2,0.9-2.8,0.6-4.3c0.3-0.5,0.5-0.9,0.8-1.4C587.4,374.3,587.7,374.4,587.7,374.4z"/>
<path class="st3" d="M406,377.9c-2,0.7,0.2,4.3-2.1,3.8c-1.4-0.3-0.7-3.1-0.1-4.8C404.7,376.8,405.6,376.7,406,377.9z"/>
<path class="st0" d="M406,377.9c-0.3-1.2-1.3-1.1-2.2-1c0.1-0.8,0.3-2.2,0.3-2.2c2.2,0.2,2.2,2.3,3.1,3.7c-0.1,0.2-0.2,0.4-0.2,0.7
	c0,0,0.1-0.1,0.1-0.1C406,379.3,406.1,378.5,406,377.9z"/>
<path class="st3" d="M321.6,295.7c0.1,2.9,0.1,5.7,0.2,8.6C320.9,301.5,320.8,298.6,321.6,295.7z"/>
<path class="st3" d="M591.6,380.9c1.7,0.8,3,0.3,4.3-0.9c0.1,0.5,0.1,1.1,0.2,1.6c-1.7,2-3.4,2.1-5.1,0
	C591.1,381.3,591.3,381.1,591.6,380.9z"/>
<path class="st3" d="M277.2,308c0.5,0,1,0.1,1.6,0.1c1.9,2,1.4,3.8-0.3,5.5c-0.2-0.3-0.5-0.6-0.7-0.9
	C278.2,311.1,278.3,309.5,277.2,308z"/>
<path class="st0" d="M283,310c-2.2,0.4-0.1,2.7-1.9,3.6c0-2-0.3-3.9,0.1-5.6c0.4-1.5,1.3-0.8,1.8,0.2
	C283.1,308.7,283.1,309.3,283,310z"/>
<path class="st0" d="M373.1,377.1c-0.7,1.4-0.2,3.2-1.7,4.3c-0.2-0.2-0.4-0.3-0.6-0.5c0.5-2.1,0.3-4-0.9-5.8l0.2-0.2
	c1.9-0.4,1.5,2.3,3.1,2.3C373.2,377.2,373.1,377.1,373.1,377.1z"/>
<path class="st0" d="M270.1,310.6c0.2-0.8-0.2-1.3-0.9-1.5c0.2-0.6,0.2-1.3,0.6-1.7c0.7-0.6,1.2-0.1,1.2,0.6c0.1,1,0,1.9-0.1,2.9
	c-0.1,0.8,0.7,1.8-0.4,2.4C270.4,312.4,270.3,311.5,270.1,310.6z"/>
<path class="st0" d="M693.4,380.9c0.2,0.5,0.7,1.2-0.4,1.4c-0.6,0.1-1.3-0.1-1.2-1c0.1-1.4,0.3-2.8,0.4-4.3c0,0,0.4,0.2,0.4,0.2
	l0.4-0.1c0,0.7,0.1,1.4,0.1,2C692.6,379.9,692.7,380.4,693.4,380.9z"/>
<path class="st0" d="M285.6,307.7c2.4,1.7,1.5,4.4,0.7,5.9c-0.8,1.4-1.6-0.3-1.5-1.5C286.9,310.9,286,309.2,285.6,307.7z"/>
<path class="st0" d="M624.3,382c-0.4-2.5-0.5-5.1,0-7.6c0,0,0.3,0.2,0.3,0.2l0.4,0c0.1,1.7,0.2,3.4,0.3,5.1
	c-0.1,0.1-0.3,0.3-0.2,0.4c0.1,0.3,0.2,0.5,0.4,0.8c0.1,0.1,0.3,0.3,0.4,0.4C625.4,381.5,624.8,381.7,624.3,382z"/>
<path class="st3" d="M672.5,380.8c0.8,0.7,2.9-0.3,2.4,1.5c-0.3,1.3-1.9,0.5-3,0.3C672.2,382,672.3,381.4,672.5,380.8z"/>
<path class="st0" d="M596,381.6c-0.1-0.5-0.1-1.1-0.2-1.6c0.5-1.7-0.2-3.2-1.1-4.6l0.3-0.4C598.2,376.7,597.7,379.1,596,381.6z"/>
<path class="st3" d="M706.1,382.6c0-0.5,0-1.1,0-1.6c1.1,0.7,3.5-0.9,3.4,1.3C709.5,383.5,707.4,383,706.1,382.6z"/>
<path class="st0" d="M302,292c2.1,2.5,1.9,4.6-1,6.2c0-0.3,0-0.7,0.1-1C303.1,295.8,301.1,293.6,302,292L302,292z"/>
<path class="st3" d="M624.3,382c0.5-0.2,1.1-0.5,1.6-0.7c0.9,0.1,1.9,0.2,2.8,0.4c-0.1,0.4-0.2,1.1-0.4,1.1
	C626.9,382.9,625.4,383.5,624.3,382z"/>
<path class="st3" d="M281.1,382.6c0-0.6,0.1-1.1,0.1-1.7c1.1,0.8,3.6-0.9,3.4,1.4C284.5,383.5,282.4,383,281.1,382.6z"/>
<path class="st0" d="M316.3,381.3c-1.9,2.2-3.7,2.3-5.4-0.2c0.2-0.2,0.4-0.4,0.7-0.7c1.3,1.6,2.8,1.2,4.3,0.4
	C316,381,316.2,381.2,316.3,381.3z"/>
<path class="st0" d="M635.1,382.6c-2.3-2.3-0.8-5.1-1-7.7c0.6,0.1,1.1,0.2,1.7,0.3c-0.2,0.6-0.5,1.2-0.7,1.8
	c0.3,0.6,0.6,1.2,0.9,1.7c-1,0.4-1,1.3-0.8,2.2C635.1,381.5,635.1,382,635.1,382.6z"/>
<path class="st0" d="M286.6,292c0.4,0,0.8,0,1.2-0.1c0.1,1.6,0.2,3.2,0.3,4.9l-0.3,0.3c-0.6-0.5-1.2-1.1-1.7-1.6c0-0.5,0-0.9,0-1.4
	C287.2,293.8,287,292.9,286.6,292z"/>
<path class="st0" d="M401.6,376.5c0.7,2.5,0.8,4.8-2.3,5.9c-0.1-0.1-0.2-0.3-0.4-0.4c0.5-0.8,0.9-1.5,1.4-2.3
	c0.2-0.9,0.4-1.7,0.5-2.6C401.1,376.9,401.4,376.7,401.6,376.5z"/>
<path class="st3" d="M657,382.1c-0.5,0.8-1.3,0.9-2.1,0.9c-1,0-2.5-0.1-2.1-1.2c0.6-1.7,1.8-0.1,2.7,0.2
	C656,382,656.5,382.1,657,382.1z"/>
<path class="st3" d="M275.1,314.1c0-0.3,0-0.7,0-1c0.9-0.1,1.8-0.2,2.7-0.3c0.2,0.3,0.5,0.6,0.7,0.9
	C277.4,314.4,276.4,315.7,275.1,314.1z"/>
<path class="st3" d="M279.1,298.4c-0.1-0.4-0.1-0.7-0.2-1.1c0.9,0,2.4-0.8,2.4,0.6C281.4,299.2,280.1,299,279.1,298.4z"/>
<path class="st3" d="M635.1,382.6c0-0.6,0-1.1,0.1-1.7c0.9,0,1.9,0.1,2.8,0.1c0,0.4,0,0.9,0,1.3C637.1,383.3,636.1,383,635.1,382.6z
	"/>
<path class="st3" d="M654.3,375.4c-0.1,0.7-0.1,1.3-0.2,2c-0.2,0.2-0.4,0.5-0.7,0.7c-2.7-1.3-1.5-2.5,0.2-3.6
	C653.9,374.8,654.1,375.1,654.3,375.4z"/>
<path class="st3" d="M285.6,307.7c0.4,1.6,1.3,3.2-0.7,4.4c0,0,0.1,0,0.1,0c-0.4-0.4-0.7-0.8-1.1-1.1c0,0,0,0.1,0,0.1
	c0.2-0.2,0.3-0.5,0.4-0.8C284.8,309.4,285.2,308.5,285.6,307.7z"/>
<path class="st3" d="M586.6,375.7c0.3,1.5,1.3,3.1-0.6,4.3c-0.2-0.5-0.5-1.1-0.7-1.6C585.7,377.5,586.2,376.6,586.6,375.7z"/>
<path class="st3" d="M407,379c0-0.2,0-0.5,0.2-0.7c0.4-0.9,0.8-1.8,1.3-2.8C408.2,376.9,411.4,379.5,407,379z"/>
<path class="st3" d="M708.9,378.7c-1-0.6-2.5-0.1-2.9-1.7C706.8,378,709.4,375.8,708.9,378.7z"/>
<path class="st3" d="M612.1,376.3c0.3,0.5,0.6,1,0.9,1.5c-0.4,0.4-0.9,0.8-1.3,1.2c-0.6-0.1-1.1-0.2-1.7-0.3
	C610.7,377.9,611.4,377.1,612.1,376.3z"/>
<path class="st0" d="M590.9,381.6c-0.4-0.8-0.9-1.5-1.3-2.3c0-0.5,0-1.1,0-1.7c0.2-0.4,0.5-0.8,0.7-1.2c0.2,0.3,0.6,0.5,0.7,0.8
	c0.3,1.2,0.4,2.5,0.6,3.7C591.3,381.1,591.1,381.3,590.9,381.6z"/>
<path class="st0" d="M365.9,381.1c-1.6-1.7-1.4-3.4,0-5.2c0.2,0.2,0.5,0.4,0.7,0.6c-0.7,1.3-0.7,2.7,0.1,4
	C366.4,380.7,366.2,380.9,365.9,381.1z"/>
<path class="st0" d="M316.4,375.6c0.3,0.7,0.7,1.5,1,2.2c0,0.5,0,0.9,0,1.4c-0.4,0.7-0.8,1.4-1.1,2.1c-0.2-0.2-0.3-0.3-0.5-0.5
	c0-1.6,0-3.2,0-4.7C316.1,375.9,316.2,375.8,316.4,375.6z"/>
<path class="st3" d="M648.8,378.9c0.1,0.6,0.1,1.2,0.2,1.8c-1,0.1-2,0.1-3,0.2c0.3-0.6,0.6-1.2,0.9-1.8
	C647.6,379.1,648.2,379,648.8,378.9z"/>
<path class="st0" d="M371.4,381.4c-1.3,1.4-2.7,2.4-4.4,0.6c0,0-0.1,0.1-0.1,0.1c1.3-0.4,2.6-0.8,3.9-1.2
	C371,381,371.2,381.2,371.4,381.4z"/>
<path class="st3" d="M635.8,375.2c-0.6-0.1-1.1-0.2-1.7-0.3c1.1-1.6,2.4-1,3.7-0.5c0,0.5,0.1,1.1,0.1,1.6
	C637.2,375.8,636.5,375.5,635.8,375.2z"/>
<path class="st0" d="M657,382.1c-0.5,0-1-0.1-1.5-0.1c0.3-0.8,1.8-1.1,1.1-2.4c0.2-0.2,0.4-0.5,0.6-0.7
	C658.8,380,658.3,381.1,657,382.1z"/>
<path class="st3" d="M673.9,376.1c-1.1-0.1-2.1-0.3-3.2-0.4c-0.1,0-0.2-0.2-0.2-0.3c0-0.1,0.2-0.3,0.3-0.4c1.1,0,2.2,0,3.3,0
	c0,0,0-0.1,0-0.1C674,375.3,674,375.7,673.9,376.1z"/>
<path class="st3" d="M706.1,376c0.7-1.8,2.1-1.4,3.5-1.1C708.7,376.3,707.1,375.3,706.1,376z"/>
<path class="st0" d="M672.5,380.8c-0.2,0.6-0.4,1.2-0.6,1.8c-0.7-0.1-1.8,0-1.5-1.1C670.7,380.7,671.4,379.7,672.5,380.8z"/>
<path class="st3" d="M281.1,376c0.8-1.7,2.1-1.4,3.5-1C283.7,376.3,282.2,375.3,281.1,376z"/>
<path class="st0" d="M718.1,375.9c1.6,1.3,1,2.9,0.6,4.5c-0.3-0.2-0.6-0.4-0.8-0.6c-0.2-1.1-0.3-2.2-0.5-3.4
	C717.6,376.3,717.8,376.1,718.1,375.9z"/>
<path class="st3" d="M284.5,378.1c-1.3,0.3-2.7,0.6-3.4-1C282.2,377.6,283.7,376.7,284.5,378.1z"/>
<path class="st3" d="M301,297.1c0,0.3,0,0.7-0.1,1c-0.5,1-1.1,1-1.8,0.3c0-0.4-0.1-0.8-0.1-1.1C299.7,297.3,300.3,297.2,301,297.1z"
	/>
<path class="st3" d="M614.3,380.3c0-0.5,0-1.1,0-1.6C615,379.3,614.9,379.8,614.3,380.3z"/>
<path class="st0" d="M696.8,377c-0.5,0-0.9,0-1.4,0c0.7-0.9,1.6-1,2.6-0.8c0.5,0.1,0.6,0.3,0.2,0.6C697.8,377,697.3,376.9,696.8,377
	z"/>
<path class="st3" d="M351.7,378.7c-0.1,0.5-0.1,1.1-0.2,1.6C351.6,379.8,351.6,379.2,351.7,378.7z"/>
<path class="st0" d="M656.5,379.6c-1-0.5-2-1-3-1.5c0.2-0.2,0.5-0.4,0.7-0.7c1,0.5,2.4,0.1,3,1.4
	C656.9,379.1,656.7,379.3,656.5,379.6z"/>
<path class="st3" d="M320.2,381.1c-0.5-1.4-0.2-2.3,1.6-2C321.3,379.7,320.8,380.4,320.2,381.1z"/>
<path class="st0" d="M674.1,375c-1.1,0-2.2,0-3.3,0C671.9,373.7,673,373.6,674.1,375z"/>
<path class="st3" d="M653.6,374.5c1.1-0.5,2.7-1.2,3.1,0.4c0.2,0.9-1.6,0.3-2.4,0.6C654.1,375.1,653.9,374.8,653.6,374.5z"/>
<path class="st3" d="M284.4,310.2c-0.1,0.3-0.2,0.6-0.4,0.8c-0.3-0.4-0.6-0.7-0.9-1.1c0-0.6,0-1.2,0-1.9
	C283.5,308.8,283.9,309.5,284.4,310.2z"/>
<path class="st0" d="M594.7,375.3c-0.8-0.2-1.5-0.4-2.3-0.6c0.2-0.2,0.3-0.5,0.6-0.5c0.8-0.1,1.6-0.2,2,0.8
	C595,375,594.7,375.3,594.7,375.3z"/>
<path class="st0" d="M673.9,376.1c0-0.4,0.1-0.8,0.1-1.1c0.5,0.6,1.1,1.1,1.6,1.6c-0.1,0.3-0.3,0.6-0.4,0.9
	c-0.2,0.3-0.5,0.6-0.7,0.9c-0.2-0.2-0.4-0.3-0.5-0.5C673.9,377.3,673.9,376.7,673.9,376.1z"/>
<path class="st3" d="M589.6,377.6c0,0.6,0,1.1,0,1.7C588.9,378.7,589,378.2,589.6,377.6z"/>
<path class="st0" d="M396.7,374.7c1.2-0.9,2.3-1,3.2,0.3c0,0,0.1-0.1,0.1-0.1c-1,1.3-2-0.4-3,0.1L396.7,374.7z"/>
<path class="st0" d="M367,375c1-1.2,2-1.2,3.1-0.1c0,0-0.2,0.2-0.2,0.2c-0.8,0.1-1.6,0.3-2.4,0.4C367.3,375.3,367.2,375.1,367,375z"
	/>
<path class="st3" d="M675.2,377.5c0.1-0.3,0.3-0.6,0.4-0.9C675.5,376.9,675.4,377.2,675.2,377.5z"/>
<path class="st3" d="M667.3,290.9c-0.1-0.6-0.2-1.2-0.3-1.8C667.1,289.7,667.2,290.3,667.3,290.9z"/>
<path class="st0" d="M400,375c1,0,1.2,0.9,1.6,1.5c-0.2,0.2-0.4,0.4-0.7,0.6c-0.2,0-0.4,0.1-0.5,0.2
	C400.3,376.5,399.1,375.9,400,375L400,375z"/>
<path class="st3" d="M358.6,378.1c0.5,0.7,0.5,1.4-0.1,2C358.6,379.5,358.6,378.8,358.6,378.1z"/>
<path class="st3" d="M625.4,380.8c-0.1-0.3-0.3-0.5-0.4-0.8c0-0.1,0.1-0.3,0.2-0.4c0.1,0.3,0.2,0.5,0.3,0.7
	C625.6,380.5,625.5,380.7,625.4,380.8z"/>
<path class="st3" d="M259.5,375.5c0.5-0.5,0.9-0.8,1.3,0.1C260.3,375.6,259.9,375.6,259.5,375.5z"/>
<path class="st3" d="M693.4,380.9c-0.7-0.5-0.8-1.1-0.2-1.7C693.3,379.8,693.3,380.4,693.4,380.9z"/>
<path class="st3" d="M625,374.6l-0.4,0c0,0-0.3-0.2-0.3-0.2C624.7,374.2,625,373.9,625,374.6z"/>
<path class="st3" d="M693.1,377.2l-0.4,0.1c0,0-0.4-0.2-0.4-0.2c0.1-0.2,0.2-0.4,0.3-0.7C692.8,376.6,692.9,376.9,693.1,377.2z"/>
<path class="st3" d="M634.1,344.5c0.6-0.2,1.1-0.3,1.7-0.5C635.2,344.1,634.6,344.3,634.1,344.5z"/>
<path class="st3" d="M290.8,381.9c0.3-0.1,0.6-0.1,0.9,0.1C291.3,382.9,291,382.7,290.8,381.9z"/>
<path class="st0" d="M399.3,382.4c-0.9,0.6-1.7,0.8-2.5-0.1c0,0,0.3-0.4,0.3-0.4c0.6,0,1.2,0.1,1.9,0.1
	C399.1,382.1,399.2,382.2,399.3,382.4z"/>
<path class="st3" d="M503.2,390c0.6,0,1.2,0.1,1.8,0.1C504.4,390.9,503.7,391.7,503.2,390z"/>
<path class="st3" d="M666.3,285.9c-0.3-0.2-0.4-0.5-0.2-0.8C666.4,285.3,666.4,285.6,666.3,285.9z"/>
<path class="st3" d="M642.1,382.1c0.2-0.2,0.4-0.2,0.6-0.1C642.6,382.5,642.4,382.6,642.1,382.1z"/>
<polygon class="st3" points="359,374.6 359.1,374.9 358.8,375 358.7,374.7 "/>
<path class="st3" d="M615.8,382.3C615.8,382.3,615.8,382.3,615.8,382.3C615.8,382.3,615.8,382.3,615.8,382.3z"/>
<path class="st3" d="M358.9,382c-0.1,0.1-0.1,0.2-0.2,0.3C358.8,382.2,358.8,382.1,358.9,382C358.9,382,358.9,382,358.9,382z"/>
<path class="st3" d="M291.8,375l-0.4,0c0,0-0.4-0.1-0.4-0.1c0.2-0.2,0.3-0.4,0.5-0.5C291.6,374.6,291.7,374.8,291.8,375z"/>
<polygon class="st3" points="273.4,382.5 273.6,382.5 273.5,382.7 "/>
<path class="st3" d="M268.4,382.4c0,0,0.3,0,0.3,0c0,0-0.2,0.2-0.2,0.2L268.4,382.4z"/>
<path class="st3" d="M392.6,374.4C392.6,374.4,392.5,374.4,392.6,374.4C392.5,374.4,392.6,374.4,392.6,374.4z"/>
<path class="st3" d="M409.6,374.5c0,0-0.3-0.1-0.3-0.1c0,0,0.2-0.2,0.2-0.2L409.6,374.5z"/>
<path class="st3" d="M587.7,374.4c0,0-0.3-0.1-0.3-0.1c0,0,0.2-0.1,0.2-0.1L587.7,374.4z"/>
<path class="st0" d="M650.6,380.5c0.3,0.5,0.6,1,0,1.5c-0.2-0.3-0.4-0.6-0.6-1C650.2,380.9,650.4,380.7,650.6,380.5z"/>
<path class="st3" d="M641.5,381c0.1,0.3,0.3,0.6,0.4,1c-0.2-0.2-0.4-0.3-0.6-0.6C641.3,381.4,641.4,381.1,641.5,381z"/>
<path class="st3" d="M361.4,345.8c0,0,0.1,0,0.1,0C361.5,345.8,361.4,345.8,361.4,345.8z"/>
<path class="st3" d="M354.9,344.2c0.3,0.1,0.7,0.3,1,0.4C355.6,344.5,355.3,344.3,354.9,344.2z"/>
<polygon class="st3" points="581.4,381.4 581.6,381.5 581.4,381.6 "/>
<path class="st0" d="M367,382c-0.4-0.3-0.7-0.6-1.1-0.9c0.2-0.2,0.5-0.4,0.7-0.6C366.9,381,368.1,381.3,367,382L367,382z"/>
<path class="st3" d="M666,312.9c-0.2-0.3-0.1-0.6,0.2-0.8C666.4,312.4,666.3,312.7,666,312.9z"/>
<polygon class="st3" points="606.7,380.5 606.7,380.5 606.4,380.5 "/>
<path class="st3" d="M642.8,375l-0.4,0c0,0-0.4-0.2-0.4-0.2c0.2-0.2,0.3-0.3,0.5-0.5C642.6,374.6,642.7,374.8,642.8,375z"/>
<path class="st0" d="M284,311c0.4,0.4,0.7,0.8,1.1,1.1C284.1,312.2,284.1,311.5,284,311z"/>
<polygon class="st3" points="274.3,380.5 274.3,380.3 274.5,380.2 274.6,380.5 "/>
<polygon class="st3" points="269.3,380.5 269.3,380.5 269.5,380.5 "/>
<path class="st0" d="M289.9,309c-0.4,0-0.8,0-1.3,0c0.4-0.4,0.8-0.8,1.2-1.3c0,0,0.3,0.3,0.3,0.3C290,308.4,289.9,308.7,289.9,309z"
	/>
<path class="st3" d="M631.9,252.9l-0.5,0.1c0,0-0.4-0.3-0.4-0.2C631.4,252.5,631.7,252.6,631.9,252.9z"/>
<path class="st0" d="M673.6,379.6c-0.4,0.2-0.7,1.2-1.3,0.3c-0.1-0.1,0.5-0.6,0.7-0.9C673.2,379.2,673.3,379.4,673.6,379.6z"/>
<path class="st3" d="M266,375c-0.1,0.2-0.2,0.4-0.4,0.5c0,0-0.3,0-0.3,0s-0.1-0.3-0.1-0.3C265.5,374.9,265.7,374.8,266,375z"/>
<path class="st0" d="M674.5,378.4c-0.3,0.4-0.6,0.8-0.9,1.2c-0.2-0.2-0.4-0.4-0.6-0.6c0.3-0.3,0.6-0.7,1-1
	C674.1,378.1,674.3,378.3,674.5,378.4z"/>
<path class="st0" d="M365.9,375.9c0.1-0.6,0.4-1,1.1-0.9c0.2,0.2,0.3,0.3,0.5,0.5c-0.3,0.3-0.6,0.7-0.9,1
	C366.4,376.3,366.1,376.1,365.9,375.9z"/>
<path class="st0" d="M288.2,296.8c0.2,0.3,0.3,0.7,0.5,1c-0.3-0.2-0.5-0.4-0.8-0.7C287.8,297.2,288.2,296.8,288.2,296.8z"/>
<path class="st3" d="M317.4,379.2c0-0.5,0-0.9,0-1.4C318,378.3,318,378.7,317.4,379.2z"/>
<polygon class="st3" points="321.9,292.5 321.9,292.5 321.7,292.5 "/>
<path class="st3" d="M641.9,375c-0.1,0.3-0.2,0.7-0.4,1C641.2,375.5,641.2,375.1,641.9,375z"/>
<path class="st3" d="M322.2,289.4c0,0,0,0.1,0,0.1C322.2,289.6,322.2,289.4,322.2,289.4z"/>
<path class="st0" d="M717,375c0.7,0,1,0.3,1.1,0.9c-0.2,0.2-0.5,0.4-0.7,0.6c-0.3-0.3-0.6-0.7-0.9-1
	C716.6,375.3,716.8,375.2,717,375z"/>
<polygon class="st3" points="606.7,376.5 606.7,376.5 606.5,376.5 "/>
<path class="st0" d="M717,383c0.2,0.2,0.4,0.4,0.7,0.5c-0.4-0.1-0.8-0.1-1.2-0.2C716.7,383.2,716.8,383.1,717,383z"/>
<path class="st0" d="M263.8,184.1c3.9,10.4,7.8,20.8,11.6,31.3c0.3,0.9,2.5,2.6-0.4,3.4c-2.3-1.2-4.8-0.4-7.2-0.6
	c-2.3-9.9-10.1-4.9-15.8-5.9c-0.6-0.2-0.9,0.1-0.9,0.7c-0.7,1.6-1.5,3.3-2.2,4.9c-2.9,0-5.8,0-8.7,0c4.3-11.3,8.5-22.6,12.8-33.9
	C256.6,184,260.2,184,263.8,184.1z M257.9,192.9c-0.2,0.4-0.4,0.8-0.6,1.2c-1.1,3.6-2.2,7.3-3.3,10.9c-0.1,0.9,0.4,0.9,1.1,0.8
	c2.3,0,4.6,0,6.9,0c1.7-0.5,1.1-1.3,0.3-2.2c-1.1-3.5-2.2-7-3.3-10.5c-0.2-0.3-0.4-0.5-0.6-0.8C258.2,192.5,258.1,192.7,257.9,192.9
	L257.9,192.9z"/>
<path class="st0" d="M742.3,189.9c-149.9,0-299.8,0-449.7,0c0-0.2,0-0.4,0-0.6c149.9,0,299.8,0,449.7,0
	C742.3,189.6,742.3,189.7,742.3,189.9z"/>
<path class="st0" d="M292.7,218.2c149.9,0,299.7,0,449.6,0c0,0.2,0,0.4,0,0.5c-149.9,0-299.7,0-449.6,0
	C292.7,218.5,292.7,218.3,292.7,218.2z"/>
<path class="st4" d="M716.8,175.2c0.9,4.5-0.6,6-5.1,6c-4.5,0-5.9-1.2-5.9-5.8c0-4.5,1.5-5.6,5.7-5.5
	C715.6,170.1,718.2,170.6,716.8,175.2z"/>
<path class="st4" d="M669.4,175.8c-1.1-4.7,1-5.8,5.3-5.8c4.1,0,5.8,0.8,5.8,5.4c-0.1,4.5-1.3,6-5.9,5.9
	C670.3,181.1,668.1,180.2,669.4,175.8z"/>
<path class="st3" d="M661,179c-1.5,0.7-2.3-5.4-4.3-0.4c0,0.1-0.7,0-0.7,0c-0.1-1.8-0.2-3.6-0.2-5.4c0-1,0.7-1.3,1.7-1.3
	c2,0,3.9,0.4,2.9,3c-0.6,1.5,0.4,2.1,0.8,3.1C661.1,178.3,661.1,178.6,661,179z M657.8,175.2c0.5-0.4,1-0.6,1-0.9
	c0-0.3-0.3-1-0.5-1.1c-0.7-0.2-1.2,0.1-1.2,0.9C657.2,174.4,657.5,174.7,657.8,175.2z"/>
<path class="st3" d="M732.9,172.9c-0.7,0.2-2.3,0.2-1.9,0.7c2.1,2.6-0.9,3.5-1.4,5.1c0.7-2.5-3.4-7.4,3.4-6.7
	C733.1,172.3,733.1,172.6,732.9,172.9z"/>
<path class="st3" d="M697.8,176.3c0.1-1.3-1.1-2.7,0.8-4.3c0.2,2.7,1.2,5.3-0.9,6.9c-0.7,0.6-1.7-1.5-1.8-2.8l0.1-0.1
	c0.3-0.1,0.6,0,1,0.1C697.2,176.4,697.3,177.1,697.8,176.3z"/>
<path class="st3" d="M648,176c0.3,0,0.7,0.1,1,0.1c0.2,0.3,0.3,1,0.8,0.2c0.1-1.3-1.1-2.8,0.9-4.3c0.2,2.8,1.3,5.3-0.9,6.9
	C649,179.4,648,177.4,648,176L648,176z"/>
<path class="st3" d="M695.9,176.1c-3.5-1.9-0.8,2.5-2.8,2.4c0.1-2.1-1.1-4.8,0.9-6.2c0.9-0.6,2,2,2.1,3.6
	C696,176,695.9,176.1,695.9,176.1z"/>
<path class="st3" d="M648,176c-3.4-1.8-1.1,2.3-2.9,2.6c0.1-2.2-1.2-4.9,0.9-6.2C646.9,171.7,648,174.3,648,176
	C648,176,648,176,648,176z"/>
<path class="st3" d="M721.9,178.1c-1.6-2-1.5-4.2,0.5-5.6c1.8-1.3,3.8-1.2,5,1.2c-0.3,0.2-0.6,0.5-0.8,0.7c-0.9-1-1.8-2.2-3.2-1
	c-1.3,1-1.6,2.4-0.6,3.9C722.4,177.6,722.2,177.8,721.9,178.1z"/>
<path class="st3" d="M727.4,173.7c1.3,2,0.8,3.9-0.9,5.2c-1.5,1.2-3.3,1.2-4.6-0.7c0.3-0.3,0.6-0.6,0.8-0.8c3.7,2.3,3.9-0.2,3.8-2.9
	C726.8,174.1,727.1,173.9,727.4,173.7z"/>
<path class="st3" d="M263.8,184.1c-3.6,0-7.2-0.1-10.8-0.1C256.6,182.7,260.2,182.6,263.8,184.1z"/>
<path class="st3" d="M684.5,174.7c0.8-2.8,2.6-3.3,6.6-2.2c-4.6,0.4-6.4,1.8-4.5,5.2c-0.2,0.4-0.4,0.7-0.7,1.1
	c-0.5-0.9-1-1.7-1.5-2.6C684.5,175.8,684.5,175.3,684.5,174.7z"/>
<path class="st3" d="M240.2,217.9c2.9,0,5.8,0,8.7,0C246,219.5,243.1,219.6,240.2,217.9z"/>
<path class="st3" d="M267.8,218.2c2.4,0.2,4.9-0.7,7.2,0.6C272.6,218.7,270.1,219.6,267.8,218.2z"/>
<path class="st3" d="M686.7,177.8c1-0.1,1.9-0.1,2.9-0.2c0.4,0.3,0.7,0.5,1.1,0.8c-1.4,1.5-2.9,2.1-4.7,0.5
	C686.2,178.5,686.4,178.2,686.7,177.8z"/>
<path class="st3" d="M735,174.2c0.1,0,0.1-0.7,0.2-1c0.2-1.3,1.2-1.3,2.2-1.2c0.5,0,1.7,0.1,1.3,0.5
	C738.1,173.2,736.8,173.4,735,174.2z"/>
<path class="st5" d="M661,179c0.1-0.3,0.1-0.7,0.2-1c0.7,0.4,2.4-0.6,2.2,0.8C663.3,179.8,661.9,179.6,661,179z"/>
<path class="st3" d="M736.3,176.3c-0.1,0.8-0.3,1.5-0.4,2.3c-0.2-0.1-0.7-0.3-0.7-0.4c-0.1-1.2-0.5-2.6,0.7-3.6
	C736,175.2,736.1,175.7,736.3,176.3z"/>
<path class="st3" d="M735.9,174.6c1.1-0.2,1.9,0.2,2.6,1c-0.7,0.2-1.4,0.5-2.2,0.7C736.1,175.7,736,175.2,735.9,174.6z"/>
<path class="st5" d="M653.7,178.6c-0.2,0.1-0.5,0.2-0.7,0.3c-0.1,0-0.2-0.2-0.2-0.4c0.2-0.1,0.5-0.2,0.8-0.3
	C653.5,178.2,653.6,178.4,653.7,178.6z"/>
<path class="st3" d="M689.6,177.6c0.3-0.7,0.5-1.9,1.2-1.6c1.1,0.5,0.4,1.6-0.1,2.4C690.3,178.1,689.9,177.9,689.6,177.6z"/>
<path class="st5" d="M732.9,172.9c0.2-0.3,0.3-0.6,0.1-0.9c0.1,0.2,0.2,0.5,0.3,0.7C733.3,172.8,733,172.9,732.9,172.9z"/>
<path class="st3" d="M684.5,174.7c0,0.5-0.1,1-0.1,1.5C684,175.7,684,175.2,684.5,174.7z"/>
<path class="st5" d="M251.1,213c0-0.6,0.3-0.9,0.9-0.7C251.7,212.5,251.4,212.8,251.1,213z"/>
<path class="st2" d="M768.6,475c0.5-0.3,0.9-0.7,1.4-1c3.6-3,7.8-2.2,11.9-1.7c0,0,0-0.2,0-0.2c0.4,0.6,0.8,1.2,1.2,1.9
	c-3.4,0.3-6.8-0.9-10.2,0.6c-4.5,2-4.9,6.6-6.8,10.2c-0.7-3,0.5-5.8,1.2-8.7c0,0-0.2-0.1-0.2-0.1C768,476.3,768.2,475.5,768.6,475z"
	/>
<path class="st3" d="M782,493c-0.7,0.7-1.3,1.3-2,2c-3.1,0.7-6-0.5-9-1c-0.4-0.6-0.9-1.1-1.3-1.7c0.2-0.2,0.5-0.5,0.7-0.7
	C774,493.7,778,493.1,782,493z"/>
<path class="st3" d="M783.1,474c-0.4-0.6-0.8-1.2-1.2-1.9c0.7,0,1.4-0.1,2.1-0.1c0.6,1,2,1.6,2,3c-0.5,0-0.9,0-1.4,0
	C784,474.6,783.5,474.3,783.1,474L783.1,474z"/>
<path class="st3" d="M784,493c-0.7,0-1.3,0-2,0c0.3-1,1-1.3,2-1C784,492.3,784,492.7,784,493z"/>
<path class="st3" d="M787,476c0.3,0,0.7,0,1,0c0,0.7,0,1.4,0,2C786.9,477.7,786.8,476.9,787,476z"/>
<path class="st2" d="M783,473.9c0.5,0.4,1,0.7,1.6,1.1C783.9,474.9,783.2,474.8,783,473.9z"/>
<path class="st3" d="M787,475c0,0.3,0,0.7,0,1c-0.8,0.1-1-0.3-1-1C786.4,475,786.7,475,787,475z"/>
<path class="st3" d="M786,490c-0.3,0.3-0.6,0.6-1,1C784.9,490.3,785.3,489.9,786,490z"/>
<path class="st3" d="M769.7,492.3c-0.2-0.3-0.5-0.7-0.5-0.8c0.4-0.6,0.8-0.3,1.2,0.1C770.1,491.8,769.9,492.1,769.7,492.3z"/>
<path class="st3" d="M785,491c-0.3,0.3-0.6,0.6-1,1C783.9,491.2,784.3,491,785,491z"/>
<path class="st3" d="M502,463c-5.9,1.3-11.8,3.1-16-3.4c0-1.3,0.1-2.6-1-3.6c1.3-7.9,4.4-11.1,10.7-11.2c1.8,0,3.6,0.1,5.4,0.2
	l-0.1-0.1c-0.1,0.8,0.4,1.1,1.1,1.1l-0.1-0.1c0.5,0.4,1,0.7,1.5,1.1c0.9,1,1.7,2,2.6,3c0,0,0,0,0,0c0,2.3,0,4.7,0,7c0,0,0,0,0,0
	c-1.4,0.9-2.1,2.2-2,4c0,0,0,0,0,0c-0.7-0.1-1,0.3-1,1c0,0,0,0,0,0C502.3,462,502,462.3,502,463L502,463z M487.8,452.8
	c4.9,0.7,4.4,3.7,5.1,6c0.1,0.2,1.3,0.3,1.3,0.1c1-2.4,2.9-2.9,5.2-3.3c0.8-0.1,0.8-1.7-0.1-2c-2.1-0.7-2.6-1.9-2.4-4
	c0.1-0.7-1.5-1.4-1.9-0.6c-1.1,1.8-2.1,3.2-4.5,2.2C490.3,451,489.5,451.8,487.8,452.8z"/>
<path class="st2" d="M501.1,445c-1.8-0.1-3.6-0.2-5.4-0.2c-6.3,0-9.4,3.3-10.7,11.2c-0.2-0.1-0.5-0.1-0.7-0.1c0-2.3,0-4.5,0.1-6.8
	c0,0-0.2,0-0.2,0c1.1-0.2,1.6-0.8,1-1.9c0,0,0,0,0,0c1,0.3,1.1-0.5,1.5-1.1c0.5,0.1,0.7,0,0.5-0.5c0.6-0.3,1.3-0.6,1-1.5
	c0,0,0.1,0.2,0.1,0.2c3.8-1.4,7.7-1.7,11.7-0.9c0,0,0.1-0.2,0.1-0.2C499.5,444.2,500.9,444.2,501.1,445z"/>
<path class="st5" d="M484.3,455.9c0.2,0,0.5,0,0.7,0.1c1.1,1,1,2.3,1,3.6C484.9,458.6,484.2,457.5,484.3,455.9z"/>
<path class="st3" d="M207.1,472.1c0-0.4-0.1-0.8-0.1-1.1c3.8-0.8,7.7-2.7,11,1.1C214.3,472.1,210.7,472.1,207.1,472.1z"/>
<path class="st3" d="M223,477c-0.6-0.3-1.3-0.7-1.9-1c-0.4-0.4-0.8-0.7-1.1-1.1c0,0,0.1,0.1,0.1,0.1c-0.4-0.4-0.7-0.7-1.1-1.1
	c0,0,0.1,0.1,0.1,0.1c-0.2-0.7-1.6-0.7-1.2-1.9c0.7,0,1.4-0.1,2.1-0.1c0.3,0.3,0.7,0.7,1,1c0.3,0.3,0.7,0.7,1,1c0.3,0.3,0.7,0.7,1,1
	C223,475.7,223,476.3,223,477z"/>
<path class="st3" d="M205,472c0.7,0,1.4,0.1,2.1,0.1c0,1.4-1.4,1.5-2.1,2.4C205,473.7,205,472.8,205,472z"/>
<path class="st3" d="M202.1,477.1c0-0.7-0.1-1.4-0.1-2.1c0.8,0,1.6,0,2.4,0.1C203.6,475.7,203.7,477.3,202.1,477.1z"/>
<path class="st3" d="M501.1,445c-0.1-0.8-1.5-0.8-1.2-1.9c0.7,0,1.4-0.1,2.1-0.1c0.3,0.3,0.7,0.7,1,1c0.3,0.3,0.7,0.7,1,1
	c0.3,0.3,0.7,0.7,1,1c0.3,0.3,0.7,0.7,1,1c0,1,0,2,0,3c-0.9-1-1.7-2-2.6-3c-0.5-0.4-1-0.7-1.5-1.1c0,0,0.1,0.1,0.1,0.1
	C501.7,445.6,501.4,445.3,501.1,445L501.1,445z"/>
<path class="st3" d="M506,457c0-2.3,0-4.7,0-7C507.9,452.3,507.9,454.6,506,457z"/>
<path class="st3" d="M504,461c-0.2-1.7,0.6-3,2-4c0,1,0,2,0,3C505.4,460.3,504.7,460.7,504,461z"/>
<path class="st3" d="M202,488c4.4,4.8,9.8,6,16,5c-3.4,3.6-7.2,2-11,1c-0.7-0.3-1.3-0.7-2-1c-0.3-0.3-0.7-0.7-1-1
	c-0.3-0.3-0.7-0.7-1-1c-0.3-0.3-0.7-0.7-1-1C202,489.3,202,488.7,202,488z"/>
<path class="st3" d="M218,493c1.1-2.2,2.8-3.9,5-5c0,0.7,0,1.3,0,2c-0.3,0.3-0.7,0.7-1,1c-0.3,0.3-0.7,0.7-1,1c-0.3,0.3-0.7,0.7-1,1
	C219.4,493,218.7,493,218,493z"/>
<path class="st3" d="M768.6,475c-0.4,0.5-0.5,1.3-1.5,1.1C767.1,475.1,767.7,474.9,768.6,475z"/>
<path class="st3" d="M223,488c0-3.7,0-7.3,0-11c0.3,0,0.7,0,1,0c1.2,3.7,1.6,7.4,0,11C223.7,488,223.3,488,223,488z"/>
<path class="st3" d="M503,462c0-0.7,0.3-1,1-1C504,461.7,503.7,462,503,462z"/>
<path class="st3" d="M502,463c-0.1-0.7,0.3-1,1-1C503,462.7,502.7,463,502,463z"/>
<path class="st3" d="M485.1,447.1c0.5,1.1,0.1,1.7-1,1.9c0-0.7-0.1-1.4-0.1-2.1C484.4,447,484.8,447.1,485.1,447.1z"/>
<path class="st3" d="M488.1,444.1c0.2,0.9-0.4,1.2-1,1.5C486.9,444.7,487.1,444.1,488.1,444.1z"/>
<path class="st3" d="M486.6,446c-0.4,0.5-0.5,1.4-1.5,1.1C485.2,446.2,485.8,445.9,486.6,446z"/>
<path class="st2" d="M559.6,332.6c-16.2,0.1-32.3,0.6-48.5-0.2c0.6-1.3,1.5-2.4,1.9-4c4.1-16.7,5.3-33.3,0.6-50.1
	c-1-3.5,0.8-5.3,3.9-5.3c10.8-0.1,21.6-0.2,32.4,0.3c3.3,0.2,4.7-0.3,5-3.4c0.4-1.2,0.8-2.4,1.2-3.7c1.6-0.5,3.2-0.7,4.8-0.2
	c-1,1.9-2.2,3.7-3,5.7C550.2,292.2,550.5,312.5,559.6,332.6z"/>
<path class="st3" d="M631,259c0.7,0.1,1.3,0.3,2,0.4c0.6,1.3,1.8,1.6,3.1,1.6c0,0-0.1,0-0.1,0c0.9,0.4,1.7,0.7,2.6,1.1
	c12.8,5.6,19.9,15.6,22.4,29.1c-1.5,5.3-1.4,10.6-0.1,15.9c-3.8,28.1-39,43-63.2,26.4c-14.9-10.2-20.9-24.6-17.9-42.4
	c2.7-15.9,15.5-29.1,31.3-32.6c1.3-0.3,2.6-0.2,3.9-0.3c3.7,1.6,7.3,1.6,11,0c1.1-0.3,2.1-0.2,3,0.4C629.5,259.3,630,260,631,259z
	 M583.7,298.8c0,20.1,16.8,37,36.8,37.1c19.8,0,36.7-16.8,36.8-36.6c0.1-20.5-16.2-37.3-36.3-37.3
	C600.2,261.8,583.7,278.1,583.7,298.8z"/>
<path class="st3" d="M406.9,313.9c-6.1,17.4-23.9,28-43.6,26c-17.3-1.8-33.3-16.7-35.3-33c1.5-5.3,1.5-10.7,0-16
	c-0.2-1.1-0.2-2.2,0.7-3c0.1-0.3,0.2-0.7,0.3-1c0.2-0.7,0.4-1.3,0.5-2c1-0.6,1.4-1.5,1.5-2.6c1.8-7.8,7.3-12.9,13.3-17.3
	c12.8-9.3,26.9-10.6,41.1-4.2c13.2,5.9,21.7,16.2,23.6,31.1c-1.6,4.6-1.5,9.3-0.1,13.9c-0.1,0.7-0.2,1.3-0.3,2
	C406.7,309.6,405.4,311.4,406.9,313.9z M368.5,261.9c-20.4,0-36.8,16.3-36.9,36.8c-0.1,20.1,17,37.3,36.7,37.2
	c20.2-0.1,36.9-16.8,36.9-37C405.3,278.6,388.8,261.9,368.5,261.9z"/>
<path class="st3" d="M433.3,332.5c-3.1,1-6.2-0.1-9.3,0.1c0-22.2-0.1-44.5-0.1-66.7c1.7,0,3.4,0.1,5,0.1c2,4,4,8,5.1,12.4
	c4.4,17.2,4.2,34.2-2.7,50.7C430.5,331.5,430.7,332.5,433.3,332.5z"/>
<path class="st3" d="M559.6,332.6c-9.1-20-9.4-40.3-1.6-60.8c0.8-2,2-3.8,3-5.7c1.4,0,2.7-0.1,4.1-0.1c-0.1,22.3-0.2,44.5-0.3,66.8
	C563.1,332.6,561.3,332.6,559.6,332.6z"/>
<path class="st5" d="M554.9,269.9c-0.4,3.1-1.7,3.6-5,3.4c-10.8-0.5-21.6-0.4-32.4-0.3c-3.2,0-4.9,1.8-3.9,5.3
	c4.7,16.7,3.6,33.4-0.6,50.1c-0.4,1.5-1.3,2.6-1.9,4c-1.7,0-3.4,0.1-5.1,0.1c-0.3-0.2-0.6-0.3-1-0.5c6.7-19.5,7.3-39.2,1.3-59
	c1.1,0.4,2.2,1.8,3.3-0.1c3.1-5.1,8-5.2,13.2-5c6.3,0.2,12.7,0,19,0.1C546.3,268,550.9,267.4,554.9,269.9z"/>
<path class="st3" d="M564.8,332.7c0.1-22.3,0.2-44.5,0.3-66.8c1.6-0.7,2.5-3.6,4.3-2.7c1.5,0.8,0.6,3.3,0.6,5.1
	c0.1,20.6,0.1,41.1,0,61.7c0,1.8,0.9,4.2-0.7,5.1C567.5,336.1,566.5,333.3,564.8,332.7z"/>
<path class="st3" d="M424,265.9c0,22.2,0.1,44.5,0.1,66.7c-0.9,1.1-2,2.9-3.4,2.4c-1.6-0.6-0.7-2.6-0.8-4c-0.1-21.3,0-42.5,0-63.8
	c0-1.2-0.7-3.1,0.8-3.6C422.3,263,423.1,264.8,424,265.9z"/>
<path class="st2" d="M433.3,332.5c-2.7,0-2.8-1-1.9-3.4c6.9-16.6,7.1-33.5,2.7-50.7c-1.1-4.4-3.1-8.4-5.1-12.4
	c0.6-0.1,1.3-0.2,1.9-0.3c0.4,0,0.7,0.1,1.1,0.1c3.2,3.9,4.5,8.6,5.9,13.3c0,0.1-0.1,0.2-0.1,0.3c0.1,0.2,0.2,0.4,0.3,0.6
	c0.6,3.3,1.3,6.6,1.9,10c0,0.5,0.1,0.9,0.1,1.4c0.6,5.8,0.6,11.5,0,17.3c0,0.5-0.1,0.9-0.1,1.4c-0.3,2-0.7,4-1,6
	c-0.3,0.2-0.3,0.5-0.1,0.9c-0.2,1-0.5,2-0.7,3c-0.1,0.3-0.1,0.7-0.2,1C436.8,325,435.8,329,433.3,332.5z"/>
<path class="st3" d="M554.9,269.9c-4.1-2.5-8.6-1.9-13.1-1.9c-6.3,0-12.7,0.2-19-0.1c-5.2-0.2-10.1-0.1-13.2,5
	c-1.1,1.9-2.2,0.4-3.3,0.1c-2.9-7-2.9-7.1,4.7-7.1c15,0.1,30.1-0.6,45.1,0.4C555.8,267.5,555.4,268.7,554.9,269.9z"/>
<path class="st5" d="M328,291c1.6,5.3,1.5,10.6,0,16C326.8,301.6,326.8,296.3,328,291z"/>
<path class="st5" d="M660.9,306.9c-1.4-5.3-1.4-10.6,0.1-15.9C662.1,296.3,662.1,301.6,660.9,306.9z"/>
<path class="st5" d="M408.9,306c-1.4-4.7-1.5-9.3,0.1-13.9C410.1,296.7,410,301.3,408.9,306z"/>
<path class="st5" d="M626,258c-3.7,1.6-7.3,1.6-11,0C618.7,257.4,622.3,257.4,626,258z"/>
<path class="st5" d="M406.9,313.9c-1.4-2.6-0.2-4.4,1.7-5.9C408,310,407.4,311.9,406.9,313.9z"/>
<path class="st5" d="M636.1,261c-1.3,0-2.5-0.2-3.1-1.6C634.1,259.8,635.4,259.7,636.1,261z"/>
<path class="st5" d="M331,282.4c-0.1,1.1-0.5,2-1.5,2.6C330,284.1,330.5,283.3,331,282.4z"/>
<path class="st5" d="M631,259c-1,1.1-1.6,0.4-2-0.6C629.7,258.6,630.4,258.8,631,259z"/>
<path class="st5" d="M638.6,262c-0.9-0.4-1.7-0.7-2.6-1.1C637,260.8,638,261,638.6,262z"/>
<path class="st3" d="M505.1,332c0.3,0.2,0.6,0.3,1,0.5C505.5,332.8,505.1,332.7,505.1,332z"/>
<path class="st3" d="M438,321c0.1-0.3,0.1-0.7,0.2-1C438.2,320.3,438.1,320.6,438,321z"/>
<path class="st3" d="M439,316.9c-0.2-0.3-0.2-0.6,0.1-0.9C439.3,316.4,439.3,316.7,439,316.9z"/>
<path class="st3" d="M440.1,310c0-0.5,0.1-0.9,0.1-1.4C440.2,309.1,440.2,309.6,440.1,310z"/>
<path class="st3" d="M432.1,265.8c-0.4,0-0.7-0.1-1.1-0.1C431.4,265.2,431.7,265.4,432.1,265.8z"/>
<path class="st3" d="M438.2,280c-0.1-0.2-0.2-0.4-0.3-0.6c0-0.1,0.1-0.2,0.1-0.3c0.1,0.2,0.2,0.4,0.3,0.6
	C438.3,279.8,438.2,279.9,438.2,280z"/>
<path class="st3" d="M440.3,291.4c0-0.5-0.1-0.9-0.1-1.4c0.1,0.3,0.2,0.6,0.3,0.9C440.4,291,440.3,291.2,440.3,291.4z"/>
<path class="st5" d="M329,287c-0.1,0.3-0.2,0.7-0.3,1C328.8,287.6,328.9,287.3,329,287z"/>
<path class="st4" d="M734.4,299.2c-0.3,2.6-0.4,5.5-0.9,8.2c-0.4,2.1-1.7,3.6-4.1,3.6c-2.3,0.1-3.9-1.1-4.5-3.2
	c-1.6-5.7-1.5-11.5-0.1-17.2c0.5-2.1,2-3.5,4.3-3.4c2.6,0,4.1,1.6,4.5,3.9C734.1,293.6,734.2,296.3,734.4,299.2z"/>
<path class="st4" d="M700.9,305.4c-0.1,3.3-1.1,6.2-4.9,6.2c-3.9,0-4.7-3.2-4.7-6.3c0-3,1-5.9,4.6-5.9
	C699.7,299.3,700.7,302.2,700.9,305.4z"/>
<path class="st4" d="M619.8,378.1c0,0.6-0.2,1-0.9,0.8c-0.2-0.1-0.5-0.5-0.5-0.6c0.3-0.4,0.6-0.7,1-1
	C619.6,377.6,619.7,377.8,619.8,378.1z"/>
<path class="st4" d="M600.1,376.4c0.2-0.6,0.6-1.3,1.6-0.8c0.5,0.3,1,0.9,1,1.3c-0.1,0.9-0.9,1.2-1.8,1.1
	C600.2,377.8,600,377.3,600.1,376.4z"/>
<path class="st4" d="M321.8,378c-0.7,0-1.3-0.2-1.5-0.9c-0.2-1,0.5-1.6,1.3-1.6c0.4,0,1.1,0.8,1.2,1.3
	C323.1,377.4,322.6,377.9,321.8,378z"/>
<path class="st4" d="M716.4,375.5c0.3,0.3,0.6,0.7,0.9,1c0.2,1.1,0.3,2.2,0.5,3.4c-1.1,0.8-1.9,2.5-3.8,1.3
	c-1.4-0.9-1.4-2.2-1.1-3.5C713.3,375.7,714.3,374.6,716.4,375.5z"/>
<path class="st4" d="M648.8,378.9c-0.6,0.1-1.2,0.1-1.8,0.2c-0.1-0.8-0.4-1.8,0.6-1.9C648.4,377.1,648.7,378.1,648.8,378.9z"/>
<path class="st4" d="M277,376.4c0,1.1-0.2,1.6-1,1.7c-0.7,0.1-1.3-0.1-1.5-0.9c-0.2-1,0.4-1.7,1.3-1.7
	C276.1,375.4,276.6,376.1,277,376.4z"/>
<path class="st4" d="M360.8,374.9c0.7,0.7,1.3,1.1,1.4,1.6c0.2,0.9-0.3,1.5-1.3,1.5c-0.8,0-1.1-0.6-1-1.3
	C360,376.3,360.4,375.8,360.8,374.9z"/>
<path class="st4" d="M286.6,292c0.4,0.9,0.6,1.7-0.6,2.2C284.2,293,284.7,292.3,286.6,292z"/>
<path class="st4" d="M678.3,379.1c0.3-1.8,0.3-3.8,2.8-4.1c0.2,1.4,0.7,2.9,0.5,4.2c-0.3,1.7-1.1,3.5-2.9,0.9
	C678.5,379.7,678.4,379.4,678.3,379.1z"/>
<path class="st3" d="M678.3,379.1c0.1,0.3,0.2,0.6,0.4,1c0,0-0.3,0.1-0.3,0.1S678,380,678,380C678.1,379.7,678.2,379.4,678.3,379.1z
	"/>
<path class="st4" d="M301,297.1c-0.7,0.1-1.3,0.1-2,0.2c-2.7-3.9-1.3-5.5,3.1-5.4C301.1,293.6,303.1,295.8,301,297.1z"/>
<path class="st4" d="M289.9,309c0.1-0.3,0.1-0.7,0.2-1c4.4-0.4,4.8,1.7,2.9,5C289.6,313.5,289.7,311.2,289.9,309z"/>
<path class="st4" d="M277.8,312.8c-0.9,0.1-1.8,0.2-2.7,0.3c-1.7-2.8-2.1-4.9,2.2-5.1C278.3,309.5,278.2,311.1,277.8,312.8z"/>
<path class="st4" d="M315.9,376.1c0,1.6,0,3.2,0,4.7c-1.5,0.8-3,1.1-4.3-0.4C310.8,376.8,311,374.2,315.9,376.1z"/>
<path class="st4" d="M399,382c-0.6,0-1.2-0.1-1.9-0.1c-1.9-2.2-1.7-4.5-0.1-6.8c1-0.4,2.1,1.2,3-0.1c-0.9,0.9,0.2,1.6,0.4,2.4
	c0,0.8,0,1.6,0,2.3C399.9,380.4,399.4,381.2,399,382z"/>
<path class="st4" d="M638,381c-0.9,0-1.9-0.1-2.8-0.1c-0.2-0.9-0.2-1.7,0.8-2.1c0.4,0,0.8,0,1.1,0C638.1,379.2,638.6,379.9,638,381z
	"/>
<path class="st4" d="M635.8,375.2c0.7,0.3,1.4,0.6,2.1,0.8c0.1,0.3,0.1,0.6,0,1c-1,0-1.9,0-2.9,0
	C635.3,376.4,635.6,375.8,635.8,375.2z"/>
<path class="st3" d="M635.1,377c1,0,1.9,0,2.9,0c-0.3,0.6-0.6,1.2-0.9,1.8c-0.4,0-0.8,0-1.1,0C635.7,378.2,635.4,377.6,635.1,377z"
	/>
<path class="st4" d="M366.6,376.5c0.3-0.3,0.6-0.7,0.9-1c0.8-0.1,1.6-0.3,2.4-0.4c1.3,1.8,1.4,3.7,0.9,5.8c-1.3,0.4-2.6,0.8-3.9,1.2
	c1.1-0.8,0-1.1-0.3-1.6C365.9,379.2,365.9,377.8,366.6,376.5z"/>
<path class="st3" d="M400.4,379.6c0-0.8,0-1.6,0-2.3c0.2-0.1,0.3-0.2,0.5-0.2C400.7,377.9,400.6,378.8,400.4,379.6z"/>
<path class="st2" d="M253.9,205c1.1-3.6,2.2-7.3,3.3-10.9c0.2-0.4,0.4-0.8,0.6-1.2c0,0,0,0,0,0c0.3,0.1,0.7,0.1,1,0.2
	c1.1,3.5,2.2,7,3.3,10.5c-0.1,0.7-0.2,1.5-0.3,2.2c-2.3,0-4.6,0-6.9,0C254.7,205.5,254.3,205.3,253.9,205z"/>
<path class="st5" d="M262,205.8c0.1-0.7,0.2-1.5,0.3-2.2C263.1,204.4,263.7,205.2,262,205.8z"/>
<path class="st3" d="M258.9,193.1c-0.3-0.1-0.7-0.1-1-0.2c0.1-0.2,0.3-0.4,0.4-0.6C258.5,192.5,258.7,192.8,258.9,193.1z"/>
<path class="st3" d="M257.9,192.9c-0.2,0.4-0.4,0.8-0.6,1.2C257.5,193.7,257.7,193.3,257.9,192.9z"/>
<path class="st5" d="M253.9,205c0.4,0.3,0.7,0.5,1.1,0.8C254.4,205.9,253.8,205.9,253.9,205z"/>
<path class="st2" d="M657.8,175.2c-0.3-0.5-0.7-0.8-0.7-1.1c-0.1-0.8,0.5-1.1,1.2-0.9c0.3,0.1,0.6,0.7,0.5,1.1
	C658.8,174.5,658.3,174.8,657.8,175.2z"/>
<path class="st3" d="M697.8,176.3c-0.5,0.8-0.6,0.1-0.8-0.2C697.3,176,697.6,176.1,697.8,176.3z"/>
<path class="st3" d="M649.8,176.3c-0.5,0.8-0.6,0.2-0.8-0.2C649.3,176,649.6,176.1,649.8,176.3z"/>
<path class="st2" d="M726.5,174.4c0,2.7-0.1,5.2-3.8,2.9c-1-1.5-0.7-2.9,0.6-3.9C724.8,172.2,725.7,173.4,726.5,174.4z"/>
<path class="st0" d="M487.8,452.8c1.7-1,2.5-1.7,2.8-1.6c2.5,1,3.4-0.4,4.5-2.2c0.4-0.7,2-0.1,1.9,0.6c-0.3,2.1,0.3,3.3,2.4,4
	c0.8,0.3,0.8,1.9,0.1,2c-2.3,0.3-4.2,0.9-5.2,3.3c-0.1,0.1-1.3,0.1-1.3-0.1C492.2,456.5,492.7,453.5,487.8,452.8z"/>
<path class="st2" d="M501,444.9c0.4,0.4,0.7,0.7,1.1,1.1C501.4,446,500.9,445.7,501,444.9z"/>
<path class="st2" d="M502,445.9c0.5,0.4,1,0.7,1.5,1.1C503,446.6,502.5,446.3,502,445.9z"/>
<path class="st2" d="M219,473.9c0.4,0.4,0.7,0.7,1.1,1.1C219.4,475,218.9,474.7,219,473.9z"/>
<path class="st2" d="M220,474.9c0.4,0.4,0.8,0.7,1.1,1.1C220.7,475.6,220.4,475.3,220,474.9z"/>
<path class="st2" d="M583.7,298.8c0-20.7,16.5-37,37.2-36.9c20.1,0.1,36.4,16.8,36.3,37.3c-0.1,19.8-17,36.6-36.8,36.6
	C600.5,335.9,583.7,318.9,583.7,298.8z M602,322c0.3,1.1,0.6,0.5,1,0c1.1-1.1,2.4-2.6,1.3-3.9c-3.7-4-1.7-7.7-0.1-11.5
	c1.3-3.1,0.9-6.1-0.3-9.2c-2-5.2-0.4-8,5-9.7c3.6-1.1,7.3-1.8,9.9-5.2c4.6-6.2,8.2-5.9,12.5,0.6c1.4,2.2,3.2,3.5,5.9,3.9
	c4.3,0.6,8.8,1.1,10.1,6.5c0.3,1.1,1.3,1.5,2.4,1.1c1.2-0.5,1.1-1.6,0.8-2.5c-0.9-2.5-1-5.3-3.1-7.2c-0.4-0.4-0.8-0.7-1.3-1.1
	c0,0,0.1,0,0.1,0c0.1-2.2-1.2-3.7-2.8-5c-0.6-0.7-1.3-1.4-1.9-2c-0.7-0.7-1.2-2-2.5-1.8c-1.1,0.2-1.1,1.3-1,2.2
	c-2.2,0.1-1.5,3.5-3.8,3.4c-0.7-0.3-1.3-0.6-2-1c-3.9-1.7-1.8-4.3-1-6.8c0.5-0.7,1.4-1.1,1.1-2.2c-0.4-0.2-0.8-0.5-1.2-0.7
	c-2.6-0.5-5.2-1-7.7-1.5c-1.7-0.8-3.5-0.8-5.2,0c-2.6,0.5-5.1,0.9-7.7,1.4c-0.4,0.3-0.8,0.5-1.2,0.8c0.4,2.1,1.6,3.7,3,5.2
	c0.2,2.8-2.5,2.7-3.9,4c-0.6,0.3-1.2,0.6-1.8,0.9c-0.7-1.3-1.5-2.6-2.2-3.9c-0.8-1.6-1.5-3-3.5-1c-4.9,4.7-8.4,10.1-9.6,16.8
	c-0.2,1.2-0.5,2.3,1.2,2.7c1.1,0.6,2.2,0.5,3.3,0c0.8,0,1.7,0,2.5,0c0.1,1,0.2,1.9,0.4,2.9c0,0.6,0,1.2,0,1.8
	c-0.3,3.9-3.2,1.8-5,2.2c-2.6-0.6-3.9-0.2-2.4,2.7c0.8,2.3,1.6,4.6,2.3,6.8c0.8,2,1.4,4.2,3.8,5.2l0,0c-0.4,1,0.3,1.5,1,2l0,0
	c0.7,0.7,1.4,1.4,2,2l0,0C600.4,321.8,601.1,322.2,602,322L602,322z M650.1,302.5c-2,0-4-0.2-3.2,2.9c0.2,1.8-0.5,5.3,0.7,5.2
	c2.5-0.3,2.3-3.3,2.5-5.5c0.1-0.7,0.2-1.4,0.3-2.2c0.1-0.1,0.3-0.2,0.3-0.3c0-0.1-0.1-0.3-0.2-0.3
	C650.3,302.3,650.2,302.4,650.1,302.5z M619.9,328.1L619.9,328.1c-0.3-2.4-2-2.8-4-3c-0.3,0-0.7,0-1,0c0.3-2.1-0.9-3.6-2.6-3.3
	c-2,0.3-3.5,2.9-3.2,4.5c0.3,2.2,2.8,2.1,4.8,1.6c1.7,1.7,3.8,0.9,5.8,1c1,0,2,0.8,2.9-0.3C621.7,328.3,620.8,328.2,619.9,328.1z
	 M638.2,320.1c-0.2,0.3-0.6,0.6-0.6,0.9c0.1,0.8,0.3,1.6,1.3,1.7c0.3,0,0.8-0.5,0.9-0.8C639.8,320.9,639.2,320.5,638.2,320.1z"/>
<path class="st2" d="M368.5,261.9c20.3,0,36.8,16.6,36.7,36.9c-0.1,20.2-16.7,36.9-36.9,37c-19.7,0.1-36.7-17.1-36.7-37.2
	C331.7,278.3,348.1,261.9,368.5,261.9z M346,319c0.7,0.7,1.4,1.3,2,2l0,0c0.9,0.8,1.3,2.7,3,1c0.9-0.8,2.1-2.2,1.5-2.9
	c-3.6-4.9-0.5-9.4,0.4-14.1c0.5-2.6-0.2-5.2-1-7.8c-2-6.3-1.3-7.7,5.1-9c4.8-1,9-2.1,11.8-7c1.8-3.3,5.5-4.3,8.7-0.4
	c0.6,0.7,1.7,1,2.5,1.5c0.2,3.2,1.9,4.6,5.1,5c4.5,0.5,9.8,0,10.4,6.7c0.1,0.9,1.1,1.3,2,1.1c1.3-0.3,1.5-1.3,1.1-2.3
	c-1.5-4.3-2.1-9.1-6.4-12c-0.6-1.4-1.4-2.8-2.8-3.6c-1.3-1.5-2.5-3.3-3.8,0c-1.4,1.1-1.2,3.5-3.4,3.9c-0.7-0.3-1.3-0.6-2-0.9
	c-1.2-1.4-2.5-2.9-2-5c0.4-0.8,0.9-1.5,1.3-2.3c0.3-0.6,0.5-1.1,0.8-1.7c-0.4-0.2-0.8-0.5-1.2-0.7c-2.6-0.5-5.1-1-7.7-1.5
	c-1.7-0.8-3.5-0.8-5.2,0c-2.6,0.5-5.1,0.9-7.7,1.4c-0.4,0.2-0.8,0.5-1.2,0.7c0.3,2.2,1.7,3.7,3,5.2c0.2,2.8-2.6,2.6-3.8,4
	c-1.6,0.7-2.4-0.4-3.3-1.3c-0.1-0.3-0.2-0.6-0.5-0.7c-0.1-0.3-0.2-0.6-0.3-0.9c-0.7-1-0.8-3.4-2.9-1.6c-5.7,4.9-9.3,10.9-10.4,18.4
	c-0.2,1.1,0.7,1.3,1.5,1.6c0.7,0.1,1.5,0.1,2.2,0.2c1.2,0,2.5,0,3.7,0c0,1.1,0,2.2,0,3.3c0,1,0,2.1,0,3.1c-1.7,0.1-3.3,0.2-5,0.4
	c-0.9-0.3-1.9-1-2.4,0.6c0,3.2,1,6.1,2.5,8.9c0.4,2,1.8,3.4,2.9,5C344.7,317.6,345.3,318.3,346,319L346,319z M395.6,305.7
	c1.2,1.3,2.1,1.2,2.5-0.7c0.3-1.1,0.7-2.3-0.9-2.6c-0.7-0.1-1.7,0.1-2.2,0.5C393.9,304,394.8,304.9,395.6,305.7z M363.3,324.9
	c0-1.9-1.1-3.3-2.8-3.5c-1.4-0.1-2,1.6-2.5,2.7c-2.5,5.3,2.1,3.3,4.1,3.9c2.7,1.8,5.6,0.7,8.6,0.5
	C367.8,327.9,366.4,324.7,363.3,324.9z M386.7,319.7c-1.1,0-1.6,0.4-1.3,1.1c0.2,0.7,0.7,1.5,1.3,1.8c0.6,0.3,1.2-0.5,1.1-1.1
	C387.6,320.8,387.1,320.2,386.7,319.7z"/>
<path class="st5" d="M606.3,280.9c0.6-0.3,1.2-0.6,1.8-0.9c-0.4,2.7,0.8,3.9,3.4,3.1c3.1-0.9,4.2-3,2.8-6.1c3-0.3,5.4-1.4,5.8-4.8
	c3.7-0.6,7.4-0.9,10.9,0.9c-0.9,2.4-2.9,5,1,6.8c0.1,1.2,0.7,2,1.9,2.2c1.6,0.7,3.1,2.1,5.1,1c2.4-0.4,4.7,0.5,7,0.9
	c0,0-0.1,0-0.1,0c0.4,0.4,0.8,0.7,1.3,1.1c2.1,1.9,2.3,4.7,3.1,7.2c0.3,1,0.5,2.1-0.8,2.5c-1.1,0.4-2.1,0-2.4-1.1
	c-1.3-5.4-5.8-5.9-10.1-6.5c-2.8-0.4-4.5-1.7-5.9-3.9c-4.3-6.6-8-6.9-12.5-0.6c-2.5,3.5-6.3,4.1-9.9,5.2c-5.4,1.7-7,4.4-5,9.7
	c1.2,3.1,1.6,6.1,0.3,9.2c-1.6,3.8-3.6,7.6,0.1,11.5c1.2,1.3-0.2,2.8-1.3,3.9c-0.3,0-0.6,0-1,0c0,0,0,0,0,0c-0.4-0.9-1.1-1.2-2.1-1
	c0,0,0,0,0,0c0.1-1.4-0.5-2.2-2-2c0,0,0,0,0,0c0.3-1,0.3-1.8-1-2c0,0,0,0,0,0c-0.5-1.8-1-3.7-1.6-5.5c2.4-1.3,2.9-3.4,2.4-5.9
	c3.5-0.5,3.2-3,2.8-5.5c0.3-2-1.2-1.6-2.3-1.8c-0.1-1-0.2-1.9-0.4-2.9c0-1.8-0.6-3.2-2.6-3.5c0.7-1.5,1.4-3,2-4.5
	C601.9,287.3,603.9,283.8,606.3,280.9z"/>
<path class="st0" d="M597.3,287.4c-0.7,1.5-1.4,3-2,4.5c-0.9,0.7-1,1.6-0.4,2.6c-1,0.3-1.9,0.6-2.9,0.9c-1.7-0.3-1.4-1.4-1.2-2.7
	c1.2-6.8,4.7-12.2,9.6-16.8c2.1-1.9,2.7-0.5,3.5,1C603.2,281.4,597.9,282.9,597.3,287.4z"/>
<path class="st0" d="M631,273.1c-3.5-1.8-7.2-1.4-10.9-0.9c-3.4-0.2-6.8-0.4-8.2,3.8l0,0.1c-1.4-1.5-2.6-3.1-3-5.2
	c0.4-0.3,0.8-0.5,1.2-0.8c2.6-0.5,5.1-0.9,7.7-1.4c1.7,0,3.5,0,5.2,0c2.6,0.5,5.2,1,7.7,1.5c0.4,0.2,0.8,0.5,1.2,0.7
	C632.4,272,631.5,272.4,631,273.1z"/>
<path class="st0" d="M600.6,300.2c0.4,2.5,0.7,5-2.8,5.5c-1.2,0-2.3,0-3.4,0c-1.5,0.9-1.5,2-0.4,3.3c0.3,0.9,0.5,1.9,0.8,2.8
	c-0.5,0-1,0.1-1.5,0.1c-0.8-2.3-1.6-4.6-2.3-6.8c-0.2-1.8,0.9-2.4,2.4-2.7c1.8-0.5,4.8,1.7,5-2.2
	C599.1,300.1,599.8,300.2,600.6,300.2z"/>
<path class="st3" d="M597.3,287.4c0.5-4.6,5.8-6,6.7-10.4c0.7,1.3,1.5,2.6,2.2,3.9C603.9,283.8,601.9,287.3,597.3,287.4z"/>
<path class="st3" d="M639.1,283.1c-2,1.1-3.5-0.3-5.1-1c0-0.4,0-0.8,0.1-1.2c2.4,0.1,1.6-3.3,3.8-3.4c1.2-0.1,2.3-0.3,3.5-0.4
	c0.6,0.7,1.3,1.4,1.9,2C640.8,279.3,639.8,281,639.1,283.1z"/>
<path class="st3" d="M614.3,277c1.4,3.1,0.3,5.2-2.8,6.1c-2.6,0.8-3.8-0.4-3.4-3.1c1.4-1.2,4.1-1.2,3.9-4c0,0,0-0.1,0-0.1
	C612.7,276.3,613.5,276.7,614.3,277z"/>
<path class="st3" d="M613.9,327.7c-2,0.5-4.5,0.7-4.8-1.6c-0.2-1.6,1.2-4.1,3.2-4.5c1.7-0.3,2.9,1.2,2.6,3.3
	C613.9,325.6,613.7,326.6,613.9,327.7z"/>
<path class="st3" d="M639.1,283.1c0.7-2.1,1.8-3.8,4.2-4.1c1.6,1.3,2.9,2.8,2.8,5C643.7,283.5,641.5,282.7,639.1,283.1z"/>
<path class="st5" d="M650,305.1c-0.2,2.2,0,5.2-2.5,5.5c-1.1,0.1-0.5-3.4-0.7-5.2C648,305.3,649,305.2,650,305.1z"/>
<path class="st3" d="M613.9,327.7c-0.2-1.1-0.1-2.1,1-2.8c0.3,0,0.7,0,1,0c0.1,2.6,1.8,3.1,4,3.1c0,0,0,0,0,0
	c-0.1,0.2-0.1,0.4-0.2,0.6C617.7,328.7,615.6,329.4,613.9,327.7z"/>
<path class="st3" d="M594.9,294.5c-0.6-1-0.5-1.8,0.4-2.6c2,0.4,2.6,1.7,2.6,3.5c-0.8,0-1.7,0-2.5,0
	C595.2,295.2,595.1,294.8,594.9,294.5z"/>
<path class="st3" d="M593.2,311.9c0.5,0,1-0.1,1.5-0.1c0.2-0.1,0.5-0.2,0.7-0.2c0.5,1.8,1,3.7,1.6,5.5
	C594.6,316.2,594,314,593.2,311.9z"/>
<path class="st5" d="M619.9,328.1c-2.1,0-3.8-0.5-4-3.1C617.9,325.3,619.6,325.7,619.9,328.1z"/>
<path class="st3" d="M638.2,320.1c1,0.4,1.6,0.8,1.5,1.7c0,0.3-0.6,0.9-0.9,0.8c-0.9-0.1-1.2-0.9-1.3-1.7
	C637.6,320.7,638,320.4,638.2,320.1z"/>
<path class="st0" d="M650,305.1c-1,0.1-2.1,0.2-3.1,0.3c-0.9-3.1,1.2-2.9,3.2-2.9l0,0.4l0.4,0.1C650.3,303.7,650.2,304.4,650,305.1z
	"/>
<path class="st3" d="M623.1,268.7c-1.7,0-3.5,0-5.2,0C619.6,267.9,621.4,267.9,623.1,268.7z"/>
<path class="st3" d="M600.6,300.2c-0.8,0-1.5,0-2.3-0.1c0-0.6,0-1.2,0-1.8C599.3,298.6,600.9,298.2,600.6,300.2z"/>
<path class="st3" d="M593.3,302.3c-1.5,0.3-2.6,1-2.4,2.7C589.3,302.1,590.7,301.7,593.3,302.3z"/>
<path class="st0" d="M641.3,276.9c-1.2,0.1-2.3,0.3-3.5,0.4c0-0.9-0.1-2,1-2.2C640.1,275,640.6,276.2,641.3,276.9z"/>
<path class="st3" d="M634,280.8c0,0.4,0,0.8-0.1,1.2c-1.2-0.2-1.8-1-1.9-2.2C632.7,280.2,633.3,280.5,634,280.8z"/>
<path class="st5" d="M619.7,328.7c0-0.2,0.1-0.4,0.2-0.6c0.9,0.1,1.8,0.2,2.7,0.3C621.7,329.5,620.7,328.7,619.7,328.7z"/>
<path class="st5" d="M594.9,294.5c0.1,0.3,0.3,0.6,0.4,0.9c-1.1,0.5-2.2,0.7-3.3,0C593,295.2,594,294.8,594.9,294.5z"/>
<path class="st3" d="M598,319c1.6-0.2,2.1,0.6,2,2C599.3,320.4,598.6,319.7,598,319z"/>
<path class="st3" d="M597,317.1c1.3,0.2,1.3,1,1,2C597.2,318.6,596.6,318.1,597,317.1z"/>
<path class="st3" d="M600,321c0.9-0.1,1.6,0.2,2.1,1C601.1,322.2,600.4,321.8,600,321z"/>
<path class="st3" d="M602,322c0.3-0.1,0.6-0.1,1,0C602.6,322.5,602.3,323.1,602,322z"/>
<path class="st3" d="M650.1,302.5c0.1-0.1,0.3-0.2,0.4-0.2c0.1,0,0.2,0.2,0.2,0.3c0,0.1-0.2,0.2-0.3,0.3c0,0-0.4-0.1-0.4-0.1
	L650.1,302.5z"/>
<path class="st5" d="M610.2,270.1c-0.4,0.3-0.8,0.5-1.2,0.8C609.4,270.6,609.8,270.4,610.2,270.1z"/>
<path class="st3" d="M632.1,270.9c-0.4-0.2-0.8-0.5-1.2-0.7C631.3,270.4,631.7,270.7,632.1,270.9z"/>
<path class="st3" d="M647.3,285c-0.4-0.4-0.8-0.7-1.3-1.1C646.4,284.3,646.8,284.7,647.3,285z"/>
<path class="st5" d="M346,299c0-1.1,0-2.2,0-3.3c0.2-8.2,1.8-10.2,10.3-12.9c2.2,1.7,3.9-0.1,5.7-0.8c2.7-3.3,5.4-6.6,8.1-9.9
	c2,0.1,3.9,0.1,5.9,0.2c0.1,1.3,0.9,2.2,2,2.8c-0.5,2.1,0.8,3.5,2,5c0.1,0.6,0.2,1.2,0.3,1.8c-0.1,0.1-0.3,0.3-0.4,0.4
	c-0.8-0.5-1.9-0.8-2.5-1.5c-3.2-3.8-6.8-2.8-8.7,0.4c-2.8,4.9-7,6-11.8,7c-6.4,1.4-7.1,2.7-5.1,9c0.8,2.6,1.5,5.2,1,7.8
	c-0.9,4.7-4,9.2-0.4,14.1c0.5,0.8-0.6,2.1-1.5,2.9c-0.8-0.9-1.8-1.3-3-1c0,0,0,0,0,0c0.1-1.5-0.4-2.3-2-2c0,0,0,0,0,0
	c0.1-0.5,0.1-1,0.2-1.5c-0.7-1.5-1.4-3-2.1-4.5c2.8-1.6,1.8-4.4,2.1-6.9c3.2-0.3,3.3-2.5,3-4.9C349,299.2,348.1,298.2,346,299z"/>
<path class="st5" d="M392.1,280.5c4.3,2.8,4.9,7.6,6.4,12c0.3,1,0.2,2-1.1,2.3c-0.9,0.2-1.9-0.2-2-1.1c-0.6-6.7-5.9-6.2-10.4-6.7
	c-3.2-0.3-4.9-1.8-5.1-5c0.1-0.1,0.3-0.3,0.4-0.4c0.6,0.1,1.1,0.2,1.7,0.3c2.2,1.3,4.4,2.2,6.2-0.6
	C389.2,280,390.6,279.9,392.1,280.5z"/>
<path class="st0" d="M352.3,278c0.3,0.2,0.4,0.4,0.5,0.7c-4.7,2.7-7.4,7.2-9.6,11.9c-0.8,0.7-1.2,1.5-0.8,2.5
	c-0.1,0.6-0.2,1.2-0.3,1.8c-0.7,0.2-1.3,0.3-2,0.5c-0.8-0.3-1.6-0.4-1.5-1.6c1.1-7.5,4.8-13.5,10.4-18.4c2.1-1.8,2.2,0.6,2.9,1.6
	C352,277.4,352.2,277.7,352.3,278z"/>
<path class="st0" d="M375.9,272.2c-2-0.1-3.9-0.1-5.9-0.2c-3.6,0-7.7-1.1-9.3,3.9c-0.3-0.1-0.6,0-0.8,0.2c-1.3-1.6-2.7-3.1-3-5.2
	c0.4-0.2,0.8-0.5,1.2-0.7c2.6-0.5,5.1-0.9,7.7-1.4c1.7,0,3.5,0,5.2,0c2.6,0.5,5.1,1,7.7,1.5c0.4,0.2,0.8,0.5,1.2,0.7
	c-0.3,0.6-0.5,1.1-0.8,1.7C378.2,272.5,377,272.3,375.9,272.2z"/>
<path class="st3" d="M342,295c0.1-0.6,0.2-1.2,0.3-1.8c1-0.6,1.3-1.5,0.8-2.5c2.3-4.7,4.9-9.1,9.6-11.9c0.9,1,1.8,2.1,3.3,1.3
	c0,0.9,0.1,1.8,0.1,2.7c-8.4,2.7-10,4.7-10.3,12.9c-1.2,0-2.5,0-3.7,0C342.1,295.5,342,295.2,342,295z"/>
<path class="st3" d="M392.1,280.5c-1.5-0.6-2.9-0.5-3.9,0.9c-1.9,2.8-4,1.9-6.2,0.6c0-0.4,0-0.8,0-1.2c2.2-0.3,2-2.8,3.4-3.9
	c1.3,0,2.5,0,3.8,0C390.7,277.8,391.4,279.1,392.1,280.5z"/>
<path class="st0" d="M341.1,311.9c-1.5-2.8-2.4-5.7-2.5-8.9c0.8-0.2,1.6-0.4,2.4-0.6c1.7-0.1,3.3-0.2,5-0.4c0,2.1-2.6,1.8-3.2,3.4
	c-0.9,0.6-1.1,1.5-1.1,2.5c-0.7,0.8-0.4,1.4,0.4,2c0.2,0.7,0.4,1.4,0.6,2.1C342.3,312.1,341.7,312,341.1,311.9z"/>
<path class="st3" d="M362,328.1c-2-0.6-6.6,1.4-4.1-3.9c0.5-1.1,1.1-2.8,2.5-2.7c1.7,0.1,2.8,1.6,2.8,3.5
	C362.2,325.7,362,326.9,362,328.1z"/>
<path class="st3" d="M342.8,305.5c0.6-1.6,3.2-1.3,3.2-3.4c0-1,0-2.1,0-3.1c2.1-0.8,3,0.2,3.2,2.2c0.2,2.4,0.1,4.6-3,4.9
	C345,306,343.9,305.8,342.8,305.5z"/>
<path class="st3" d="M356.2,282.8c0-0.9-0.1-1.8-0.1-2.7c1.2-1.4,4.1-1.3,3.8-4c0.2-0.2,0.5-0.3,0.8-0.2c1.5,1.8,1.8,3.8,1.2,6
	C360.1,282.6,358.4,284.5,356.2,282.8z"/>
<path class="st5" d="M362,328.1c0-1.2,0.2-2.4,1.2-3.2c3.1-0.2,4.6,3,7.3,3.7C367.7,328.8,364.8,329.9,362,328.1z"/>
<path class="st3" d="M341.1,311.9c0.6,0.1,1.1,0.1,1.7,0.2c0.4,0.3,0.8,0.6,1.2,0.9c0.7,1.5,1.4,3,2.1,4.5c-0.7-0.2-1.4-0.4-2.1-0.5
	C342.9,315.4,341.5,313.9,341.1,311.9z"/>
<path class="st3" d="M386.7,319.7c0.3,0.5,0.9,1.1,1,1.8c0.1,0.6-0.4,1.4-1.1,1.1c-0.6-0.3-1.1-1.1-1.3-1.8
	C385.2,320.2,385.7,319.7,386.7,319.7z"/>
<path class="st3" d="M375.9,272.2c1.1,0.2,2.2,0.3,3.4,0.5c-0.4,0.8-0.9,1.5-1.3,2.3C376.8,274.4,376,273.5,375.9,272.2z"/>
<path class="st3" d="M395.6,305.7c-0.8-0.8-1.6-1.7-0.5-2.8c0.5-0.5,1.5-0.6,2.2-0.5c1.6,0.3,1.2,1.5,0.9,2.6
	C397.2,305.3,396.4,305.5,395.6,305.7z"/>
<path class="st3" d="M348,321c1.2-0.3,2.2,0,3,1C349.3,323.7,348.8,321.8,348,321z"/>
<path class="st0" d="M389.3,277c-1.3,0-2.5,0-3.8,0C386.7,273.6,388,275.4,389.3,277z"/>
<path class="st3" d="M371.1,268.7c-1.7,0-3.5,0-5.2,0C367.6,267.9,369.4,267.9,371.1,268.7z"/>
<path class="st3" d="M382,280.8c0,0.4,0,0.8,0,1.2c-0.6-0.1-1.1-0.2-1.7-0.3c-0.1-0.6-0.2-1.2-0.3-1.8
	C380.7,280.2,381.3,280.5,382,280.8z"/>
<path class="st3" d="M395.6,305.7c0.8-0.2,1.6-0.4,2.5-0.7C397.7,306.9,396.8,307,395.6,305.7z"/>
<path class="st3" d="M341,302.5c-0.8,0.2-1.6,0.4-2.4,0.6C339.1,301.4,340.2,302.2,341,302.5z"/>
<path class="st3" d="M344,317c0.7,0.2,1.4,0.4,2.1,0.5c-0.1,0.5-0.1,1-0.2,1.5C345.3,318.3,344.7,317.6,344,317z"/>
<path class="st3" d="M346,319c1.6-0.3,2.1,0.6,2,2C347.3,320.4,346.6,319.7,346,319z"/>
<path class="st5" d="M342,295c0,0.2,0.1,0.5,0.3,0.7c-0.7-0.1-1.5-0.1-2.2-0.2C340.7,295.3,341.3,295.2,342,295z"/>
<path class="st5" d="M358.2,270.1c-0.4,0.2-0.8,0.5-1.2,0.7C357.4,270.6,357.8,270.3,358.2,270.1z"/>
<path class="st3" d="M380,270.9c-0.4-0.2-0.8-0.5-1.2-0.7C379.2,270.4,379.6,270.7,380,270.9z"/>
<path class="st3" d="M352.3,278c-0.1-0.3-0.2-0.6-0.3-0.9C352,277.4,352.2,277.7,352.3,278z"/>
<path class="st3" d="M614.3,277c-0.8-0.4-1.6-0.7-2.4-1.1c1.4-4.2,4.8-3.9,8.2-3.8C619.6,275.6,617.3,276.7,614.3,277z"/>
<path class="st3" d="M595.4,311.6c-0.2,0.1-0.5,0.2-0.7,0.2c-0.3-0.9-0.5-1.9-0.8-2.8c0.8-1,0.8-2.1,0.4-3.3c1.2,0,2.3,0,3.4,0
	C598.3,308.2,597.8,310.2,595.4,311.6z"/>
<path class="st3" d="M594.4,305.7c0.3,1.2,0.4,2.3-0.4,3.3C592.8,307.7,592.8,306.6,594.4,305.7z"/>
<path class="st3" d="M361.9,281.9c0.7-2.2,0.3-4.2-1.2-6c1.5-5,5.6-3.9,9.3-3.9C367.3,275.3,364.6,278.6,361.9,281.9z"/>
<path class="st3" d="M344,313c-0.4-0.3-0.8-0.6-1.2-0.9c-0.2-0.7-0.4-1.4-0.6-2.1c0.6-0.8,0.5-1.5-0.4-2c0-1,0.2-1.9,1.1-2.5
	c1.1,0.2,2.2,0.4,3.3,0.6C345.8,308.6,346.8,311.4,344,313z"/>
<path class="st3" d="M343.1,290.7c0.5,1.1,0.2,1.9-0.8,2.5C341.9,292.1,342.3,291.3,343.1,290.7z"/>
<path class="st3" d="M341.8,308c0.9,0.5,0.9,1.2,0.4,2C341.4,309.5,341.1,308.8,341.8,308z"/>
<circle class="st6" cx="210.2" cy="146.2" r="7.8"/>
<g>
	<path class="st5" d="M209.8,153.9c-2.1,0.4-3.7-0.7-5.1-2.4c1-5.8,3.5-9.7,8.6-10.8c0.3-0.1,0.6-0.8,0.9-1.3
		c2.4,2.1,4.9,4.1,3.4,8.5c-0.5-0.3-1.2-0.3-1.6-0.8c-2-2.2-4.2-2.6-6.4-0.9c-2.4,1.9-0.5,4.2,0.1,6.3
		C209.8,153.1,209.7,153.5,209.8,153.9z"/>
	<path class="st3" d="M214.1,139.4c-0.3,0.4-0.5,1.2-0.9,1.3c-5.1,1.1-7.6,5-8.6,10.8c-2.9-2.6-3.6-5.7-1.4-9.5
		C205.8,137.8,210.1,136.8,214.1,139.4z"/>
	<path class="st2" d="M209.8,153.9c0-0.4,0-0.9-0.1-1.3c-0.6-2.1-2.5-4.4-0.1-6.3c2.1-1.7,4.4-1.3,6.4,0.9c0.4,0.4,1,0.5,1.6,0.8
		C216.1,152.2,213.6,154.2,209.8,153.9z"/>
</g>
<polygon class="st0" points="215,146.9 211.1,146.9 211.1,150.9 208.6,150.9 208.6,146.9 204.6,146.9 204.6,144.4 208.6,144.4 
	208.6,140.5 211.1,140.5 211.1,144.4 215,144.4 "/>
<circle class="st6" cx="780.2" cy="146.2" r="7.8"/>
<g>
	<path class="st5" d="M779.8,153.9c-2.1,0.4-3.7-0.7-5.1-2.4c1-5.8,3.5-9.7,8.6-10.8c0.3-0.1,0.6-0.8,0.9-1.3
		c2.4,2.1,4.9,4.1,3.4,8.5c-0.5-0.3-1.2-0.3-1.6-0.8c-2-2.2-4.2-2.6-6.4-0.9c-2.4,1.9-0.5,4.2,0.1,6.3
		C779.8,153.1,779.7,153.5,779.8,153.9z"/>
	<path class="st3" d="M784.1,139.4c-0.3,0.4-0.5,1.2-0.9,1.3c-5.1,1.1-7.6,5-8.6,10.8c-2.9-2.6-3.6-5.7-1.4-9.5
		C775.8,137.8,780.1,136.8,784.1,139.4z"/>
	<path class="st2" d="M779.8,153.9c0-0.4,0-0.9-0.1-1.3c-0.6-2.1-2.5-4.4-0.1-6.3c2.1-1.7,4.4-1.3,6.4,0.9c0.4,0.4,1,0.5,1.6,0.8
		C786.1,152.2,783.6,154.2,779.8,153.9z"/>
</g>
<polygon class="st0" points="785,146.9 781.1,146.9 781.1,150.9 778.6,150.9 778.6,146.9 774.6,146.9 774.6,144.4 778.6,144.4 
	778.6,140.5 781.1,140.5 781.1,144.4 785,144.4 "/>
<ellipse class="st6" cx="213.4" cy="482.2" rx="12.6" ry="12.8"/>
<g>
	<path class="st5" d="M211.7,494.9c-3.3,0.6-5.9-1.2-8.2-4c1.6-9.6,5.7-16,13.9-17.8c0.5-0.1,0.9-1.4,1.4-2.1
		c3.8,3.5,8,6.8,5.4,14.1c-0.9-0.4-1.9-0.6-2.6-1.3c-3.2-3.6-6.8-4.3-10.3-1.4c-3.8,3.2-0.8,7,0.2,10.5
		C211.7,493.4,211.6,494.2,211.7,494.9z"/>
	<path class="st3" d="M218.8,471c-0.5,0.7-0.8,2-1.4,2.1c-8.2,1.8-12.3,8.3-13.9,17.8c-4.7-4.4-5.8-9.5-2.3-15.7
		C205.3,468.3,212.3,466.6,218.8,471z"/>
	<path class="st2" d="M211.7,494.9c0-0.7,0.1-1.4-0.1-2.1c-1-3.5-4-7.3-0.2-10.5c3.4-2.9,7.1-2.2,10.3,1.4c0.6,0.7,1.7,0.9,2.6,1.3
		C221.9,492,217.8,495.4,211.7,494.9z"/>
</g>
<polygon class="st0" points="221.2,483.3 214.8,483.3 214.8,489.9 210.7,489.9 210.7,483.3 204.4,483.3 204.4,479.2 210.7,479.2 
	210.7,472.7 214.8,472.7 214.8,479.2 221.2,479.2 "/>
<path class="st2" d="M766.6,479.9c0.2-0.2,0.2-0.5,0.2-0.8c0.1-0.6,0.3-1.2,0.4-1.9c0,0-0.1-0.1-0.1-0.1c1.5,0.2,1.5-1.4,2.3-2.1
	c0.4,0,0.6-0.2,0.6-0.5c0.6-0.9,2.1-1,2.1-2.4l0,0c3.6,0,7.2,0,10.8,0c0,0-0.1,0-0.1,0c-0.4,1.1,1,1.1,1.2,1.9
	c-3.4,0.4-6.7-1.4-10.2,0.4c-5,2.5-5.4,7.1-6.7,11.4C767,483.9,766.8,481.9,766.6,479.9z"/>
<path class="st3" d="M772.1,471.1c4.6-3.4,8.9-2.6,13,0.9c0,0,0,0,0,0c-0.7,0-1.4,0.1-2.1,0.1c0,0,0.1,0,0.1,0
	C779.6,468.3,775.8,470.2,772.1,471.1L772.1,471.1z"/>
<path class="st3" d="M785.1,493.1c-4.2,3.4-8.6,3.9-13.3,1.1c0,0,0.2-0.3,0.2-0.3c3.8,1,7.6,2.6,11-1l0,0c0.7,0,1.3,0,2,0
	C785,493,785.1,493.1,785.1,493.1z"/>
<path class="st3" d="M789,477c3,3.6,2.6,7.3,0.2,11.1c0,0-0.1-0.1-0.1-0.1C790.7,484.3,790.2,480.7,789,477L789,477z"/>
<path class="st3" d="M766.6,479.9c0.2,2,0.3,4,0.5,6c0,0.7-0.1,1.4-0.1,2.2c-2.2-2.4-2.7-5.1-1.7-8.2
	C765.8,479.9,766.2,479.9,766.6,479.9z"/>
<path class="st3" d="M765.4,479.8c-1,3-0.5,5.8,1.7,8.2l0,0c0,0.7,0,1.4,0,2l-0.1,0.1C764.4,487,762.6,483.7,765.4,479.8z"/>
<path class="st3" d="M770,474.5c-0.1,0.3-0.3,0.5-0.6,0.5c-0.8,0-1.6,0-2.4-0.1c0,0,0,0,0,0c0.4-1.6,1.4-2.7,3-3l0,0
	C770,472.8,770,473.7,770,474.5z"/>
<path class="st3" d="M771.8,494.3c-0.6-0.4-1.3-0.8-1.9-1.1c0,0,0.1-0.1,0.1-0.1c0.7,0.3,1.3,0.7,2,1
	C772,494,771.8,494.3,771.8,494.3z"/>
<path class="st3" d="M789.1,488.1c0,0.9-0.1,1.6-1,2c0,0-0.1-0.1-0.1-0.1c0-0.7,0-1.3,0-2c0,0,0,0,0,0c0.3,0,0.7,0,1,0L789.1,488.1z
	"/>
<path class="st3" d="M767.3,477.2c-0.1,0.6-0.3,1.2-0.4,1.9c0,0-0.4,0-0.4,0s-0.4-0.1-0.4-0.1c0-0.7,0-1.4-0.1-2.1
	c0,0-0.1,0.1-0.1,0.1C766.4,477.1,766.8,477.1,767.3,477.2z"/>
<path class="st3" d="M766,476.9c0,0.7,0,1.4,0.1,2.1C764.5,478.4,764.6,477.7,766,476.9z"/>
<path class="st3" d="M788,475c1,0.4,1.2,1.1,0.9,2.1c0,0,0.1-0.1,0.1-0.1c-0.3,0-0.7,0-1,0h0C788,476.3,788,475.7,788,475L788,475z"
	/>
<path class="st3" d="M767.3,477.2c-0.4-0.1-0.9-0.1-1.3-0.2c-0.2-0.9,0-1.7,1-2c0,0,0,0,0,0c0,0.7,0.1,1.4,0.1,2.1L767.3,477.2z"/>
<path class="st3" d="M770,472c0.4-1,1.1-1.2,2.1-0.9c0,0-0.1-0.1-0.1-0.1c0,0.4,0.1,0.8,0.1,1.1c0,0,0,0,0,0
	C771.4,472.1,770.7,472,770,472L770,472z"/>
<path class="st3" d="M785,472c0.4,0.3,0.8,0.5,1.2,0.8c0,0-0.2,0.2-0.2,0.2C785.7,472.7,785.3,472.3,785,472
	C785,472,785,472,785,472z"/>
<path class="st3" d="M786.2,472.8c0.3,0.3,0.7,0.7,1,1c0,0-0.2,0.2-0.2,0.2c-0.3-0.3-0.7-0.7-1-1C786,473,786.2,472.8,786.2,472.8z"
	/>
<path class="st3" d="M787.2,473.8c0.3,0.4,0.6,0.8,0.8,1.2c0,0,0,0,0,0c-0.3-0.3-0.7-0.7-1-1L787.2,473.8z"/>
<path class="st3" d="M767.7,491.3c-0.3-0.4-0.6-0.8-0.8-1.1c0,0,0.1-0.1,0.1-0.1c0.3,0.3,0.7,0.7,1,1
	C768,491,767.7,491.3,767.7,491.3z"/>
<path class="st3" d="M788.1,490.1c-0.3,0.4-0.5,0.8-0.8,1.2c0,0-0.3-0.3-0.3-0.3c0.3-0.3,0.7-0.7,1-1L788.1,490.1z"/>
<path class="st3" d="M768.7,492.3c-0.3-0.3-0.7-0.7-1-1c0,0,0.3-0.3,0.3-0.3c0.3,0.3,0.7,0.7,1,1C769,492,768.7,492.3,768.7,492.3z"
	/>
<path class="st3" d="M787.3,491.3c-0.3,0.3-0.7,0.7-1,1c0,0-0.3-0.3-0.3-0.3c0.3-0.3,0.7-0.7,1-1C787,491,787.3,491.3,787.3,491.3z"
	/>
<path class="st3" d="M769.9,493.1c-0.4-0.3-0.8-0.6-1.2-0.8c0,0,0.3-0.3,0.3-0.3c0.3,0.3,0.7,0.7,1,1
	C770,493,769.9,493.1,769.9,493.1z"/>
<path class="st3" d="M786.3,492.3c-0.4,0.3-0.8,0.6-1.2,0.9c0,0-0.1-0.1-0.1-0.1c0.3-0.3,0.7-0.7,1-1L786.3,492.3z"/>
<path class="st3" d="M772.1,472.1c0-0.4-0.1-0.8-0.1-1.1c3.8-0.8,7.7-2.7,11,1.1C779.3,472.1,775.7,472.1,772.1,472.1z"/>
<path class="st3" d="M788,477c-0.6-0.3-1.3-0.7-1.9-1c-0.4-0.4-0.8-0.7-1.1-1.1c0,0,0.1,0.1,0.1,0.1c-0.4-0.4-0.7-0.7-1.1-1.1
	c0,0,0.1,0.1,0.1,0.1c-0.2-0.7-1.6-0.7-1.2-1.9c0.7,0,1.4-0.1,2.1-0.1c0.3,0.3,0.7,0.7,1,1c0.3,0.3,0.7,0.7,1,1c0.3,0.3,0.7,0.7,1,1
	C788,475.7,788,476.3,788,477z"/>
<path class="st3" d="M770,472c0.7,0,1.4,0.1,2.1,0.1c0,1.4-1.4,1.5-2.1,2.4C770,473.7,770,472.8,770,472z"/>
<path class="st3" d="M767.1,477.1c0-0.7-0.1-1.4-0.1-2.1c0.8,0,1.6,0,2.4,0.1C768.6,475.7,768.7,477.3,767.1,477.1z"/>
<path class="st3" d="M767,488c4.4,4.8,9.8,6,16,5c-3.4,3.6-7.2,2-11,1c-0.7-0.3-1.3-0.7-2-1c-0.3-0.3-0.7-0.7-1-1
	c-0.3-0.3-0.7-0.7-1-1c-0.3-0.3-0.7-0.7-1-1C767,489.3,767,488.7,767,488z"/>
<path class="st3" d="M783,493c1.1-2.2,2.8-3.9,5-5c0,0.7,0,1.3,0,2c-0.3,0.3-0.7,0.7-1,1c-0.3,0.3-0.7,0.7-1,1c-0.3,0.3-0.7,0.7-1,1
	C784.4,493,783.7,493,783,493z"/>
<path class="st3" d="M788,488c0-3.7,0-7.3,0-11c0.3,0,0.7,0,1,0c1.2,3.7,1.6,7.4,0,11C788.7,488,788.3,488,788,488z"/>
<path class="st2" d="M784,473.9c0.4,0.4,0.7,0.7,1.1,1.1C784.4,475,783.9,474.7,784,473.9z"/>
<path class="st2" d="M785,474.9c0.4,0.4,0.8,0.7,1.1,1.1C785.7,475.6,785.4,475.3,785,474.9z"/>
<ellipse class="st6" cx="778.4" cy="482.2" rx="12.6" ry="12.8"/>
<g>
	<path class="st5" d="M776.7,494.9c-3.3,0.6-5.9-1.2-8.2-4c1.6-9.6,5.7-16,13.9-17.8c0.5-0.1,0.9-1.4,1.4-2.1
		c3.8,3.5,8,6.8,5.4,14.1c-0.9-0.4-1.9-0.6-2.6-1.3c-3.2-3.6-6.8-4.3-10.3-1.4c-3.8,3.2-0.8,7,0.2,10.5
		C776.7,493.4,776.6,494.2,776.7,494.9z"/>
	<path class="st3" d="M783.8,471c-0.5,0.7-0.8,2-1.4,2.1c-8.2,1.8-12.3,8.3-13.9,17.8c-4.7-4.4-5.8-9.5-2.3-15.7
		C770.3,468.3,777.3,466.6,783.8,471z"/>
	<path class="st2" d="M776.7,494.9c0-0.7,0.1-1.4-0.1-2.1c-1-3.5-4-7.3-0.2-10.5c3.4-2.9,7.1-2.2,10.3,1.4c0.6,0.7,1.7,0.9,2.6,1.3
		C786.9,492,782.8,495.4,776.7,494.9z"/>
</g>
<polygon class="st0" points="786.2,483.3 779.8,483.3 779.8,489.9 775.7,489.9 775.7,483.3 769.4,483.3 769.4,479.2 775.7,479.2 
	775.7,472.7 779.8,472.7 779.8,479.2 786.2,479.2 "/>
</svg>
